<svg xmlns="http://www.w3.org/2000/svg" width="324" height="310.571" viewBox="0 0 324 310.571">
  <g id="Grupo_128097" data-name="Grupo 128097" transform="translate(-27.074 5477.294)">
    <path id="Trazado_116770" data-name="Trazado 116770" d="M361.283-5445.768l2.148-4.4-4.41,2.134H231.274l-2.743-2.794-1.486-3.085-1.543,3.053-2.91,2.827H88.541l-4.561-2.208,2.3,4.492v129.792l-2.275,1.1,2.275,1.174v138.374l-2.362,4.676,4.649-2.4H225.88l1.164,2.273,1.11-2.273H358.682l7.122,7.121-4.521-9.381v-137.676h4.778v-3.68h-4.778Zm-91.223,222.73-13.977-7.209,14.885-30.5,17.867,17.866Zm21.378-17.235,58.357,58.358-76.33-39.367Zm2.723-76.373h-.98l-17.724-36.785,29.651,14.359Zm14.259-20.822,43,20.822H298.256ZM289.1-5316.646H232.5l38.2-38.2Zm-60.251-1.552V-5376l38.946,18.858Zm0-61.892v-.817l23.748-11.5,14.966,31.063Zm0-4.906v-56.7L251-5395.721Zm-3.68,1.783-1.384.669L200.743-5393.7l24.422-48.335Zm-5.606,2.714-33.741,16.34,13.265-26.255Zm4.221,2.044,1.384.671v61.138h-4.894l-38.837-38.836,1.65-3.264Zm-8.714,61.809H161.812l17.876-35.378Zm-57.378,0H156.5l-11.99-23.421,31.755-15.378.683.683Zm-5.323,0H96.14l45.058-21.817Zm1.884,3.68.8,1.555L143.4-5288.363l-47.7-24.6Zm2.87,5.607,18.132,35.423-28.581-14.74Zm2.053-4.063.779-1.544h58.794l2.433,2.434-40.711,40.71Zm64.608,3.492,1.384,1.385v58.924l-1.384.714-40.259-20.763Zm5.064,67.775,22.353,11.527-22.353,45.794Zm0-4.14v-1.084l37.927-19.561,1.445,1.444-15.4,31.561Zm0-5.225v-53.348l35.2,35.2Zm-9.078,4.684-20.973,10.815-15.046-29.394Zm4.014,2.069,1.384.714v59.55l-24.694-48.244Zm30.688,15.827,12.958,6.683-33.5,35.393Zm13-42.5-38.629-38.628v-4.9h62.023l.743,1.544-19.265,39.467Zm26.172-37.759,9.362,19.434-25.189,12.989Zm2.055-4.212.758-1.553h55.4l-45.583,23.511Zm14.333-29.364,7.09-14.524,33.585,34.223Zm-3.312-1.6L274.051-5358.2l20.3-20.3,20.035,20.415Zm-9.766-38.725,56.006-56.007L316.1-5361.6Zm-2.577-2.627-19.232-19.6,75.289-36.458Zm-2.6,2.6-20.02,20.019-15.851-32.9,15.746-7.627Zm-37.468-16.2L233.5-5440.509l35.429,36.1Zm-56.877,2.021-15.9-7.7,38.88-37.779Zm-1.66,3.286-15.411,30.5-3.343,1.62-19.639-19.64,21.343-20.739Zm-41,9.879-57.649-57.649,78.07,37.806Zm-2.639,2.565-18.6,18.073-38.456-75.127Zm2.6,2.6,18.772,18.773-30.678,14.855-7.541-14.731ZM139.52-5341.74l-41.944,20.311,34.955-33.965Zm2.22,56.661-7.262,14.373-36.84-37.117Zm3.271,1.687,32.346,16.683-19.529,19.529-20.617-20.771Zm10.215,38.814-60.284,60.284,40.519-80.2Zm2.592,2.612,19.09,19.234-79.142,40.817Zm2.6-2.6,19.076-19.076,16.028,31.313-15.186,7.832Zm36.78,15.511,22.776,44.5-36.921-37.2Zm73.632,10.557,81.031,41.792H231.28Zm23.137-24.444,20.3-21.449,38.815,80.563Zm-2.6-2.6-18.69-18.69,2.443-5,29.487-15.208,7.954,16.509Zm16.512-40.589,42.79-22.071-35.4,37.406ZM357.6-5319.3l-38.767-39.5,38.767-79.421Zm-6.181-125.049-79,38.254-37.541-38.254Zm-132.619,0-40.8,39.643L96.14-5444.354Zm-88.027,85.535-40.819,39.662v-119.4Zm-40.819,48.48,42.771,43.1L89.959-5182.59Zm89.668,90.346,42.96,43.284H95.7Zm137.349-47.261,40.628-42.93v127.257Z" transform="translate(-33.822 -13.911)" fill="#fcce57"/>
    <g id="Grupo_110935" data-name="Grupo 110935" transform="translate(27.074 -5477.294)">
      <g id="Grupo_110918" data-name="Grupo 110918" transform="translate(4.836)">
        <path id="Trazado_116771" data-name="Trazado 116771" d="M89.909-5411.457c0,2.683-11.393,4.858-25.447,4.858s-25.447-2.176-25.447-4.858,11.393-4.857,25.447-4.857S89.909-5414.141,89.909-5411.457Z" transform="translate(-39.015 5441.012)" fill="#d9d9d9" style="mix-blend-mode: multiply;isolation: isolate"/>
        <g id="Grupo_110917" data-name="Grupo 110917" transform="translate(2.673)">
          <rect id="Rectángulo_40389" data-name="Rectángulo 40389" width="36.396" height="24.294" rx="2.507" transform="translate(4.576)" fill="#0d1116"/>
          <path id="Trazado_116772" data-name="Trazado 116772" d="M93.557-5453.766a.967.967,0,0,1-.986.949H59.2a.967.967,0,0,1-.986-.949v-20.846a.969.969,0,0,1,.986-.95H92.571a.968.968,0,0,1,.986.95Z" transform="translate(-53.11 5476.263)" fill="#23272e"/>
          <rect id="Rectángulo_40390" data-name="Rectángulo 40390" width="33.164" height="21.166" transform="translate(6.192 1.564)" fill="#b8dcfb"/>
          <path id="Trazado_116773" data-name="Trazado 116773" d="M50.717-5417.309l-5.1,6.068H91.71l-5.647-6.068Z" transform="translate(-45.616 5441.603)" fill="#23272e"/>
          <path id="Trazado_116774" data-name="Trazado 116774" d="M57.321-5415.9l-2.468,3.152h38.7l-2.724-3.152Z" transform="translate(-51.112 5440.764)" fill="#373e48"/>
          <path id="Trazado_116775" data-name="Trazado 116775" d="M90.307-5406.437l-.672.856h10.527l-.741-.856Z" transform="translate(-71.807 5435.135)" fill="#373e48"/>
          <rect id="Rectángulo_40391" data-name="Rectángulo 40391" width="46.094" height="1.437" transform="translate(0 30.362)" fill="#05090d"/>
        </g>
      </g>
      <g id="Grupo_110920" data-name="Grupo 110920" transform="translate(137.444)">
        <path id="Trazado_116776" data-name="Trazado 116776" d="M417.336-5411.457c0,2.683-11.393,4.858-25.447,4.858s-25.447-2.176-25.447-4.858,11.393-4.857,25.447-4.857S417.336-5414.141,417.336-5411.457Z" transform="translate(-366.442 5441.012)" fill="#d9d9d9" style="mix-blend-mode: multiply;isolation: isolate"/>
        <g id="Grupo_110919" data-name="Grupo 110919" transform="translate(2.673)">
          <rect id="Rectángulo_40392" data-name="Rectángulo 40392" width="36.396" height="24.294" rx="2.507" transform="translate(4.576)" fill="#0d1116"/>
          <path id="Trazado_116777" data-name="Trazado 116777" d="M420.983-5453.766a.967.967,0,0,1-.986.949H386.623a.967.967,0,0,1-.986-.949v-20.846a.969.969,0,0,1,.986-.95H420a.969.969,0,0,1,.986.95Z" transform="translate(-380.536 5476.263)" fill="#23272e"/>
          <rect id="Rectángulo_40393" data-name="Rectángulo 40393" width="33.164" height="21.166" transform="translate(6.192 1.564)" fill="#b8dcfb"/>
          <path id="Trazado_116778" data-name="Trazado 116778" d="M378.143-5417.309l-5.1,6.068h46.094l-5.648-6.068Z" transform="translate(-373.042 5441.603)" fill="#23272e"/>
          <path id="Trazado_116779" data-name="Trazado 116779" d="M384.747-5415.9l-2.468,3.152h38.7l-2.724-3.152Z" transform="translate(-378.538 5440.764)" fill="#373e48"/>
          <path id="Trazado_116780" data-name="Trazado 116780" d="M417.734-5406.437l-.672.856h10.527l-.741-.856Z" transform="translate(-399.234 5435.135)" fill="#373e48"/>
          <rect id="Rectángulo_40394" data-name="Rectángulo 40394" width="46.094" height="1.437" transform="translate(0 30.362)" fill="#05090d"/>
        </g>
      </g>
      <g id="Grupo_110922" data-name="Grupo 110922" transform="translate(273.107)">
        <path id="Trazado_116781" data-name="Trazado 116781" d="M752.3-5411.457c0,2.683-11.393,4.858-25.447,4.858s-25.447-2.176-25.447-4.858,11.393-4.857,25.447-4.857S752.3-5414.141,752.3-5411.457Z" transform="translate(-701.41 5441.012)" fill="#d9d9d9" style="mix-blend-mode: multiply;isolation: isolate"/>
        <g id="Grupo_110921" data-name="Grupo 110921" transform="translate(2.673)">
          <rect id="Rectángulo_40395" data-name="Rectángulo 40395" width="36.396" height="24.294" rx="2.507" transform="translate(4.576)" fill="#0d1116"/>
          <path id="Trazado_116782" data-name="Trazado 116782" d="M755.951-5453.766a.967.967,0,0,1-.986.949H721.591a.967.967,0,0,1-.986-.949v-20.846a.969.969,0,0,1,.986-.95h33.374a.968.968,0,0,1,.986.95Z" transform="translate(-715.504 5476.263)" fill="#23272e"/>
          <rect id="Rectángulo_40396" data-name="Rectángulo 40396" width="33.164" height="21.166" transform="translate(6.192 1.564)" fill="#b8dcfb"/>
          <path id="Trazado_116783" data-name="Trazado 116783" d="M713.111-5417.309l-5.1,6.068H754.1l-5.647-6.068Z" transform="translate(-708.01 5441.603)" fill="#23272e"/>
          <path id="Trazado_116784" data-name="Trazado 116784" d="M719.715-5415.9l-2.468,3.152h38.7l-2.724-3.152Z" transform="translate(-713.506 5440.764)" fill="#373e48"/>
          <path id="Trazado_116785" data-name="Trazado 116785" d="M752.7-5406.437l-.672.856h10.527l-.741-.856Z" transform="translate(-734.202 5435.135)" fill="#373e48"/>
          <rect id="Rectángulo_40397" data-name="Rectángulo 40397" width="46.094" height="1.437" transform="translate(0 30.362)" fill="#05090d"/>
        </g>
      </g>
      <g id="Grupo_110924" data-name="Grupo 110924" transform="translate(273.107 276.161)">
        <path id="Trazado_116786" data-name="Trazado 116786" d="M752.3-4729.581c0,2.683-11.393,4.856-25.447,4.856s-25.447-2.174-25.447-4.856,11.393-4.857,25.447-4.857S752.3-4732.264,752.3-4729.581Z" transform="translate(-701.41 4759.135)" fill="#d9d9d9" style="mix-blend-mode: multiply;isolation: isolate"/>
        <g id="Grupo_110923" data-name="Grupo 110923" transform="translate(2.673)">
          <rect id="Rectángulo_40398" data-name="Rectángulo 40398" width="36.396" height="24.294" rx="2.507" transform="translate(4.576)" fill="#0d1116"/>
          <path id="Trazado_116787" data-name="Trazado 116787" d="M755.951-4771.888a.968.968,0,0,1-.986.949H721.591a.968.968,0,0,1-.986-.949v-20.849a.969.969,0,0,1,.986-.95h33.374a.969.969,0,0,1,.986.95Z" transform="translate(-715.504 4794.388)" fill="#23272e"/>
          <rect id="Rectángulo_40399" data-name="Rectángulo 40399" width="33.164" height="21.166" transform="translate(6.192 1.564)" fill="#b8dcfb"/>
          <path id="Trazado_116788" data-name="Trazado 116788" d="M713.111-4735.431l-5.1,6.067H754.1l-5.647-6.067Z" transform="translate(-708.01 4759.725)" fill="#23272e"/>
          <path id="Trazado_116789" data-name="Trazado 116789" d="M719.715-4734.02l-2.468,3.151h38.7l-2.724-3.151Z" transform="translate(-713.506 4758.886)" fill="#373e48"/>
          <path id="Trazado_116790" data-name="Trazado 116790" d="M752.7-4724.561l-.672.857h10.527l-.741-.857Z" transform="translate(-734.202 4753.258)" fill="#373e48"/>
          <rect id="Rectángulo_40400" data-name="Rectángulo 40400" width="46.094" height="1.437" transform="translate(0 30.362)" fill="#05090d"/>
        </g>
      </g>
      <g id="Grupo_110926" data-name="Grupo 110926" transform="translate(273.107 130.063)">
        <path id="Trazado_116791" data-name="Trazado 116791" d="M752.3-5090.316c0,2.685-11.393,4.857-25.447,4.857s-25.447-2.173-25.447-4.857,11.393-4.855,25.447-4.855S752.3-5093,752.3-5090.316Z" transform="translate(-701.41 5119.869)" fill="#d9d9d9" style="mix-blend-mode: multiply;isolation: isolate"/>
        <g id="Grupo_110925" data-name="Grupo 110925" transform="translate(2.673)">
          <rect id="Rectángulo_40401" data-name="Rectángulo 40401" width="36.396" height="24.294" rx="2.507" transform="translate(4.576)" fill="#0d1116"/>
          <path id="Trazado_116792" data-name="Trazado 116792" d="M755.951-5132.624a.969.969,0,0,1-.986.952H721.591a.97.97,0,0,1-.986-.952v-20.846a.969.969,0,0,1,.986-.951h33.374a.969.969,0,0,1,.986.951Z" transform="translate(-715.504 5155.122)" fill="#23272e"/>
          <rect id="Rectángulo_40402" data-name="Rectángulo 40402" width="33.164" height="21.166" transform="translate(6.192 1.564)" fill="#b8dcfb"/>
          <path id="Trazado_116793" data-name="Trazado 116793" d="M713.111-5096.167l-5.1,6.069H754.1l-5.647-6.069Z" transform="translate(-708.01 5120.461)" fill="#23272e"/>
          <path id="Trazado_116794" data-name="Trazado 116794" d="M719.715-5094.756l-2.468,3.152h38.7l-2.724-3.152Z" transform="translate(-713.506 5119.622)" fill="#373e48"/>
          <path id="Trazado_116795" data-name="Trazado 116795" d="M752.7-5085.3l-.672.857h10.527l-.741-.857Z" transform="translate(-734.202 5113.993)" fill="#373e48"/>
          <rect id="Rectángulo_40403" data-name="Rectángulo 40403" width="46.094" height="1.437" transform="translate(0 30.362)" fill="#05090d"/>
        </g>
      </g>
      <g id="Grupo_110928" data-name="Grupo 110928" transform="translate(137.699 130.063)">
        <path id="Trazado_116796" data-name="Trazado 116796" d="M417.964-5090.316c0,2.685-11.393,4.857-25.447,4.857s-25.447-2.173-25.447-4.857,11.393-4.855,25.447-4.855S417.964-5093,417.964-5090.316Z" transform="translate(-367.07 5119.869)" fill="#d9d9d9" style="mix-blend-mode: multiply;isolation: isolate"/>
        <g id="Grupo_110927" data-name="Grupo 110927" transform="translate(2.673)">
          <rect id="Rectángulo_40404" data-name="Rectángulo 40404" width="36.396" height="24.294" rx="2.507" transform="translate(4.576)" fill="#0d1116"/>
          <path id="Trazado_116797" data-name="Trazado 116797" d="M421.612-5132.624a.969.969,0,0,1-.986.952H387.252a.97.97,0,0,1-.986-.952v-20.846a.969.969,0,0,1,.986-.951h33.374a.969.969,0,0,1,.986.951Z" transform="translate(-381.165 5155.122)" fill="#23272e"/>
          <rect id="Rectángulo_40405" data-name="Rectángulo 40405" width="33.164" height="21.166" transform="translate(6.192 1.564)" fill="#b8dcfb"/>
          <path id="Trazado_116798" data-name="Trazado 116798" d="M378.772-5096.167l-5.1,6.069h46.094l-5.647-6.069Z" transform="translate(-373.671 5120.461)" fill="#23272e"/>
          <path id="Trazado_116799" data-name="Trazado 116799" d="M385.376-5094.756l-2.468,3.152h38.7l-2.724-3.152Z" transform="translate(-379.167 5119.622)" fill="#373e48"/>
          <path id="Trazado_116800" data-name="Trazado 116800" d="M418.362-5085.3l-.672.857h10.527l-.741-.857Z" transform="translate(-399.862 5113.993)" fill="#373e48"/>
          <rect id="Rectángulo_40406" data-name="Rectángulo 40406" width="46.094" height="1.437" transform="translate(0 30.362)" fill="#05090d"/>
        </g>
      </g>
      <g id="Grupo_110930" data-name="Grupo 110930" transform="translate(0 130.063)">
        <path id="Trazado_116801" data-name="Trazado 116801" d="M77.968-5090.316c0,2.685-11.393,4.857-25.447,4.857s-25.447-2.173-25.447-4.857,11.393-4.855,25.447-4.855S77.968-5093,77.968-5090.316Z" transform="translate(-27.074 5119.869)" fill="#d9d9d9" style="mix-blend-mode: multiply;isolation: isolate"/>
        <g id="Grupo_110929" data-name="Grupo 110929" transform="translate(2.673)">
          <rect id="Rectángulo_40407" data-name="Rectángulo 40407" width="36.396" height="24.294" rx="2.507" transform="translate(4.576)" fill="#0d1116"/>
          <path id="Trazado_116802" data-name="Trazado 116802" d="M81.616-5132.624a.97.97,0,0,1-.986.952H47.256a.97.97,0,0,1-.986-.952v-20.846a.969.969,0,0,1,.986-.951H80.63a.969.969,0,0,1,.986.951Z" transform="translate(-41.169 5155.122)" fill="#23272e"/>
          <rect id="Rectángulo_40408" data-name="Rectángulo 40408" width="33.164" height="21.166" transform="translate(6.192 1.564)" fill="#b8dcfb"/>
          <path id="Trazado_116803" data-name="Trazado 116803" d="M38.776-5096.167l-5.1,6.069H79.769l-5.647-6.069Z" transform="translate(-33.675 5120.461)" fill="#23272e"/>
          <path id="Trazado_116804" data-name="Trazado 116804" d="M45.38-5094.756l-2.468,3.152h38.7l-2.724-3.152Z" transform="translate(-39.171 5119.622)" fill="#373e48"/>
          <path id="Trazado_116805" data-name="Trazado 116805" d="M78.367-5085.3l-.672.857H88.222l-.741-.857Z" transform="translate(-59.867 5113.993)" fill="#373e48"/>
          <rect id="Rectángulo_40409" data-name="Rectángulo 40409" width="46.094" height="1.437" transform="translate(0 30.362)" fill="#05090d"/>
        </g>
      </g>
      <g id="Grupo_110932" data-name="Grupo 110932" transform="translate(0 271.07)">
        <path id="Trazado_116806" data-name="Trazado 116806" d="M77.968-4742.149c0,2.681-11.393,4.856-25.447,4.856s-25.447-2.176-25.447-4.856,11.393-4.857,25.447-4.857S77.968-4744.833,77.968-4742.149Z" transform="translate(-27.074 4771.703)" fill="#d9d9d9" style="mix-blend-mode: multiply;isolation: isolate"/>
        <g id="Grupo_110931" data-name="Grupo 110931" transform="translate(2.673)">
          <rect id="Rectángulo_40410" data-name="Rectángulo 40410" width="36.396" height="24.294" rx="2.507" transform="translate(4.576)" fill="#0d1116"/>
          <path id="Trazado_116807" data-name="Trazado 116807" d="M81.616-4784.458a.97.97,0,0,1-.986.952H47.256a.97.97,0,0,1-.986-.952V-4805.3a.969.969,0,0,1,.986-.951H80.63a.969.969,0,0,1,.986.951Z" transform="translate(-41.169 4806.956)" fill="#23272e"/>
          <rect id="Rectángulo_40411" data-name="Rectángulo 40411" width="33.164" height="21.166" transform="translate(6.192 1.564)" fill="#b8dcfb"/>
          <path id="Trazado_116808" data-name="Trazado 116808" d="M38.776-4748l-5.1,6.067H79.769L74.122-4748Z" transform="translate(-33.675 4772.295)" fill="#23272e"/>
          <path id="Trazado_116809" data-name="Trazado 116809" d="M45.38-4746.59l-2.468,3.153h38.7l-2.724-3.153Z" transform="translate(-39.171 4771.456)" fill="#373e48"/>
          <path id="Trazado_116810" data-name="Trazado 116810" d="M78.367-4737.13l-.672.858H88.222l-.741-.858Z" transform="translate(-59.867 4765.827)" fill="#373e48"/>
          <rect id="Rectángulo_40412" data-name="Rectángulo 40412" width="46.094" height="1.437" transform="translate(0 30.362)" fill="#05090d"/>
        </g>
      </g>
      <g id="Grupo_110934" data-name="Grupo 110934" transform="translate(140.753 271.07)">
        <path id="Trazado_116811" data-name="Trazado 116811" d="M425.506-4742.149c0,2.681-11.393,4.856-25.447,4.856s-25.447-2.176-25.447-4.856,11.393-4.857,25.447-4.857S425.506-4744.833,425.506-4742.149Z" transform="translate(-374.612 4771.703)" fill="#d9d9d9" style="mix-blend-mode: multiply;isolation: isolate"/>
        <g id="Grupo_110933" data-name="Grupo 110933" transform="translate(2.673)">
          <rect id="Rectángulo_40413" data-name="Rectángulo 40413" width="36.396" height="24.294" rx="2.507" transform="translate(4.576)" fill="#0d1116"/>
          <path id="Trazado_116812" data-name="Trazado 116812" d="M429.153-4784.458a.969.969,0,0,1-.986.952H394.793a.97.97,0,0,1-.986-.952V-4805.3a.969.969,0,0,1,.986-.951h33.374a.969.969,0,0,1,.986.951Z" transform="translate(-388.706 4806.956)" fill="#23272e"/>
          <rect id="Rectángulo_40414" data-name="Rectángulo 40414" width="33.164" height="21.166" transform="translate(6.192 1.564)" fill="#b8dcfb"/>
          <path id="Trazado_116813" data-name="Trazado 116813" d="M386.313-4748l-5.1,6.067h46.094L421.659-4748Z" transform="translate(-381.212 4772.295)" fill="#23272e"/>
          <path id="Trazado_116814" data-name="Trazado 116814" d="M392.917-4746.59l-2.468,3.153h38.7l-2.724-3.153Z" transform="translate(-386.708 4771.456)" fill="#373e48"/>
          <path id="Trazado_116815" data-name="Trazado 116815" d="M425.9-4737.13l-.672.858h10.527l-.741-.858Z" transform="translate(-407.404 4765.827)" fill="#373e48"/>
          <rect id="Rectángulo_40415" data-name="Rectángulo 40415" width="46.094" height="1.437" transform="translate(0 30.362)" fill="#05090d"/>
        </g>
      </g>
    </g>
  </g>
</svg>
