<svg xmlns="http://www.w3.org/2000/svg" width="85.001" height="67" viewBox="0 0 85.001 67">
  <g id="Grupo_128104" data-name="Grupo 128104" transform="translate(-106.062 -229.734)">
    <path id="Trazado_187945" data-name="Trazado 187945" d="M106.062,296.909v-35.07c.251-.617.831-.776,1.578-.708a1.269,1.269,0,0,1,1.167,1.267c.011.305.01.61.01.916q0,12.593,0,25.187c0,.2,0,.393,0,.589.011.89.053.928,1.159.933.884,0,1.769,0,2.653,0,.556,0,.808-.2.792-.639-.008-.239,0-.48,0-.719V256.8a7.143,7.143,0,0,1,.117-1.565c.357-1.61,1.69-2.591,3.751-2.747.386-.029.773-.023,1.16-.023q30.1,0,60.194,0a7.754,7.754,0,0,1,2.365.256,3.278,3.278,0,0,1,2.437,2.3,6.929,6.929,0,0,1,.168,1.758q0,15.832,0,31.663c0,.24,0,.48,0,.72.02.767.034.778,1.014.877.882-.026,1.765,0,2.647-.014.866-.014.945-.076.948-.828.009-2.7,0-5.4,0-8.094a3.648,3.648,0,0,1,.053-.846c.146-.619.553-.906,1.464-1.045,1.025.18,1.307.431,1.308,1.242.006,5.3.02,10.591,0,15.887-.011,2.49-2.629,4.464-5.982,4.547-1.573.039-3.148.009-4.723.009H161.866c-.3,0-.607,0-.911.014-.377.023-.563.178-.5.473a23.929,23.929,0,0,0,1.041,4.3c.711,1.651,2.432,2.534,4.224,3.346a2.6,2.6,0,0,0,1.057.113c1.243,0,2.486-.013,3.729.006,1.78.027,2.868.87,2.956,2.287.038.609.026,1.221.006,1.83-.043,1.266-.715,1.929-2.232,2.225H125.8c-1.481-.287-2.175-.953-2.224-2.164a18.607,18.607,0,0,1,0-1.9c.086-1.386,1.222-2.252,2.979-2.277,1.078-.015,2.159-.044,3.233.008a5.146,5.146,0,0,0,2.7-.65,5.864,5.864,0,0,0,3.529-4.362c.083-.541.225-1.076.337-1.613.344-1.641.344-1.64-1.764-1.64h-22.22a7.327,7.327,0,0,1-5.012-1.7A3.987,3.987,0,0,1,106.062,296.909Z" transform="translate(0 -18.757)"/>
    <path id="Trazado_187946" data-name="Trazado 187946" d="M106.062,233.529c.041-.026.106-.045.12-.078,1.164-2.691,2.979-3.716,6.587-3.716q35.947,0,71.894,0c3.3,0,5.677,1.511,6.231,3.963a4.147,4.147,0,0,1,.079.911q.006,11.025.014,22.05a1.221,1.221,0,0,1-1.185,1.351,1.194,1.194,0,0,1-1.489-.784,3.547,3.547,0,0,1-.083-1.106q0-10.485,0-20.971a7.44,7.44,0,0,0-.024-.914,3.01,3.01,0,0,0-3.067-2.324c-.606-.025-1.214-.016-1.821-.014-.442.025-.884.009-1.326.009h-68.98c-.249,0-.5,0-.746,0-2.1.034-3.415,1.059-3.445,2.707-.024,1.352.025,2.7-.02,4.056-.029.869-.524,1.239-1.64,1.306a1.312,1.312,0,0,1-1.1-.69Z" transform="translate(0 0)"/>
    <path id="Trazado_187947" data-name="Trazado 187947" d="M184.249,313.472q15.712,0,31.425-.014c.7,0,.853.141.852.68q-.035,12.888,0,25.777c0,.551-.189.673-.866.673q-31.425-.022-62.85,0c-.7,0-.853-.145-.852-.685q.035-12.888,0-25.776c0-.558.191-.669.867-.668Q168.536,313.486,184.249,313.472Z" transform="translate(-35.723 -69.081)" fill="#e5f6fd"/>
    <path id="Trazado_187948" data-name="Trazado 187948" d="M120.056,486.33a2.893,2.893,0,0,1-2.751-2.468c-.041-1.275.008-2.552.017-3.828a2.136,2.136,0,0,1,.894-.063q37.1-.005,74.206,0c1.2,0,1.246.034,1.257.987.011.916.005,1.832,0,2.748a3.2,3.2,0,0,1-.185,1.1c-.465,1.27-.974,1.575-2.642,1.575q-34.865,0-69.729,0A4.2,4.2,0,0,1,120.056,486.33Z" transform="translate(-8.739 -206.46)" fill="#d8e6eb"/>
    <path id="Trazado_187949" data-name="Trazado 187949" d="M110.382,251.7c0-.65-.025-1.3.015-1.95a.6.6,0,0,0-.471-.664c1.227.024,1.627-.283,1.63-1.264,0-1.242,0-2.484,0-3.726,0-2.084,1.332-3.142,3.956-3.142q32.4,0,64.794,0c2.015,0,4.031.014,6.046.022a2.791,2.791,0,0,1,1.543,2.138,3.94,3.94,0,0,1,.051.979q0,17.719,0,35.438c0,.4.116.836-.262,1.193-1.4.071-1.4.071-1.4-1.043q0-16.584.006-33.168a2.839,2.839,0,0,0-1.062-2.459,4.706,4.706,0,0,0-3.029-.848q-17.246.01-34.492,0H121.091c-2.969,0-4.318,1.055-4.318,3.38q0,16.715.017,33.43c0,.588-.168.783-.937.745a31.891,31.891,0,0,0-3.4,0c-.807.046-.913-.2-.911-.757.021-8.963.008-17.925.028-26.888A1.275,1.275,0,0,0,110.382,251.7Z" transform="translate(-3.008 -9.26)" fill="#00defc"/>
    <path id="Trazado_187950" data-name="Trazado 187950" d="M184.218,271.578q-15.71,0-31.421.014c-.727,0-.938-.132-.916-.716.057-1.481.014-2.965.021-4.448,0-1.109.323-1.364,1.693-1.364h61.183c1.341,0,1.675.256,1.682,1.307.01,1.526-.028,3.053.019,4.579.017.535-.212.639-.841.638Q199.928,271.567,184.218,271.578Z" transform="translate(-35.663 -29.15)" fill="#084a93"/>
    <path id="Trazado_187951" data-name="Trazado 187951" d="M243.7,538.006c-.007-.921-.357-1.2-1.526-1.212-.5,0-.993,0-1.488,0-.014-.053-.051-.114-.03-.13a8.133,8.133,0,0,0,3-5.527c.128-.842.359-1.674.5-2.515.062-.363.269-.451.706-.45q8.411.015,16.822,0c.522,0,.64.17.708.524.236,1.226.527,2.446.766,3.672a7,7,0,0,0,2.593,4.146,3.139,3.139,0,0,1,.257.283h-.978q-8.2,0-16.407,0c-1.169,0-1.517.288-1.529,1.21A15.91,15.91,0,0,0,243.7,538.006Z" transform="translate(-104.759 -246.24)" fill="#9eabb9"/>
    <path id="Trazado_187952" data-name="Trazado 187952" d="M456.076,280.729c0-11.945-.014-23.89.02-35.835a4.683,4.683,0,0,0-1.348-3.913,21.039,21.039,0,0,1,2.23.018,2.961,2.961,0,0,1,2.911,2.881q.005,10.584,0,21.169c0,.305,0,.61,0,.915.007.87.239,1.1,1.313,1.307q0,1.29,0,2.581c-1.006.15-1.313.426-1.314,1.227,0,3.028-.018,6.056.014,9.084.005.49-.146.636-.769.6C458.119,280.717,457.1,280.738,456.076,280.729Z" transform="translate(-271.402 -9.262)" fill="#a6f4fe"/>
    <path id="Trazado_187953" data-name="Trazado 187953" d="M209.941,583.143a.794.794,0,0,1,.6-.27c.734.023,1.471.022,2.206,0a.806.806,0,0,1,.6.269c.279.671.954.754,1.721.753q10.978-.009,21.956,0c.3,0,.6.02.907.031a2.145,2.145,0,0,1,0,2.2c-.276.007-.551.02-.827.02q-19.429,0-38.859.013c-.725,0-.984-.107-.958-.73.063-1.538.02-1.54,1.991-1.54q4.557,0,9.114,0C209.111,583.9,209.692,583.741,209.941,583.143Z" transform="translate(-70.998 -291.377)" fill="#d8e6eb"/>
    <path id="Trazado_187954" data-name="Trazado 187954" d="M120.174,485.954c.5-.006.993-.018,1.49-.018H190.62c1.9,0,2.8-.631,2.893-2.167.075-1.218.006-2.441.024-3.662,0-.348-.176-.471-.593-.448-.247.014-.5,0-.746,0l-74.758,0c.216-.268.55-.115.814-.115q39.122-.011,78.245-.015c.682,0,.9.117.863.671-.062,1.022,0,2.049-.021,3.073-.026,1.6-1.475,2.745-3.51,2.782-.8.015-1.6.009-2.4.009q-34.978,0-69.956,0A3.053,3.053,0,0,1,120.174,485.954Z" transform="translate(-8.857 -206.083)" fill="#c4d2dc"/>
    <path id="Trazado_187955" data-name="Trazado 187955" d="M380.661,590.908q0-1.1,0-2.2c1.1-.011,2.2-.011,3.306-.037.405-.009.493.116.512.417.112,1.845.123,1.846-2.167,1.844C381.763,590.928,381.212,590.915,380.661,590.908Z" transform="translate(-213.736 -296.159)" fill="#c4d2dc"/>
    <path id="Trazado_187956" data-name="Trazado 187956" d="M350.865,336.046c0,2.42,0,4.839,0,7.259,0,1.491-1.02,2.291-2.925,2.293q-8.371.007-16.742,0c-1.881,0-2.908-.825-2.908-2.313q0-7.259,0-14.518c0-1.519,1.032-2.325,2.977-2.326q8.33,0,16.66,0c1.935,0,2.937.8,2.94,2.346Q350.869,332.416,350.865,336.046Z" transform="translate(-172.969 -79.792)"/>
    <path id="Trazado_187957" data-name="Trazado 187957" d="M180.649,406.679q-6.384,0-12.768,0c-2.026,0-2.818-.621-2.821-2.2,0-.72-.013-1.439,0-2.159.026-1.04.809-1.713,2.112-1.832.273-.025.552-.018.828-.018h25.37c2.178,0,2.951.6,2.953,2.308,0,.654.016,1.309,0,1.962-.04,1.281-.9,1.937-2.576,1.94q-6.177.013-12.354,0Z" transform="translate(-45.918 -140.872)"/>
    <path id="Trazado_187961" data-name="Trazado 187961" d="M412.241,278.216c.357,0,.715-.018,1.07,0,.63.039,1.015.325,1.093.814a.881.881,0,0,1-.836,1.046,7.433,7.433,0,0,1-2.769,0c-.6-.118-.909-.5-.839-.989.072-.5.45-.834,1.128-.87.383-.02.768,0,1.153,0Z" transform="translate(-236.534 -39.996)" fill="#000101"/>
    <path id="Trazado_187962" data-name="Trazado 187962" d="M379.033,280.162a12.123,12.123,0,0,1-1.313-.1c-.656-.118-.968-.485-.912-1.014s.45-.84,1.123-.867c.689-.027,1.381-.024,2.071-.006.724.018,1.239.406,1.27.915.03.492-.464.947-1.162,1.021a10.333,10.333,0,0,1-1.075.006Z" transform="translate(-210.732 -39.96)" fill="#000101"/>
    <path id="Trazado_187963" data-name="Trazado 187963" d="M345.579,280.167a10.166,10.166,0,0,1-1.206-.093c-.649-.125-.991-.505-.924-1.016s.455-.846,1.143-.866c.717-.02,1.437-.022,2.155,0,.672.021,1.082.319,1.145.85.066.558-.272.934-.968,1.046A13.087,13.087,0,0,1,345.579,280.167Z" transform="translate(-184.764 -39.969)" fill="#000101"/>
    <path id="Trazado_187964" data-name="Trazado 187964" d="M348.263,337.6c2.681,0,5.362.017,8.043-.013.64-.007.782.145.772.625-.036,1.832-.032,3.664,0,5.5.007.434-.156.539-.692.538q-8.126-.023-16.253,0c-.544,0-.691-.113-.684-.54.03-1.832.035-3.664,0-5.5-.01-.484.139-.63.773-.623C342.9,337.619,345.581,337.6,348.263,337.6Z" transform="translate(-181.656 -88.993)" fill="#b5c3ce"/>
    <path id="Trazado_187965" data-name="Trazado 187965" d="M348.263,393.435c-2.681,0-5.362-.016-8.043.012-.631.007-.784-.136-.774-.623.038-1.853.027-3.708,0-5.561,0-.369.128-.473.6-.472q8.21.018,16.419,0c.458,0,.612.089.607.467-.023,1.9-.028,3.795,0,5.692.007.437-.217.493-.686.491C353.681,393.428,350.972,393.435,348.263,393.435Z" transform="translate(-181.655 -129.589)" fill="#b5c3ce"/>
    <path id="Trazado_187966" data-name="Trazado 187966" d="M189.443,411.629c4.09,0,8.18.012,12.27-.012.658,0,.836.141.828.655-.025,1.648,0,1.649-2.044,1.649-7.793,0-15.587-.01-23.38.015-.752,0-.915-.163-.9-.727.047-1.579.014-1.579,2.032-1.579Z" transform="translate(-54.606 -150.073)" fill="#ffb30b"/>
    <path id="Trazado_187968" data-name="Trazado 187968" d="M355.662,352.92c-.635,0-1.27.013-1.9,0-.77-.021-1.293-.419-1.3-.96s.517-.975,1.277-.989q1.985-.037,3.973,0c.763.015,1.267.456,1.25,1s-.519.929-1.307.948C356.987,352.933,356.324,352.92,355.662,352.92Z" transform="translate(-191.782 -100.015)"/>
    <path id="Trazado_187969" data-name="Trazado 187969" d="M395.729,350.705c.742.015,1.292.47,1.279,1.059a1.221,1.221,0,0,1-1.322,1.043c-.736,0-1.378-.534-1.341-1.11A1.253,1.253,0,0,1,395.729,350.705Z" transform="translate(-224.386 -99.814)" fill="#020202"/>
    <path id="Trazado_187970" data-name="Trazado 187970" d="M355.746,400.223c.635,0,1.27-.012,1.9,0,.793.018,1.291.387,1.309.942s-.484.987-1.248,1q-1.985.045-3.973,0c-.762-.016-1.286-.46-1.279-.99s.529-.938,1.3-.958C354.421,400.21,355.084,400.223,355.746,400.223Z" transform="translate(-191.784 -140.668)" fill="#000001"/>
    <path id="Trazado_187971" data-name="Trazado 187971" d="M397.009,400.8c-.015.587-.584,1.02-1.336,1.015a1.216,1.216,0,0,1-1.331-1.033,1.277,1.277,0,0,1,1.4-1.066A1.2,1.2,0,0,1,397.009,400.8Z" transform="translate(-224.384 -140.252)" fill="#020202"/>
    <path id="Trazado_187972" data-name="Trazado 187972" d="M168.4,335.669a4.326,4.326,0,0,1-3.008-1.293.978.978,0,0,1-.1-1.4.967.967,0,0,1,1.445,0,2.427,2.427,0,0,0,1.956.714.939.939,0,0,0,.937-.685c.1-.5-.329-.674-.678-.83-.653-.292-1.326-.541-1.99-.81a2.236,2.236,0,0,1-1.5-1.958,2.387,2.387,0,0,1,1.2-2.368,3.915,3.915,0,0,1,4.43.544.914.914,0,0,1,.117,1.247.88.88,0,0,1-1.257.3,3.868,3.868,0,0,0-1.3-.574,1.518,1.518,0,0,0-.891.116.527.527,0,0,0-.346.508c.006.244.178.32.368.4q.907.362,1.808.737c1.509.625,2.24,1.741,2,3.049A3.13,3.13,0,0,1,168.4,335.669Z" transform="translate(-32.449 -79.908)"/>
    <path id="Trazado_187973" data-name="Trazado 187973" d="M280.591,330.947c0-1.09-.008-2.179,0-3.268.007-.749.4-1.212.994-1.208s.962.453.964,1.221c.006,1.787.017,3.574-.008,5.36-.006.455.165,2.472-.387,2.5-.891.048.241.048-.65,0-.59-.029-.9-.46-.912-1.146C280.581,333.257,280.591,332.1,280.591,330.947Z" transform="translate(-134.826 -79.818)"/>
    <g id="Grupo_128105" data-name="Grupo 128105" transform="translate(-6.156)">
      <path id="Trazado_187958" data-name="Trazado 187958" d="M224.79,331.036a4.226,4.226,0,0,1-.492,2.008,4.07,4.07,0,0,1-.732,1.13,5.518,5.518,0,0,1-1.33.922,4.542,4.542,0,1,1,2.554-4.06Z" transform="translate(-90.401 -79.813)"/>
      <path id="Trazado_187967" data-name="Trazado 187967" d="M231.921,341.191c0,.368-1.2,1.456-1.493,1.456a2.46,2.46,0,0,1-3.031-.871,2.6,2.6,0,0,1,.188-3.2,2.576,2.576,0,0,1,4.336,2.619Z" transform="translate(-99.674 -89.088)" fill="#e5f6fd"/>
    </g>
  </g>
</svg>
