<svg xmlns="http://www.w3.org/2000/svg" width="1030" height="333" viewBox="0 0 1030 333">
  <g id="Grupo_128586" data-name="Grupo 128586" transform="translate(-285 -3106)">
    <rect id="Image_Place_Holder" data-name="Image Place Holder" width="1030" height="333" transform="translate(285 3106)" fill="#fce3ac"/>
    <rect id="BG" width="503.114" height="333" transform="translate(285 3106)" fill="#ddf3f3" opacity="0.949"/>
    <g id="Right" transform="translate(626.849 3142)">
      <rect id="BG-2" data-name="BG" width="646" height="261" transform="translate(0.151)" fill="#fff" opacity="0.949"/>
    </g>
    <text id="Un_tema_muy_interesante_es_el_referente_a_los_licenciamientos_de_los_servidores_desde_Windows_server_2016_cambia_la_forma_en_como_se_licencian_los_sistemas_operativos_en_temas_de_servidores._El_modelo_de_licenciamiento_anterior_era_un_servidor_o_CPU_qu" data-name="Un tema muy interesante es el referente a los licenciamientos de los servidores, desde Windows server 2016, cambia la forma en como se licencian los sistemas operativos en temas de servidores.

El modelo de licenciamiento anterior era un servidor o CPU, qu" transform="translate(661.709 3167)" fill="#12263f" font-size="16" font-family="Roboto-Regular, Roboto"><tspan x="0" y="17">Un tema muy interesante es el referente a los licenciamientos de los servidores, </tspan><tspan x="0" y="41">desde Windows server 2016, cambia la forma en como se licencian los sistemas </tspan><tspan x="0" y="65">operativos en temas de servidores.</tspan><tspan x="0" y="89"></tspan><tspan x="0" y="113">El modelo de licenciamiento anterior era un servidor o CPU, que necesitaba de </tspan><tspan x="0" y="137">una licencia de Windows Server, a un nuevo modelo donde por cada núcleo de la </tspan><tspan x="0" y="161">CPU tenga una licencia Core de Windows Server, esto se debe a que las CPU </tspan><tspan x="0" y="185">actuales cuentan por varios núcleos o Cores, lo que se convierte en una CPU, </tspan><tspan x="0" y="209">existen varias CPU en forma de núcleos.</tspan></text>
    <g id="Grupo_128074" data-name="Grupo 128074" transform="translate(1542.189 1931.334)">
      <path id="Trazado_116183" data-name="Trazado 116183" d="M-758.342,1581.851c1.554,2.2,2.209,4.823,3.349,7.218,1.558,3.275,2.821,6.69,4.246,10.03a10.466,10.466,0,0,1,.832,4.234q-.04,8.749,0,17.5c0,.6-.232,1.267.249,1.823a1.265,1.265,0,0,0,.95-.949c1.164-3.2,2.818-6.175,4.177-9.283a4.9,4.9,0,0,0,.216-2.066c.007-11.548.039-23.1-.03-34.644-.01-1.756.488-2.522,2.271-2.257,1.077.16,1.634-.259,2.044-1.354.993-2.653,2.185-5.233,3.312-7.836.154-.357.278-.841.8-.8.455.038.386.526.513.819,1.108,2.553,2.289,5.081,3.247,7.69.421,1.144.955,1.661,2.13,1.477,1.849-.288,2.256.612,2.221,2.305-.1,4.605-.044,9.214-.029,13.822.011,3.249-.34,2.725,2.791,2.8,0,9.031.05,18.062-.032,27.092-.015,1.669.523,2.015,2.076,2.005,10.023-.064,20.047-.027,30.07-.036,3.528,0,2.831.294,2.952-2.815l2.431.025a39.53,39.53,0,0,1-2.216,8.155c-1.649,4.972-3.494,9.879-5.274,14.807a4.288,4.288,0,0,1-.565.853l-107.866,0q-24.077,0-48.154.022c-.668,0-1.564-.466-1.988.552l-.784.01a.334.334,0,0,0-.107-.232l.157-.7.025-.042.162-.286.134-.735a8.858,8.858,0,0,0,.558-3.16q.058-.525.115-1.048l.066-.68.1-1.642a1.207,1.207,0,0,0,.292-1.164,4.759,4.759,0,0,0,.31-2.109.391.391,0,0,0,.017-.34.572.572,0,0,0,.031-.325.834.834,0,0,0,.2-1.054q.041-.373.083-.747c.661-.332.049-1.3.864-1.646.42.357.857.731,1.3,1.1,4.368,3.659,8.723,7.335,13.921,9.819a10.782,10.782,0,0,0,6.936,1.058c5.5-1.07,10.5-3.394,15.43-5.9a74.745,74.745,0,0,0,11.4-7.693c5.956-4.564,11.975-9.047,17.784-13.8,1.36-1.113,3.039-2.01,3.657-3.861,2.286-.564,4.32-1.768,6.512-2.571.006,5.187-.013,10.374.042,15.56.009.858-.424,2.48.417,2.44,1.284-.061.527-1.6.572-2.452.127-2.378.061-2.45,2.417-2.527,1.173-.038,1.495-.567,1.485-1.632-.032-3.38.024-6.761-.031-10.141-.021-1.253-.515-2.5,0-3.756a10.526,10.526,0,0,0,4.335-6.53c.522-2.346,1.335-4.75-.123-7.083C-763.6,1586.176-760.967,1584.016-758.342,1581.851Z" transform="translate(-270.242 -192.843)" fill="#084a93"/>
      <path id="Trazado_116184" data-name="Trazado 116184" d="M-1068.582,1612.009c1.205-.07,1.278.619,1.272,1.541-.025,4.082.084,8.167-.052,12.245-.064,1.925.9,1.969,2.357,2.043,1.605.083,1.929-.5,1.921-2-.06-11.2.213-22.4-.2-33.585-.109-3,2.311-3.2,3.184-4.926.15-.3.474.349.74.527-.428,2.691-1,5.368-1.259,8.075-.911,9.7-.77,19.436-.987,29.157-.23,10.316-.109,20.639-.121,30.959a22.832,22.832,0,0,0,.247,2.421l-1.3.017c-.36-.965-1.194-.55-1.812-.551q-21.7-.037-43.391-.019a105.311,105.311,0,0,1,4.055-11.251c2.668-6.72,5.662-13.3,8.63-19.885,1.523-3.38,3.267-6.661,4.932-9.978.12-.239.406-.4.615-.591,0,5.65-.006,11.3.011,16.951,0,.821-.284,1.956,1.089,1.928,1.231-.025.995-1.074,1-1.85q.018-9.349,0-18.7c0-.506.145-1.065-.342-1.465l.344-1.056Z" transform="translate(-105.601 -208.295)" fill="#084a93"/>
      <path id="Trazado_116185" data-name="Trazado 116185" d="M-926.954,1345.842a10.542,10.542,0,0,0-1.25-2.674,79.453,79.453,0,0,1-7.66-26.4,38.79,38.79,0,0,1,.3-13.925c.848-3.6,2.746-5.916,6.647-6.706,9.757-1.977,18.706-6.051,27.229-11.12a29.228,29.228,0,0,1,6.454-3.089,8.714,8.714,0,0,1,11.3,7.113,18.768,18.768,0,0,1-.959,8.615,66.423,66.423,0,0,1-8.273,16.514c-.382-1.146-.727-2.3-1.152-3.435-.837-2.225-1.888-2.406-3.477-.583a36.887,36.887,0,0,0-3.156,4.608,17.454,17.454,0,0,1-9.339,7.242,4.585,4.585,0,0,1-5.4-1.291,9.172,9.172,0,0,0-2.591-2.053,3.093,3.093,0,0,0-4.231.713,8.187,8.187,0,0,0-1.978,6.818c.551,4.7,2.8,8.708,5.307,12.6,1.322,2.056,1.263,2.381-.583,3.854-1.7,1.016-3.4,2.025-5.09,3.052A1.751,1.751,0,0,1-926.954,1345.842Z" transform="translate(-217.087 -9.7)" fill="#132a51"/>
      <path id="Trazado_116188" data-name="Trazado 116188" d="M-897.94,1393.408c1.846-1.473,1.9-1.8.583-3.853-2.5-3.893-4.756-7.9-5.307-12.6a8.188,8.188,0,0,1,1.978-6.818,3.093,3.093,0,0,1,4.231-.713,9.18,9.18,0,0,1,2.591,2.053,4.585,4.585,0,0,0,5.4,1.291,17.455,17.455,0,0,0,9.339-7.242,36.956,36.956,0,0,1,3.156-4.608c1.589-1.823,2.64-1.642,3.477.583.425,1.13.771,2.289,1.152,3.435q.236,2.164.471,4.328a117.809,117.809,0,0,1-.748,14.095c-.375,3.04.939,5.937,1.72,8.846.681,2.539.68,2.84-1.913,3.254a6.291,6.291,0,0,0-5.234,4.089,25.3,25.3,0,0,1-7.5,10.14c-2.339,1.777-3.127,1.621-5.191-.406-1.111-1.09-1.415-2.8-2.912-3.543a8.557,8.557,0,0,0-.87-2.814,28.677,28.677,0,0,1-2.263-6.732C-895.994,1394.766-895.7,1393.175-897.94,1393.408Z" transform="translate(-238.914 -60.467)" fill="#ea8973"/>
      <path id="Trazado_116199" data-name="Trazado 116199" d="M-915.238,1466.021q.533-2.075,1.065-4.15l.134-.556.2-.474q.3-.875.591-1.749a1.751,1.751,0,0,0,2.1-.15c1.691-1.026,3.392-2.036,5.09-3.052,2.236-.233,1.946,1.359,2.159,2.784a28.68,28.68,0,0,0,2.263,6.732,8.556,8.556,0,0,1,.87,2.814q-.232,3.842-.465,7.683a3.242,3.242,0,0,1-.974-.281c-4.047-2.8-8.074-5.621-12.123-8.414A1.755,1.755,0,0,1-915.238,1466.021Z" transform="translate(-230.799 -122.95)" fill="#e6785f"/>
      <path id="Trazado_116201" data-name="Trazado 116201" d="M-851.972,1789.316c.424-1.018,1.32-.551,1.988-.552q24.077-.042,48.154-.022l107.866,0c0,.1.005.2.011.3a1.264,1.264,0,0,0-.018.3c-.641.016-1.282.045-1.924.045q-76.2,0-152.405,0C-849.524,1789.389-850.748,1789.341-851.972,1789.316Z" transform="translate(-271.894 -339.12)" fill="#084a93"/>
      <path id="Trazado_116204" data-name="Trazado 116204" d="M-1063.438,1789.341c-4.828.026-9.656.078-14.484.075q-15.187-.01-30.373-.067l-.7-.271.358-.307q21.7,0,43.391.018C-1064.632,1788.791-1063.8,1788.376-1063.438,1789.341Z" transform="translate(-104.938 -339.149)" fill="#084a93"/>
      <path id="Trazado_116210" data-name="Trazado 116210" d="M-1135.238,1789.775l.582.224-11.3.072c.439-.44,1-.26,1.505-.263C-1141.381,1789.784-1138.31,1789.783-1135.238,1789.775Z" transform="translate(-41.631 -370.541)" fill="#084a93"/>
      <g id="Grupo_128090" data-name="Grupo 128090" transform="translate(-1082.09 1278.051)">
        <path id="Trazado_116206" data-name="Trazado 116206" d="M-692.384,1303.036c.5.192,1.69-.393,1.693.385,0,.816-1.176.384-1.838.461a11.759,11.759,0,0,1-1.571,0c-.3-.006-.62-.062-.612-.431s.334-.412.629-.416C-693.56,1303.031-693.035,1303.036-692.384,1303.036Z" transform="translate(720.092 -1303.003)" fill="#e8e7e7"/>
        <path id="Trazado_116207" data-name="Trazado 116207" d="M-621.422,1319.432c-.974-.556-2.01-1.141-3.032-1.749a.412.412,0,0,1,0-.37c.151-.092.389-.193.523-.134.914.4,1.816.838,2.708,1.291a.575.575,0,0,1,.289.612C-620.966,1319.316-621.139,1319.38-621.422,1319.432Z" transform="translate(670.242 -1313.054)" fill="#e8e7e7"/>
        <path id="Trazado_116208" data-name="Trazado 116208" d="M-718.445,1305a6.82,6.82,0,0,1,3.635-.835c.191,0,.4.064.4.313a.454.454,0,0,1-.452.472C-716.051,1304.891-717.2,1305.566-718.445,1305Z" transform="translate(736.94 -1303.826)" fill="#e8e7e7"/>
        <path id="Trazado_116209" data-name="Trazado 116209" d="M-762.219,1318.541c-.115-.05-.3-.07-.352-.164a.437.437,0,0,1,.219-.6c.91-.5,1.831-.989,2.765-1.447a.541.541,0,0,1,.5.144.385.385,0,0,1-.155.6C-760.223,1317.571-761.209,1318.045-762.219,1318.541Z" transform="translate(768.307 -1312.451)" fill="#e8e7e7"/>
        <path id="Trazado_116211" data-name="Trazado 116211" d="M-582.592,1346.981c-.092.378-.355.391-.61.143-.787-.767-1.552-1.555-2.312-2.349a.426.426,0,0,1-.081-.384.468.468,0,0,1,.361-.159A7.58,7.58,0,0,1-582.592,1346.981Z" transform="translate(642.635 -1332.275)" fill="#e8e7e7"/>
        <path id="Trazado_116212" data-name="Trazado 116212" d="M-600.417,1331.414c-.05.34-.334.462-.509.314-.836-.707-1.951-1.025-2.646-1.916-.121-.155-.207-.351,0-.492a.451.451,0,0,1,.392-.059c.86.589,1.707,1.2,2.548,1.812C-600.53,1331.151-600.483,1331.307-600.417,1331.414Z" transform="translate(655.474 -1321.628)" fill="#e8e7e7"/>
        <path id="Trazado_116213" data-name="Trazado 116213" d="M-647.509,1309.552c1.633-.245,2.736.447,3.888.9a.44.44,0,0,1,.174.356.289.289,0,0,1-.419.25A12.385,12.385,0,0,1-647.509,1309.552Z" transform="translate(686.578 -1307.615)" fill="#e8e7e7"/>
        <path id="Trazado_116214" data-name="Trazado 116214" d="M-782.215,1330.582c.634-1.323,1.719-1.79,2.587-2.478a.54.54,0,0,1,.773.1c.188.313-.1.566-.361.645C-780.273,1329.155-780.768,1330.386-782.215,1330.582Z" transform="translate(782.215 -1320.739)" fill="#e8e7e7"/>
        <path id="Trazado_116215" data-name="Trazado 116215" d="M-670.053,1304.164c1.026.2,2,.385,2.981.576.26.051.456.19.393.481-.071.331-.318.261-.56.2a11.9,11.9,0,0,0-2.809-.46.47.47,0,0,1-.469-.454C-670.523,1304.169-670.232,1304.2-670.053,1304.164Z" transform="translate(702.913 -1303.827)" fill="#e8e7e7"/>
        <path id="Trazado_116216" data-name="Trazado 116216" d="M-736.79,1309.38a8.6,8.6,0,0,1-3.124,1.259c-.227.061-.513.065-.628-.179a.381.381,0,0,1,.3-.539C-739.184,1309.79-738.24,1309.015-736.79,1309.38Z" transform="translate(752.656 -1307.461)" fill="#e8e7e7"/>
        <path id="Trazado_116219" data-name="Trazado 116219" d="M-567.967,1363.682c-.113.216-.148.378-.247.449a.355.355,0,0,1-.515-.051,19.9,19.9,0,0,1-1.238-1.921c-.13-.244.005-.92.382-.6A11.762,11.762,0,0,1-567.967,1363.682Z" transform="translate(631.561 -1344.517)" fill="#e8e7e7"/>
      </g>
      <path id="Trazado_116222" data-name="Trazado 116222" d="M-392.693,1790.012c-2.8.134-5.6.117-8.406.006a1.056,1.056,0,0,1,.015-.247c2.338.009,4.676.011,7.013.031C-393.607,1789.808-393.11,1789.666-392.693,1790.012Z" transform="translate(-570.453 -370.54)" fill="#e5e4e4"/>
      <path id="Trazado_116226" data-name="Trazado 116226" d="M-911.612,1470.061l-.2.474C-911.748,1470.377-911.68,1470.219-911.612,1470.061Z" transform="translate(-233.021 -132.171)" fill="#f1f1f1"/>
      <path id="Trazado_116227" data-name="Trazado 116227" d="M-850.1,1598.516c-.619,1.85-2.3,2.748-3.657,3.861-5.809,4.75-11.828,9.233-17.784,13.8a74.757,74.757,0,0,1-11.4,7.693c-4.934,2.508-9.929,4.833-15.43,5.9a10.782,10.782,0,0,1-6.936-1.057c-5.2-2.484-9.553-6.16-13.921-9.819-.44-.369-.876-.743-1.3-1.1-.816.35-.2,1.313-.864,1.646a.754.754,0,0,1-.262-.941c.573-1.194.073-1.832-.9-2.593-1.687-1.325-3.193-2.879-4.771-4.341-4.911-4.549-9.258-9.648-14.006-14.356-.781-.775-1.558-1.556-2.3-2.37-2.8-3.08-5.513-6.246-8.4-9.241-2.393-2.481-4.816-5.042-6.26-8.09a23.462,23.462,0,0,1-2.337-14.317c.956-5.419,2.988-10.1,7.911-13.1a7.446,7.446,0,0,1,8.031.345,69.268,69.268,0,0,1,7.666,7.571c3.237,3.472,6.06,7.26,8.948,10.994,3.786,4.895,7.356,9.958,10.985,14.973,3.74,5.169,7.431,10.373,11.16,15.55q3.665,5.088,7.388,10.135c.517.7,1.1,1.375,2.182.807,3.455-1.817,6.93-3.6,10.4-5.39,2.058-.922,4.148-1.78,6.161-2.79,1.267-.635,2.787-.827,3.752-2.025l.929-.237a16.51,16.51,0,0,0,5.716-2.576.275.275,0,0,0,.252-.047l14.593-4.969c2.1.566,2.935,2.259,3.587,4.082C-850.716,1597.2-850.741,1598-850.1,1598.516Z" transform="translate(-201.12 -183.497)" fill="#fdc34e"/>
      <path id="Trazado_116228" data-name="Trazado 116228" d="M-895.771,1586.554c-3.467,1.794-6.942,3.572-10.4,5.39-1.08.568-1.666-.108-2.182-.807q-3.727-5.043-7.388-10.135c-3.729-5.177-7.42-10.381-11.16-15.55-3.629-5.016-7.2-10.078-10.985-14.973-2.888-3.734-5.711-7.522-8.948-10.994a69.252,69.252,0,0,0-7.666-7.571,7.445,7.445,0,0,0-8.03-.345c-4.922,3.006-6.955,7.684-7.911,13.1a23.462,23.462,0,0,0,2.337,14.317c1.444,3.048,3.867,5.609,6.26,8.09,2.888,3,5.6,6.161,8.4,9.241.74.814,1.516,1.6,2.3,2.37,4.748,4.708,9.1,9.808,14.006,14.357,1.578,1.462,3.085,3.016,4.772,4.341.969.761,1.468,1.4.9,2.593a.753.753,0,0,0,.262.94q-.042.373-.082.746c-.314.3-.243.682-.206,1.055a.572.572,0,0,1-.031.324c-.047.03-.137.073-.133.087a1.7,1.7,0,0,0,.115.253,4.758,4.758,0,0,1-.31,2.108c-.469.3-.37.733-.292,1.164l-.1,1.641c-.335.2-.376.422-.066.681q-.058.524-.114,1.048a2.786,2.786,0,0,0-.559,3.16c-.045.245-.09.49-.134.734a.453.453,0,0,0-.163.286l-.025.042c-.178.094-.45.147-.513.291-.11.251.127.363.356.41a.333.333,0,0,1,.108.232c-3.142.027-6.284.076-9.425.078q-15.37.016-30.739,0c-.753,0-1.506-.071-2.26-.109a22.5,22.5,0,0,1-.248-2.421c.011-10.32-.109-20.643.121-30.959.216-9.721.076-19.461.987-29.157.254-2.707.83-5.384,1.259-8.075.792-4.974,3.194-9.445,6.016-13.549,1.359-1.976,2.825-3.883,4.3-5.772.89-1.137,2.083-3.552,3.384-4.179a3.693,3.693,0,0,1,3.558-.03c3.511,1.712,7.138,3.188,10.729,4.734,3.073,1.323,6.205,2.515,9.221,3.953,1.649.786,3.525,1.366,4.562,3.105l.139-.008.137.024c.984.173,2.013,8.283,2.2,9.117a60.721,60.721,0,0,0,3.932,11.6c5.5,12.26,14.31,22.689,22.235,33.355a1.542,1.542,0,0,0,1.821.572A19.12,19.12,0,0,1-895.771,1586.554Z" transform="translate(-191.301 -164.978)" fill="#f9bb33"/>
      <path id="Trazado_116230" data-name="Trazado 116230" d="M-902.054,1509.552c-1.036-1.739-2.912-2.319-4.561-3.105-3.016-1.439-6.149-2.631-9.221-3.953-3.591-1.546-7.219-3.021-10.73-4.734a3.693,3.693,0,0,0-3.558.03c1.863-3.469,2.182-7.385,3.145-11.109.326-1.26.642-2.057,2.072-1.883a1.751,1.751,0,0,0,.912,1.188c4.049,2.792,8.075,5.618,12.123,8.414a3.251,3.251,0,0,0,.974.281,8.342,8.342,0,0,0,3.11,2.424c2.753,1.271,3.339,3.75,3.951,6.293a29.927,29.927,0,0,0,1.5,4.951l.255.42a.342.342,0,0,0,.056.273Q-902.04,1509.3-902.054,1509.552Z" transform="translate(-221.129 -141.726)" fill="#fdc34e"/>
      <path id="Trazado_116231" data-name="Trazado 116231" d="M-652.914,1655.512c-.638-.52-.614-1.315-.86-2-.652-1.823-1.488-3.516-3.586-4.082a9.124,9.124,0,0,0,1.212-1.456,38.693,38.693,0,0,1,7.013-9.666,11.537,11.537,0,0,1,1.312-.831c1.6-.74,2.166-.32,2.048,1.462a10.215,10.215,0,0,0-1.771,3.253c2.051-1,3.66-1.859,5.332-2.571,1.756-.748,3-2.371,4.926-2.795,1.459,2.333.645,4.737.123,7.083a10.529,10.529,0,0,1-4.335,6.531,28.025,28.025,0,0,0-4.9,2.506C-648.594,1653.744-650.627,1654.949-652.914,1655.512Z" transform="translate(-398.308 -240.492)" fill="#ea8973"/>
      <path id="Trazado_116232" data-name="Trazado 116232" d="M-619.1,1588.221c-1.927.424-3.17,2.047-4.926,2.795-1.672.712-3.281,1.574-5.332,2.571a10.21,10.21,0,0,1,1.771-3.252c.271-.075.666-.061.8-.239,2.215-3.048,5.314-5.2,7.956-7.805,6.576-6.5,13.28-12.863,19.939-19.274a4.942,4.942,0,0,1,.974-.722,1.6,1.6,0,0,1,2.3.476,1.639,1.639,0,0,1-.324,2.338c-4.735,4.563-9.48,9.117-14.185,13.711-.677.661-1.872.862-1.958,2.081C-614.708,1583.065-617.338,1585.225-619.1,1588.221Z" transform="translate(-416.501 -191.892)" fill="#fcfcfc"/>
      <path id="Trazado_116234" data-name="Trazado 116234" d="M-850.58,1552.462l-.255-.42Z" transform="translate(-272.633 -185.423)" fill="#e5e4e4"/>
      <path id="Trazado_116235" data-name="Trazado 116235" d="M-783.6,1688.342l-.282-.408Z" transform="translate(-316.124 -273.694)" fill="#e5e4e4"/>
      <path id="Trazado_116236" data-name="Trazado 116236" d="M-821.488,1635.276l-.258-.332Z" transform="translate(-291.529 -239.273)" fill="#e5e4e4"/>
      <path id="Trazado_116237" data-name="Trazado 116237" d="M-819.788,1637.494l-.34-.444Z" transform="translate(-292.579 -240.641)" fill="#e5e4e4"/>
      <path id="Trazado_116238" data-name="Trazado 116238" d="M-815.624,1643.347l-.3-.387Z" transform="translate(-295.312 -244.479)" fill="#e5e4e4"/>
      <path id="Trazado_116239" data-name="Trazado 116239" d="M-811.838,1648.5l-.365-.44Z" transform="translate(-297.727 -247.789)" fill="#e5e4e4"/>
      <path id="Trazado_116240" data-name="Trazado 116240" d="M-808.554,1653.3l-.28-.351Z" transform="translate(-299.916 -250.966)" fill="#e5e4e4"/>
      <path id="Trazado_116241" data-name="Trazado 116241" d="M-804.461,1659.241l-.252-.327Z" transform="translate(-302.593 -254.843)" fill="#e5e4e4"/>
      <path id="Trazado_116242" data-name="Trazado 116242" d="M-801.53,1663.268l-.28-.337Z" transform="translate(-304.478 -257.452)" fill="#e5e4e4"/>
      <path id="Trazado_116243" data-name="Trazado 116243" d="M-853.664,1779.012a2.787,2.787,0,0,1,.559-3.16A8.886,8.886,0,0,1-853.664,1779.012Z" transform="translate(-270.615 -330.802)" fill="#fdc34e"/>
      <path id="Trazado_116244" data-name="Trazado 116244" d="M-855.229,1788.6c-.229-.047-.466-.159-.356-.41.063-.144.335-.2.513-.292Z" transform="translate(-269.529 -338.627)" fill="#fdc34e"/>
      <path id="Trazado_116245" data-name="Trazado 116245" d="M-850.892,1764.078c-.078-.432-.177-.869.292-1.164A1.207,1.207,0,0,1-850.892,1764.078Z" transform="translate(-272.553 -322.397)" fill="#fdc34e"/>
      <path id="Trazado_116246" data-name="Trazado 116246" d="M-848.978,1753.045c-.037-.373-.108-.751.206-1.055A.835.835,0,0,1-848.978,1753.045Z" transform="translate(-273.817 -315.303)" fill="#fdc34e"/>
      <path id="Trazado_116247" data-name="Trazado 116247" d="M-851.62,1771.6c-.31-.259-.269-.484.066-.68Q-851.587,1771.26-851.62,1771.6Z" transform="translate(-271.987 -327.597)" fill="#fdc34e"/>
      <path id="Trazado_116248" data-name="Trazado 116248" d="M-849.266,1756.267a1.7,1.7,0,0,1-.115-.253c0-.014.086-.058.133-.087A.39.39,0,0,1-849.266,1756.267Z" transform="translate(-273.577 -317.859)" fill="#fdc34e"/>
      <path id="Trazado_116249" data-name="Trazado 116249" d="M-854,1787.25a.454.454,0,0,1,.163-.286Z" transform="translate(-270.579 -338.019)" fill="#fdc34e"/>
      <path id="Trazado_116263" data-name="Trazado 116263" d="M-936.3,1527.84a.607.607,0,0,1-.668.754A1.05,1.05,0,0,1-936.3,1527.84Z" transform="translate(-216.681 -169.701)" fill="#fdc34e"/>
      <g id="Grupo_128089" data-name="Grupo 128089" transform="translate(-1090.907 1317.635)">
        <path id="Trazado_116189" data-name="Trazado 116189" d="M-660.369,1361.782a25.275,25.275,0,0,1-10.58,19.051,24.9,24.9,0,0,1-32.914-4.616c-9.141-11.137-6.254-28.819,5.937-36.508,12.226-7.711,28.943-2.558,35.25,10.275A23.377,23.377,0,0,1-660.369,1361.782Zm-23.764-12.121c-5.945.209-11.345,1.886-15.706,6.2-.5.494-1.425,1.015-.722,1.846.776.916,1.456.154,2.116-.4,8.83-7.405,19.027-7.464,27.95-.182.627.511,1.4,1.413,2.144.609.856-.919-.118-1.687-.79-2.268A23.472,23.472,0,0,0-684.132,1349.661Zm.68,5.52c-5.049.006-9.106,1.32-12.519,4.377-.54.484-1.344,1.08-.623,1.869.644.706,1.346.17,1.984-.307,7.113-5.309,12.988-5.316,20.461-.024.633.448,1.312,1.093,1.981.413.778-.791-.148-1.391-.629-1.857A15.748,15.748,0,0,0-683.452,1355.182Zm-.714,5.37a12.351,12.351,0,0,0-7.886,2.751c-.622.572-1.411,1.231-.654,2.092.723.822,1.335-.08,1.915-.463,4.776-3.145,8.391-3.125,12.929.095.589.418,1.161,1.208,1.884.29.648-.822,0-1.414-.583-1.894A12.335,12.335,0,0,0-684.166,1360.551Zm-.181,5.3a7.683,7.683,0,0,0-4.236,1.61c-.506.463-.975,1.03-.444,1.741.484.649,1.034.313,1.533-.044a4.83,4.83,0,0,1,6.258.047c.521.394,1.055.613,1.5-.053a1.1,1.1,0,0,0-.337-1.553A7.6,7.6,0,0,0-684.346,1365.853Zm1.4,6.78a1.374,1.374,0,0,0-1.634-1.444,1.358,1.358,0,0,0-1.324,1.521c.027.978.511,1.615,1.518,1.592S-682.943,1373.609-682.944,1372.633Z" transform="translate(709.233 -1336.089)" fill="#fcce57"/>
        <path id="Trazado_116264" data-name="Trazado 116264" d="M-675.859,1363a23.474,23.474,0,0,1,14.993,5.809c.672.581,1.646,1.349.79,2.268-.749.8-1.517-.1-2.144-.609-8.923-7.281-19.12-7.223-27.95.182-.66.554-1.34,1.315-2.116.4-.7-.83.222-1.351.722-1.845C-687.2,1364.887-681.8,1363.21-675.859,1363Z" transform="translate(700.959 -1349.428)" fill="#e8e7e7"/>
        <path id="Trazado_116265" data-name="Trazado 116265" d="M-671.312,1373.946a15.749,15.749,0,0,1,10.654,4.471c.481.467,1.407,1.067.629,1.858-.668.68-1.348.035-1.981-.413-7.473-5.292-13.348-5.285-20.461.024-.639.477-1.34,1.013-1.984.307-.721-.789.083-1.386.623-1.87C-680.418,1375.266-676.361,1373.952-671.312,1373.946Z" transform="translate(697.092 -1354.853)" fill="#e8e7e7"/>
        <path id="Trazado_116266" data-name="Trazado 116266" d="M-668.228,1384.592a12.337,12.337,0,0,1,7.6,2.872c.588.479,1.232,1.072.583,1.894-.723.918-1.295.128-1.884-.29-4.538-3.221-8.153-3.24-12.929-.1-.58.382-1.192,1.286-1.915.463-.757-.861.032-1.52.655-2.092A12.349,12.349,0,0,1-668.228,1384.592Z" transform="translate(693.295 -1360.129)" fill="#e8e7e7"/>
        <path id="Trazado_116267" data-name="Trazado 116267" d="M-664.717,1395.106a7.6,7.6,0,0,1,4.276,1.747,1.1,1.1,0,0,1,.337,1.553c-.448.667-.981.447-1.5.053a4.83,4.83,0,0,0-6.258-.047c-.5.357-1.049.692-1.533.044-.53-.711-.061-1.278.444-1.741A7.679,7.679,0,0,1-664.717,1395.106Z" transform="translate(689.603 -1365.342)" fill="#e8e7e7"/>
        <path id="Trazado_116268" data-name="Trazado 116268" d="M-660.015,1407.122c0,.977-.427,1.645-1.439,1.668s-1.492-.614-1.518-1.592a1.358,1.358,0,0,1,1.324-1.521A1.374,1.374,0,0,1-660.015,1407.122Z" transform="translate(686.304 -1370.577)" fill="#e8e7e7"/>
      </g>
      <path id="Trazado_116286" data-name="Trazado 116286" d="M-846.852,1565.685a.9.9,0,0,1,.354.782C-846.885,1566.327-846.915,1566.027-846.852,1565.685Z" transform="translate(-275.204 -194.284)" fill="#fdc34e"/>
      <path id="Trazado_116287" data-name="Trazado 116287" d="M-847.775,1562.566l.256.5Z" transform="translate(-274.621 -192.258)" fill="#fdc34e"/>
      <g id="Grupo_128087" data-name="Grupo 128087" transform="translate(-1012.621 1375.121)">
        <path id="Trazado_116190" data-name="Trazado 116190" d="M-410.861,1609.981c3.069.753,6.188.2,9.279.36,2.28,0,4.565.1,6.838-.028,1.588-.088,2.121.34,2.1,2.026-.09,8.193-.042,16.387-.039,24.581a3.871,3.871,0,0,0,.367,2.331q-10.65.031-21.3.061c-2.971.007-3.2.123-3.059,3.15.148,3.248.323,6.412-2.945,8.429-.031.019-.013.118-.017.179-4.138.318-6.454-1.766-6.455-5.811q0-16.229,0-32.458c0-2.454,0-2.455,2.54-2.455,3.587,0,7.173.012,10.76-.012C-412.138,1610.331-411.413,1610.58-410.861,1609.981Zm1.468,14.838c3.4,0,6.79,0,10.185,0,.734,0,1.661.085,1.6-1-.053-.925-.907-.843-1.583-.843q-10.185-.005-20.371,0c-.732,0-1.661-.089-1.6,1,.054.928.911.84,1.584.841Q-414.486,1624.826-409.393,1624.819Zm.023,10.761h4.638c1.979,0,3.958,0,5.937-.008.6,0,1.168-.159,1.2-.866.03-.624-.556-.756-1.016-.9a3.135,3.135,0,0,0-.918-.077q-10.019-.006-20.038,0c-.734,0-1.665-.086-1.6,1.007.056.928.915.838,1.589.839Q-414.472,1635.587-409.37,1635.58Zm-.2-5.562c3.459,0,6.919.006,10.378-.005.594,0,1.459.136,1.488-.677.036-.995-.909-.8-1.544-.8q-10.285-.021-20.571,0c-.57,0-1.4-.2-1.365.764.031.945.855.709,1.42.712C-416.368,1630.03-412.971,1630.02-409.573,1630.019Zm3.6-12.243a1.937,1.937,0,0,0,1.669-2.088,1.783,1.783,0,0,0-1.919-1.614,1.755,1.755,0,0,0-1.872,1.854C-408.086,1616.934-407.4,1617.746-405.973,1617.776Zm-12.3-1.9c.023-1.3-.845-1.77-1.9-1.765a1.682,1.682,0,0,0-1.721,1.621,1.954,1.954,0,0,0,2.039,1.986C-418.7,1617.767-418.291,1616.941-418.276,1615.876Zm7.048-.108a1.649,1.649,0,0,0-1.9-1.65c-.866.01-1.846.34-1.763,1.463.08,1.078.551,2.181,1.861,2.12A1.939,1.939,0,0,0-411.228,1615.768Zm11.772-1.729c-.914.324-1.717.834-1.713,1.876a1.818,1.818,0,0,0,1.975,1.759,1.724,1.724,0,0,0,1.587-1.916C-397.619,1614.775-398.439,1614.217-399.456,1614.039Z" transform="translate(448.025 -1598.582)" fill="#e8e7e7"/>
        <path id="Trazado_116197" data-name="Trazado 116197" d="M-408.7,1700.651c0-.062-.014-.16.017-.18,3.269-2.016,3.093-5.18,2.945-8.429-.138-3.026.088-3.142,3.059-3.149q10.65-.026,21.3-.061c3.635.213,3.646.213,3.634,3.927a21.632,21.632,0,0,1-.155,4.057,4.9,4.9,0,0,1-4.989,3.835c-4.815.045-9.631.069-14.447.1l-2.575-.025Z" transform="translate(437.094 -1648.162)" fill="#fcce57"/>
        <path id="Trazado_116229" data-name="Trazado 116229" d="M-456.79,1631.761l8.789.077c-.127,3.293.611,2.978-3.126,2.981-10.618.009-21.236-.03-31.854.038-1.645.01-2.215-.356-2.2-2.124.088-9.565.037-19.132.034-28.7,0-7.661.032-15.323-.016-22.985-.008-1.3.154-1.615,1.663-1.591,8.9.143,17.8.075,26.7.069.885,0,1.8-.643,2.647.115-.011,1.405.054,2.817-.057,4.214-.106,1.338.3,1.908,1.718,1.8,1.335-.1,2.686,0,4.03.014.817,1.607.289,3.336.447,5-.552.6-1.277.35-1.927.354-3.586.024-7.173.011-10.76.012-2.538,0-2.539,0-2.539,2.455q0,16.229,0,32.458C-463.244,1630-460.928,1632.08-456.79,1631.761Zm-16.872-20.267c1.2-.2,3.078.718,4.021-.24,1-1.016.316-2.924.333-4.437.051-4.5.018-4.5-4.516-4.508-4.652-.007-4.652-.007-4.653,4.557C-478.476,1611.494-478.476,1611.494-473.662,1611.494Zm4.393-19.882c.008-4.59.008-4.59-4.617-4.59-4.583,0-4.583,0-4.581,4.62,0,4.585,0,4.585,4.608,4.585C-469.277,1596.227-469.277,1596.227-469.269,1591.612Zm-4.528,26.078h-.185c-4.486,0-4.486,0-4.486,4.529,0,4.634,0,4.634,4.608,4.634,4.583,0,4.583,0,4.586-4.656C-469.27,1617.69-469.27,1617.69-473.8,1617.69Z" transform="translate(485.181 -1579.273)" fill="#fcfcfc"/>
        <path id="Trazado_116233" data-name="Trazado 116233" d="M-396.037,1586.3c-1.344-.013-2.7-.116-4.03-.013-1.42.109-1.824-.461-1.718-1.8.111-1.4.045-2.809.057-4.214C-399.606,1582.065-397.325,1583.712-396.037,1586.3Z" transform="translate(432.753 -1579.9)" fill="#f34d4e"/>
        <path id="Trazado_116269" data-name="Trazado 116269" d="M-401.054,1646.811q-5.093,0-10.185,0c-.673,0-1.53.087-1.584-.842-.063-1.092.866-1,1.6-1q10.186-.012,20.371,0c.676,0,1.529-.081,1.583.843.064,1.09-.863,1-1.6,1C-394.264,1646.816-397.659,1646.811-401.054,1646.811Z" transform="translate(439.685 -1620.574)" fill="#fcfcfc"/>
        <path id="Trazado_116270" data-name="Trazado 116270" d="M-401.034,1675.8q-5.1,0-10.2,0c-.674,0-1.534.09-1.589-.839-.065-1.093.865-1.006,1.6-1.007q10.019-.01,20.038,0a3.13,3.13,0,0,1,.918.077c.459.143,1.045.276,1.016.9-.034.708-.6.864-1.2.866-1.979.008-3.958.006-5.937.008Q-398.715,1675.8-401.034,1675.8Z" transform="translate(439.689 -1638.803)" fill="#fcfcfc"/>
        <path id="Trazado_116271" data-name="Trazado 116271" d="M-401.27,1661.417c-3.4,0-6.8.011-10.193-.009-.565,0-1.389.233-1.42-.712-.032-.966.795-.763,1.365-.764q10.286-.019,20.571,0c.634,0,1.58-.193,1.544.8-.029.813-.894.675-1.488.677C-394.351,1661.422-397.811,1661.416-401.27,1661.417Z" transform="translate(439.723 -1629.98)" fill="#fdfdfd"/>
        <path id="Trazado_116272" data-name="Trazado 116272" d="M-375.493,1624.708c-1.43-.03-2.113-.841-2.121-1.847a1.755,1.755,0,0,1,1.872-1.854,1.783,1.783,0,0,1,1.919,1.614A1.937,1.937,0,0,1-375.493,1624.708Z" transform="translate(417.545 -1605.515)" fill="#fcfcfc"/>
        <path id="Trazado_116273" data-name="Trazado 116273" d="M-411.182,1622.871c-.015,1.065-.42,1.892-1.586,1.843a1.954,1.954,0,0,1-2.039-1.986,1.681,1.681,0,0,1,1.721-1.621C-412.027,1621.1-411.159,1621.574-411.182,1622.871Z" transform="translate(440.931 -1605.577)" fill="#fcfcfc"/>
        <path id="Trazado_116274" data-name="Trazado 116274" d="M-392.271,1622.776a1.94,1.94,0,0,1-1.8,1.933c-1.31.061-1.78-1.042-1.861-2.12-.084-1.124.9-1.453,1.763-1.463A1.649,1.649,0,0,1-392.271,1622.776Z" transform="translate(429.068 -1605.59)" fill="#fcfcfc"/>
        <path id="Trazado_116275" data-name="Trazado 116275" d="M-357.245,1620.913c1.017.178,1.837.736,1.849,1.719a1.724,1.724,0,0,1-1.587,1.915,1.818,1.818,0,0,1-1.975-1.759C-358.963,1621.747-358.159,1621.237-357.245,1620.913Z" transform="translate(405.814 -1605.456)" fill="#fcfcfc"/>
        <path id="Trazado_116288" data-name="Trazado 116288" d="M-462.3,1650.515c-4.814,0-4.814,0-4.814-4.627,0-4.565,0-4.565,4.652-4.558,4.534.007,4.567.007,4.516,4.508-.017,1.513.667,3.42-.333,4.436C-459.226,1651.233-461.1,1650.315-462.3,1650.515Z" transform="translate(473.823 -1618.294)" fill="#b8dcfb"/>
        <path id="Trazado_116289" data-name="Trazado 116289" d="M-457.9,1604.738c-.008,4.614-.008,4.614-4.591,4.614-4.607,0-4.607,0-4.608-4.584,0-4.62,0-4.62,4.581-4.62C-457.889,1600.148-457.889,1600.148-457.9,1604.738Z" transform="translate(473.809 -1592.399)" fill="#538dc8"/>
        <path id="Trazado_116290" data-name="Trazado 116290" d="M-462.426,1682.762c4.526,0,4.526,0,4.523,4.507,0,4.657,0,4.657-4.586,4.656-4.608,0-4.608,0-4.608-4.634,0-4.529,0-4.529,4.486-4.529Z" transform="translate(473.81 -1644.346)" fill="#538dc8"/>
      </g>
      <g id="Grupo_128086" data-name="Grupo 128086" transform="translate(-1025.414 1254.375)">
        <path id="Trazado_116186" data-name="Trazado 116186" d="M-536.071,1425.771c-1.634.13-2.109-.522-2.1-2.231.072-10.957,0-21.914-.027-32.872q.037-11.635.078-23.269c0-.754.055-1.507.084-2.26q21.758.01,43.516.018,14.126,0,28.252-.053a.275.275,0,0,1-.038.357c-.765.743-.417,1.694-.418,2.545q-.051,28.777-.054,57.554c-.82.041-1.639.119-2.459.119q-31.977.011-63.954.011C-534.149,1425.691-535.11,1425.743-536.071,1425.771Zm8.353-42.056.1.161-.563.2a3.061,3.061,0,0,0-.1,3.278c.9.755,1.989.4,2.937.307,1.764-.169,2.125.474,2.108,2.155-.085,8.5-.028,17-.021,25.5-1.143.047-2.285.1-3.428.139-.544.02-1.223-.021-1.208.721.026,1.291-.446,2.6.091,3.876.272,1.129,1.2.722,1.865.722q24.539.032,49.08.013c.87,0,2.152.225,2.217-.9.084-1.44.748-3.048-.443-4.393l.033.032c-.462-1.487-2.363-1.174-2.719-1.031-2.177.873-1.749-.643-1.752-1.68-.024-7.478.013-14.954-.039-22.431a2.684,2.684,0,0,1,1.256-2.572h1.264a.682.682,0,0,0,1.207.009l.857-.461a1.942,1.942,0,0,0,.023-2.449q-.032-.378-.064-.756c.057-1.006-.713-1.136-1.417-1.464-4.959-2.31-9.668-5.109-14.66-7.377a42.137,42.137,0,0,1-7.381-3.891.9.9,0,0,0-1.286.254.763.763,0,0,1-.816-.4c-.919-1.517-2.312-1.108-3.195-.322a20.108,20.108,0,0,1-2.73,1.6c-1.455.965-3.595.919-4.377,2.886l.015-.014a7.8,7.8,0,0,0-1.416.1c-2.984.759-5.2,3.515-8.569,3.3-.093-.006-.245.15-.291.262-.65,1.588-2.277,1.825-3.532,2.579-.56.336-1.341.439-1.435,1.3l.04-.043C-526.733,1382.943-527.67,1382.4-527.718,1383.715Z" transform="translate(538.195 -1353.56)" fill="#1d386d"/>
        <path id="Trazado_116193" data-name="Trazado 116193" d="M-466.179,1348.683q-14.126.027-28.252.053-21.758.006-43.516-.018c-.028-3.434-.03-6.869-.1-10.3-.021-1.031.435-1.3,1.358-1.275,1.511.04,3.024.012,4.536.012h63.514c2.647,0,2.69.006,2.64,2.693C-466.055,1342.792-465.765,1345.745-466.179,1348.683Zm-55.988-5.517a1.025,1.025,0,0,0-1.024-1.072.977.977,0,0,0-1.119.953.991.991,0,0,0,1.013,1.07A1.027,1.027,0,0,0-522.168,1343.166Zm7.605-1.074a.949.949,0,0,0-.843,1.157.883.883,0,0,0,.954.865.947.947,0,0,0,1-1.055A.968.968,0,0,0-514.563,1342.092Zm-16.46.987c-.109-.624-.449-1.029-1.105-.966a.947.947,0,0,0-.94,1.111.93.93,0,0,0,.981.867C-531.445,1344.115-531.105,1343.7-531.023,1343.079Z" transform="translate(538.109 -1337.139)" fill="#fcce57"/>
        <path id="Trazado_116205" data-name="Trazado 116205" d="M-365.22,1426.067q.018-28.777.054-57.554c0-.851-.348-1.8.418-2.545a.231.231,0,0,1,.039.353q-.005.519-.011,1.039c.032,2.329.089,4.659.091,6.988q.014,24.9-.017,49.808C-364.648,1424.79-364.116,1425.714-365.22,1426.067Z" transform="translate(436.64 -1354.067)" fill="#132a51"/>
        <path id="Trazado_116225" data-name="Trazado 116225" d="M-363.976,1367.861q.006-.52.011-1.039A1.062,1.062,0,0,1-363.976,1367.861Z" transform="translate(435.895 -1354.568)" fill="#1d386d"/>
        <path id="Trazado_116250" data-name="Trazado 116250" d="M-509.154,1441.792c-.007-8.5-.064-17,.021-25.5.017-1.68-.345-2.323-2.108-2.154-.947.09-2.033.448-2.937-.307q.048-1.639.1-3.278l.562-.2.033-.035.733-.11c.73.562,1.585.345,2.387.345q23.041.026,46.082.021a3.769,3.769,0,0,0,2.193-.379l1.179.434.064.757q-.011,1.225-.023,2.449l-.857.461-1.208-.009H-464.2c-1.34-.333-1.747.137-1.739,1.549.049,8.635,0,17.271-.019,25.907a30.559,30.559,0,0,1-6.37.071c-.007-8.526,0-17.052-.049-25.579,0-.639.551-1.524-.476-1.954l-1.25.008-1.628,0-1.257,0-.4,0c-.875-.209-.847.383-.845.952q.046,12.721.092,25.441-.042.569-.085,1.137a34.171,34.171,0,0,1-6.319-.026q0-11.725-.008-23.451c0-4.183-.006-4.1-4.147-4.194-1.589-.038-1.9.446-1.885,1.941.069,8.57.025,17.141.019,25.713a31.984,31.984,0,0,1-6.283-.019q0-11.746-.005-23.491c0-4.144,0-4.074-4.229-4.132-1.485-.02-1.8.454-1.788,1.858.048,8.585,0,17.171-.019,25.756A29.4,29.4,0,0,1-509.154,1441.792Z" transform="translate(524.093 -1380.039)" fill="#f8faf8"/>
        <path id="Trazado_116251" data-name="Trazado 116251" d="M-460.065,1392.311a3.768,3.768,0,0,1-2.193.379q-23.041,0-46.082-.021c-.8,0-1.657.216-2.385-.346q.4-.4.79-.805l-.04.042c5.208-2.259,10.261-4.829,15.243-7.543l-.015.014c2.592-1.23,5.19-2.451,7.774-3.7a3.055,3.055,0,0,1,2.527-.465.763.763,0,0,0,.816.4l6.557,3.393C-471.423,1386.583-465.59,1389.144-460.065,1392.311Zm-25.387-2.714a2.512,2.512,0,0,0,2.628-2.566,2.417,2.417,0,0,0-2.4-2.576,2.426,2.426,0,0,0-2.735,2.444A2.556,2.556,0,0,0-485.452,1389.6Z" transform="translate(522.064 -1362.151)" fill="#fcce57"/>
        <path id="Trazado_116252" data-name="Trazado 116252" d="M-472.015,1486.687a30.576,30.576,0,0,0,6.37-.069l5.011.258-.033-.033c.016.893-.04,1.794.063,2.677.171,1.471-.435,1.9-1.861,1.839-2.332-.105-4.672-.035-7.009-.031q-21.956.035-43.912.075c-.537-1.277-.064-2.585-.091-3.876-.015-.741.665-.7,1.208-.721,1.143-.042,2.285-.092,3.428-.14a29.5,29.5,0,0,0,6.261-.026,23.958,23.958,0,0,0,6.041.01,32.051,32.051,0,0,0,6.283.02,27.2,27.2,0,0,0,6.022-.01,34.239,34.239,0,0,0,6.32.027Z" transform="translate(523.779 -1424.911)" fill="#fcce57"/>
        <path id="Trazado_116253" data-name="Trazado 116253" d="M-513.02,1491.723q21.956-.038,43.912-.075c2.337,0,4.677-.074,7.009.031,1.426.064,2.032-.369,1.861-1.839-.1-.883-.047-1.784-.063-2.677,1.191,1.346.527,2.953.443,4.393-.065,1.127-1.347.9-2.217.9q-24.54.008-49.08-.013C-511.823,1492.445-512.748,1492.852-513.02,1491.723Z" transform="translate(523.412 -1425.232)" fill="#132a51"/>
        <path id="Trazado_116254" data-name="Trazado 116254" d="M-421.524,1392.465c-5.525-3.166-11.359-5.728-17.008-8.652l-6.557-3.393a.9.9,0,0,1,1.286-.254,42.124,42.124,0,0,0,7.381,3.891c4.991,2.269,9.7,5.067,14.66,7.378.7.328,1.474.458,1.417,1.464Z" transform="translate(483.523 -1362.305)" fill="#132a51"/>
        <path id="Trazado_116255" data-name="Trazado 116255" d="M-392.359,1447.676q-2.505-.129-5.011-.258c.017-8.636.067-17.272.018-25.907-.008-1.412.4-1.882,1.739-1.548a2.682,2.682,0,0,0-1.256,2.572c.052,7.477.014,14.954.039,22.431,0,1.037-.425,2.553,1.752,1.681C-394.722,1446.5-392.821,1446.189-392.359,1447.676Z" transform="translate(455.503 -1385.711)" fill="#132a51"/>
        <path id="Trazado_116256" data-name="Trazado 116256" d="M-493.666,1390.107c-4.982,2.713-10.035,5.283-15.242,7.542.094-.855.876-.959,1.436-1.295,1.255-.754,2.882-.99,3.532-2.579.046-.112.2-.268.291-.263,3.368.213,5.585-2.544,8.569-3.3A7.773,7.773,0,0,1-493.666,1390.107Z" transform="translate(520.998 -1368.24)" fill="#132a51"/>
        <path id="Trazado_116257" data-name="Trazado 116257" d="M-461.718,1378.6a3.055,3.055,0,0,0-2.527.465c-2.584,1.248-5.182,2.468-7.774,3.7.782-1.967,2.922-1.92,4.377-2.886a20.066,20.066,0,0,0,2.73-1.6C-464.03,1377.49-462.637,1377.08-461.718,1378.6Z" transform="translate(499.337 -1360.881)" fill="#132a51"/>
        <path id="Trazado_116258" data-name="Trazado 116258" d="M-514.692,1411.07l-.1,3.278A3.061,3.061,0,0,1-514.692,1411.07Z" transform="translate(524.702 -1380.551)" fill="#132a51"/>
        <path id="Trazado_116259" data-name="Trazado 116259" d="M-511.162,1408.138q-.393.4-.79.8l-.734.112s-.129-.127-.129-.127C-512.767,1407.613-511.83,1408.156-511.162,1408.138Z" transform="translate(523.292 -1378.771)" fill="#132a51"/>
        <path id="Trazado_116260" data-name="Trazado 116260" d="M-385.049,1415.531q.011-1.225.023-2.449A1.942,1.942,0,0,1-385.049,1415.531Z" transform="translate(448.269 -1381.732)" fill="#132a51"/>
        <path id="Trazado_116261" data-name="Trazado 116261" d="M-390.051,1420.11l1.208.009A.682.682,0,0,1-390.051,1420.11Z" transform="translate(451.206 -1385.858)" fill="#132a51"/>
        <path id="Trazado_116262" data-name="Trazado 116262" d="M-512.815,1410.188s.131.127.129.127a.474.474,0,0,0-.035.035Z" transform="translate(523.292 -1380.033)" fill="#f7bc38"/>
        <path id="Trazado_116281" data-name="Trazado 116281" d="M-502.629,1350.212a1.028,1.028,0,0,1-1.13.951.992.992,0,0,1-1.013-1.07.977.977,0,0,1,1.119-.952A1.024,1.024,0,0,1-502.629,1350.212Z" transform="translate(518.57 -1344.185)" fill="#e5e4e4"/>
        <path id="Trazado_116282" data-name="Trazado 116282" d="M-482.368,1349.137a.967.967,0,0,1,1.107.967.947.947,0,0,1-1,1.055.883.883,0,0,1-.954-.865A.949.949,0,0,1-482.368,1349.137Z" transform="translate(505.914 -1344.183)" fill="#e8e7e7"/>
        <path id="Trazado_116283" data-name="Trazado 116283" d="M-523.946,1350.146c-.082.625-.422,1.036-1.064,1.012a.93.93,0,0,1-.981-.867.946.946,0,0,1,.94-1.111C-524.395,1349.117-524.055,1349.522-523.946,1350.146Z" transform="translate(531.032 -1344.206)" fill="#e8e7e7"/>
        <path id="Trazado_116291" data-name="Trazado 116291" d="M-451,1447.393a27.174,27.174,0,0,1-6.022.01c.006-8.572.05-17.144-.019-25.714-.012-1.5.3-1.979,1.885-1.941,4.142.1,4.145.012,4.147,4.194Q-451,1435.668-451,1447.393Z" transform="translate(490.54 -1385.644)" fill="#1d386d"/>
        <path id="Trazado_116292" data-name="Trazado 116292" d="M-480.8,1447.4a23.976,23.976,0,0,1-6.041-.01c.017-8.586.067-17.171.019-25.756-.008-1.4.3-1.878,1.788-1.858,4.23.058,4.229-.012,4.229,4.132Q-480.807,1435.657-480.8,1447.4Z" transform="translate(508.041 -1385.663)" fill="#1d386d"/>
        <path id="Trazado_116293" data-name="Trazado 116293" d="M-427.021,1446.427q-.046-12.721-.092-25.441c0-.569-.03-1.161.845-.952.132.232.266.232.4,0l1.257,0a1.015,1.015,0,0,0,1.628,0l1.25-.008c0,.411,0,.822,0,1.233q0,11.922-.009,23.845c0,.9.27,2.154-1.273,2.018C-424.361,1447.009-425.686,1446.67-427.021,1446.427Z" transform="translate(472.969 -1385.789)" fill="#1d386d"/>
        <path id="Trazado_116294" data-name="Trazado 116294" d="M-427.01,1446.485c1.335.242,2.661.582,4.006.7,1.543.137,1.271-1.115,1.273-2.018q.025-11.922.009-23.845c0-.411,0-.822,0-1.234,1.027.43.472,1.315.476,1.954.05,8.526.042,17.053.049,25.579h-5.9Z" transform="translate(472.957 -1385.846)" fill="#132a51"/>
        <path id="Trazado_116295" data-name="Trazado 116295" d="M-419.417,1420.109a1.016,1.016,0,0,1-1.628,0Z" transform="translate(469.406 -1385.858)" fill="#132a51"/>
        <path id="Trazado_116296" data-name="Trazado 116296" d="M-424.663,1420.1c-.136.229-.27.229-.4,0Z" transform="translate(471.766 -1385.849)" fill="#132a51"/>
        <path id="Trazado_116297" data-name="Trazado 116297" d="M-453.089,1396.3a2.556,2.556,0,0,1-2.5-2.7,2.426,2.426,0,0,1,2.735-2.443,2.417,2.417,0,0,1,2.4,2.576A2.512,2.512,0,0,1-453.089,1396.3Z" transform="translate(489.702 -1368.851)" fill="#1d386d"/>
      </g>
      <g id="Grupo_128088" data-name="Grupo 128088" transform="translate(-1209.389 1232.667)">
        <path id="Trazado_116191" data-name="Trazado 116191" d="M-1183.489,1430.349a25.929,25.929,0,0,1-6.009.152,3.741,3.741,0,0,0-3.552,1.645c-1.061,1.477-2.35,2.792-3.559,4.161-.266.3-.546.727-1.059.47-.4-.2-.314-.621-.317-.972-.012-1.34-.05-2.681,0-4.019.039-.944-.3-1.234-1.257-1.272-3.957-.158-3.957-.192-3.959-4.257,0-6.456.027-12.912-.034-19.368-.013-1.442.314-2.016,1.916-2q15.167.11,30.335.009c1.469-.008,2.025.347,2,1.918-.087,5.6-.03,11.206-.043,16.809,0,.6-.11,1.205-.168,1.808-3.261.521-6.544.143-9.815.2-4.26.08-4.261.03-4.434,4.171C-1183.448,1429.986-1183.472,1430.167-1183.489,1430.349Zm-2.627-8.879c3.224,0,6.449.01,9.674-.01.562,0,1.39.194,1.39-.714,0-.856-.779-.778-1.378-.779q-9.673-.006-19.347.008c-.587,0-1.381-.107-1.391.758-.01.909.81.728,1.379.731C-1192.566,1421.48-1189.341,1421.471-1186.116,1421.469Zm-.067-7.393c3.219,0,6.438.007,9.657-.006.578,0,1.411.172,1.456-.665.054-1.018-.871-.81-1.486-.811q-9.566-.026-19.132-.006c-.579,0-1.418-.158-1.462.663-.054,1,.865.817,1.493.822C-1192.5,1414.091-1189.342,1414.081-1186.184,1414.076Z" transform="translate(1203.231 -1356.639)" fill="#538dc8"/>
        <path id="Trazado_116192" data-name="Trazado 116192" d="M-1149.352,1465.962c.017-.181.042-.362.05-.544.174-4.141.174-4.091,4.434-4.171,3.272-.061,6.554.317,9.815-.2,4.993.036,9.989.136,14.981.071,1.749-.023,2.3.512,2.273,2.284-.1,6.458-.077,12.919-.016,19.378.014,1.487-.416,2.068-1.968,2.005-2.616-.106-5.242.023-7.861-.045a2.276,2.276,0,0,0-2.46,1.374c-.773,1.583-1.765,3.058-2.636,4.6-.6,1.057-1.129,1.158-1.762.019-.918-1.65-1.924-3.252-2.816-4.915a1.853,1.853,0,0,0-1.9-1.077c-2.8.046-5.609-.036-8.41.041-1.371.038-1.791-.47-1.776-1.812C-1149.336,1477.294-1149.36,1471.628-1149.352,1465.962Zm15.421,4.866a2.3,2.3,0,0,0-2.393,2.237,2.23,2.23,0,0,0,2.344,2.264,2.139,2.139,0,0,0,2.275-2.125A2.238,2.238,0,0,0-1133.931,1470.827Zm-4.809,2.167a2.233,2.233,0,0,0-2.446-2.135,2.1,2.1,0,0,0-2.151,2.228,2.179,2.179,0,0,0,2.331,2.247A2.261,2.261,0,0,0-1138.74,1472.994Zm11.836-2.182a2.158,2.158,0,0,0-2.289,2.256,2.049,2.049,0,0,0,2.092,2.249,2.164,2.164,0,0,0,2.42-2.123A2.2,2.2,0,0,0-1126.9,1470.812Z" transform="translate(1169.094 -1392.251)" fill="#b8dcfb"/>
        <path id="Trazado_116194" data-name="Trazado 116194" d="M-1163.663,1640.124c0,4.143-.045,8.286.024,12.428.024,1.45-.516,1.907-1.928,1.9-6.154-.053-12.31-.062-18.464.005-1.557.017-1.977-.569-1.968-2.044q.077-12.337-.005-24.675c-.011-1.429.376-1.884,1.843-1.866q9.322.117,18.646.005c1.4-.015,1.924.32,1.887,1.822C-1163.729,1631.836-1163.662,1635.981-1163.663,1640.124Z" transform="translate(1192.306 -1496.779)" fill="#f1f1f1"/>
        <path id="Trazado_116195" data-name="Trazado 116195" d="M-1100.495,1596.394c-2.981,0-5.964-.045-8.944.022-1.2.027-1.581-.378-1.567-1.569.056-4.44.068-8.882-.006-13.321-.022-1.346.511-1.616,1.716-1.607q8.761.07,17.522,0c1.28-.013,1.681.385,1.662,1.663-.066,4.379-.081,8.761.006,13.139.028,1.436-.513,1.739-1.813,1.7C-1094.774,1596.337-1097.635,1596.394-1100.495,1596.394Z" transform="translate(1144.748 -1467.636)" fill="#f1f1f1"/>
        <path id="Trazado_116196" data-name="Trazado 116196" d="M-1144.87,1317.058c-3.166,0-6.333-.036-9.5.02-1.133.02-1.646-.253-1.625-1.514.066-3.956.046-7.914.011-11.87-.01-1.16.427-1.645,1.609-1.64q9.68.041,19.362,0c1.038-.005,1.376.378,1.367,1.391-.038,4.079-.05,8.158.005,12.236.016,1.2-.527,1.408-1.551,1.4C-1138.415,1317.033-1141.643,1317.058-1144.87,1317.058Z" transform="translate(1173.275 -1291.425)" fill="#f1f1f1"/>
        <path id="Trazado_116198" data-name="Trazado 116198" d="M-1053.98,1476.68c0-2.739.037-5.48-.018-8.218-.022-1.089.316-1.512,1.454-1.495,3.652.055,7.307.063,10.959,0,1.249-.023,1.532.472,1.523,1.614q-.067,8.126,0,16.254c.011,1.206-.4,1.551-1.579,1.564-3.766.043-7.539-.252-11.3.16-1.173.128-1.029-.775-1.033-1.475C-1053.99,1482.281-1053.98,1479.48-1053.98,1476.68Z" transform="translate(1108.593 -1396.005)" fill="#f1f1f1"/>
        <path id="Trazado_116200" data-name="Trazado 116200" d="M-1049.012,1291.5c0-4.509-.03-9.017.009-13.525.033-3.833,1.823-4.858,4.712-4.9,8.407-.121,16.818-.073,25.227-.025a4.6,4.6,0,0,1,4.447,4.6c-.015,1.183-.483,1.738-1.639,1.587-1.457-.19-1.7.525-1.69,1.805.048,8.042-.046,16.085.076,24.125.029,1.941-.591,2.314-2.373,2.282-5.848-.1-11.7.044-17.548-.066-2.99-.056-5.936.387-8.915.437-1.906.032-2.383-.636-2.341-2.433C-1048.94,1300.767-1049.012,1296.135-1049.012,1291.5Zm1.1-.319c0,4.509.079,9.02-.041,13.526-.044,1.678.531,1.99,2.083,2.008,6.818.078,13.617-.639,20.436-.407,1.583.054,3.172-.058,4.753.026,1.243.066,1.7-.316,1.694-1.631q-.08-11.882,0-23.764c.011-1.421-.489-1.729-1.8-1.715-5.972.06-11.945,0-17.918.05-1.326.011-1.974-.2-1.946-1.771.041-2.268-1.484-3.434-3.981-3.373a3.237,3.237,0,0,0-3.275,3.524C-1047.921,1282.167-1047.914,1286.677-1047.917,1291.186Zm20.15-13.029c3.29,0,6.581.029,9.871-.023.713-.011,1.735.491,2.083-.539.32-.947-.292-1.722-.9-2.452a3.006,3.006,0,0,0-2.586-1.026c-6.216.032-12.431.011-18.647.022-.783,0-1.864-.208-2.279.207-.585.586.583,1.3.562,2.07-.047,1.756,1.063,1.786,2.388,1.761C-1034.105,1278.116-1030.936,1278.157-1027.767,1278.157Z" transform="translate(1105.455 -1273.003)" fill="#e8e7e7"/>
        <path id="Trazado_116217" data-name="Trazado 116217" d="M-1116.032,1369.595c.766-1.764,2.328-2.185,3.478-3.07.078-.06.376.029.445.133.082.121.094.438.015.493C-1113.288,1367.975-1114.262,1369.176-1116.032,1369.595Z" transform="translate(1147.932 -1332.299)" fill="#e8e7e7"/>
        <path id="Trazado_116218" data-name="Trazado 116218" d="M-1095.237,1359.59c.731-1.833,2.438-1.516,3.723-2.073.053-.023.283.2.319.334a.447.447,0,0,1-.347.549C-1092.772,1358.8-1094.005,1359.194-1095.237,1359.59Z" transform="translate(1134.745 -1326.598)" fill="#e8e7e7"/>
        <path id="Trazado_116220" data-name="Trazado 116220" d="M-1131,1384.66c.414-2.1,1.916-2.773,2.6-4.017.05-.091.441-.125.466-.078.1.192.238.538.151.629C-1128.749,1382.213-1129.419,1383.518-1131,1384.66Z" transform="translate(1157.423 -1341.202)" fill="#e8e7e7"/>
        <path id="Trazado_116221" data-name="Trazado 116221" d="M-1131.714,1564.333a4.949,4.949,0,0,1-3.318-3.208l3.617,2.781Z" transform="translate(1159.981 -1455.72)" fill="#e8e7e7"/>
        <path id="Trazado_116223" data-name="Trazado 116223" d="M-1146.207,1547.48c-1.416-.936-1.866-2.4-2.293-3.873A6.072,6.072,0,0,1-1146.207,1547.48Z" transform="translate(1168.522 -1444.612)" fill="#e5e4e4"/>
        <path id="Trazado_116224" data-name="Trazado 116224" d="M-1152.817,1526.987a1.8,1.8,0,0,1,.784,2.246.383.383,0,0,1-.6.17C-1153.254,1528.74-1152.985,1527.974-1152.817,1526.987Z" transform="translate(1171.39 -1434.071)" fill="#e8e7e7"/>
        <path id="Trazado_116276" data-name="Trazado 116276" d="M-1175.607,1447.611c-3.225,0-6.449.01-9.674-.006-.568,0-1.389.178-1.378-.731.01-.864.8-.757,1.391-.758q9.674-.017,19.347-.008c.6,0,1.379-.077,1.378.778,0,.908-.828.711-1.39.714C-1169.158,1447.62-1172.383,1447.61-1175.607,1447.611Z" transform="translate(1192.722 -1382.779)" fill="#f8faf8"/>
        <path id="Trazado_116277" data-name="Trazado 116277" d="M-1175.648,1427.411c-3.158,0-6.317.012-9.475-.006-.627,0-1.547.177-1.492-.822.044-.82.883-.662,1.462-.662q9.566-.013,19.132.006c.615,0,1.541-.206,1.486.811-.045.837-.878.663-1.456.665C-1169.21,1427.416-1172.429,1427.409-1175.648,1427.411Z" transform="translate(1192.695 -1369.97)" fill="#f8faf8"/>
        <path id="Trazado_116278" data-name="Trazado 116278" d="M-1111.261,1487.789a2.237,2.237,0,0,1,2.225,2.375,2.139,2.139,0,0,1-2.275,2.125,2.23,2.23,0,0,1-2.344-2.264A2.3,2.3,0,0,1-1111.261,1487.789Z" transform="translate(1146.424 -1409.213)" fill="#f1f1f1"/>
        <path id="Trazado_116279" data-name="Trazado 116279" d="M-1128.231,1490a2.261,2.261,0,0,1-2.265,2.34,2.178,2.178,0,0,1-2.331-2.246,2.1,2.1,0,0,1,2.151-2.228A2.232,2.232,0,0,1-1128.231,1490Z" transform="translate(1158.584 -1409.257)" fill="#f1f1f1"/>
        <path id="Trazado_116280" data-name="Trazado 116280" d="M-1091.876,1487.749a2.2,2.2,0,0,1,2.223,2.382,2.164,2.164,0,0,1-2.42,2.123,2.049,2.049,0,0,1-2.092-2.249A2.158,2.158,0,0,1-1091.876,1487.749Z" transform="translate(1134.065 -1409.189)" fill="#f1f1f1"/>
        <path id="Trazado_116284" data-name="Trazado 116284" d="M-1046.024,1293.142c0-4.509-.006-9.018,0-13.527a3.237,3.237,0,0,1,3.275-3.524c2.5-.062,4.023,1.1,3.981,3.373-.028,1.57.62,1.782,1.946,1.771,5.972-.053,11.946.011,17.918-.049,1.314-.013,1.814.295,1.8,1.715q-.1,11.881,0,23.764c.009,1.315-.451,1.7-1.694,1.632-1.58-.084-3.17.028-4.753-.026-6.819-.233-13.618.485-20.435.407-1.552-.018-2.127-.33-2.083-2.008C-1045.947,1302.162-1046.025,1297.651-1046.024,1293.142Zm14.554,8.253c4.06.027,7.179-1.941,9.938-4.635,2.835-2.769,2.866-2.849-.021-5.492-2.566-2.349-5.364-4.352-9.039-4.573-5.461-.328-9.253,2.708-12.767,6.309a1.217,1.217,0,0,0-.177,1.8C-1040.294,1298.411-1036.658,1301.32-1031.47,1301.4Z" transform="translate(1103.563 -1274.96)" fill="#fdfdfd"/>
        <path id="Trazado_116285" data-name="Trazado 116285" d="M-1012.75,1280.035c-3.169,0-6.338-.041-9.506.02-1.326.025-2.436-.005-2.388-1.761.021-.773-1.147-1.484-.562-2.07.415-.416,1.5-.206,2.279-.207,6.216-.011,12.431.01,18.647-.022a3.009,3.009,0,0,1,2.586,1.026c.607.73,1.22,1.505.9,2.452-.348,1.03-1.37.528-2.083.539C-1006.168,1280.064-1009.459,1280.035-1012.75,1280.035Z" transform="translate(1090.437 -1274.882)" fill="#fdfdfd"/>
        <path id="Trazado_116298" data-name="Trazado 116298" d="M-1027.638,1319.741c-5.188-.076-8.824-2.985-12.066-6.6a1.217,1.217,0,0,1,.177-1.8c3.514-3.6,7.306-6.637,12.767-6.309,3.675.22,6.473,2.224,9.039,4.573,2.887,2.643,2.856,2.723.021,5.492C-1020.459,1317.8-1023.578,1319.768-1027.638,1319.741Zm-.128-1.9a5.216,5.216,0,0,0,5.655-5.325,5.562,5.562,0,0,0-5.622-5.649c-2.9,0-5.834,2.638-5.58,5.338C-1033,1315.508-1031.586,1317.77-1027.766,1317.845Zm4.745-.557c2.593-.774,4.318-2.551,6.026-4.351.269-.283.467-.613.155-.961a16.836,16.836,0,0,0-6.166-4.6C-1020.6,1310.724-1020.552,1313.974-1023.021,1317.288Zm-9.474-9.868a17.531,17.531,0,0,0-5.759,4.113c-.326.337-.835.7-.374,1.22a14.488,14.488,0,0,0,6.2,4.55C-1035.011,1313.993-1034.782,1310.745-1032.5,1307.42Z" transform="translate(1099.731 -1293.305)" fill="#e8e7e7"/>
        <path id="Trazado_116299" data-name="Trazado 116299" d="M-1016.156,1321.06c-3.819-.076-5.237-2.337-5.547-5.636-.254-2.7,2.685-5.34,5.58-5.338a5.562,5.562,0,0,1,5.622,5.649A5.216,5.216,0,0,1-1016.156,1321.06Zm3.5-5.478a3.394,3.394,0,0,0-2.923-3.582c-1.639-.21-2.885.335-2.988,2.276a.682.682,0,0,1-.267.449c-1.514,1.081-.812,2.3.026,3.2a3.412,3.412,0,0,0,3.954,1.08A3.293,3.293,0,0,0-1012.654,1315.583Z" transform="translate(1088.121 -1296.52)" fill="#fcfcfc"/>
        <path id="Trazado_116300" data-name="Trazado 116300" d="M-993.544,1321.381c2.47-3.315,2.426-6.564.015-9.91a16.831,16.831,0,0,1,6.166,4.6c.312.348.114.678-.155.961C-989.226,1318.83-990.952,1320.607-993.544,1321.381Z" transform="translate(1070.254 -1297.398)" fill="#fcfcfc"/>
        <path id="Trazado_116301" data-name="Trazado 116301" d="M-1030.393,1311.586c-2.287,3.326-2.515,6.573.067,9.883a14.484,14.484,0,0,1-6.2-4.55c-.462-.517.048-.882.374-1.22A17.532,17.532,0,0,1-1030.393,1311.586Z" transform="translate(1097.629 -1297.471)" fill="#fcfcfc"/>
        <path id="Trazado_116302" data-name="Trazado 116302" d="M-1009.189,1318.83a3.3,3.3,0,0,1-2.2,3.424,3.412,3.412,0,0,1-3.954-1.08c-.839-.9-1.54-2.123-.026-3.2a.684.684,0,0,0,.267-.449c.1-1.941,1.348-2.485,2.988-2.275A3.4,3.4,0,0,1-1009.189,1318.83Zm-3.429,2.558a2.656,2.656,0,0,0,2.6-2.287,2.468,2.468,0,0,0-1.851-2.759c-1.354-.423-2.224.147-2.149,1.725.007.153-.139.329-.248.47-.392.5-1.083.938-.56,1.7A2.719,2.719,0,0,0-1012.618,1321.388Z" transform="translate(1084.659 -1299.765)" fill="#e8e7e7"/>
        <path id="Trazado_116303" data-name="Trazado 116303" d="M-1010.465,1323.128a2.719,2.719,0,0,1-2.21-1.152c-.524-.761.168-1.2.56-1.7.109-.14.256-.317.248-.47-.075-1.578.8-2.147,2.149-1.725a2.468,2.468,0,0,1,1.851,2.759A2.656,2.656,0,0,1-1010.465,1323.128Z" transform="translate(1082.506 -1301.505)" fill="#fcfcfc"/>
      </g>
    </g>
  </g>
</svg>
