<svg id="Grupo_128069" data-name="Grupo 128069" xmlns="http://www.w3.org/2000/svg" width="70.214" height="69.951" viewBox="0 0 70.214 69.951">
  <path id="Trazado_116148" data-name="Trazado 116148" d="M-889.8,2398.468c1.421-.714,2.507-1.223,3.546-1.815a1.119,1.119,0,0,0,.348-.844c.024-3.368.038-6.737-.015-10.1-.005-.333-.474-.654-.712-.991s-.682-.738-.611-1a1.722,1.722,0,0,1,.933-.858,3,3,0,0,1,1.085-.042c.969-.029,1.384.431,1.378,1.4-.021,3.258-.006,6.517,0,9.776,0,.4,0,.794,0,1.508,1.349-.705,2.514-1.268,3.617-1.933.215-.129.264-.657.265-1,.014-6.151,0-12.3.021-18.454,0-.854-.27-1.208-1.134-1.151a18.641,18.641,0,0,1-2.086-.008c-.641-.031-1.278-.278-1.092-1.02a1.5,1.5,0,0,1,1.073-.914q4.226-.114,8.456.006c.371.011.725.615,1.087.944-.362.329-.679.842-1.1.946a6.788,6.788,0,0,1-2.076.045c-.917-.064-1.195.321-1.19,1.216.031,5.309.015,10.618.015,15.928a20.2,20.2,0,0,0,.038,2.632,1.805,1.805,0,0,0,.737,1.165c.921.562,1.93.979,3.109,1.554,0-.62,0-1.01,0-1.4,0-3.222-.036-6.445.033-9.666.011-.51.426-1.369.78-1.44a4.327,4.327,0,0,1,2.4.236c.581.242.321,1.3-.416,1.521-.667.2-.717.585-.715,1.138.012,3.259-.022,6.518.04,9.776a1.784,1.784,0,0,0,.754,1.249,33.995,33.995,0,0,0,3.16,1.562c0-.954.007-1.655,0-2.355-.008-.625.072-1.317.806-1.336a4.787,4.787,0,0,1,2.458.419c.564.334.237,1.229-.4,1.369-1.147.253-.745,1.062-.81,1.713a1.5,1.5,0,0,0,.875,1.776c2.714,1.278,5.364,2.69,8.074,3.976a2.011,2.011,0,0,1,1.326,2.1q-.07,9.556,0,19.113a1.982,1.982,0,0,1-1.244,2.057c-7.091,3.49-14.158,7.029-21.253,10.51a1.918,1.918,0,0,1-1.488.005c-7.016-3.478-14-7.016-21.014-10.5a2.066,2.066,0,0,1-1.345-2.112q.063-9.556,0-19.113a2.069,2.069,0,0,1,1.4-2.166c2.681-1.261,5.293-2.667,7.959-3.962a1.45,1.45,0,0,0,.969-1.622c-.077-.71.263-1.546-.874-1.834-.241-.061-.294-.87-.433-1.335a13.623,13.623,0,0,1,2.362-.432c.709-.01.919.6.91,1.262C-889.806,2396.689-889.8,2397.4-889.8,2398.468Zm9.732,36.812a4.772,4.772,0,0,0,.133-.664c.007-5.633.024-11.266-.024-16.9a1.6,1.6,0,0,0-.792-1.125c-6.1-3.088-12.216-6.131-18.333-9.178a8.715,8.715,0,0,0-.913-.333,3.028,3.028,0,0,0-.13.549c-.008,5.669-.026,11.339.023,17.008a1.594,1.594,0,0,0,.8,1.109c5.9,2.986,11.829,5.928,17.753,8.875C-881.1,2434.842-880.643,2435.025-880.067,2435.28Zm22.233-28.244c-.548.243-.883.375-1.2.535-6.024,3-12.042,6.013-18.078,8.988a1.482,1.482,0,0,0-.85,1.588c.016,5.308.006,10.615.014,15.922,0,.372.077.744.133,1.258.5-.225.831-.361,1.15-.52,6.022-3,12.037-6.022,18.07-9a1.484,1.484,0,0,0,.868-1.578c-.018-5.271-.008-10.542-.012-15.813C-857.741,2408.027-857.791,2407.64-857.833,2407.036Zm-22.263,7.63v-18.772c-1.169.581-2.174,1.014-3.1,1.577a1.518,1.518,0,0,0-.64,1.085c-.044,4.467-.034,8.934-.019,13.4,0,.306.053.78.246.891C-882.519,2413.475-881.378,2414.016-880.1,2414.666Zm2.21-.009c1.281-.635,2.393-1.149,3.457-1.748.2-.114.3-.564.3-.86q.03-6.75.005-13.5c0-.3-.072-.765-.269-.878-1.086-.622-2.221-1.158-3.5-1.8Zm-8.1-15.83c-1.225.611-2.256,1.075-3.228,1.642a1.311,1.311,0,0,0-.561.941c-.045,2.592-.031,5.186-.014,7.779,0,.233.088.588.252.679,1.119.626,2.27,1.2,3.551,1.859Zm14.047-.027v12.928c1.293-.668,2.46-1.233,3.577-1.883.2-.115.261-.583.264-.89q.031-3.677,0-7.354c0-.334-.1-.838-.323-.97C-869.507,2399.993-870.652,2399.455-871.936,2398.8Zm-19.915,2.948-6.7,3.353.068.341,6.637,3.3Zm25.911.048v6.926l6.6-3.329-.062-.341Z" transform="translate(912.583 -2367.983)" fill="#084a93"/>
  <path id="Trazado_116149" data-name="Trazado 116149" d="M-725.9,2360.551c2.013,0,4.026-.016,6.039.009a1.348,1.348,0,0,0,1.465-.816,3.928,3.928,0,0,1,3.9-2.1,4.138,4.138,0,0,1,3.547,3.424,4.137,4.137,0,0,1-2.419,4.058,3.7,3.7,0,0,1-4.672-1.307,2.446,2.446,0,0,0-2.567-1.289c-3.586.061-7.173.023-10.76.021a2.824,2.824,0,0,1-1.191-.054,5.125,5.125,0,0,1-1.064-1c.377-.313.745-.881,1.134-.9,2.192-.088,4.39-.042,6.586-.042Zm12.9,1.03a1.881,1.881,0,0,0-1.912-1.959,1.943,1.943,0,0,0-1.914,1.872,1.975,1.975,0,0,0,1.937,1.974A1.924,1.924,0,0,0-713,2361.581Z" transform="translate(781.119 -2357.554)" fill="#084a93"/>
  <path id="Trazado_116150" data-name="Trazado 116150" d="M-936.139,2362.373c-1.574,0-3.148.02-4.721-.008a1.315,1.315,0,0,0-1.372.81,3.722,3.722,0,0,1-3.9,2.084,3.768,3.768,0,0,1-3.336-2.62,3.879,3.879,0,0,1,1.887-4.75,3.681,3.681,0,0,1,5.076,1.3,2.248,2.248,0,0,0,2.364,1.21c2.89-.059,5.782-.017,8.673-.025.745,0,1.49.049,1.478,1.019-.011.9-.74.972-1.43.976C-932.991,2362.378-934.565,2362.372-936.139,2362.373Zm-7.669-1.048a1.9,1.9,0,0,0-1.878-1.886,1.862,1.862,0,0,0-1.948,1.91,1.9,1.9,0,0,0,1.851,1.913A1.98,1.98,0,0,0-943.808,2361.325Z" transform="translate(949.741 -2357.382)" fill="#084a93"/>
  <path id="Trazado_116151" data-name="Trazado 116151" d="M-682.271,2469.224a3.853,3.853,0,0,1-2.884,3.8,3.7,3.7,0,0,1-4.34-1.692,1.8,1.8,0,0,0-2.078-1.11c-.179.025-.424.072-.537-.018-.363-.289-.863-.6-.946-.978-.054-.251.552-.941.806-.914,1.545.164,2.379-.57,3.219-1.79a3.7,3.7,0,0,1,4.3-.989A3.966,3.966,0,0,1-682.271,2469.224Zm-4.01-1.938a1.93,1.93,0,0,0-1.842,2.042,1.875,1.875,0,0,0,1.937,1.823,1.913,1.913,0,0,0,1.85-2.029A1.952,1.952,0,0,0-686.282,2467.286Z" transform="translate(749.47 -2441.557)" fill="#084a93"/>
  <path id="Trazado_116152" data-name="Trazado 116152" d="M-709.112,2415.274a3.975,3.975,0,0,1-2.79,3.793,3.868,3.868,0,0,1-4.586-1.865,1.52,1.52,0,0,0-1.719-.942,1.462,1.462,0,0,1-.858-.05c-.347-.236-.82-.62-.82-.941s.56-.949.8-.915c1.577.229,2.368-.6,3.21-1.784a3.651,3.651,0,0,1,4.289-.986A4.005,4.005,0,0,1-709.112,2415.274Zm-4.013-1.922a1.982,1.982,0,0,0-1.9,1.907,1.991,1.991,0,0,0,1.971,1.949,2,2,0,0,0,1.9-1.914A1.969,1.969,0,0,0-713.125,2413.352Z" transform="translate(770.402 -2399.446)" fill="#084a93"/>
  <path id="Trazado_116153" data-name="Trazado 116153" d="M-918.617,2419.152a3.86,3.86,0,0,1-3.91-3.161,3.959,3.959,0,0,1,2.483-4.5,3.866,3.866,0,0,1,4.794,1.789,1.5,1.5,0,0,0,1.713.961,1.286,1.286,0,0,1,.754.028,8.293,8.293,0,0,1,1.025.923,13.634,13.634,0,0,1-.97.991c-.109.093-.358.057-.535.031a1.806,1.806,0,0,0-2.143,1.182A3.55,3.55,0,0,1-918.617,2419.152Zm-.028-2.005a1.916,1.916,0,0,0,1.9-1.872,1.877,1.877,0,0,0-1.892-1.98,1.915,1.915,0,0,0-1.92,1.858A1.95,1.95,0,0,0-918.646,2417.147Z" transform="translate(928.589 -2399.41)" fill="#084a93"/>
  <path id="Trazado_116154" data-name="Trazado 116154" d="M-945.856,2465.062a3.95,3.95,0,0,1,3.435,2.147,1.523,1.523,0,0,0,1.62.953c.758-.02,1.83-.23,1.81.979-.019,1.184-1.074,1-1.838.95a1.5,1.5,0,0,0-1.6.973,3.919,3.919,0,0,1-3.957,1.982,4.145,4.145,0,0,1-3.413-3.292,3.98,3.98,0,0,1,1.914-4A10.929,10.929,0,0,1-945.856,2465.062Zm-.01,5.954a1.94,1.94,0,0,0,1.937-1.94,2.03,2.03,0,0,0-1.98-1.939,1.927,1.927,0,0,0-1.844,1.914A1.872,1.872,0,0,0-945.866,2471.016Z" transform="translate(949.861 -2441.408)" fill="#084a93"/>
  <path id="Trazado_116155" data-name="Trazado 116155" d="M-758.862,2370.9c.29,0,.653-.11.852.024.345.232.764.589.816.943.039.265-.4.785-.717.875a3.342,3.342,0,0,1-1.71.026c-.365-.1-.919-.615-.877-.855.067-.379.529-.727.893-1,.163-.121.491-.021.744-.021Z" transform="translate(802.097 -2367.896)" fill="#084a93"/>
  <path id="Trazado_116156" data-name="Trazado 116156" d="M-859.746,2426.631c-.292-.015-.654.072-.858-.07-.346-.241-.817-.626-.817-.95s.472-.782.834-.91a2.391,2.391,0,0,1,1.5-.012,1.542,1.542,0,0,1,.915.949c.045.264-.486.678-.828.933C-859.166,2426.7-859.491,2426.617-859.746,2426.631Z" transform="translate(880.848 -2409.814)" fill="#084a93"/>
  <path id="Trazado_116157" data-name="Trazado 116157" d="M-886.752,2480.673c-.256,0-.592.1-.751-.021-.361-.282-.9-.682-.9-1.022.027-1.014.9-.969,1.635-.967s1.612-.065,1.647.953c.012.341-.526.747-.885,1.032-.157.125-.495.021-.751.021Z" transform="translate(901.9 -2452.021)" fill="#084a93"/>
  <path id="Trazado_116158" data-name="Trazado 116158" d="M-718.342,2480.768c-.219,0-.521.092-.639-.017-.354-.326-.922-.756-.891-1.1.089-1,.986-.873,1.7-.876.7,0,1.538-.013,1.533.936,0,.356-.577.751-.957,1.042-.161.123-.494.02-.749.02Z" transform="translate(770.394 -2452.106)" fill="#084a93"/>
  <path id="Trazado_116159" data-name="Trazado 116159" d="M-846.428,2372.784c-.236-.019-.592.055-.8-.088-.323-.221-.785-.618-.753-.888a1.436,1.436,0,0,1,.8-.966,2.355,2.355,0,0,1,1.5-.02c.394.136.922.588.935.918s-.518.712-.878.983C-845.792,2372.851-846.118,2372.769-846.428,2372.784Z" transform="translate(870.362 -2367.783)" fill="#084a93"/>
  <path id="Trazado_116160" data-name="Trazado 116160" d="M-745.324,2426.915a2.506,2.506,0,0,1-1.007-.162,1.286,1.286,0,0,1-.586-.9,1.115,1.115,0,0,1,.63-.856,4.981,4.981,0,0,1,1.941-.014,1.1,1.1,0,0,1,.688.818,1.558,1.558,0,0,1-.656.976C-744.538,2426.946-744.942,2426.874-745.324,2426.915Z" transform="translate(791.497 -2410.065)" fill="#084a93"/>
</svg>
