<svg xmlns="http://www.w3.org/2000/svg" width="424.781" height="252.087" viewBox="0 0 424.781 252.087">
  <g id="Grupo_128589" data-name="Grupo 128589" transform="translate(-208.5 -425.362)">
    <g id="Grupo_128353" data-name="Grupo 128353" transform="translate(134.559 353.969)">
      <g id="Grupo_128352" data-name="Grupo 128352" transform="translate(73.941 71.394)">
        <g id="Grupo_128239" data-name="Grupo 128239" transform="translate(0 0)">
          <path id="Trazado_188346" data-name="Trazado 188346" d="M73.987,307.83S43.309,261.417,76.72,206.81s78.286-27.145,76.114-90.7,92.741-69.721,126.282-51.292,63.155,7.872,103.217,9.157c64.973,2.085,83.161,66.2,65.147,97.395-25.558,44.267,80.069,49.472,19.267,136.463Z" transform="translate(-61.127 -55.743)" fill="#e8f2fa"/>
        </g>
        <g id="Grupo_128240" data-name="Grupo 128240" transform="translate(49.307 112.749)" opacity="0.3">
          <path id="Trazado_188347" data-name="Trazado 188347" d="M162.631,285.182c-3.316-12.161,16.315-19.273,16.315-19.273s22.8,11.307,26.554,9.691-17.605-13.474-17.605-13.474c6.392-4.633,28.536-6.461,28.536-6.461s11.479,22.065,14.721,19.575-11.161-19.019-11.161-19.019c7.712-1.881,18.324,2.178,18.324,2.178,14.963,7.97,3.956,26.774,3.956,26.774a40.437,40.437,0,0,0,13.737,13.392h0a29.383,29.383,0,0,1,4.583,3.024l-1.788,1.049q-.641-.591-1.3-1.1a.01.01,0,0,0-.008-.005l-.019-.015c-.285-.2-.692-.494-1.192-.844h0c-1.174-.749-2.007-1.323-2.575-1.756l0,0c-3.606-2.4-8.53-5.386-10.642-5.381a4.014,4.014,0,0,0-.1-1.044l.1,1.044c.788,8.354-13.872,18.427-23.424,21.682s-7.247-1.331-4.947-7.927,12.523-11.213,14.466-14.411-3.107-2.29-8.534,1.482-4.934,11.124-13.6,17.387-25.8-6.9-25.8-6.9c7.494-1.753,16.809-11.922,15.963-14.365s-17.549,7.655-20.558,8.538S165.947,297.342,162.631,285.182Z" transform="translate(-162.254 -255.666)" fill="#a9c2ff"/>
        </g>
        <g id="Grupo_128241" data-name="Grupo 128241" transform="translate(253.045 148.673)">
          <path id="Trazado_188348" data-name="Trazado 188348" d="M583.615,390.976C595.809,379.133,577.9,357.4,577.9,357.4s-34.229-2.518-37.479-6.97,29.685-3.561,29.685-3.561c-4.241-9.765-28.7-27.083-28.7-27.083s-28.468,17.739-30.523,12.625,26.008-14.421,26.008-14.421c-7.663-7.476-22.768-10.045-22.768-10.045-22.841-1.015-22.965,28.368-22.965,28.368s-10,5.935-25.138,6.122h0a39.572,39.572,0,0,0-7.4.366l1.356,2.445c.766-.164,1.523-.3,2.266-.389a.016.016,0,0,1,.014,0l.032,0c.471-.042,1.142-.1,1.963-.162h.007c1.877-.064,3.236-.158,4.193-.271l.009,0c5.831-.307,13.6-.4,16.047,1.056a5.408,5.408,0,0,1,.831-1.145l-.831,1.145c-6.648,9.159,3.461,30.913,12.317,41.246s9.327,3.428,11.183-5.809-6.844-21.611-6.907-26.657,5.18-.527,8.892,7.577-1.906,16.3,3.86,29.519,34.688,9.69,34.688,9.69c-7.5-7.178-11.334-25.375-8.676-27.631s15.123,20.929,18.009,24.02S571.421,402.819,583.615,390.976Z" transform="translate(-458.627 -307.924)" fill="#dceaff"/>
        </g>
        <g id="Grupo_128244" data-name="Grupo 128244" transform="translate(73.424 86.232)">
          <g id="Grupo_128242" data-name="Grupo 128242" transform="translate(10.638)" opacity="0.5">
            <path id="Trazado_188349" data-name="Trazado 188349" d="M248.577,237.13S233,220.9,215.836,217.152a2.5,2.5,0,0,0-2.482,3.988l.074.093C215.946,224.325,236.3,230.028,248.577,237.13Z" transform="translate(-212.811 -217.091)" fill="#bfdcff"/>
          </g>
          <g id="Grupo_128243" data-name="Grupo 128243" transform="translate(0 10.598)" opacity="0.5">
            <path id="Trazado_188350" data-name="Trazado 188350" d="M248.7,246.217s-25.915-15.423-48.9-13.551a2.65,2.65,0,0,0-2.46,2.706c.041.915.564,2,2.138,3.117C203.672,241.473,230.97,241.589,248.7,246.217Z" transform="translate(-197.336 -232.508)" fill="#bfdcff"/>
          </g>
        </g>
        <g id="Grupo_128247" data-name="Grupo 128247" transform="translate(305.629 108.911)" opacity="0.5">
          <g id="Grupo_128245" data-name="Grupo 128245" transform="translate(1.712)" opacity="0.5">
            <path id="Trazado_188351" data-name="Trazado 188351" d="M537.61,287.425s3.7-23.123,16.155-36.514a2.6,2.6,0,0,1,4.49,1.94c0,.041-.005.081-.009.122C557.926,257.111,543.9,274.063,537.61,287.425Z" transform="translate(-537.61 -250.082)" fill="#a9c2ff"/>
          </g>
          <g id="Grupo_128246" data-name="Grupo 128246" transform="translate(0 2.951)" opacity="0.5">
            <path id="Trazado_188352" data-name="Trazado 188352" d="M535.12,295.361s13.019-28.568,33.793-40.6a2.759,2.759,0,0,1,3.71.855c.508.806.7,2.043.02,3.934C570.825,264.589,547.541,280.883,535.12,295.361Z" transform="translate(-535.12 -254.375)" fill="#a9c2ff"/>
          </g>
        </g>
        <g id="Grupo_128248" data-name="Grupo 128248" transform="translate(196.892 29.017)" opacity="0.2">
          <path id="Trazado_188353" data-name="Trazado 188353" d="M380.866,197.98l9.071-1a2.02,2.02,0,0,1,1.9.916q.784,1.224,1.681,2.4a34.007,34.007,0,0,0,3.579,4.019,1.994,1.994,0,0,1,.486,2.2l-3.5,8.87a1.959,1.959,0,0,0,.958,2.487l7.8,3.892a1.937,1.937,0,0,0,2.486-.681l4.745-7.389a1.945,1.945,0,0,1,2.179-.837,35.248,35.248,0,0,0,11.057,1.133,2.008,2.008,0,0,1,2.007,1.4l1.587,5.1a2.029,2.029,0,0,0,2.3,1.376l8.489-1.692a1.762,1.762,0,0,0,.491-.161,1.947,1.947,0,0,0,1.091-1.985l-.736-6.776-.183-1.652a34.763,34.763,0,0,0,4.122-2.706,35.326,35.326,0,0,0,4.841-4.456,1.945,1.945,0,0,1,2.172-.518l7.142,2.829a2.016,2.016,0,0,0,2.547-.978l2.976-5.965L463,196.1a2.041,2.041,0,0,0-.718-2.633l-6.172-3.971a1.941,1.941,0,0,1-.865-2.119,35.037,35.037,0,0,0,.963-7.422,6.247,6.247,0,0,0,.021-.629,1.078,1.078,0,0,1,.014-.211,1.991,1.991,0,0,1,1.408-1.7l8.277-2.594a1.486,1.486,0,0,0,.27-.106,2.025,2.025,0,0,0,1.1-2.189l-1.674-8.466a2.014,2.014,0,0,0-2.192-1.609l-9.46,1.043a1.947,1.947,0,0,1-1.95-1.029,35.532,35.532,0,0,0-2.948-4.538q-.888-1.164-1.853-2.231a2.051,2.051,0,0,1-.381-2.126l3.364-8.526a1.957,1.957,0,0,0-.946-2.471l-7.724-3.839a2.046,2.046,0,0,0-2.641.725l-3.756,5.845a2.008,2.008,0,0,1-2.341.821,35.15,35.15,0,0,0-10.664-1.946,2,2,0,0,1-1.877-1.411l-2.335-7.461a2.066,2.066,0,0,0-2.361-1.4l-8.435,1.664a1.974,1.974,0,0,0-1.583,2.159l.039.4.858,7.873a2.018,2.018,0,0,1-1.1,2.026l-.008.006a34.916,34.916,0,0,0-5.24,3.309c-.894.682-1.737,1.4-2.555,2.15a1.981,1.981,0,0,1-2.086.4l-7.25-2.872a2.049,2.049,0,0,0-2.59.987l-3.827,7.69a2.2,2.2,0,0,0-.2.676,2.041,2.041,0,0,0,.907,1.912l4.939,3.158a2.036,2.036,0,0,1,.918,1.778,2.161,2.161,0,0,1-.1.555,35.038,35.038,0,0,0-1.82,13.735,1.972,1.972,0,0,1-1.064,1.888,1.935,1.935,0,0,1-.316.128l-6.7,2.1a2.006,2.006,0,0,0-1.367,2.3l.038.2,1.624,8.253A2.041,2.041,0,0,0,380.866,197.98Zm58.085-25.585a23.431,23.431,0,0,1,1.219,4.192,18.421,18.421,0,0,1-1.339,9.949c-.137.28-.28.552-.423.824-8.919,16.446-32.167,13.1-35.945-5.491a19.113,19.113,0,0,1,.706-8.678,12.537,12.537,0,0,1,.7-1.71,21.657,21.657,0,0,1,4.345-5.944A18.9,18.9,0,0,1,438.951,172.395Z" transform="translate(-376.943 -133.862)" fill="#89b4fd"/>
        </g>
        <g id="Grupo_128249" data-name="Grupo 128249" transform="translate(315.524 48.059)">
          <path id="Trazado_188354" data-name="Trazado 188354" d="M548.493,187.42l5.632-.618a1.255,1.255,0,0,1,1.181.569q.487.76,1.044,1.49a21.025,21.025,0,0,0,2.222,2.5,1.239,1.239,0,0,1,.3,1.365l-2.175,5.508a1.216,1.216,0,0,0,.6,1.545l4.845,2.417a1.2,1.2,0,0,0,1.543-.423l2.946-4.588a1.208,1.208,0,0,1,1.354-.52,21.908,21.908,0,0,0,6.867.7,1.247,1.247,0,0,1,1.246.869l.985,3.168a1.259,1.259,0,0,0,1.429.854l5.272-1.051a1.086,1.086,0,0,0,.3-.1,1.21,1.21,0,0,0,.678-1.233l-.458-4.208-.113-1.026a21.663,21.663,0,0,0,2.56-1.68,21.981,21.981,0,0,0,3.006-2.768,1.207,1.207,0,0,1,1.349-.321l4.435,1.757a1.252,1.252,0,0,0,1.582-.608l1.848-3.7.527-1.063a1.269,1.269,0,0,0-.446-1.635l-3.832-2.465a1.205,1.205,0,0,1-.537-1.316,21.768,21.768,0,0,0,.6-4.609c.014-.135.012-.259.013-.391a.658.658,0,0,1,.009-.131,1.236,1.236,0,0,1,.874-1.056l5.14-1.611a.927.927,0,0,0,.168-.066,1.256,1.256,0,0,0,.681-1.36l-1.039-5.257a1.251,1.251,0,0,0-1.361-1l-5.874.648a1.208,1.208,0,0,1-1.211-.639,22.081,22.081,0,0,0-1.831-2.818q-.552-.723-1.151-1.386a1.274,1.274,0,0,1-.236-1.32l2.089-5.295a1.215,1.215,0,0,0-.587-1.535l-4.8-2.383a1.269,1.269,0,0,0-1.639.45l-2.333,3.63a1.248,1.248,0,0,1-1.454.511,21.843,21.843,0,0,0-6.622-1.209,1.241,1.241,0,0,1-1.166-.876L571.5,148.5a1.282,1.282,0,0,0-1.466-.872L564.8,148.66a1.226,1.226,0,0,0-.984,1.34l.025.246.533,4.889a1.253,1.253,0,0,1-.681,1.258l0,0a21.689,21.689,0,0,0-3.254,2.055c-.555.423-1.078.869-1.587,1.334a1.231,1.231,0,0,1-1.3.249l-4.5-1.784a1.272,1.272,0,0,0-1.609.613l-2.377,4.775a1.4,1.4,0,0,0-.123.42,1.267,1.267,0,0,0,.564,1.188l3.067,1.961a1.265,1.265,0,0,1,.57,1.1,1.349,1.349,0,0,1-.064.344,21.753,21.753,0,0,0-1.13,8.53,1.224,1.224,0,0,1-.661,1.173,1.265,1.265,0,0,1-.2.08l-4.163,1.3a1.245,1.245,0,0,0-.849,1.425l.023.122,1.009,5.125A1.268,1.268,0,0,0,548.493,187.42Zm36.07-15.888a14.57,14.57,0,0,1,.758,2.6,11.444,11.444,0,0,1-.832,6.179c-.085.174-.174.342-.263.511-5.539,10.213-19.975,8.137-22.321-3.41a11.851,11.851,0,0,1,.439-5.389,7.607,7.607,0,0,1,.434-1.062,13.433,13.433,0,0,1,2.7-3.692A11.737,11.737,0,0,1,584.563,171.532Z" transform="translate(-546.056 -147.604)" fill="#a9c2ff"/>
        </g>
        <g id="Grupo_128250" data-name="Grupo 128250" transform="translate(282.646 21.722)">
          <path id="Trazado_188355" data-name="Trazado 188355" d="M500.348,141.149l3.847-1.291a.9.9,0,0,1,.912.219q.457.458.958.883A14.977,14.977,0,0,0,508,142.368a.888.888,0,0,1,.419.909l-.682,4.185a.871.871,0,0,0,.652.99l3.758.953a.861.861,0,0,0,1.016-.531l1.362-3.659a.866.866,0,0,1,.868-.57,15.67,15.67,0,0,0,4.911-.553.894.894,0,0,1,1,.418l1.172,2.066a.9.9,0,0,0,1.13.38l3.529-1.538a.79.79,0,0,0,.2-.116.866.866,0,0,0,.286-.966l-.96-2.874-.236-.7a15.541,15.541,0,0,0,1.535-1.565,15.771,15.771,0,0,0,1.682-2.394.864.864,0,0,1,.894-.43l3.371.554a.9.9,0,0,0,1.014-.666l.729-2.873.207-.824a.908.908,0,0,0-.561-1.076l-3.057-1.141a.864.864,0,0,1-.577-.839,15.616,15.616,0,0,0-.283-3.316,2.725,2.725,0,0,0-.051-.276.47.47,0,0,1-.014-.093.886.886,0,0,1,.451-.872l3.351-1.91a.629.629,0,0,0,.107-.071.9.9,0,0,0,.27-1.055l-1.528-3.52a.9.9,0,0,0-1.1-.492l-4.011,1.348a.866.866,0,0,1-.945-.263,15.789,15.789,0,0,0-1.71-1.693q-.5-.422-1.016-.794a.912.912,0,0,1-.367-.887l.655-4.023a.87.87,0,0,0-.645-.984l-3.719-.937a.909.909,0,0,0-1.078.564l-1.079,2.895a.894.894,0,0,1-.939.579,15.624,15.624,0,0,0-4.818.163.889.889,0,0,1-.949-.436l-1.72-3.021a.919.919,0,0,0-1.159-.387l-3.507,1.521a.877.877,0,0,0-.484,1.088l.054.168,1.118,3.34a.9.9,0,0,1-.285.984l0,0a15.5,15.5,0,0,0-1.964,1.933c-.325.382-.622.773-.907,1.176a.881.881,0,0,1-.868.371l-3.422-.562a.911.911,0,0,0-1.033.674l-.935,3.7a.971.971,0,0,0-.022.313.907.907,0,0,0,.575.745l2.444.9a.906.906,0,0,1,.567.686.954.954,0,0,1,.007.251,15.568,15.568,0,0,0,.509,6.139.877.877,0,0,1-.284.921.854.854,0,0,1-.125.086l-2.715,1.545a.892.892,0,0,0-.377,1.126l.035.083,1.486,3.432A.908.908,0,0,0,500.348,141.149Zm22.817-16.61a10.441,10.441,0,0,1,.927,1.706,8.2,8.2,0,0,1,.359,4.45c-.033.135-.069.267-.106.4a8.465,8.465,0,0,1-16.651-2.823,5.513,5.513,0,0,1,.142-.809,9.623,9.623,0,0,1,1.325-2.994A8.4,8.4,0,0,1,523.165,124.538Z" transform="translate(-497.099 -109.638)" fill="#a9c2ff"/>
        </g>
        <g id="Grupo_128251" data-name="Grupo 128251" transform="translate(5.979 233.343)">
          <path id="Trazado_188356" data-name="Trazado 188356" d="M100.05,449.5h16.585c.888-.753-.615-2.466-2.187-2.581a9.686,9.686,0,0,0-2.531.3c-.228-3.032-1.532-16.659-6.443-16.111-5.523.613,0,6,1.561,9.191a75.955,75.955,0,0,1,2.934,7.35c-.448.1-.912.192-1.387.28-.732-2.248-3.456-9.808-6.92-9.368-4.067.515-2.432,3.547.45,5.346,2.115,1.323,4.712,3.2,5.946,4.112a17.6,17.6,0,0,1-3.243.261C101.974,448.212,100.587,449.049,100.05,449.5Z" transform="translate(-99.225 -431.091)" fill="#9bd399"/>
        </g>
        <g id="Grupo_128252" data-name="Grupo 128252" transform="translate(394.478 230.532)">
          <path id="Trazado_188357" data-name="Trazado 188357" d="M683.421,447.818H664.667c-1.005-.852.7-2.788,2.472-2.918a10.95,10.95,0,0,1,2.863.339c.258-3.428,1.732-18.837,7.286-18.218,6.245.694,0,6.786-1.766,10.393a85.942,85.942,0,0,0-3.318,8.312c.507.11,1.032.217,1.568.316.828-2.541,3.908-11.091,7.824-10.593,4.6.583,2.75,4.01-.509,6.045-2.392,1.5-5.328,3.623-6.724,4.65a19.93,19.93,0,0,0,3.668.294C681.245,446.363,682.813,447.31,683.421,447.818Z" transform="translate(-664.367 -427.003)" fill="#9bd399"/>
        </g>
        <g id="Grupo_128281" data-name="Grupo 128281" transform="translate(106.957 78.273)">
          <g id="Grupo_128264" data-name="Grupo 128264">
            <g id="Grupo_128253" data-name="Grupo 128253" transform="translate(89.357 57.673)">
              <path id="Trazado_188358" data-name="Trazado 188358" d="M385.249,290.431l-9.071,107.861s-.951,6.538,3.913,6.55c8,.019,39.8,0,39.8,0s-6.018-1.361-5.945-4.424c.086-3.61,10.6-111.008,10.6-111.008Z" transform="translate(-376.103 -289.41)" fill="#fcce57"/>
            </g>
            <g id="Grupo_128254" data-name="Grupo 128254" transform="translate(91.971 55.716)">
              <path id="Trazado_188359" data-name="Trazado 188359" d="M424.074,402.038c-1.573,0-32.364.056-40.151-.043-3.394-.042-3.988-3.017-4.017-4.943a9.6,9.6,0,0,1,.1-1.605l.236-2.8.6-7.146.531-6.313.683-8.112.575-6.847,6.445-76.643,39.3-1.019s-4.429,44.946-7.562,77.662c-.35,3.645-.683,7.14-.99,10.4q-.151,1.563-.289,3.052c-.29,3.1-.555,5.938-.787,8.447-.122,1.323-.234,2.552-.336,3.678-.4,4.412-.634,7.23-.637,7.765a4.541,4.541,0,0,0,.076.873C418.5,401.882,423.484,402.038,424.074,402.038Z" transform="translate(-379.905 -286.563)" fill="#fcce57"/>
            </g>
            <g id="Grupo_128255" data-name="Grupo 128255" transform="translate(3.063 0)">
              <path id="Trazado_188360" data-name="Trazado 188360" d="M250.571,205.514l22.1,88.756,3.025,12.155,10.291,41.34h191.2L439.249,205.514Z" transform="translate(-250.571 -205.514)" fill="#fcce57"/>
            </g>
            <g id="Grupo_128256" data-name="Grupo 128256">
              <path id="Trazado_188361" data-name="Trazado 188361" d="M249.178,205.514l-3.062,1.021,34.4,144.319,4.071-3.087Z" transform="translate(-246.116 -205.514)" fill="#fcce57"/>
            </g>
            <g id="Grupo_128257" data-name="Grupo 128257" transform="translate(34.404 142.252)">
              <path id="Trazado_188362" data-name="Trazado 188362" d="M296.164,415.533h190.02l5.247-3.087h-191.2Z" transform="translate(-296.164 -412.445)" fill="#fcce57"/>
            </g>
            <g id="Grupo_128258" data-name="Grupo 128258" transform="translate(101.134 171.191)">
              <rect id="Rectángulo_41004" data-name="Rectángulo 41004" width="41.142" height="1.955" transform="translate(41.142 1.955) rotate(180)" fill="#fcce57"/>
            </g>
            <g id="Grupo_128259" data-name="Grupo 128259" transform="translate(92.913 145.339)">
              <path id="Trazado_188363" data-name="Trazado 188363" d="M420.179,416.935l-.213,1.495-38.692,7.817.531-6.313.253-3Z" transform="translate(-381.275 -416.935)" fill="#fcce57"/>
            </g>
            <g id="Grupo_128260" data-name="Grupo 128260" transform="translate(91.973 158.959)">
              <path id="Trazado_188364" data-name="Trazado 188364" d="M424.075,448.98c-1.573,0-32.364.056-40.151-.043-3.394-.042-3.988-3.017-4.017-4.943l38.509-7.245c-.4,4.412-.634,7.23-.637,7.765a4.537,4.537,0,0,0,.076.873C418.5,448.824,423.484,448.98,424.075,448.98Z" transform="translate(-379.907 -436.749)" fill="#fcce57"/>
            </g>
            <g id="Grupo_128261" data-name="Grupo 128261" transform="translate(3.062)">
              <path id="Trazado_188365" data-name="Trazado 188365" d="M250.571,205.514H439.249l30.613,114.325H279.032Z" transform="translate(-250.571 -205.514)" fill="#fcce57"/>
            </g>
            <g id="Grupo_128262" data-name="Grupo 128262" transform="translate(10.877 6.124)">
              <path id="Trazado_188366" data-name="Trazado 188366" d="M464.516,317.67H287.856l-6.313-25.148L279.1,282.79l-1-3.968-6.488-25.844-.336-1.345-3.43-13.661-1.534-6.112-1.309-5.214-3.069-12.223H436.052l3.37,12.223,1.437,5.214,1.685,6.112,11.1,40.269v0l.941,3.412.437,1.584,7.665,27.8Z" transform="translate(-261.939 -214.422)" fill="#5158bf"/>
            </g>
            <g id="Grupo_128263" data-name="Grupo 128263" transform="translate(31.524 114.325)">
              <path id="Trazado_188367" data-name="Trazado 188367" d="M363.657,371.821,298.99,400.08l-7.017-28.26Z" transform="translate(-291.973 -371.821)" fill="#fcce57"/>
            </g>
          </g>
          <g id="Grupo_128280" data-name="Grupo 128280" transform="translate(76.022 18.35)">
            <g id="Grupo_128269" data-name="Grupo 128269" transform="translate(12.084)">
              <g id="Grupo_128266" data-name="Grupo 128266" transform="translate(0.061 0.06)">
                <g id="Grupo_128265" data-name="Grupo 128265">
                  <path id="Trazado_188368" data-name="Trazado 188368" d="M405.248,284.645c-14.433,0-28.123-11.742-30.517-26.175s7.4-26.176,21.834-26.176,28.123,11.743,30.517,26.176S419.681,284.645,405.248,284.645Zm-7.934-47.838c-11.945,0-20.051,9.718-18.07,21.663s13.31,21.663,25.255,21.663,20.051-9.718,18.07-21.663S409.259,236.807,397.314,236.807Z" transform="translate(-374.371 -232.294)" fill="#e3efff"/>
                </g>
              </g>
              <g id="Grupo_128268" data-name="Grupo 128268">
                <g id="Grupo_128267" data-name="Grupo 128267">
                  <path id="Trazado_188369" data-name="Trazado 188369" d="M405.23,284.678c-14.466,0-28.187-11.769-30.586-26.235s7.418-26.235,21.884-26.235a32.238,32.238,0,0,1,30.587,26.235,1.912,1.912,0,0,1-1.932,2.317,2.845,2.845,0,0,1-2.7-2.317,26.543,26.543,0,0,0-25.186-21.6c-11.912,0-20,9.691-18.02,21.6s13.273,21.6,25.186,21.6a2.846,2.846,0,0,1,2.7,2.317A1.912,1.912,0,0,1,405.23,284.678Z" transform="translate(-374.283 -232.207)" fill="#fcce57"/>
                </g>
              </g>
            </g>
            <g id="Grupo_128277" data-name="Grupo 128277" transform="translate(0 70.086)">
              <g id="Grupo_128270" data-name="Grupo 128270" transform="translate(0 0)">
                <path id="Trazado_188370" data-name="Trazado 188370" d="M449.4,336.642l.415,2.5a2.054,2.054,0,0,1-2.071,2.482h-87.7a3.058,3.058,0,0,1-2.894-2.482l-.415-2.5a2.054,2.054,0,0,1,2.07-2.482h87.7A3.06,3.06,0,0,1,449.4,336.642Z" transform="translate(-356.705 -334.16)" fill="#e3efff"/>
              </g>
              <g id="Grupo_128276" data-name="Grupo 128276">
                <g id="Grupo_128271" data-name="Grupo 128271" transform="translate(0 0)">
                  <path id="Trazado_188371" data-name="Trazado 188371" d="M421.069,334.16l1.239,7.468h-62.26a3.058,3.058,0,0,1-2.894-2.482l-.415-2.5a2.054,2.054,0,0,1,2.07-2.482Z" transform="translate(-356.705 -334.16)" fill="#fcce57"/>
                </g>
                <g id="Grupo_128272" data-name="Grupo 128272" transform="translate(32.905)">
                  <path id="Trazado_188372" data-name="Trazado 188372" d="M423.109,334.16l-5.65,7.469H404.57l5.65-7.469Z" transform="translate(-404.57 -334.16)" fill="#fcce57"/>
                </g>
                <g id="Grupo_128273" data-name="Grupo 128273" transform="translate(53.657)">
                  <path id="Trazado_188373" data-name="Trazado 188373" d="M445.466,334.16l1.239,7.469H434.759l5.65-7.469Z" transform="translate(-434.759 -334.16)" fill="#fcce57"/>
                </g>
                <g id="Grupo_128274" data-name="Grupo 128274" transform="translate(12.152)">
                  <path id="Trazado_188374" data-name="Trazado 188374" d="M392.921,334.16l-5.65,7.469H374.382l5.65-7.469Z" transform="translate(-374.382 -334.16)" fill="#fcce57"/>
                </g>
                <g id="Grupo_128275" data-name="Grupo 128275" transform="translate(0 0)">
                  <path id="Trazado_188375" data-name="Trazado 188375" d="M366.643,334.16l-5.65,7.468h-.945a3.058,3.058,0,0,1-2.894-2.482l-.415-2.5a2.054,2.054,0,0,1,2.07-2.482Z" transform="translate(-356.705 -334.16)" fill="#fcce57"/>
                </g>
              </g>
            </g>
            <g id="Grupo_128278" data-name="Grupo 128278" transform="translate(23.79 21.097)">
              <path id="Trazado_188376" data-name="Trazado 188376" d="M396.447,264.639H391.56l-.249-1.5h6.831l.215,1.292-2.99,8.429H393.45Z" transform="translate(-391.311 -262.973)" fill="#e3efff"/>
              <path id="Trazado_188377" data-name="Trazado 188377" d="M404.117,267.923c-.461-2.777.861-5.026,3.415-5.026s4.59,2.222,5.055,5.026c.461,2.777-.86,5.027-3.415,5.027S404.582,270.728,404.117,267.923Zm6.707,0c-.318-1.917-1.564-3.485-3.063-3.485s-2.2,1.527-1.88,3.485c.318,1.917,1.55,3.485,3.064,3.485S411.146,269.868,410.823,267.923Z" transform="translate(-395.285 -262.897)" fill="#e3efff"/>
              <path id="Trazado_188378" data-name="Trazado 188378" d="M417.983,265.463a1.95,1.95,0,0,1,1.893-2.486,2.858,2.858,0,0,1,2.689,2.486,1.949,1.949,0,0,1-1.893,2.486A2.857,2.857,0,0,1,417.983,265.463Zm3.346,0a1.543,1.543,0,0,0-1.3-1.416c-.653,0-.936.639-.807,1.416a1.533,1.533,0,0,0,1.3,1.417C421.175,266.88,421.458,266.24,421.329,265.463Zm4.356-2.374h1.374l-5.5,9.72h-1.375Zm-1,7.346a1.949,1.949,0,0,1,1.893-2.486,2.856,2.856,0,0,1,2.689,2.486,1.949,1.949,0,0,1-1.893,2.485A2.857,2.857,0,0,1,424.681,270.434Zm3.346,0a1.544,1.544,0,0,0-1.3-1.417c-.653,0-.936.639-.806,1.417a1.532,1.532,0,0,0,1.3,1.416C427.873,271.85,428.156,271.212,428.027,270.434Z" transform="translate(-399.635 -262.922)" fill="#e3efff"/>
            </g>
            <g id="Grupo_128279" data-name="Grupo 128279" transform="translate(36.223 64.055)">
              <path id="Trazado_188379" data-name="Trazado 188379" d="M409.4,325.573h.526l.417,2.517h1.575l.079.479h-2.1Z" transform="translate(-409.397 -325.444)" fill="#e3efff"/>
              <path id="Trazado_188380" data-name="Trazado 188380" d="M413.364,327.756a.976.976,0,0,1,1.011-1.181,1.438,1.438,0,0,1,1.4,1.181.977.977,0,0,1-1.016,1.177A1.435,1.435,0,0,1,413.364,327.756Zm1.891,0a.857.857,0,0,0-.814-.727.565.565,0,0,0-.56.727.86.86,0,0,0,.81.728A.568.568,0,0,0,415.256,327.756Z" transform="translate(-410.632 -325.758)" fill="#e3efff"/>
              <path id="Trazado_188381" data-name="Trazado 188381" d="M419.157,328.888l-.046-.278a.763.763,0,0,1-.678.325.882.882,0,0,1-.922-.706c-.083-.5.267-.74.793-.74a2.048,2.048,0,0,1,.641.094l-.007-.043a.571.571,0,0,0-.637-.484,1.412,1.412,0,0,0-.623.142l-.21-.415a1.743,1.743,0,0,1,.829-.188,1.056,1.056,0,0,1,1.151.954l.222,1.34Zm-.144-.946a1.6,1.6,0,0,0-.533-.09c-.325,0-.5.133-.458.359a.454.454,0,0,0,.492.334c.342,0,.568-.192.52-.475Z" transform="translate(-411.92 -325.764)" fill="#e3efff"/>
              <path id="Trazado_188382" data-name="Trazado 188382" d="M421.117,327.376a.9.9,0,0,1,.854-1.173,1.129,1.129,0,0,1,.837.4l-.2-1.215h.518l.518,3.124h-.518l-.063-.377a.742.742,0,0,1-.7.423A1.33,1.33,0,0,1,421.117,327.376Zm1.827,0a.832.832,0,0,0-.775-.723c-.355,0-.6.274-.529.731a.826.826,0,0,0,.771.724A.567.567,0,0,0,422.945,327.376Z" transform="translate(-413.054 -325.386)" fill="#e3efff"/>
              <path id="Trazado_188383" data-name="Trazado 188383" d="M425,325.423h.557l.082.492h-.557Zm.161.839h.518l.375,2.26h-.518Z" transform="translate(-414.275 -325.398)" fill="#e3efff"/>
              <path id="Trazado_188384" data-name="Trazado 188384" d="M426.975,326.622h.518l.058.351a.667.667,0,0,1,.64-.4.945.945,0,0,1,.949.869l.239,1.438h-.518l-.213-1.284a.576.576,0,0,0-.575-.552c-.3,0-.474.21-.416.561l.211,1.275h-.518Z" transform="translate(-414.891 -325.758)" fill="#e3efff"/>
              <path id="Trazado_188385" data-name="Trazado 188385" d="M431.291,329.306l.128-.389a1.674,1.674,0,0,0,.844.239c.463,0,.675-.239.6-.693l-.03-.176a.779.779,0,0,1-.727.415,1.247,1.247,0,0,1-1.2-1.066.844.844,0,0,1,.851-1.061,1.17,1.17,0,0,1,.856.385l-.056-.338h.518l.3,1.8a1.028,1.028,0,0,1-.145.851,1.1,1.1,0,0,1-.879.3A2.187,2.187,0,0,1,431.291,329.306Zm1.439-1.669a.774.774,0,0,0-.767-.625.508.508,0,0,0-.538.629.755.755,0,0,0,.746.625A.525.525,0,0,0,432.731,327.636Z" transform="translate(-416.114 -325.758)" fill="#e3efff"/>
            </g>
          </g>
        </g>
        <g id="Grupo_128307" data-name="Grupo 128307" transform="translate(34.542 138.994)">
          <g id="Grupo_128302" data-name="Grupo 128302">
            <g id="Grupo_128282" data-name="Grupo 128282" transform="translate(46.665)">
              <path id="Trazado_188386" data-name="Trazado 188386" d="M225.918,298.663s.443-4.82-4.943-4.82a6.328,6.328,0,0,1,2.476,1.327,6.369,6.369,0,0,0-7.173,1.082c-3.738,3.1-1.415,10.87-2.552,12.345s-5.563,1.771-5.022,6.542,14.048,10.746,13.181,14.693c0,0,5.293-7.782,1.508-11.332a7.012,7.012,0,0,1,2.033,3.8s.5-4.033-2.066-5.323c-2.271-1.141-4.132-5.316-3.935-6.063S225.918,298.663,225.918,298.663Z" transform="translate(-208.659 -293.843)" fill="#2a3967"/>
            </g>
            <g id="Grupo_128283" data-name="Grupo 128283" transform="translate(52.917 27.961)">
              <path id="Trazado_188387" data-name="Trazado 188387" d="M223.459,334.518s4.024,16.644,7.973,19.971c2.374,2,9.432,6.59,9.432,6.59l-2.935,1.065s-9.79-3.306-11.982-5.883-8.193-15.489-8.193-15.489Z" transform="translate(-217.753 -334.518)" fill="#ffae73"/>
            </g>
            <g id="Grupo_128284" data-name="Grupo 128284" transform="translate(57.181 54.11)">
              <path id="Trazado_188388" data-name="Trazado 188388" d="M248.5,379.052l-.946-2.341a6.641,6.641,0,0,0-6.157-4.154H223.956v58.315h72.149V383.623H255.277A7.308,7.308,0,0,1,248.5,379.052Z" transform="translate(-223.956 -372.556)" fill="#084a92"/>
            </g>
            <g id="Grupo_128285" data-name="Grupo 128285" transform="translate(18.302 41.469)">
              <path id="Trazado_188389" data-name="Trazado 188389" d="M169.908,369.9c.035.064.073.13.111.2.88,1.53,2.9,5.279,5.124,9.382,1.052,1.947,2.154,3.974,3.2,5.88,1.8,3.291,3.439,6.221,4.395,7.771.972,1.574,1.688,2.681,1.977,3.124l0,0a.736.736,0,0,1,.094.456,23.8,23.8,0,0,0,.063,4.127,31.656,31.656,0,0,0,10.343,20.5l2.677.4s-3.788-14.032-4.9-21.964a15.245,15.245,0,0,1-.2-3.145,32.85,32.85,0,0,0-.864-8.585,192.27,192.27,0,0,0-5.473-19.872c-.125-.388-3.889-14-3.889-14-3.159,2.761-14.682,3.9-14.682,3.9S165.925,362.818,169.908,369.9Z" transform="translate(-167.4 -354.167)" fill="#084a92"/>
            </g>
            <g id="Grupo_128286" data-name="Grupo 128286" transform="translate(43.182 106.209)">
              <path id="Trazado_188390" data-name="Trazado 188390" d="M214.824,454.56h-11.17a6.132,6.132,0,0,1,.316-2.995c.559-1.239,1.356-1.279.1-3.221.709.731,2.992,1.033,4.606.816a13.694,13.694,0,0,0,1.937,2.948C211.344,452.632,214.6,452.445,214.824,454.56Z" transform="translate(-203.593 -448.344)" fill="#1e3865"/>
            </g>
            <g id="Grupo_128287" data-name="Grupo 128287" transform="translate(20.811 50.616)">
              <path id="Trazado_188391" data-name="Trazado 188391" d="M171.049,374.059c.035.064.073.13.111.2.88,1.53,5.641,10.324,7.866,14.427a59.492,59.492,0,0,1-.784-21.21Z" transform="translate(-171.049 -367.473)" fill="#1e3865"/>
            </g>
            <g id="Grupo_128288" data-name="Grupo 128288" transform="translate(53.69 4.064)">
              <path id="Trazado_188392" data-name="Trazado 188392" d="M227.588,299.832c.073-.294-6.38,2.917-6.707,3.28-3.027,3.357-2.164,7.738-.432,7.78,1.111.027.9,1.873.9,1.873l12.372-5.234S232.228,298.845,227.588,299.832Z" transform="translate(-218.877 -299.754)" fill="#2a3967"/>
            </g>
            <g id="Grupo_128289" data-name="Grupo 128289" transform="translate(51.732 25.462)">
              <path id="Trazado_188393" data-name="Trazado 188393" d="M222.541,330.882s1.883,3.761,1.648,6.813c0,0-2.27,3.584-8.158,4.492C216.03,342.187,221.092,330.879,222.541,330.882Z" transform="translate(-216.03 -330.882)" fill="#a9c2ff"/>
            </g>
            <g id="Grupo_128290" data-name="Grupo 128290" transform="translate(1.481 39.138)">
              <path id="Trazado_188394" data-name="Trazado 188394" d="M170.968,357.839l.038-2.09c-4.162.525-14.352-4.974-14.352-4.974s-4.354,2.9-4.951,11.167c-.291,4.037-2.132,21.111-2.335,26.21-.074,1.848-.1,3.166-.107,3.694a.018.018,0,0,1,0,0,.728.728,0,0,1-.177.43,23.821,23.821,0,0,0-2.255,3.457c-6.352,11.818-3.03,27.876-3.03,27.876l1.475-.375s5.371-16.646,8.881-23.846a15.12,15.12,0,0,1,1.589-2.722,32.811,32.811,0,0,0,4.083-7.6C162.42,382.876,170.968,357.839,170.968,357.839Z" transform="translate(-142.93 -350.776)" fill="#084a92"/>
            </g>
            <g id="Grupo_128291" data-name="Grupo 128291" transform="translate(0 106.129)">
              <path id="Trazado_188395" data-name="Trazado 188395" d="M152.007,454.523h-11.17a6.141,6.141,0,0,1,.316-2.994c.56-1.239,1.435-1.8,1.226-3.3a4.021,4.021,0,0,0,3.481,1.332,12.246,12.246,0,0,0,1.939,2.513C148.527,452.6,151.783,452.409,152.007,454.523Z" transform="translate(-140.776 -448.227)" fill="#1e3865"/>
            </g>
            <g id="Grupo_128292" data-name="Grupo 128292" transform="translate(14.761 19.131)">
              <path id="Trazado_188396" data-name="Trazado 188396" d="M198.465,341.707c-1.5.256.245,1.448-1.818,1.672-2.937.321-5.97.54-7.558,1.174a1.706,1.706,0,0,0-1.088.881c-.689,2.071-5.049,5.628-5.049,5.628-19.451-.885-20.7-9.554-20.7-9.554,12.623-12.26,23.363-18.943,32.239-19.771a15.8,15.8,0,0,1,6.438.677c3.1,1.382,4.806,5.588,4.806,5.588S204.166,340.734,198.465,341.707Z" transform="translate(-162.248 -321.672)" fill="#a9c2ff"/>
            </g>
            <g id="Grupo_128293" data-name="Grupo 128293" transform="translate(40.243 25.014)">
              <path id="Trazado_188397" data-name="Trazado 188397" d="M208.233,346.054c-2.937.321-5.97.54-7.558,1.174-4.593-9.152,3.929-17,3.929-17S207.59,342.383,208.233,346.054Z" transform="translate(-199.316 -330.23)" fill="#8eaff1"/>
            </g>
            <g id="Grupo_128294" data-name="Grupo 128294" transform="translate(42.72 23.363)">
              <path id="Trazado_188398" data-name="Trazado 188398" d="M211.894,327.838s-7.387-.4-8.7,4.234,2.462,23.147,3.276,25.058c1.481,3.478,8.949,13.837,8.949,13.837l2.394-1.24s-4.807-15.165-5.881-16.666C210.247,350.706,214.1,329.856,211.894,327.838Z" transform="translate(-202.921 -327.829)" fill="#ffae73"/>
            </g>
            <g id="Grupo_128295" data-name="Grupo 128295" transform="translate(54.898 64.939)">
              <path id="Trazado_188399" data-name="Trazado 188399" d="M223.35,388.631a10.89,10.89,0,0,1,1.114,1.144c.5.608.06.826,1.487,3.575,0,0-.073.381-.383.312s-1.387-1.136-1.939-1.059c0,0-.395.325-.438,1.4a26.015,26.015,0,0,1-.219,3.656c-.176.419-1.457-1.756-2.088-3.327-.553-1.378-.014-6.026-.014-6.026Z" transform="translate(-220.635 -388.308)" fill="#084a92"/>
            </g>
            <g id="Grupo_128296" data-name="Grupo 128296" transform="translate(41.538 21.993)">
              <path id="Trazado_188400" data-name="Trazado 188400" d="M201.2,337.65c.019.109,6.99,1.282,11.35-.931,0,0,3.642-11.41-1.563-10.864s-8.287,2.185-8.418,4.677A47.976,47.976,0,0,1,201.2,337.65Z" transform="translate(-201.201 -325.836)" fill="#a9c2ff"/>
            </g>
            <g id="Grupo_128297" data-name="Grupo 128297" transform="translate(53.263 16.22)">
              <path id="Trazado_188401" data-name="Trazado 188401" d="M218.265,321.891a4.639,4.639,0,0,0,1.4,3.25c.926.953,2.264,1.7,3.2.758a10.183,10.183,0,0,0,1.454-1.756c.812-1.4,1.78-2.823,1.78-2.823l-4.181-3.663-.25-.219a10.64,10.64,0,0,1-3.114,3.534A.97.97,0,0,0,218.265,321.891Z" transform="translate(-218.257 -317.438)" fill="#ffae73"/>
            </g>
            <g id="Grupo_128298" data-name="Grupo 128298" transform="translate(56.853 16.439)">
              <path id="Trazado_188402" data-name="Trazado 188402" d="M227.735,321.421s-.967,1.424-1.778,2.821c-2.6-1.6-2.6-4.819-2.4-6.485Z" transform="translate(-223.478 -317.757)" fill="#f99352"/>
            </g>
            <g id="Grupo_128299" data-name="Grupo 128299" transform="translate(56.679 8.969)">
              <path id="Trazado_188403" data-name="Trazado 188403" d="M227.773,319.86s-6.309-3.511-4.063-7.406,2.946-6.972,7.069-4.9,4.042,4.01,3.608,5.493S229.472,320.672,227.773,319.86Z" transform="translate(-223.226 -306.889)" fill="#ffae73"/>
            </g>
            <g id="Grupo_128300" data-name="Grupo 128300" transform="translate(56.016 8.441)">
              <path id="Trazado_188404" data-name="Trazado 188404" d="M235.151,310.539c-.289-1.73-1.167-1.895-1.78-1.779a5.046,5.046,0,0,0-6.137-2.35,8.59,8.59,0,0,1-4.973,2.987s.732,1.362,3.749,2.205a5.152,5.152,0,0,0,2.976-.238,16.835,16.835,0,0,1-4.281,1.614c3.975.364,7.758-3.27,8.15-3.659a5.658,5.658,0,0,1,.313,2.6c-.262,1.171-1.3,3.293-.667,3.568C232.5,315.492,235.584,313.133,235.151,310.539Z" transform="translate(-222.262 -306.121)" fill="#2a3967"/>
            </g>
            <g id="Grupo_128301" data-name="Grupo 128301" transform="translate(76.253 54.411)">
              <path id="Trazado_188405" data-name="Trazado 188405" d="M252.629,373.113s-1.76,1.321-.434,2.184,3.7,1.1,3.705.53C255.933,373.925,254.985,372.574,252.629,373.113Z" transform="translate(-251.7 -372.993)" fill="#ffae73"/>
            </g>
          </g>
          <g id="Grupo_128303" data-name="Grupo 128303" transform="translate(69.632 72.579)">
            <path id="Trazado_188406" data-name="Trazado 188406" d="M248.52,421.911H285.8c1.536,0,2.721-2.35,2.74-4.013.06-5.223-5.544-13.568-18.25-9.873,0,0-3.586-9.678-16.184-8.5-7.4.689-11.52,8.236-12.016,14.964A6.734,6.734,0,0,0,248.52,421.911Z" transform="translate(-242.069 -399.422)" fill="#b8dcfb"/>
          </g>
          <g id="Grupo_128306" data-name="Grupo 128306" transform="translate(83.907 82.105)">
            <g id="Grupo_128304" data-name="Grupo 128304" transform="translate(5.35 5.073)">
              <rect id="Rectángulo_41005" data-name="Rectángulo 41005" width="7.22" height="16.588" transform="translate(7.22 16.588) rotate(180)" fill="#fcce57"/>
            </g>
            <g id="Grupo_128305" data-name="Grupo 128305">
              <path id="Trazado_188407" data-name="Trazado 188407" d="M280.756,421.7H262.834l8.961-8.423Z" transform="translate(-262.834 -413.28)" fill="#fcce57"/>
            </g>
          </g>
        </g>
        <g id="Grupo_128310" data-name="Grupo 128310" transform="translate(278.482 143.189)">
          <g id="Grupo_128308" data-name="Grupo 128308">
            <path id="Trazado_188408" data-name="Trazado 188408" d="M513.232,308.64l-9.422,2.165-4.68,8.459-3.5-19.317Z" transform="translate(-495.631 -299.946)" fill="#1e3865"/>
          </g>
          <g id="Grupo_128309" data-name="Grupo 128309" transform="translate(6.297 8.997)">
            <rect id="Rectángulo_41006" data-name="Rectángulo 41006" width="1.721" height="9.958" transform="matrix(0.799, -0.602, 0.602, 0.799, 0, 1.036)" fill="#1e3865"/>
          </g>
        </g>
        <g id="Grupo_128336" data-name="Grupo 128336" transform="translate(120.756 16.959)">
          <g id="Grupo_128331" data-name="Grupo 128331">
            <g id="Grupo_128311" data-name="Grupo 128311" transform="translate(28.228 76.648)">
              <path id="Trazado_188409" data-name="Trazado 188409" d="M307.535,237.7a1.1,1.1,0,0,0-.2,1.177l0,.006a7.312,7.312,0,0,0,2.313,2.537c.139.113.263.214.371.309.028.025.056.049.083.075l.064.058c1.017.937.634,1.151,2.46,3.053,2.082,2.167,3.516,2.205,3.923,2.008.345-.168-.355-1.317-1.132-2.609l-.113-.188c-.1-.171-.206-.346-.309-.518-.91-1.554-.676-2.284-.461-4.6.176-1.879,2.924-10.5,2.924-10.5l-3.99-.687s-1.2,6.865-2.526,7.923c-.708.564-1.5.571-2.181.989-.048.029-.095.059-.142.089A5.247,5.247,0,0,0,307.535,237.7Z" transform="translate(-307.252 -227.819)" fill="#ffae73"/>
            </g>
            <g id="Grupo_128312" data-name="Grupo 128312" transform="translate(28.228 85.649)">
              <path id="Trazado_188410" data-name="Trazado 188410" d="M307.535,241.79a1.1,1.1,0,0,0-.2,1.177l0,.006a8.478,8.478,0,0,0,2.316,2.528c.138.115.259.219.368.318.028.025.056.049.083.075l.064.058c1.017.937.634,1.152,2.46,3.053,2.082,2.167,3.516,2.205,3.923,2.008.345-.168-.355-1.317-1.132-2.609a8.87,8.87,0,0,1-3.712-2.735c-1.208-1.542-2.029-3.507-2.85-4.713l-.235-.044A5.247,5.247,0,0,0,307.535,241.79Z" transform="translate(-307.252 -240.912)" fill="#1e3865"/>
            </g>
            <g id="Grupo_128313" data-name="Grupo 128313" transform="translate(57.495 75.434)">
              <path id="Trazado_188411" data-name="Trazado 188411" d="M353.018,234.653c.246,1.232,2,1.026,3.963.547s1.5.09,4.287-.219,3.637-1.35,3.723-1.765c.076-.368-1.3-.5-2.783-.668q-.279-.032-.56-.067c-1.671-.21-2.893-1.288-4.411-2.172-1.437-.839-3.582-4.255-3.582-4.255l-3.828.3s2.009,3.052,2.786,4.378a4.624,4.624,0,0,1,.376,2.609A4.915,4.915,0,0,0,353.018,234.653Z" transform="translate(-349.826 -226.053)" fill="#ffae73"/>
            </g>
            <g id="Grupo_128314" data-name="Grupo 128314" transform="translate(60.628 81.929)">
              <path id="Trazado_188412" data-name="Trazado 188412" d="M358.405,238.153c1.962-.479,1.5.09,4.287-.219s3.637-1.35,3.722-1.765c.076-.368-1.3-.5-2.783-.668l-.014.028a7.868,7.868,0,0,1-4,1.243c-1.894.046-3.9-.5-5.208-.476a4.916,4.916,0,0,0,.03,1.31C354.688,238.838,356.444,238.632,358.405,238.153Z" transform="translate(-354.384 -235.501)" fill="#1e3865"/>
            </g>
            <g id="Grupo_128315" data-name="Grupo 128315" transform="translate(32.88 53.416)">
              <path id="Trazado_188413" data-name="Trazado 188413" d="M327.154,200.162l-3.58,9.63L318.9,222.367a7.572,7.572,0,0,1-2.482-.227,10.761,10.761,0,0,1-2.4-1.169s1.3-13.5,3.718-21.252a13.815,13.815,0,0,1,2.083-4.5C323.572,190.781,327.154,200.162,327.154,200.162Z" transform="translate(-314.019 -194.024)" fill="#8eaff1"/>
            </g>
            <g id="Grupo_128316" data-name="Grupo 128316" transform="translate(7.758 42.335)">
              <path id="Trazado_188414" data-name="Trazado 188414" d="M312.092,179.828c-2.037-.657-7.353-.01-13.118,1.033a3.91,3.91,0,0,1-4.038-1.823h0l-14.51-1.134s-4.788,10.618-2.167,17.384a2.544,2.544,0,0,0,2.536,1.636h0s8.768.012,11.572.012c7.216,0,15.271-4.961,16.313-5.169,1.706-.341,2.388,3.07,4.094,6.652s16.034,15.863,16.034,15.863a12.611,12.611,0,0,0,3.111-.319,3.069,3.069,0,0,0,1.336-.843S317.38,181.535,312.092,179.828Z" transform="translate(-277.475 -177.905)" fill="#a9c2ff"/>
            </g>
            <g id="Grupo_128317" data-name="Grupo 128317" transform="translate(0.053)">
              <path id="Trazado_188415" data-name="Trazado 188415" d="M289.891,117.18a5.148,5.148,0,0,0-2.772-.721,7.646,7.646,0,0,1-1.338-.081c-5.538-.812-8.873,7.232-9.068,9.663-.359,4.462-2.719,5.143-6.042,7.937-6.663,5.6-4.709,12.115-1.066,14.534,2.186,1.451,6.039,0,6.039,0,.054.038,10.536-5.86,15.7-8.7C299.093,138.706,293,119.033,289.891,117.18Z" transform="translate(-266.267 -116.321)" fill="#1e3865"/>
            </g>
            <g id="Grupo_128318" data-name="Grupo 128318" transform="translate(13.734 12.94)">
              <path id="Trazado_188416" data-name="Trazado 188416" d="M293.237,143.269c.023.014-2.542.89-4.257.131-1.613-.713-2.836-3.368-2.812-3.369.734-.034,1.54-.675,2.16-4.886l.313.112,5.255,1.891s-.381,1.686-.628,3.291C293.061,141.787,292.95,143.078,293.237,143.269Z" transform="translate(-286.167 -135.144)" fill="#ffae73"/>
            </g>
            <g id="Grupo_128319" data-name="Grupo 128319" transform="translate(16.207 13.052)">
              <path id="Trazado_188417" data-name="Trazado 188417" d="M295.02,137.2s-.21.91-.516,2.609a5.933,5.933,0,0,1-4.739-4.5Z" transform="translate(-289.765 -135.307)" fill="#f9924f"/>
            </g>
            <g id="Grupo_128320" data-name="Grupo 128320" transform="translate(15.68 3.97)">
              <path id="Trazado_188418" data-name="Trazado 188418" d="M295.563,134.743s-7.19-.965-6.52-5.434.193-7.6,4.812-7.175,5.253,2.266,5.392,3.811S297.451,134.878,295.563,134.743Z" transform="translate(-288.999 -122.095)" fill="#ffae73"/>
            </g>
            <g id="Grupo_128321" data-name="Grupo 128321" transform="translate(13.617 3.575)">
              <path id="Trazado_188419" data-name="Trazado 188419" d="M298.047,123.316s-4.6,3.967-7.733,4.286-4.316-.685-4.316-.685a12.222,12.222,0,0,0,2.956-4,2.2,2.2,0,0,1,1.815-1.3C293,121.423,297.242,121.335,298.047,123.316Z" transform="translate(-285.998 -121.521)" fill="#1e3865"/>
            </g>
            <g id="Grupo_128322" data-name="Grupo 128322" transform="translate(22.79 4.156)">
              <path id="Trazado_188420" data-name="Trazado 188420" d="M299.341,123.226a11.317,11.317,0,0,1,2.024,2.593,8.7,8.7,0,0,1,.236,4.626s2.4-4.665,1.041-6.931C301.2,121.111,299.341,123.226,299.341,123.226Z" transform="translate(-299.341 -122.366)" fill="#1e3865"/>
            </g>
            <g id="Grupo_128323" data-name="Grupo 128323" transform="translate(7.563 17.657)">
              <path id="Trazado_188421" data-name="Trazado 188421" d="M296.485,156c-.217,14.554-.059,11.513-1.651,12.894a6.116,6.116,0,0,1-2.882.624c-4.463.3-12.308-.439-12.606-1.264-1.029-2.854-.3-3.74-1.162-8.11-.089-.465-.2-.967-.33-1.515-.716-3-1.413-4.021,1.127-8.842,2.3-4.367,4.7-7.911,4.912-7.783,6.078,3.608,6.568.575,6.568.575S296.592,148.906,296.485,156Z" transform="translate(-277.191 -142.006)" fill="#fcce57"/>
            </g>
            <g id="Grupo_128324" data-name="Grupo 128324" transform="translate(32.88 59.111)">
              <path id="Trazado_188422" data-name="Trazado 188422" d="M323.574,212.381,318.9,224.957a7.571,7.571,0,0,1-2.482-.227,10.759,10.759,0,0,1-2.4-1.169s1.3-13.5,3.718-21.252Z" transform="translate(-314.019 -202.309)" fill="#a9c2ff"/>
            </g>
            <g id="Grupo_128325" data-name="Grupo 128325" transform="translate(20.835 18.234)">
              <path id="Trazado_188423" data-name="Trazado 188423" d="M296.5,142.846s6.255,1.061,6.989,3.753,3.152,19.038,3.152,19.038-1.763,1.722-3.232.254-4.622-15.293-4.622-15.293Z" transform="translate(-296.497 -142.846)" fill="#fcce57"/>
            </g>
            <g id="Grupo_128326" data-name="Grupo 128326" transform="translate(8.556 29.74)">
              <path id="Trazado_188424" data-name="Trazado 188424" d="M292.4,175.017c-4.463.3-12.308-.439-12.606-1.263-1.029-2.854-.3-3.74-1.162-8.11l2.153-6.061s-.356,6.749,1.635,8.525,8.15,3.427,9.117,4.91A5.432,5.432,0,0,1,292.4,175.017Z" transform="translate(-278.636 -159.583)" fill="#fcce57"/>
            </g>
            <g id="Grupo_128327" data-name="Grupo 128327" transform="translate(17.211 41.654)">
              <path id="Trazado_188425" data-name="Trazado 188425" d="M291.226,177.6s4.4-.98,5.113-.589A10.331,10.331,0,0,1,299,179.314c.218.5-1.581-.375-2.167-.533a5.211,5.211,0,0,0-1.87.41,6.21,6.21,0,0,1-3.351.336Z" transform="translate(-291.226 -176.914)" fill="#ffae73"/>
            </g>
            <g id="Grupo_128328" data-name="Grupo 128328" transform="translate(0 17.657)">
              <path id="Trazado_188426" data-name="Trazado 188426" d="M280.452,142.006s-5.912.364-7.958,3.219c-2.881,4.018-8.6,21.142-5.321,23.426,3.689,2.572,16.787.673,16.787.673s.436-2.038-.17-3.023-10.462-2.578-10.917-3.033,5.686-8.87,5.686-10.235S280.452,142.006,280.452,142.006Z" transform="translate(-266.189 -142.006)" fill="#fcce57"/>
            </g>
            <g id="Grupo_128329" data-name="Grupo 128329" transform="translate(22.538 42.971)">
              <path id="Trazado_188427" data-name="Trazado 188427" d="M298.974,178.83a8.524,8.524,0,0,0,1.225,1.332.9.9,0,0,0,.5.107l-.622-1.119Z" transform="translate(-298.974 -178.83)" fill="#ffae73"/>
            </g>
            <g id="Grupo_128330" data-name="Grupo 128330" transform="translate(22.324 41.746)">
              <path id="Trazado_188428" data-name="Trazado 188428" d="M298.664,177.048l2.682,1.3a.478.478,0,0,1-.445.172,6.406,6.406,0,0,1-1.163-.32Z" transform="translate(-298.664 -177.048)" fill="#ffae73"/>
            </g>
          </g>
          <g id="Grupo_128335" data-name="Grupo 128335" transform="translate(17.211 29.555)">
            <g id="Grupo_128332" data-name="Grupo 128332" transform="translate(0 15.253)">
              <path id="Trazado_188429" data-name="Trazado 188429" d="M319.243,181.5H291.226v.618h27.768Z" transform="translate(-291.226 -181.502)" fill="#1e3865"/>
            </g>
            <g id="Grupo_128333" data-name="Grupo 128333" transform="translate(6.551)">
              <path id="Trazado_188430" data-name="Trazado 188430" d="M300.756,175.185h21.217l6.382-15.871H307.171Z" transform="translate(-300.756 -159.314)" fill="#1e3865"/>
            </g>
            <g id="Grupo_128334" data-name="Grupo 128334" transform="translate(20.351 6.925)">
              <path id="Trazado_188431" data-name="Trazado 188431" d="M322.892,170.4a.736.736,0,0,0-.721-1.011,1.447,1.447,0,0,0-1.3,1.011.735.735,0,0,0,.72,1.01A1.448,1.448,0,0,0,322.892,170.4Z" transform="translate(-320.83 -169.388)" fill="#fff"/>
            </g>
          </g>
        </g>
        <g id="Grupo_128351" data-name="Grupo 128351" transform="translate(341.213 102.771)">
          <g id="Grupo_128337" data-name="Grupo 128337" transform="translate(26.387 24.21)">
            <path id="Trazado_188432" data-name="Trazado 188432" d="M625.269,276.369s10.282,10.46,10.807,14.8-5.33,11.121-5.33,11.121Z" transform="translate(-625.269 -276.369)" fill="#fcce57"/>
          </g>
          <g id="Grupo_128338" data-name="Grupo 128338" transform="translate(5.464 140.728)">
            <path id="Trazado_188433" data-name="Trazado 188433" d="M609.881,447.844s-.393,6.12-1.577,6.2c-.157.012-6.006,0-6.006,0l-7.465-.059a2.423,2.423,0,0,1,2.235-2.175c2.183-.375,5.84-1.9,7.168-4.783C605.632,444,609.881,447.844,609.881,447.844Z" transform="translate(-594.832 -445.866)" fill="#062646"/>
          </g>
          <g id="Grupo_128339" data-name="Grupo 128339" transform="translate(22.093 140.765)">
            <path id="Trazado_188434" data-name="Trazado 188434" d="M634.071,447.9s-.393,6.12-1.578,6.206c-.157.011-6.006,0-6.006,0l-7.465-.06a2.422,2.422,0,0,1,2.236-2.174c2.183-.375,5.84-1.9,7.168-4.783C629.823,444.052,634.071,447.9,634.071,447.9Z" transform="translate(-619.022 -445.919)" fill="#062646"/>
          </g>
          <g id="Grupo_128340" data-name="Grupo 128340" transform="translate(12.387 67.594)">
            <path id="Trazado_188435" data-name="Trazado 188435" d="M604.9,348.791s1.925,12.493,9.161,34.678,8.208,31.787,8.208,31.787l7.815-.2s.12-24.228-3.213-35.383-.637-40.192-.637-40.192Z" transform="translate(-604.903 -339.479)" fill="#0b3563"/>
          </g>
          <g id="Grupo_128341" data-name="Grupo 128341" transform="translate(8.595 68.224)">
            <path id="Trazado_188436" data-name="Trazado 188436" d="M599.395,340.395a303.066,303.066,0,0,0,2.889,41.933c3.206,23.114,2.081,32.92,2.081,32.92l7.8.276s4.71-23.105,3.4-34.674,6.468-39.673,6.468-39.673Z" transform="translate(-599.386 -340.395)" fill="#0d458e"/>
          </g>
          <g id="Grupo_128342" data-name="Grupo 128342" transform="translate(13.633 14.911)">
            <path id="Trazado_188437" data-name="Trazado 188437" d="M616.878,272.147l-4.16,2.715-6-1.132c.084-.485.485-2.493.85-4.312.022-.107.044-.214.065-.32.313-1.548.583-2.878.583-2.878l5.614-2.462,2.093-.918c-.005.032-.166,1.718-.188,1.964A14.3,14.3,0,0,0,616.878,272.147Z" transform="translate(-606.715 -262.841)" fill="#ffae73"/>
          </g>
          <g id="Grupo_128343" data-name="Grupo 128343" transform="translate(12.768 20.925)">
            <path id="Trazado_188438" data-name="Trazado 188438" d="M607.866,273.489c.117-.049,7.236-2.133,8.009-1.877s1.226,1.754,1.226,1.754l-11.643,2.606A5.779,5.779,0,0,1,607.866,273.489Z" transform="translate(-605.458 -271.59)" fill="#fcce57"/>
          </g>
          <g id="Grupo_128344" data-name="Grupo 128344" transform="translate(7.263 22.638)">
            <path id="Trazado_188439" data-name="Trazado 188439" d="M624.418,322.046c-1.218,5.5-21.29,6.108-26.452,1.1-.588-.571-.611-3.219-.381-6.789.449-6.975,1.866-17.467,1.932-22.828a42.464,42.464,0,0,1,.873-7.64,62.087,62.087,0,0,1,2.565-9.142s9.81-3.149,11.643-2.605C623.43,276.76,625.636,316.547,624.418,322.046Z" transform="translate(-597.448 -274.081)" fill="#fcce57"/>
          </g>
          <g id="Grupo_128345" data-name="Grupo 128345" transform="translate(7.398 33.42)">
            <path id="Trazado_188440" data-name="Trazado 188440" d="M597.646,321.262c.449-6.975,1.866-17.467,1.932-22.828a42.453,42.453,0,0,1,.873-7.64l5.9-1.028S612.853,314.758,597.646,321.262Z" transform="translate(-597.646 -289.766)" fill="#fcce57"/>
          </g>
          <g id="Grupo_128346" data-name="Grupo 128346" transform="translate(8.925 54.285)">
            <path id="Trazado_188441" data-name="Trazado 188441" d="M601.555,321.032a1.386,1.386,0,0,1-.446,1.6,2.69,2.69,0,0,0-1.2,2.451c.192.764,2.04,2.015,2.683,1.815s1.951-1.2,1.811-1.606.886-3.533-.676-4.743A1.263,1.263,0,0,0,601.555,321.032Z" transform="translate(-599.867 -320.118)" fill="#ffae73"/>
          </g>
          <g id="Grupo_128347" data-name="Grupo 128347" transform="translate(0 24.23)">
            <path id="Trazado_188442" data-name="Trazado 188442" d="M604,276.4s-5.594.738-10.19,7.481-7.623,11.757-6.785,14.194,8.516,10.895,9.842,10.9a3.557,3.557,0,0,0,3.595-3.128s-4.864-8.636-3.794-9.849c.457-.519,6.51-5.341,7.444-2.926C605.655,297.061,604,276.4,604,276.4Z" transform="translate(-586.884 -276.398)" fill="#fcce57"/>
          </g>
          <g id="Grupo_128348" data-name="Grupo 128348" transform="translate(14.482 15.828)">
            <path id="Trazado_188443" data-name="Trazado 188443" d="M615.7,265.3c-1.236,2.084-5.83,3.878-7.745,4.537.022-.107.044-.214.065-.32.313-1.548.583-2.878.583-2.878l5.614-2.462C615.452,264.162,616.206,264.441,615.7,265.3Z" transform="translate(-607.951 -264.175)" fill="#ffa05e"/>
          </g>
          <g id="Grupo_128349" data-name="Grupo 128349" transform="translate(11.895 3.086)">
            <path id="Trazado_188444" data-name="Trazado 188444" d="M605.308,260.5s9.029,2.838,10.709-2.812S620,248.6,614.3,246.549s-7.459-.23-8.479,1.519S603,259.616,605.308,260.5Z" transform="translate(-604.187 -245.64)" fill="#ffae73"/>
          </g>
          <g id="Grupo_128350" data-name="Grupo 128350" transform="translate(13.042)">
            <path id="Trazado_188445" data-name="Trazado 188445" d="M606.7,246.121s.562,6.58,1.923,6.3,2.6-.492,2.392,1.491-2.095,4.268,2.1,4.628,10.243-10.44,9.1-12.489C618.9,240.134,601.913,238.9,606.7,246.121Z" transform="translate(-605.856 -241.151)" fill="#0b3563"/>
          </g>
        </g>
      </g>
    </g>
  </g>
</svg>
