<svg xmlns="http://www.w3.org/2000/svg" width="860" height="469" viewBox="0 0 860 469">
  <g id="Grupo_128589" data-name="Grupo 128589" transform="translate(-370.333 -451)">
    <g id="Grupo_128426" data-name="Grupo 128426" transform="translate(83)">
      <g id="Grupo_128219" data-name="Grupo 128219" transform="translate(138.666 -4542)">
        <path id="Trazado_116030" data-name="Trazado 116030" d="M5.856,0H254.144A5.724,5.724,0,0,1,260,5.581V42.419A5.724,5.724,0,0,1,254.144,48H5.856A5.724,5.724,0,0,1,0,42.419V5.581A5.724,5.724,0,0,1,5.856,0Z" transform="translate(458.667 4993)" fill="#084a93"/>
        <text id="Sistemas_operativos_de_red" data-name="Sistemas operativos de red" transform="translate(478.667 5024)" fill="#fff" font-size="18" font-family="Roboto-Bold, Roboto" font-weight="700"><tspan x="0" y="0">Sistemas operativos de red</tspan></text>
      </g>
      <g id="Grupo_128220" data-name="Grupo 128220" transform="translate(121.999 -432)">
        <g id="Rectángulo_40686" data-name="Rectángulo 40686" transform="translate(215.334 969)" fill="none" stroke="#707070" stroke-width="1">
          <rect width="70" height="29" rx="5" stroke="none"/>
          <rect x="0.5" y="0.5" width="69" height="28" rx="4.5" fill="none"/>
        </g>
        <text id="incluye" transform="translate(225.334 989)" fill="#12263f" font-size="16" font-family="Roboto-Regular, Roboto"><tspan x="0" y="0">incluye</tspan></text>
      </g>
      <g id="Grupo_128221" data-name="Grupo 128221" transform="translate(378.999 -432)">
        <g id="Rectángulo_40686-2" data-name="Rectángulo 40686" transform="translate(215.334 969)" fill="none" stroke="#707070" stroke-width="1">
          <rect width="70" height="29" rx="5" stroke="none"/>
          <rect x="0.5" y="0.5" width="69" height="28" rx="4.5" fill="none"/>
        </g>
        <text id="incluye-2" data-name="incluye" transform="translate(225.334 989)" fill="#12263f" font-size="16" font-family="Roboto-Regular, Roboto"><tspan x="0" y="0">incluye</tspan></text>
      </g>
      <g id="Grupo_128222" data-name="Grupo 128222" transform="translate(617.999 -432)">
        <g id="Rectángulo_40686-3" data-name="Rectángulo 40686" transform="translate(215.334 969)" fill="none" stroke="#707070" stroke-width="1">
          <rect width="70" height="29" rx="5" stroke="none"/>
          <rect x="0.5" y="0.5" width="69" height="28" rx="4.5" fill="none"/>
        </g>
        <text id="incluye-3" data-name="incluye" transform="translate(225.334 989)" fill="#12263f" font-size="16" font-family="Roboto-Regular, Roboto"><tspan x="0" y="0">incluye</tspan></text>
      </g>
      <g id="Grupo_128223" data-name="Grupo 128223" transform="translate(812.999 -432)">
        <g id="Rectángulo_40686-4" data-name="Rectángulo 40686" transform="translate(215.334 969)" fill="none" stroke="#707070" stroke-width="1">
          <rect width="70" height="29" rx="5" stroke="none"/>
          <rect x="0.5" y="0.5" width="69" height="28" rx="4.5" fill="none"/>
        </g>
        <text id="incluye-4" data-name="incluye" transform="translate(225.334 989)" fill="#12263f" font-size="16" font-family="Roboto-Regular, Roboto"><tspan x="0" y="0">incluye</tspan></text>
      </g>
      <g id="Grupo_128224" data-name="Grupo 128224" transform="translate(97.999 -265)">
        <g id="Rectángulo_40686-5" data-name="Rectángulo 40686" transform="translate(243.334 969)" fill="none" stroke="#707070" stroke-width="1">
          <rect width="62" height="29" rx="5" stroke="none"/>
          <rect x="0.5" y="0.5" width="61" height="28" rx="4.5" fill="none"/>
        </g>
        <text id="como" transform="translate(253.334 974)" fill="#12263f" font-size="16" font-family="Roboto-Regular, Roboto"><tspan x="0" y="17">como</tspan></text>
      </g>
      <g id="Grupo_128225" data-name="Grupo 128225" transform="translate(354.999 -265)">
        <g id="Rectángulo_40686-6" data-name="Rectángulo 40686" transform="translate(243.334 969)" fill="none" stroke="#707070" stroke-width="1">
          <rect width="62" height="29" rx="5" stroke="none"/>
          <rect x="0.5" y="0.5" width="61" height="28" rx="4.5" fill="none"/>
        </g>
        <text id="como-2" data-name="como" transform="translate(253.334 974)" fill="#12263f" font-size="16" font-family="Roboto-Regular, Roboto"><tspan x="0" y="17">como</tspan></text>
      </g>
      <g id="Grupo_128226" data-name="Grupo 128226" transform="translate(593.999 -265)">
        <g id="Rectángulo_40686-7" data-name="Rectángulo 40686" transform="translate(243.334 969)" fill="none" stroke="#707070" stroke-width="1">
          <rect width="62" height="29" rx="5" stroke="none"/>
          <rect x="0.5" y="0.5" width="61" height="28" rx="4.5" fill="none"/>
        </g>
        <text id="como-3" data-name="como" transform="translate(253.334 974)" fill="#12263f" font-size="16" font-family="Roboto-Regular, Roboto"><tspan x="0" y="17">como</tspan></text>
      </g>
      <g id="Grupo_128227" data-name="Grupo 128227" transform="translate(788.999 -265)">
        <g id="Rectángulo_40686-8" data-name="Rectángulo 40686" transform="translate(243.334 969)" fill="none" stroke="#707070" stroke-width="1">
          <rect width="62" height="29" rx="5" stroke="none"/>
          <rect x="0.5" y="0.5" width="61" height="28" rx="4.5" fill="none"/>
        </g>
        <text id="como-4" data-name="como" transform="translate(253.334 974)" fill="#12263f" font-size="16" font-family="Roboto-Regular, Roboto"><tspan x="0" y="17">como</tspan></text>
      </g>
      <line id="Línea_302" data-name="Línea 302" y2="41" transform="translate(371.833 662.5)" fill="none" stroke="#707070" stroke-linecap="round" stroke-width="2"/>
      <line id="Línea_303" data-name="Línea 303" y2="50.5" transform="translate(371.833 566)" fill="none" stroke="#707070" stroke-linecap="round" stroke-width="2"/>
      <line id="Línea_304" data-name="Línea 304" y2="38" transform="translate(371.833 499)" fill="none" stroke="#707070" stroke-linecap="round" stroke-width="2"/>
      <line id="Línea_305" data-name="Línea 305" y2="41" transform="translate(628.833 662.5)" fill="none" stroke="#707070" stroke-linecap="round" stroke-width="2"/>
      <line id="Línea_306" data-name="Línea 306" y2="50.5" transform="translate(628.833 566)" fill="none" stroke="#707070" stroke-linecap="round" stroke-width="2"/>
      <line id="Línea_307" data-name="Línea 307" y2="38" transform="translate(628.833 499)" fill="none" stroke="#707070" stroke-linecap="round" stroke-width="2"/>
      <line id="Línea_308" data-name="Línea 308" y2="41" transform="translate(867.833 662.5)" fill="none" stroke="#707070" stroke-linecap="round" stroke-width="2"/>
      <line id="Línea_309" data-name="Línea 309" y2="50.5" transform="translate(867.833 566)" fill="none" stroke="#707070" stroke-linecap="round" stroke-width="2"/>
      <line id="Línea_310" data-name="Línea 310" y2="61.5" transform="translate(867.833 475.5)" fill="none" stroke="#707070" stroke-linecap="round" stroke-width="2"/>
      <line id="Línea_311" data-name="Línea 311" y2="41" transform="translate(1062.833 662.5)" fill="none" stroke="#707070" stroke-linecap="round" stroke-width="2"/>
      <line id="Línea_312" data-name="Línea 312" y2="50.5" transform="translate(1062.833 566)" fill="none" stroke="#707070" stroke-linecap="round" stroke-width="2"/>
      <line id="Línea_313" data-name="Línea 313" y2="38" transform="translate(1062.833 499)" fill="none" stroke="#707070" stroke-linecap="round" stroke-width="2"/>
      <line id="Línea_314" data-name="Línea 314" y2="51.554" transform="translate(371.833 733.446)" fill="none" stroke="#707070" stroke-linecap="round" stroke-width="2"/>
      <line id="Línea_315" data-name="Línea 315" y2="51.554" transform="translate(628.833 733.446)" fill="none" stroke="#707070" stroke-linecap="round" stroke-width="2"/>
      <line id="Línea_316" data-name="Línea 316" y2="51.554" transform="translate(867.833 733.446)" fill="none" stroke="#707070" stroke-linecap="round" stroke-width="2"/>
      <line id="Línea_317" data-name="Línea 317" y2="51.554" transform="translate(1062.833 733.446)" fill="none" stroke="#707070" stroke-linecap="round" stroke-width="2"/>
      <g id="Grupo_128228" data-name="Grupo 128228" transform="translate(43.999 -180)">
        <rect id="Rectángulo_40686-9" data-name="Rectángulo 40686" width="169" height="111" rx="5" transform="translate(243.334 965)" fill="#b9ddfc"/>
        <text id="Software_Libre_Copyleft_GPL_Por_Cores" data-name="Software Libre,
Copyleft,
GPL,
Por Cores" transform="translate(253.334 974)" fill="#12263f" font-size="16" font-family="Roboto-Regular, Roboto"><tspan x="0" y="17">Software Libre,</tspan><tspan x="0" y="41">Copyleft,</tspan><tspan x="0" y="65">GPL,</tspan><tspan x="0" y="89">Por Cores</tspan></text>
      </g>
      <g id="Grupo_128229" data-name="Grupo 128229" transform="translate(300.999 -180)">
        <rect id="Rectángulo_40686-10" data-name="Rectángulo 40686" width="169" height="87" rx="5" transform="translate(243.334 965)" fill="#b9ddfc"/>
        <text id="Cable_UTP_Coaxial_Fibra" data-name="Cable UTP,
Coaxial,
Fibra" transform="translate(253.334 974)" fill="#12263f" font-size="16" font-family="Roboto-Regular, Roboto"><tspan x="0" y="17">Cable UTP,</tspan><tspan x="0" y="41">Coaxial,</tspan><tspan x="0" y="65">Fibra</tspan></text>
      </g>
      <g id="Grupo_128230" data-name="Grupo 128230" transform="translate(539.999 -180)">
        <rect id="Rectángulo_40686-11" data-name="Rectángulo 40686" width="169" height="135" rx="5" transform="translate(243.334 965)" fill="#b9ddfc"/>
        <text id="Malla_Híbrido_Anillo_Estrella_Bus" data-name="Malla,
Híbrido,
Anillo,
Estrella,
Bus" transform="translate(253.334 974)" fill="#12263f" font-size="16" font-family="Roboto-Regular, Roboto"><tspan x="0" y="17">Malla,</tspan><tspan x="0" y="41">Híbrido,</tspan><tspan x="0" y="65">Anillo,</tspan><tspan x="0" y="89">Estrella,</tspan><tspan x="0" y="113">Bus</tspan></text>
      </g>
      <g id="Grupo_128231" data-name="Grupo 128231" transform="translate(734.999 -180)">
        <rect id="Rectángulo_40686-12" data-name="Rectángulo 40686" width="169" height="87" rx="5" transform="translate(243.334 965)" fill="#b9ddfc"/>
        <text id="Windows_Linux_Unix" data-name="Windows,
Linux,
Unix" transform="translate(253.334 974)" fill="#12263f" font-size="16" font-family="Roboto-Regular, Roboto"><tspan x="0" y="17">Windows,</tspan><tspan x="0" y="41">Linux,</tspan><tspan x="0" y="65">Unix</tspan></text>
      </g>
      <g id="Grupo_128232" data-name="Grupo 128232" transform="translate(349.666 -4378)" opacity="0.85">
        <path id="Trazado_116256" data-name="Trazado 116256" d="M3.993,0H115.007C117.212,0,119,2.343,119,5.233V39.767c0,2.89-1.788,5.233-3.993,5.233H3.993C1.788,45,0,42.657,0,39.767V5.233C0,2.343,1.788,0,3.993,0Z" transform="translate(458.667 4995)" fill="#89e7de"/>
        <text id="Topologías" transform="translate(478.667 5024)" fill="#12263f" font-size="16" font-family="Roboto-Bold, Roboto" font-weight="700"><tspan x="0" y="0">Topologías</tspan></text>
      </g>
      <g id="Grupo_128233" data-name="Grupo 128233" transform="translate(544.666 -4378)" opacity="0.85">
        <path id="Trazado_116256-2" data-name="Trazado 116256" d="M3.993,0H115.007C117.212,0,119,2.343,119,5.233V39.767c0,2.89-1.788,5.233-3.993,5.233H3.993C1.788,45,0,42.657,0,39.767V5.233C0,2.343,1.788,0,3.993,0Z" transform="translate(458.667 4995)" fill="#9aeae2"/>
        <text id="Topologías-2" data-name="Topologías" transform="translate(478.667 5024)" fill="#12263f" font-size="16" font-family="Roboto-Bold, Roboto" font-weight="700"><tspan x="0" y="0">Topologías</tspan></text>
      </g>
      <g id="Grupo_128234" data-name="Grupo 128234" transform="translate(102.666 -4378)" opacity="0.85">
        <path id="Trazado_116256-3" data-name="Trazado 116256" d="M6.846,0H197.154C200.935,0,204,2.343,204,5.233V39.767c0,2.89-3.065,5.233-6.846,5.233H6.846C3.065,45,0,42.657,0,39.767V5.233C0,2.343,3.065,0,6.846,0Z" transform="translate(424.667 4995)" fill="#75e3d9"/>
        <text id="Medios_de_transmisión" data-name="Medios de transmisión" transform="translate(444.667 5024)" fill="#12263f" font-size="16" font-family="Roboto-Bold, Roboto" font-weight="700"><tspan x="0" y="0">Medios de transmisión</tspan></text>
      </g>
      <g id="Grupo_128235" data-name="Grupo 128235" transform="translate(-165.334 -4378)" opacity="0.85">
        <path id="Trazado_116256-4" data-name="Trazado 116256" d="M5.3,0H152.7A5.268,5.268,0,0,1,158,5.233V39.767A5.268,5.268,0,0,1,152.7,45H5.3A5.268,5.268,0,0,1,0,39.767V5.233A5.268,5.268,0,0,1,5.3,0Z" transform="translate(458.667 4995)" fill="#75e3d9"/>
        <text id="Licenciamientos" transform="translate(478.667 5024)" fill="#12263f" font-size="16" font-family="Roboto-Bold, Roboto" font-weight="700"><tspan x="0" y="0">Licenciamientos</tspan></text>
      </g>
      <path id="Trazado_188342" data-name="Trazado 188342" d="M-14746-9611h-225.5v62.473" transform="translate(15343.333 10086)" fill="none" stroke="#707070" stroke-width="2"/>
      <path id="Trazado_188343" data-name="Trazado 188343" d="M-14971.5-9611h206v62.473" transform="translate(15828.835 10086)" fill="none" stroke="#707070" stroke-width="2"/>
    </g>
  </g>
</svg>
