<svg xmlns="http://www.w3.org/2000/svg" width="181.887" height="171.97" viewBox="0 0 181.887 171.97">
  <g id="Grupo_128585" data-name="Grupo 128585" transform="translate(12081.076 12232.797)">
    <g id="Grupo_127982" data-name="Grupo 127982" transform="translate(-12081.076 -12232.797)">
      <g id="Grupo_127979" data-name="Grupo 127979" transform="translate(12.077)">
        <path id="Trazado_187799" data-name="Trazado 187799" d="M439.344,178.93v74.128l8.108-4.746V173.974Z" transform="translate(-277.643 -81.09)" fill="#2672ab"/>
        <path id="Trazado_187800" data-name="Trazado 187800" d="M479.3,200.66v74.128L317.571,182.041V107.7Z" transform="translate(-317.571 -102.819)" fill="#3f92d1"/>
        <path id="Trazado_187801" data-name="Trazado 187801" d="M317.571,108.907,479.3,201.866l8.078-4.957L325.6,104.025Z" transform="translate(-317.571 -104.025)" fill="#72b5e8"/>
        <path id="Trazado_187802" data-name="Trazado 187802" d="M317.571,107.7,479.3,200.66l8.078-4.957-8.1,3.828Z" transform="translate(-317.571 -102.819)" fill="#fff" opacity="0.7"/>
      </g>
      <g id="Grupo_127980" data-name="Grupo 127980" transform="translate(76.974 54.376)">
        <path id="Trazado_187803" data-name="Trazado 187803" d="M434.134,221.226v-3.148L383.09,189.061v3.147Z" transform="translate(-360.985 -130.518)" fill="#fff"/>
        <path id="Trazado_187804" data-name="Trazado 187804" d="M366.443,144.974v3.147l85.8,49.084v-3.148Z" transform="translate(-366.443 -144.974)" fill="#fff"/>
        <path id="Trazado_187805" data-name="Trazado 187805" d="M396.653,182.117l-30.21-17.442v3.148l30.21,17.442Z" transform="translate(-366.443 -138.515)" fill="#fff"/>
        <path id="Trazado_187806" data-name="Trazado 187806" d="M404.59,196.549V199.7l12.48,6.752V203.3Z" transform="translate(-353.935 -128.063)" fill="#fff"/>
        <path id="Trazado_187807" data-name="Trazado 187807" d="M415.161,182.952l-48.718-28.127v3.147L415.161,186.1Z" transform="translate(-366.443 -141.744)" fill="#fff"/>
        <path id="Trazado_187808" data-name="Trazado 187808" d="M384.287,170.052l-17.844-10.3V162.9l17.844,10.3Z" transform="translate(-366.443 -140.13)" fill="#fff"/>
        <path id="Trazado_187809" data-name="Trazado 187809" d="M376.465,183.459l34.248,19.773v-3.147l-34.248-19.773Z" transform="translate(-363.157 -133.388)" fill="#fff"/>
        <path id="Trazado_187810" data-name="Trazado 187810" d="M382.215,168.856V172L430.3,199.311v-3.147Z" transform="translate(-361.271 -137.144)" fill="#fff"/>
        <path id="Trazado_187811" data-name="Trazado 187811" d="M391.527,179.157V182.3l24.04,13.88v-3.147Z" transform="translate(-358.218 -133.766)" fill="#fff"/>
        <path id="Trazado_187812" data-name="Trazado 187812" d="M376.652,180.419l-10.209-5.894v3.147l10.209,5.894Z" transform="translate(-366.443 -135.285)" fill="#fff"/>
        <path id="Trazado_187813" data-name="Trazado 187813" d="M405.465,180.5l33.983,19.167v-3.147l-33.983-19.167Z" transform="translate(-353.648 -134.357)" fill="#fff"/>
        <path id="Trazado_187814" data-name="Trazado 187814" d="M420.759,193.915l13.674,7.895v-3.147l-13.674-7.9Z" transform="translate(-348.633 -129.959)" fill="#fff"/>
        <path id="Trazado_187815" data-name="Trazado 187815" d="M366.443,153.047l85.8,49.083v-3.148l-85.8-49.083Z" transform="translate(-366.443 -143.359)" fill="#fff"/>
        <path id="Trazado_187816" data-name="Trazado 187816" d="M411.965,194.1l25.352,14.184v-3.147l-25.352-14.184Z" transform="translate(-351.517 -129.897)" fill="#fff"/>
        <path id="Trazado_187817" data-name="Trazado 187817" d="M385.449,190.424,366.443,179.45V182.6l19.006,10.973Z" transform="translate(-366.443 -133.67)" fill="#fff"/>
        <path id="Trazado_187818" data-name="Trazado 187818" d="M423.863,215.408l9.553,5.515v-3.148l-9.553-5.515Z" transform="translate(-347.616 -122.912)" fill="#fff"/>
        <path id="Trazado_187819" data-name="Trazado 187819" d="M416.321,206.129l19.567,11.3v-3.147l-19.567-11.3Z" transform="translate(-350.088 -125.954)" fill="#fff"/>
        <path id="Trazado_187820" data-name="Trazado 187820" d="M366.443,172.747l85.8,49.084v-3.148l-85.8-49.083Z" transform="translate(-366.443 -136.9)" fill="#fff"/>
      </g>
      <path id="Trazado_187821" data-name="Trazado 187821" d="M362.113,139.894,333.9,123.577c-4.931-2.847-8.929.175-8.929,6.751v32.65c0,6.574,4,14.214,8.929,17.061l28.208,16.316c4.93,2.848,8.929-.174,8.929-6.75v-32.65C371.042,150.379,367.044,142.741,362.113,139.894Z" transform="translate(-303.066 -97.966)" fill="#2672ab"/>
      <path id="Trazado_187822" data-name="Trazado 187822" d="M365.6,193.681,337.39,177.365c-4.93-2.847-8.929-10.486-8.929-17.062V127.654a10.7,10.7,0,0,1,1.1-5.1c-2.737.454-4.591,3.277-4.591,7.752v32.649c0,6.576,4,14.215,8.929,17.062l28.208,16.316c3.371,1.947,6.3,1.147,7.824-1.655A6.564,6.564,0,0,1,365.6,193.681Z" transform="translate(-303.066 -97.948)" fill="#084c94"/>
      <g id="Grupo_127981" data-name="Grupo 127981" transform="translate(0 30.975)">
        <path id="Trazado_187823" data-name="Trazado 187823" d="M345.613,146.769,317.4,130.452c-4.93-2.847-8.929.175-8.929,6.751v32.65c0,6.574,4,14.214,8.929,17.061l28.208,16.316c4.93,2.848,8.929-.174,8.929-6.75v-32.65C354.542,157.254,350.544,149.616,345.613,146.769Z" transform="translate(-308.476 -126.687)" fill="#fdb32b"/>
        <path id="Trazado_187824" data-name="Trazado 187824" d="M349.468,144.735l-28.207-16.317c-2.113-1.219-4.05-1.354-5.578-.6l-.049-.053-4.88,2.866.019.06c1.572-.936,3.629-.875,5.888.429l28.207,16.317c4.931,2.847,8.929,10.485,8.929,17.061v32.65c0,3.2-.949,5.543-2.487,6.793l2.722-1.793a8.036,8.036,0,0,0,4.366-7.7V161.8C358.4,155.222,354.4,147.582,349.468,144.735Z" transform="translate(-307.729 -127.352)" fill="#cc8f20"/>
        <path id="Trazado_187825" data-name="Trazado 187825" d="M345.336,146.453l-28.207-16.316c-2.45-1.416-4.668-1.378-6.281-.181a6.033,6.033,0,0,1,5.195.765l28.207,16.317c4.932,2.847,8.93,10.485,8.93,17.061v32.65c0,3.309-1.015,5.715-2.649,6.929,2.259-.857,3.734-3.526,3.734-7.515V163.515C354.265,156.94,350.268,149.3,345.336,146.453Z" transform="translate(-307.698 -126.79)" fill="#fff" opacity="0.7"/>
        <path id="Trazado_187826" data-name="Trazado 187826" d="M314.111,136.972v37.376L344.7,192.016V154.641ZM342.74,188.62l-26.668-15.4V140.369l26.668,15.4Z" transform="translate(-306.628 -124.198)" fill="#fff"/>
        <path id="Trazado_187827" data-name="Trazado 187827" d="M334,157.059c0,2.449-1.73,3.434-3.864,2.2a8.515,8.515,0,0,1-3.864-6.665c0-2.449,1.73-3.435,3.864-2.2A8.513,8.513,0,0,1,334,157.059Z" transform="translate(-302.643 -119.971)" fill="#fff"/>
        <path id="Trazado_187828" data-name="Trazado 187828" d="M314.883,160.182l7.965-10.293,8.087,20.463,5.882-4.779,6.494,17.645L343.188,185l-28.182-15.071Z" transform="translate(-306.375 -119.962)" fill="#fff"/>
      </g>
    </g>
  </g>
</svg>
