<svg xmlns="http://www.w3.org/2000/svg" width="93.635" height="197.109" viewBox="0 0 93.635 197.109">
  <g id="Grupo_128586" data-name="Grupo 128586" transform="translate(-915 -240.007)">
    <g id="Grupo_128583" data-name="Grupo 128583" transform="translate(720.897 129.994)">
      <g id="Grupo_127979" data-name="Grupo 127979">
        <path id="Trazado_187799" data-name="Trazado 187799" d="M279.63,163.816V306.7l8.108-4.746V158.86Z" fill="#1cb1c9"/>
        <path id="Trazado_187800" data-name="Trazado 187800" d="M279.658,163.817V307.122L194.1,258.411V114.894Z" fill="#26defc"/>
        <path id="Trazado_187801" data-name="Trazado 187801" d="M194.1,114.895l85.555,48.922,8.078-4.957-85.6-48.847Z" fill="#a6f4fe"/>
        <path id="Trazado_187802" data-name="Trazado 187802" d="M194.1,114.894l85.555,48.923,8.078-4.957-8.1,3.828Z" fill="#fff" opacity="0.7" style="isolation: isolate"/>
      </g>
      <g id="Grupo_127980" data-name="Grupo 127980">
        <path id="Trazado_187803" data-name="Trazado 187803" d="M255.975,211.06v-3.148L204.931,178.9v3.147Z" fill="#fff"/>
        <g id="Grupo_128012" data-name="Grupo 128012">
          <path id="Trazado_187909" data-name="Trazado 187909" d="M204.992,133.032v3.147l63.634,36.4v-3.148Z" fill="#fff"/>
        </g>
        <path id="Trazado_187806" data-name="Trazado 187806" d="M233.481,188.838v3.151l12.48,6.752v-3.152Z" fill="#fff"/>
        <path id="Trazado_187910" data-name="Trazado 187910" d="M204.992,152.758V155.9l46.863,26.617v-3.147Z" fill="#fff"/>
        <path id="Trazado_187811" data-name="Trazado 187811" d="M216.135,165.743v3.143l24.04,13.88v-3.147Z" fill="#fff"/>
        <path id="Trazado_187813" data-name="Trazado 187813" d="M234.643,166.495l33.983,19.167v-3.147l-33.983-19.167Z" fill="#fff"/>
        <path id="Trazado_187814" data-name="Trazado 187814" d="M254.952,184.308l13.674,7.9v-3.147l-13.674-7.9Z" fill="#fff"/>
        <path id="Trazado_187816" data-name="Trazado 187816" d="M243.274,184.555l25.352,14.184v-3.147l-25.352-14.184Z" fill="#fff"/>
        <path id="Trazado_187818" data-name="Trazado 187818" d="M259.073,212.848l9.553,5.515v-3.148l-9.553-5.515Z" fill="#fff"/>
        <path id="Trazado_187819" data-name="Trazado 187819" d="M249.059,200.527l19.567,11.3V208.68l-19.567-11.3Z" fill="#fff"/>
        <g id="Grupo_128013" data-name="Grupo 128013">
          <path id="Trazado_187911" data-name="Trazado 187911" d="M204.992,159.31v3.148l8.044,4.645v-3.148Z" fill="#fff"/>
        </g>
        <g id="Grupo_128014" data-name="Grupo 128014">
          <path id="Trazado_187912" data-name="Trazado 187912" d="M204.992,146.23v3.147l26.552,15.33V161.56Z" fill="#fff"/>
        </g>
        <path id="Trazado_187913" data-name="Trazado 187913" d="M204.992,172.39v3.147l25.39,14.659v-3.147Z" fill="#fff"/>
        <g id="Grupo_128015" data-name="Grupo 128015">
          <path id="Trazado_187914" data-name="Trazado 187914" d="M204.992,165.732v3.147l63.634,36.4v-3.148Z" fill="#fff"/>
        </g>
        <g id="Grupo_128016" data-name="Grupo 128016">
          <path id="Trazado_187915" data-name="Trazado 187915" d="M204.992,139.572v3.148l63.634,36.4v-3.148Z" fill="#fff"/>
        </g>
      </g>
      <g id="Grupo_127980-2" data-name="Grupo 127980">
        <path id="Trazado_187803-2" data-name="Trazado 187803" d="M255.975,263.967v-3.148L204.931,231.8v3.147Z" fill="#fff"/>
        <g id="Grupo_128017" data-name="Grupo 128017">
          <path id="Trazado_187916" data-name="Trazado 187916" d="M204.992,185.939v3.147l63.634,36.4v-3.148Z" fill="#fff"/>
        </g>
        <path id="Trazado_187806-2" data-name="Trazado 187806" d="M233.481,241.745V244.9l12.48,6.752V248.5Z" fill="#fff"/>
        <path id="Trazado_187917" data-name="Trazado 187917" d="M204.992,205.665v3.144l46.863,26.617v-3.147Z" fill="#fff"/>
        <path id="Trazado_187811-2" data-name="Trazado 187811" d="M216.135,218.65v3.143l24.04,13.88v-3.147Z" fill="#fff"/>
        <path id="Trazado_187813-2" data-name="Trazado 187813" d="M234.643,219.4l33.983,19.167v-3.147l-33.983-19.167Z" fill="#fff"/>
        <path id="Trazado_187814-2" data-name="Trazado 187814" d="M254.952,237.215l13.674,7.9v-3.147l-13.674-7.9Z" fill="#fff"/>
        <path id="Trazado_187816-2" data-name="Trazado 187816" d="M243.274,237.462l25.352,14.184V248.5l-25.352-14.184Z" fill="#fff"/>
        <path id="Trazado_187818-2" data-name="Trazado 187818" d="M259.073,265.755l9.553,5.515v-3.148l-9.553-5.515Z" fill="#fff"/>
        <path id="Trazado_187819-2" data-name="Trazado 187819" d="M249.059,253.434l19.567,11.3v-3.147l-19.567-11.3Z" fill="#fff"/>
        <g id="Grupo_128018" data-name="Grupo 128018">
          <path id="Trazado_187918" data-name="Trazado 187918" d="M204.992,212.216v3.148l8.044,4.645v-3.148Z" fill="#fff"/>
        </g>
        <g id="Grupo_128019" data-name="Grupo 128019">
          <path id="Trazado_187919" data-name="Trazado 187919" d="M204.992,199.137v3.147l26.552,15.33v-3.148Z" fill="#fff"/>
        </g>
        <path id="Trazado_187920" data-name="Trazado 187920" d="M204.992,225.3v3.147l25.39,14.659v-3.147Z" fill="#fff"/>
        <g id="Grupo_128020" data-name="Grupo 128020">
          <path id="Trazado_187921" data-name="Trazado 187921" d="M204.992,218.639v3.147l63.634,36.4v-3.148Z" fill="#fff"/>
        </g>
        <g id="Grupo_128021" data-name="Grupo 128021">
          <path id="Trazado_187922" data-name="Trazado 187922" d="M204.992,192.479v3.148l63.634,36.4v-3.148Z" fill="#fff"/>
        </g>
      </g>
      <g id="Grupo_127980-3" data-name="Grupo 127980">
        <g id="Grupo_128022" data-name="Grupo 128022">
          <path id="Trazado_187923" data-name="Trazado 187923" d="M204.992,238.837v3.147l63.634,36.4V275.24Z" fill="#fff"/>
        </g>
        <g id="Grupo_128023" data-name="Grupo 128023">
          <path id="Trazado_187924" data-name="Trazado 187924" d="M204.992,245.377v3.148l63.634,36.4V281.78Z" fill="#fff"/>
        </g>
      </g>
    </g>
  </g>
</svg>
