<svg xmlns="http://www.w3.org/2000/svg" width="343.074" height="410.847" viewBox="0 0 343.074 410.847">
  <g id="Grupo_128586" data-name="Grupo 128586" transform="translate(12042.391 12288)">
    <g id="Grupo_127978" data-name="Grupo 127978" transform="translate(-12003.188 -12288)">
      <path id="Trazado_187789" data-name="Trazado 187789" d="M621.154,464.462,383.771,327.33c-9.19-5.306-16.64-19.541-16.64-31.8V79.589c0-12.254,7.449-17.885,16.64-12.579L621.154,204.143c9.19,5.306,16.64,19.541,16.64,31.795V451.883C637.793,464.137,630.344,469.768,621.154,464.462Z" transform="translate(-367.131 -61.613)" fill="#d1ebff"/>
      <path id="Trazado_187790" data-name="Trazado 187790" d="M626.18,201.583,388.8,64.45c-3.636-2.1-7-2.487-9.737-1.43-.348.135-6.851,3.494-7.179,3.676l-.015.009c2.835-1.377,6.431-1.119,10.351,1.145L619.6,204.982c9.19,5.306,16.64,19.541,16.64,31.795V452.723c0,7.646-2.9,12.713-7.318,14.154a2.762,2.762,0,0,0,1.458-.5c.211-.121,7.109-3.856,7.31-4,3.162-2.214,5.13-6.763,5.13-13.061V233.378C642.82,221.124,635.369,206.889,626.18,201.583Z" transform="translate(-365.578 -62.453)" fill="#3f92d1"/>
      <path id="Trazado_187791" data-name="Trazado 187791" d="M624.316,202.256,386.935,65.123c-3.636-2.1-7-2.487-9.737-1.429-.348.134-4.988,2.6-5.316,2.781l-.015.009c2.835-1.377,6.431-1.119,10.351,1.145L619.6,204.761Z" transform="translate(-365.578 -62.232)" fill="#4f9fdb"/>
      <path id="Trazado_187792" data-name="Trazado 187792" d="M620.12,203.838,382.739,66.7c-3.769-2.176-7.233-2.486-10.023-1.28a12.28,12.28,0,0,1,8.026,1.879L618.125,204.437c9.189,5.306,16.64,19.54,16.64,31.795V452.176c0,7.229-2.6,12.126-6.618,13.861,5.135-.814,8.614-6.088,8.614-14.459V235.633C636.76,223.378,629.311,209.145,620.12,203.838Z" transform="translate(-365.3 -61.707)" fill="#fff" style="mix-blend-mode: screen;isolation: isolate"/>
      <path id="Trazado_187793" data-name="Trazado 187793" d="M374.169,90.449V287.193c0,9.611,4.575,19,11.971,23.7L620.988,446.55l.391.223a3.184,3.184,0,0,0,4.762-2.763v-208Z" transform="translate(-364.823 -53.273)" fill="#03336e"/>
      <path id="Trazado_187794" data-name="Trazado 187794" d="M625.8,445c-.169-.1-.3-.173-.389-.223L390.566,309.126c-7.4-4.7-11.971-14.092-11.971-23.7V93.005l-4.426-2.556V287.193c0,9.611,4.575,19,11.971,23.7L620.988,446.55l.391.223a3.177,3.177,0,0,0,4.567-1.713C625.9,445.037,625.85,445.029,625.8,445Z" transform="translate(-364.823 -53.273)" fill="#001a46"/>
      <g id="Grupo_127977" data-name="Grupo 127977" transform="translate(224.473 142.149)">
        <path id="Trazado_187795" data-name="Trazado 187795" d="M553.967,183.076a10.091,10.091,0,0,0,4.58,7.9c2.528,1.461,4.58.291,4.58-2.611a10.1,10.1,0,0,0-4.58-7.9C556.017,179,553.967,180.175,553.967,183.076Z" transform="translate(-530.343 -166.113)" fill="#084a93"/>
        <path id="Trazado_187796" data-name="Trazado 187796" d="M545.071,177.909a10.089,10.089,0,0,0,4.58,7.9c2.53,1.461,4.58.292,4.58-2.611a10.089,10.089,0,0,0-4.58-7.9C547.121,173.838,545.071,175.006,545.071,177.909Z" transform="translate(-533.259 -167.807)" fill="#084a93"/>
        <path id="Trazado_187797" data-name="Trazado 187797" d="M536.176,172.741a10.089,10.089,0,0,0,4.58,7.9c2.528,1.461,4.58.292,4.58-2.611a10.1,10.1,0,0,0-4.58-7.9C538.226,168.671,536.176,169.839,536.176,172.741Z" transform="translate(-536.176 -169.502)" fill="#084a93"/>
      </g>
    </g>
    <g id="Grupo_127993" data-name="Grupo 127993" transform="translate(-11884.397 -12103.722)">
      <g id="Grupo_127986" data-name="Grupo 127986" transform="translate(0 0)">
        <path id="Trazado_187838" data-name="Trazado 187838" d="M589.863,282.726v90.528l8.108-4.746V277.769Z" transform="translate(-412.891 -176.131)" fill="#2672ab"/>
        <path id="Trazado_187839" data-name="Trazado 187839" d="M633.592,306.618v90.528l-177-101.5V204.905Z" transform="translate(-456.59 -200.023)" fill="#3f92d1"/>
        <path id="Trazado_187840" data-name="Trazado 187840" d="M456.59,206.111l177,101.713,8.078-4.957L464.615,201.228Z" transform="translate(-456.59 -201.228)" fill="#72b5e8"/>
        <path id="Trazado_187841" data-name="Trazado 187841" d="M456.59,204.905l177,101.713,8.078-4.957-8.1,3.828Z" transform="translate(-456.59 -200.023)" fill="#fff" opacity="0.7"/>
      </g>
      <ellipse id="Elipse_4768" data-name="Elipse 4768" cx="22.607" cy="39.159" rx="22.607" ry="39.159" transform="translate(99.2 107.803) rotate(-30.311)" fill="#2672ab"/>
      <path id="Trazado_187842" data-name="Trazado 187842" d="M570.391,337.071c-15.341-8.856-27.777-30.305-27.777-47.908,0-6.568,1.733-11.67,4.7-15.029-4.565,3.045-7.357,9.018-7.357,17.353,0,17.6,12.436,39.052,27.777,47.908,9.617,5.553,18.09,4.836,23.075-.807C585.734,341.972,578.467,341.734,570.391,337.071Z" transform="translate(-429.254 -177.323)" fill="#084c94"/>
      <g id="Grupo_127988" data-name="Grupo 127988" transform="translate(10.278 47.773)">
        <path id="Trazado_187843" data-name="Trazado 187843" d="M514.575,244.028,508.6,240.58v67.3l5.973,3.447Zm8.6-3.374L517.2,237.2v75.569l5.973,3.447Zm8.854,15.2-5.973-3.447v65.424l5.973,3.449ZM490.894,260.6v36.872l5.971,3.449V264.044Zm14.826-10.25-5.973-3.447v55.628l5.973,3.449Zm34.994,24.194-5.972-3.448v51.8l5.972,3.449Zm8.517,21.359-5.971-3.449v35.416l5.971,3.447ZM488.01,254.206l-5.973-3.449v41.372l5.973,3.449Zm-23.68,2.442v25.068l5.971,3.448V260.1Zm14.826-9.832-5.972-3.449v43.407l5.972,3.449Z" transform="translate(-464.33 -237.205)" fill="#2672ab"/>
        <path id="Trazado_187844" data-name="Trazado 187844" d="M514.575,267.679l-5.973-3.447v40.884l5.973,3.447Zm8.6-18.588-5.973-3.449v64.364l5.973,3.447Zm8.854,15.945-5.973-3.449v53.478l5.973,3.448Zm-41.135,1.751V294.7l5.971,3.449V270.237Zm14.826-1.094-5.973-3.447v37.514l5.973,3.449Zm-17.71-10.87-5.973-3.449v37.987l5.973,3.449ZM464.33,271.69v7.26L470.3,282.4v-7.261Zm14.826.015-5.972-3.449v15.753l5.972,3.449Zm61.558,9.711-5.972-3.447v42.158l5.972,3.449Zm8.517,16.972-5.971-3.447V325.1l5.971,3.447Z" transform="translate(-464.33 -234.438)" fill="#a8cff0"/>
        <g id="Grupo_127987" data-name="Grupo 127987" transform="translate(0 11.205)">
          <path id="Trazado_187845" data-name="Trazado 187845" d="M516.787,261.845l-5.972-3.448v-.746l5.972,3.448Z" transform="translate(-449.088 -241.706)" fill="#fff"/>
          <path id="Trazado_187846" data-name="Trazado 187846" d="M510.12,249.838l-5.972-3.448v-.746l5.972,3.448Z" transform="translate(-451.274 -245.643)" fill="#fff"/>
          <path id="Trazado_187847" data-name="Trazado 187847" d="M529.742,286.961l-5.972-3.448v-.746l5.972,3.448Z" transform="translate(-444.84 -233.471)" fill="#fff"/>
          <path id="Trazado_187848" data-name="Trazado 187848" d="M503.642,263.836l-5.972-3.448v-.746l5.972,3.448Z" transform="translate(-453.398 -241.054)" fill="#fff"/>
          <path id="Trazado_187849" data-name="Trazado 187849" d="M523.328,274.18l-5.972-3.448v-.746l5.972,3.448Z" transform="translate(-446.943 -237.662)" fill="#fff"/>
          <path id="Trazado_187850" data-name="Trazado 187850" d="M476.97,266.866,471,263.418v-.746l5.972,3.448Z" transform="translate(-462.144 -240.06)" fill="#fff"/>
          <path id="Trazado_187851" data-name="Trazado 187851" d="M483.637,254.154l-5.972-3.448v-.746l5.972,3.448Z" transform="translate(-459.957 -244.228)" fill="#fff"/>
          <path id="Trazado_187852" data-name="Trazado 187852" d="M470.3,268.706v.746L464.33,266v-.746Z" transform="translate(-464.33 -239.212)" fill="#fff"/>
          <path id="Trazado_187853" data-name="Trazado 187853" d="M496.975,262.341,491,258.893v-.746l5.972,3.448Z" transform="translate(-455.584 -241.544)" fill="#fff"/>
          <path id="Trazado_187854" data-name="Trazado 187854" d="M490.307,265.761l-5.972-3.448v-.746l5.972,3.448Z" transform="translate(-457.771 -240.422)" fill="#fff"/>
        </g>
      </g>
      <g id="Grupo_127992" data-name="Grupo 127992" transform="translate(103.896 96.813)">
        <g id="Grupo_127989" data-name="Grupo 127989" transform="translate(0.247)">
          <path id="Trazado_187855" data-name="Trazado 187855" d="M541.627,295.753c.364-13.3,10.035-18.594,21.9-11.744,6.107,3.527,11.635,9.6,15.616,16.54l4.377-1.1c-4.986-9.046-12.1-17.022-19.993-21.578-14.931-8.621-27.094-1.806-27.276,15.174l3.5,3.18Z" transform="translate(-534.613 -274.135)" fill="#cc8f20"/>
          <path id="Trazado_187856" data-name="Trazado 187856" d="M574.927,331.673c-3.237.295-6.987-.608-11-2.923-11.239-6.488-20.517-21.6-21.777-34.841l-5.355-2.7c.009.1-1.79.461-1.781.558,1.548,16.483,14.921,35.043,28.913,43.122,5.081,2.933,8.52,4.476,12.6,4.042.171-.017,1.661-.442,1.83-.466Z" transform="translate(-535.017 -268.537)" fill="#cc8f20"/>
          <path id="Trazado_187857" data-name="Trazado 187857" d="M571.107,297.325a41.9,41.9,0,0,1,4.245,17.272c0,7.953-3.24,13.173-8.275,14.882l3.391,6.714c6.233-2.143,10.234-8.642,10.234-18.507,0-6.884-1.952-14.378-5.246-21.455Z" transform="translate(-524.505 -266.89)" fill="#cc8f20"/>
        </g>
        <path id="Trazado_187858" data-name="Trazado 187858" d="M567.135,311.491a18.711,18.711,0,0,1-3.847-4.605c-.636-1.065-.614-2.22.005-2.58a4.923,4.923,0,0,0,1.964-2.191c.675.187,1.51-.061,1.51-.985a3.657,3.657,0,0,0-.973-2.49c-.165-4.035-1.543-8.182-6.185-10.862a5.77,5.77,0,0,0-3.759-1.061c-.213.041-2.053.526-2.232.615-1.259.625-.1,1.977-.194,4.166-.558-.124-.975.422-.975,1.365a4.463,4.463,0,0,0,1.511,2.73,21.953,21.953,0,0,0,1.963,4.458c.619,1.074.641,2.255.005,2.585a5.071,5.071,0,0,1-3.846.165,2.884,2.884,0,0,0-1.608-.065c-.134.037-1.787.466-1.911.527-.863.43.121,1.06.121,2.524v4.162a2.808,2.808,0,0,0,1.274,2.2l17.833,11.8c.31.178,2.061-.445,2.281-.527a.836.836,0,0,0,.46-.858V318.4A9.907,9.907,0,0,0,567.135,311.491Z" transform="translate(-530.444 -270.026)" fill="#cc8f20"/>
        <g id="Grupo_127990" data-name="Grupo 127990" transform="translate(0.685 0.343)">
          <path id="Trazado_187859" data-name="Trazado 187859" d="M540.724,296.012c.364-13.306,10.035-18.6,21.9-11.745,6.107,3.527,11.635,9.6,15.616,16.54l4.377-1.1c-4.986-9.045-12.1-17.022-19.993-21.578-14.931-8.621-27.094-1.806-27.276,15.174Z" transform="translate(-535.347 -274.393)" fill="#fff"/>
          <path id="Trazado_187860" data-name="Trazado 187860" d="M573.584,331.93c-3.237.295-6.987-.608-11-2.923-11.239-6.488-20.517-21.6-21.777-34.841l-5.355-2.7c1.439,16.552,13.057,35.553,27.133,43.68,5.294,3.057,10.239,4.166,14.428,3.576Z" transform="translate(-535.312 -268.795)" fill="#fff"/>
          <path id="Trazado_187861" data-name="Trazado 187861" d="M570.2,297.583a41.905,41.905,0,0,1,4.245,17.272c0,7.953-3.24,13.173-8.275,14.882l3.391,6.714c6.233-2.143,10.234-8.642,10.234-18.507a52.085,52.085,0,0,0-5.246-21.455Z" transform="translate(-525.239 -267.148)" fill="#fff"/>
        </g>
        <path id="Trazado_187862" data-name="Trazado 187862" d="M566.115,311.749a18.69,18.69,0,0,1-3.847-4.606c-.636-1.064-.613-2.219.005-2.579a4.925,4.925,0,0,0,1.964-2.191c.674.187,1.51-.061,1.51-.985a3.657,3.657,0,0,0-.973-2.49c-.165-4.035-1.543-8.182-6.185-10.862s-6.021-.126-6.185,3.719c-.558-.123-.975.422-.975,1.365a4.463,4.463,0,0,0,1.511,2.73,21.95,21.95,0,0,0,1.963,4.458c.619,1.074.641,2.255.005,2.585a5.071,5.071,0,0,1-3.846.165c-1.949-.59-3.4.586-3.4,2.986v4.162a2.808,2.808,0,0,0,1.273,2.195l19.3,11.144c.7.406,1.272.081,1.272-.725v-4.162A9.907,9.907,0,0,0,566.115,311.749Z" transform="translate(-530.623 -269.941)" fill="#fff"/>
        <g id="Grupo_127991" data-name="Grupo 127991" transform="translate(0 0.514)">
          <path id="Trazado_187863" data-name="Trazado 187863" d="M540.208,296.14c.364-13.3,10.035-18.594,21.9-11.744,6.107,3.527,11.635,9.6,15.616,16.54l4.377-1.1c-4.986-9.046-12.1-17.022-19.993-21.578-14.931-8.621-27.094-1.806-27.276,15.174Z" transform="translate(-534.831 -274.522)" fill="#fdb32b"/>
          <path id="Trazado_187864" data-name="Trazado 187864" d="M573.068,332.059c-3.237.295-6.987-.608-11-2.923-11.239-6.488-20.517-21.6-21.778-34.841l-5.355-2.7c1.439,16.551,13.057,35.553,27.133,43.68,5.294,3.057,10.239,4.166,14.427,3.576Z" transform="translate(-534.796 -268.924)" fill="#fdb32b"/>
          <path id="Trazado_187865" data-name="Trazado 187865" d="M569.688,297.712a41.905,41.905,0,0,1,4.245,17.272c0,7.953-3.24,13.173-8.275,14.882l3.391,6.714c6.233-2.143,10.234-8.642,10.234-18.507,0-6.884-1.952-14.378-5.247-21.455Z" transform="translate(-524.723 -267.277)" fill="#fdb32b"/>
        </g>
        <path id="Trazado_187866" data-name="Trazado 187866" d="M565.6,311.878a18.708,18.708,0,0,1-3.847-4.605c-.636-1.065-.613-2.22.005-2.58a4.924,4.924,0,0,0,1.964-2.191c.674.187,1.51-.061,1.51-.985a3.657,3.657,0,0,0-.973-2.49c-.165-4.035-1.543-8.182-6.185-10.862s-6.021-.125-6.185,3.719c-.558-.123-.975.422-.975,1.365a4.463,4.463,0,0,0,1.511,2.73,21.948,21.948,0,0,0,1.963,4.458c.619,1.074.641,2.255.005,2.585a5.065,5.065,0,0,1-3.846.165c-1.949-.59-3.4.586-3.4,2.986v4.162a2.807,2.807,0,0,0,1.273,2.195l19.3,11.144c.7.406,1.272.081,1.272-.726v-4.16A9.907,9.907,0,0,0,565.6,311.878Z" transform="translate(-530.792 -269.899)" fill="#fdb32b"/>
      </g>
    </g>
    <g id="Grupo_127998" data-name="Grupo 127998" transform="translate(-11983.48 -12249.903)">
      <g id="Grupo_127996" data-name="Grupo 127996" transform="translate(0 18.806)">
        <path id="Trazado_187872" data-name="Trazado 187872" d="M399.672,118.045V144.48l3.987-2.2v-26.64Z" transform="translate(-376.169 -101.915)" fill="#1cb1c9"/>
        <path id="Trazado_187873" data-name="Trazado 187873" d="M405.505,120.86v26.435l-23.533-13.6v-26.64Z" transform="translate(-381.973 -104.73)" fill="#26defc"/>
        <path id="Trazado_187874" data-name="Trazado 187874" d="M381.973,107.634l23.533,13.8,3.958-2.4-23.584-13.728Z" transform="translate(-381.973 -105.305)" fill="#a6f4fe"/>
        <path id="Trazado_187875" data-name="Trazado 187875" d="M381.973,107.059l23.533,13.8,3.958-2.4-4.157,1.128Z" transform="translate(-381.973 -104.73)" fill="#fff"/>
      </g>
      <g id="Grupo_127997" data-name="Grupo 127997" transform="translate(6.137)">
        <path id="Trazado_187876" data-name="Trazado 187876" d="M415.255,111.772v42.807l6.457-3.556V107.884Z" transform="translate(-377.197 -85.653)" fill="#cc8f20"/>
        <path id="Trazado_187877" data-name="Trazado 187877" d="M386.594,94.913,424.7,117.261l6.409-3.888L392.92,91.142Z" transform="translate(-386.594 -91.142)" fill="#fee4a9"/>
        <path id="Trazado_187878" data-name="Trazado 187878" d="M386.594,93.982,424.7,116.33l6.409-3.888-6.236,2.969Z" transform="translate(-386.594 -90.211)" fill="#fff" opacity="0.7"/>
      </g>
      <path id="Trazado_187879" data-name="Trazado 187879" d="M386.594,93.982v17.754l20.167,11.827v25.209L424.7,159.136V116.33Z" transform="translate(-380.457 -90.211)" fill="#fdb32b"/>
    </g>
    <g id="Grupo_128578" data-name="Grupo 128578" transform="translate(0 146)">
      <g id="Grupo_127995" data-name="Grupo 127995" transform="translate(-12023.667 -12250.702)">
        <g id="Grupo_127994" data-name="Grupo 127994">
          <path id="Trazado_187867" data-name="Trazado 187867" d="M457.329,265.288V303.2l6.358-3.494V261.583Z" transform="translate(-317.078 -180.457)" fill="#cc8f20"/>
          <path id="Trazado_187868" data-name="Trazado 187868" d="M491.991,284.424v37.908l-140.282-80.99V203.223Z" transform="translate(-351.709 -199.593)" fill="#fdb32b"/>
          <path id="Trazado_187869" data-name="Trazado 187869" d="M351.709,204.119l140.282,81.2,6.328-3.7L357.984,200.489Z" transform="translate(-351.709 -200.489)" fill="#fee4a9"/>
          <path id="Trazado_187870" data-name="Trazado 187870" d="M351.709,203.223l140.282,81.2,6.328-3.7-6.2,2.709Z" transform="translate(-351.709 -199.593)" fill="#fff" opacity="0.7"/>
        </g>
        <path id="Trazado_187871" data-name="Trazado 187871" d="M483.149,307.982l-126.228-73.67V211.976l126.228,73.67Z" transform="translate(-350 -196.723)" fill="#fff"/>
      </g>
      <g id="Grupo_128006" data-name="Grupo 128006" transform="translate(-12042.391 -12201.369)">
        <g id="Grupo_128005" data-name="Grupo 128005" transform="translate(0 0)">
          <path id="Trazado_187901" data-name="Trazado 187901" d="M376.818,254.62v37.908l5.985-3.4V251Z" transform="translate(-275.043 -192.109)" fill="#2672ab"/>
          <path id="Trazado_187902" data-name="Trazado 187902" d="M401.979,268.288V306.2l-101.8-58.759V209.318Z" transform="translate(-300.174 -205.777)" fill="#3f92d1"/>
          <path id="Trazado_187903" data-name="Trazado 187903" d="M300.174,210.193l101.8,58.97,5.955-3.616-101.858-58.9Z" transform="translate(-300.174 -206.652)" fill="#72b5e8"/>
          <path id="Trazado_187904" data-name="Trazado 187904" d="M300.174,209.318l101.8,58.97,5.955-3.616-6.2,2.487Z" transform="translate(-300.174 -205.777)" fill="#fff" opacity="0.7"/>
        </g>
        <path id="Trazado_187905" data-name="Trazado 187905" d="M337.554,234.222l-18.61-10.745c-1.143-.66-2.069-.131-2.069,1.179v12.606a4.553,4.553,0,0,0,2.069,3.567l11.631,6.716,5.816,10.031V250.9l1.163.672c1.142.66,2.067.132,2.067-1.179V237.789A4.555,4.555,0,0,0,337.554,234.222Zm-13.12,2.36c-.605.345-1.588-.222-2.194-1.267s-.605-2.171,0-2.516,1.588.222,2.194,1.265S325.04,236.236,324.434,236.582Zm5.041,2.909c-.605.345-1.588-.222-2.194-1.265s-.605-2.172,0-2.518,1.588.222,2.194,1.267S330.081,239.146,329.475,239.491Zm5.041,2.911c-.607.345-1.588-.222-2.194-1.267s-.605-2.171,0-2.516,1.587.222,2.194,1.267S335.121,242.056,334.516,242.4Zm-19.192-6.035V226.132l-7.108-4.1c-1.142-.66-2.068-.131-2.068,1.179v12.606a4.555,4.555,0,0,0,2.068,3.567l1.163.672v6.674l5.816-3.316,11.632,6.715c1.142.66,2.068.131,2.068-1.179v-.594l-9.951-5.744A7.988,7.988,0,0,1,315.324,236.366Z" transform="translate(-298.215 -201.703)" fill="#fff"/>
        <path id="Trazado_187906" data-name="Trazado 187906" d="M334.548,235.916v3.147l48.635,28.081V264Z" transform="translate(-288.903 -197.056)" fill="#fff"/>
        <path id="Trazado_187907" data-name="Trazado 187907" d="M367.8,264.983l-33.254-19.217v3.147L367.8,268.131Z" transform="translate(-288.903 -193.826)" fill="#fff"/>
        <path id="Trazado_187908" data-name="Trazado 187908" d="M334.548,243.989l48.635,28.081v-3.147l-48.635-28.081Z" transform="translate(-288.903 -195.441)" fill="#fff"/>
      </g>
      <g id="Grupo_128038" data-name="Grupo 128038" transform="translate(-12114.408 -12215.076)">
        <g id="Grupo_127979" data-name="Grupo 127979" transform="translate(194.103 110.013)">
          <path id="Trazado_187799" data-name="Trazado 187799" d="M279.63,162.033v47.461l5.191-3.039v-47.6Z" transform="translate(-224.871 -127.585)" fill="#94b0c9"/>
          <path id="Trazado_187800" data-name="Trazado 187800" d="M248.88,146.217v47.461L194.1,162.492v-47.6Z" transform="translate(-194.103 -111.769)" fill="#b9ddfc"/>
          <path id="Trazado_187801" data-name="Trazado 187801" d="M194.1,113.139l54.777,31.323,5.172-3.174-54.809-31.275Z" transform="translate(-194.103 -110.013)" fill="#e7f3fe"/>
          <path id="Trazado_187802" data-name="Trazado 187802" d="M194.1,114.894l54.777,31.323,5.172-3.174-5.186,2.451Z" transform="translate(-194.103 -111.769)" fill="#fff" opacity="0.7" style="isolation: isolate"/>
        </g>
        <g id="Grupo_127980" data-name="Grupo 127980" transform="translate(201.036 124.751)">
          <path id="Trazado_187803" data-name="Trazado 187803" d="M237.612,199.489v-2.016L204.931,178.9v2.015Z" transform="translate(-204.931 -149.531)" fill="#fff"/>
          <g id="Grupo_128028" data-name="Grupo 128028" transform="translate(0.039)">
            <path id="Trazado_187925" data-name="Trazado 187925" d="M204.992,133.032v2.015l40.743,23.308V156.34Z" transform="translate(-204.992 -133.032)" fill="#fff"/>
          </g>
          <path id="Trazado_187806" data-name="Trazado 187806" d="M233.481,188.838v2.017l7.99,4.323V193.16Z" transform="translate(-215.202 -153.108)" fill="#fff"/>
          <path id="Trazado_187926" data-name="Trazado 187926" d="M204.992,152.758v2.013l30,17.042V169.8Z" transform="translate(-204.953 -140.128)" fill="#fff"/>
          <path id="Trazado_187811" data-name="Trazado 187811" d="M216.135,165.743v2.012l15.392,8.887v-2.015Z" transform="translate(-208.962 -144.8)" fill="#fff"/>
          <path id="Trazado_187813" data-name="Trazado 187813" d="M234.643,165.363,256.4,177.635V175.62l-21.758-12.272Z" transform="translate(-215.62 -143.938)" fill="#fff"/>
          <path id="Trazado_187814" data-name="Trazado 187814" d="M254.952,183.174l8.755,5.055v-2.015l-8.755-5.058Z" transform="translate(-222.926 -150.344)" fill="#fff"/>
          <path id="Trazado_187816" data-name="Trazado 187816" d="M243.274,183.423l16.232,9.081v-2.015l-16.232-9.081Z" transform="translate(-218.725 -150.435)" fill="#fff"/>
          <path id="Trazado_187818" data-name="Trazado 187818" d="M259.073,211.716l6.116,3.531v-2.016l-6.116-3.531Z" transform="translate(-224.408 -160.613)" fill="#fff"/>
          <path id="Trazado_187819" data-name="Trazado 187819" d="M249.059,199.395l12.528,7.235v-2.015l-12.528-7.235Z" transform="translate(-220.806 -156.181)" fill="#fff"/>
          <g id="Grupo_128029" data-name="Grupo 128029" transform="translate(0.039 16.824)">
            <path id="Trazado_187927" data-name="Trazado 187927" d="M204.992,159.31v2.016l5.151,2.974v-2.016Z" transform="translate(-204.992 -159.31)" fill="#fff"/>
          </g>
          <g id="Grupo_128030" data-name="Grupo 128030" transform="translate(0.039 8.45)">
            <path id="Trazado_187928" data-name="Trazado 187928" d="M204.992,146.23v2.015l17,9.815v-2.016Z" transform="translate(-204.992 -146.23)" fill="#fff"/>
          </g>
          <path id="Trazado_187929" data-name="Trazado 187929" d="M204.992,172.39v2.015l16.256,9.386v-2.015Z" transform="translate(-204.953 -147.191)" fill="#fff"/>
          <g id="Grupo_128031" data-name="Grupo 128031" transform="translate(0.039 20.936)">
            <path id="Trazado_187930" data-name="Trazado 187930" d="M204.992,165.732v2.015l40.743,23.308V189.04Z" transform="translate(-204.992 -165.732)" fill="#fff"/>
          </g>
          <g id="Grupo_128032" data-name="Grupo 128032" transform="translate(0.039 4.187)">
            <path id="Trazado_187931" data-name="Trazado 187931" d="M204.992,139.572v2.016L245.734,164.9V162.88Z" transform="translate(-204.992 -139.572)" fill="#fff"/>
          </g>
        </g>
        <g id="Grupo_127980-2" data-name="Grupo 127980" transform="translate(201.036 124.751)">
          <path id="Trazado_187803-2" data-name="Trazado 187803" d="M237.612,199.489v-2.016L204.931,178.9v2.015Z" transform="translate(-204.931 -149.531)" fill="#084a93"/>
          <g id="Grupo_128033" data-name="Grupo 128033" transform="translate(0.039)">
            <path id="Trazado_187932" data-name="Trazado 187932" d="M204.992,133.032v2.015l40.743,23.308V156.34Z" transform="translate(-204.992 -133.032)" fill="#084a93"/>
          </g>
          <path id="Trazado_187806-2" data-name="Trazado 187806" d="M233.481,188.838v2.017l7.99,4.323V193.16Z" transform="translate(-215.202 -153.108)" fill="#084a93"/>
          <path id="Trazado_187933" data-name="Trazado 187933" d="M204.992,152.758v2.013l30,17.042V169.8Z" transform="translate(-204.953 -140.128)" fill="#084a93"/>
          <path id="Trazado_187811-2" data-name="Trazado 187811" d="M216.135,165.743v2.012l15.392,8.887v-2.015Z" transform="translate(-208.962 -144.8)" fill="#084a93"/>
          <path id="Trazado_187813-2" data-name="Trazado 187813" d="M234.643,165.363,256.4,177.635V175.62l-21.758-12.272Z" transform="translate(-215.62 -143.938)" fill="#084a93"/>
          <path id="Trazado_187814-2" data-name="Trazado 187814" d="M254.952,183.174l8.755,5.055v-2.015l-8.755-5.058Z" transform="translate(-222.926 -150.344)" fill="#084a93"/>
          <path id="Trazado_187816-2" data-name="Trazado 187816" d="M243.274,183.423l16.232,9.081v-2.015l-16.232-9.081Z" transform="translate(-218.725 -150.435)" fill="#084a93"/>
          <path id="Trazado_187818-2" data-name="Trazado 187818" d="M259.073,211.716l6.116,3.531v-2.016l-6.116-3.531Z" transform="translate(-224.408 -160.613)" fill="#084a93"/>
          <path id="Trazado_187819-2" data-name="Trazado 187819" d="M249.059,199.395l12.528,7.235v-2.015l-12.528-7.235Z" transform="translate(-220.806 -156.181)" fill="#084a93"/>
          <g id="Grupo_128034" data-name="Grupo 128034" transform="translate(0.039 16.824)">
            <path id="Trazado_187934" data-name="Trazado 187934" d="M204.992,159.31v2.016l5.151,2.974v-2.016Z" transform="translate(-204.992 -159.31)" fill="#084a93"/>
          </g>
          <g id="Grupo_128035" data-name="Grupo 128035" transform="translate(0.039 8.45)">
            <path id="Trazado_187935" data-name="Trazado 187935" d="M204.992,146.23v2.015l17,9.815v-2.016Z" transform="translate(-204.992 -146.23)" fill="#084a93"/>
          </g>
          <path id="Trazado_187936" data-name="Trazado 187936" d="M204.992,172.39v2.015l16.256,9.386v-2.015Z" transform="translate(-204.953 -147.191)" fill="#084a93"/>
          <g id="Grupo_128036" data-name="Grupo 128036" transform="translate(0.039 20.936)">
            <path id="Trazado_187937" data-name="Trazado 187937" d="M204.992,165.732v2.015l40.743,23.308V189.04Z" transform="translate(-204.992 -165.732)" fill="#084a93"/>
          </g>
          <g id="Grupo_128037" data-name="Grupo 128037" transform="translate(0.039 4.187)">
            <path id="Trazado_187938" data-name="Trazado 187938" d="M204.992,139.572v2.016L245.734,164.9V162.88Z" transform="translate(-204.992 -139.572)" fill="#084a93"/>
          </g>
        </g>
      </g>
    </g>
  </g>
</svg>
