<svg xmlns="http://www.w3.org/2000/svg" width="405.469" height="407.447" viewBox="0 0 405.469 407.447">
  <g id="Grupo_128586" data-name="Grupo 128586" transform="translate(12042.391 12284.601)">
    <g id="Grupo_128575" data-name="Grupo 128575" transform="translate(2.71 146)">
      <g id="Grupo_127976" data-name="Grupo 127976" transform="translate(-11774.788 -12407.378)">
        <g id="Grupo_127956" data-name="Grupo 127956" transform="translate(27.887 144.084)">
          <path id="Trazado_187716" data-name="Trazado 187716" d="M594.907,249.493c-10.185-5.88-18.44-20.12-18.44-31.806,0-4.336,1.149-7.688,3.1-9.913-5.589.405-9.37,5.085-9.37,12.98,0,11.687,8.256,25.927,18.44,31.806,6.4,3.694,12.016,3.187,15.317-.587A16.009,16.009,0,0,1,594.907,249.493Z" transform="translate(-556.836 -185.509)" fill="#72b5e8"/>
          <path id="Trazado_187717" data-name="Trazado 187717" d="M616.127,250.122a36.564,36.564,0,0,0-.315-4.471l7.453-.943a67.436,67.436,0,0,0-3.378-11.284l-8.493-2.568a59.642,59.642,0,0,0-5.286-9.117l2.036-8.572a68.2,68.2,0,0,0-8.135-8.572l-4.572,5.913a37.064,37.064,0,0,0-3.737-2.519,28.636,28.636,0,0,0-3.737-1.8L583.392,195a22.636,22.636,0,0,0-8.135-.821l2.036,10.921a11.67,11.67,0,0,0-5.286,3.014l-8.493-7.238a22.185,22.185,0,0,0-3.378,7.383l7.453,9.55a28.319,28.319,0,0,0-.315,4.106,36.532,36.532,0,0,0,.315,4.47l-7.453.943a67.441,67.441,0,0,0,3.378,11.284l8.493,2.568a59.571,59.571,0,0,0,5.286,9.117l-2.036,8.572a68.122,68.122,0,0,0,8.135,8.573l4.572-5.914a37.006,37.006,0,0,0,3.737,2.52,28.977,28.977,0,0,0,3.737,1.8l4.572,11.193a22.634,22.634,0,0,0,8.135.819l-2.036-10.921a11.668,11.668,0,0,0,5.286-3.013l8.493,7.237a22.184,22.184,0,0,0,3.378-7.383l-7.453-9.549A28.356,28.356,0,0,0,616.127,250.122Zm-24.192,6.924c-10.184-5.879-18.44-20.119-18.44-31.806s8.257-16.393,18.44-10.513,18.439,20.12,18.439,31.806S602.119,262.925,591.935,257.046Z" transform="translate(-560.135 -189.994)" fill="#a8cff0"/>
          <path id="Trazado_187718" data-name="Trazado 187718" d="M589.364,202.881l-4.572-11.193-7.143,4.1,4.572,11.193Z" transform="translate(-554.392 -190.784)" fill="#72b5e8"/>
          <path id="Trazado_187719" data-name="Trazado 187719" d="M581.092,204.22a28.635,28.635,0,0,1,3.737,1.8,37.064,37.064,0,0,1,3.737,2.519l4.572-5.913h0s-.771-.485-1.163-.71a28.8,28.8,0,0,0-3.737-1.8Z" transform="translate(-553.263 -188.02)" fill="#d1ebff"/>
          <path id="Trazado_187720" data-name="Trazado 187720" d="M586.8,191.911a22.671,22.671,0,0,0-8.135-.821l-7.144,4.1a22.634,22.634,0,0,1,8.135.821Z" transform="translate(-556.401 -191.007)" fill="#d1ebff"/>
          <path id="Trazado_187721" data-name="Trazado 187721" d="M605.44,207.486a68.132,68.132,0,0,0-8.135-8.573l-7.143,4.1a68.195,68.195,0,0,1,8.135,8.572Z" transform="translate(-550.289 -188.415)" fill="#d1ebff"/>
          <path id="Trazado_187722" data-name="Trazado 187722" d="M596.791,209.471l-2.035,8.571,7.143-4.1,2.035-8.571Z" transform="translate(-548.783 -186.298)" fill="#72b5e8"/>
          <path id="Trazado_187723" data-name="Trazado 187723" d="M594.756,215.926a59.637,59.637,0,0,1,5.286,9.117l7.143-4.1a59.713,59.713,0,0,0-5.286-9.119Z" transform="translate(-548.783 -184.182)" fill="#72b5e8"/>
          <path id="Trazado_187724" data-name="Trazado 187724" d="M598.737,222.793l8.493,2.568,7.143-4.1-8.493-2.568Z" transform="translate(-547.478 -181.931)" fill="#d1ebff"/>
          <path id="Trazado_187725" data-name="Trazado 187725" d="M605.133,224.726a67.447,67.447,0,0,1,3.378,11.284l7.143-4.1a67.4,67.4,0,0,0-3.378-11.283Z" transform="translate(-545.381 -181.296)" fill="#72b5e8"/>
          <path id="Trazado_187726" data-name="Trazado 187726" d="M576.459,204.44l-.592-3.176-6.043-5.151-7.144,4.1,8.493,7.238A11.669,11.669,0,0,1,576.459,204.44Z" transform="translate(-559.301 -189.333)" fill="#72b5e8"/>
          <path id="Trazado_187727" data-name="Trazado 187727" d="M608.511,247.584a22.186,22.186,0,0,1-3.378,7.383l7.143-4.1a22.207,22.207,0,0,0,3.378-7.384Z" transform="translate(-545.381 -173.802)" fill="#72b5e8"/>
          <path id="Trazado_187728" data-name="Trazado 187728" d="M609.207,237.626a28.154,28.154,0,0,0,.315-4.106c0-.43-.028-.868-.05-1.3l-7.407.936a36.565,36.565,0,0,1,.315,4.471,28.356,28.356,0,0,1-.315,4.106Z" transform="translate(-546.387 -177.495)" fill="#72b5e8"/>
          <path id="Trazado_187729" data-name="Trazado 187729" d="M602.064,240.393l7.453,9.55,7.143-4.1-7.453-9.549Z" transform="translate(-546.387 -176.16)" fill="#d1ebff"/>
          <path id="Trazado_187730" data-name="Trazado 187730" d="M600.042,246.681a11.668,11.668,0,0,1-5.286,3.013l2.036,10.921,7.143-4.1-1.443-7.744Z" transform="translate(-548.783 -172.752)" fill="#72b5e8"/>
          <path id="Trazado_187731" data-name="Trazado 187731" d="M567.32,215.947l-7.185,4.217,7.453-.943C567.452,218.119,567.367,217.028,567.32,215.947Z" transform="translate(-560.135 -182.83)" fill="#d1ebff"/>
          <path id="Trazado_187732" data-name="Trazado 187732" d="M582.221,244.878l-4.572,5.914,7.2-4.1C583.959,246.129,583.083,245.529,582.221,244.878Z" transform="translate(-554.392 -173.344)" fill="#72b5e8"/>
          <g id="Grupo_127955" data-name="Grupo 127955" transform="translate(0.36 4.07)" style="mix-blend-mode: color-dodge;isolation: isolate">
            <path id="Trazado_187733" data-name="Trazado 187733" d="M572.65,202.783l-.02-.11c-.34.13-.667.286-.989.446C571.973,203,572.3,202.875,572.65,202.783Z" transform="translate(-556.722 -191.252)" fill="#fff"/>
            <path id="Trazado_187734" data-name="Trazado 187734" d="M566.594,218.508l-6.188.783c.024.12.057.24.082.36l6.143-.777C566.615,218.752,566.609,218.63,566.594,218.508Z" transform="translate(-560.406 -186.06)" fill="#fff"/>
            <path id="Trazado_187735" data-name="Trazado 187735" d="M597.878,211.049l-2.036,8.572a59.626,59.626,0,0,1,5.286,9.117l8.493,2.569a67.718,67.718,0,0,1,3.3,10.923l.841-.139a67.446,67.446,0,0,0-3.377-11.284l-8.493-2.568a59.749,59.749,0,0,0-5.286-9.117l2.034-8.572a68.008,68.008,0,0,0-8.133-8.572l-.28.941A68.619,68.619,0,0,1,597.878,211.049Z" transform="translate(-550.629 -191.48)" fill="#fff"/>
            <path id="Trazado_187736" data-name="Trazado 187736" d="M588.856,251.982c-10.184-5.88-18.44-20.119-18.44-31.806,0-5.162,1.62-8.945,4.3-11.065-3.1,1.993-5,5.969-5,11.566,0,11.685,8.256,25.926,18.44,31.806,5.142,2.968,9.787,3.231,13.132,1.267-.247.076-.507.125-.764.181C597.345,255.084,593.286,254.539,588.856,251.982Z" transform="translate(-557.353 -189.141)" fill="#fff"/>
            <path id="Trazado_187737" data-name="Trazado 187737" d="M595.789,249.2a11.587,11.587,0,0,0,3.359-1.882l-.313-.268A11.668,11.668,0,0,1,595.789,249.2Z" transform="translate(-548.804 -176.701)" fill="#fff"/>
            <path id="Trazado_187738" data-name="Trazado 187738" d="M570.882,206.642c-.311.013,0-.242.313-.494l-8.179-6.97c-.232.32-.441.671-.056.713Z" transform="translate(-559.638 -192.398)" fill="#fff"/>
            <path id="Trazado_187739" data-name="Trazado 187739" d="M594.621,249.424l1.948,10.452c-.226-.012.219-.017.648-.057l-2.014-10.81C594.8,249.165,594.384,249.311,594.621,249.424Z" transform="translate(-549.21 -176.059)" fill="#fff" style="mix-blend-mode: color-dodge;isolation: isolate"/>
            <path id="Trazado_187740" data-name="Trazado 187740" d="M602.824,237.276a35.264,35.264,0,0,0-.279-4.1l-.741.056a36.517,36.517,0,0,1,.315,4.471,28.315,28.315,0,0,1-.315,4.1l7.453,9.55a22.778,22.778,0,0,1-2.722,6.37l.049.591a22.186,22.186,0,0,0,3.377-7.383l-7.453-9.55A28.122,28.122,0,0,0,602.824,237.276Z" transform="translate(-546.832 -181.252)" fill="#fff"/>
            <path id="Trazado_187741" data-name="Trazado 187741" d="M579.258,195.307l4.571,11.193a28.71,28.71,0,0,1,3.738,1.794,36.861,36.861,0,0,1,3.735,2.52l.144-.71a34.8,34.8,0,0,0-3.208-2.139,28.8,28.8,0,0,0-3.737-1.8l-4.572-11.193a22.638,22.638,0,0,0-8.135-.821l.088.47A26.624,26.624,0,0,1,579.258,195.307Z" transform="translate(-556.672 -194.072)" fill="#fff"/>
            <path id="Trazado_187742" data-name="Trazado 187742" d="M581.382,245.25l-3.823,4.945c.161.145.317.3.479.441l3.871-5.007C581.734,245.5,581.556,245.381,581.382,245.25Z" transform="translate(-554.782 -177.291)" fill="#fff"/>
          </g>
        </g>
        <g id="Grupo_127958" data-name="Grupo 127958" transform="translate(6.042 24.125)">
          <path id="Trazado_187743" data-name="Trazado 187743" d="M595.988,188.644C580.668,179.8,568.25,158.38,568.25,140.8c0-6.521,1.728-11.566,4.662-14.91-8.407.608-14.094,7.646-14.094,19.525,0,17.579,12.418,39,27.738,47.843,9.625,5.556,18.075,4.792,23.042-.884C605.578,192.669,600.943,191.5,595.988,188.644Z" transform="translate(-538.722 -92.398)" fill="#72b5e8"/>
          <path id="Trazado_187744" data-name="Trazado 187744" d="M627.909,189.59a54.472,54.472,0,0,0-.475-6.724l11.213-1.418a101.377,101.377,0,0,0-5.082-16.974l-12.776-3.863a89.8,89.8,0,0,0-7.951-13.716L615.9,134a102.367,102.367,0,0,0-12.235-12.9l-6.877,8.9a55.759,55.759,0,0,0-5.621-3.79,43.223,43.223,0,0,0-5.621-2.7l-6.877-16.838a34.087,34.087,0,0,0-12.236-1.234l3.062,16.427a17.549,17.549,0,0,0-7.951,4.535l-12.776-10.889a33.364,33.364,0,0,0-5.082,11.105L554.9,140.986a42.449,42.449,0,0,0-.474,6.177,54.7,54.7,0,0,0,.474,6.723L543.684,155.3a101.389,101.389,0,0,0,5.082,16.974l12.774,3.864a89.888,89.888,0,0,0,7.953,13.714l-3.062,12.892a102.468,102.468,0,0,0,12.236,12.9l6.877-8.9a55.528,55.528,0,0,0,5.621,3.79,43.232,43.232,0,0,0,5.621,2.7l6.877,16.836A34.053,34.053,0,0,0,615.9,231.31l-3.061-16.427a17.546,17.546,0,0,0,7.951-4.533l12.776,10.889a33.381,33.381,0,0,0,5.082-11.106l-11.213-14.365A42.262,42.262,0,0,0,627.909,189.59Zm-36.391,10.416c-15.319-8.845-27.738-30.264-27.738-47.843s12.42-24.659,27.738-15.815,27.737,30.264,27.737,47.844S606.837,208.85,591.519,200.006Z" transform="translate(-543.684 -99.145)" fill="#a8cff0"/>
          <path id="Trazado_187745" data-name="Trazado 187745" d="M587.651,118.529l-6.877-16.836-10.745,6.172,6.877,16.836Z" transform="translate(-535.046 -100.333)" fill="#72b5e8"/>
          <path id="Trazado_187746" data-name="Trazado 187746" d="M575.208,120.543a43.409,43.409,0,0,1,5.621,2.7,55.759,55.759,0,0,1,5.621,3.79l6.876-8.894h0s-1.162-.729-1.749-1.069a43.308,43.308,0,0,0-5.621-2.7Z" transform="translate(-533.348 -96.175)" fill="#d1ebff"/>
          <path id="Trazado_187747" data-name="Trazado 187747" d="M583.8,102.029a34.062,34.062,0,0,0-12.236-1.235l-10.745,6.172a34.087,34.087,0,0,1,12.236,1.234Z" transform="translate(-538.067 -100.669)" fill="#d1ebff"/>
          <path id="Trazado_187748" data-name="Trazado 187748" d="M611.833,125.455a102.462,102.462,0,0,0-12.235-12.9l-10.745,6.173a102.264,102.264,0,0,1,12.235,12.894Z" transform="translate(-528.874 -96.77)" fill="#d1ebff"/>
          <path id="Trazado_187749" data-name="Trazado 187749" d="M598.823,128.443l-3.061,12.893,10.745-6.172,3.061-12.893Z" transform="translate(-526.608 -93.585)" fill="#72b5e8"/>
          <path id="Trazado_187750" data-name="Trazado 187750" d="M595.762,138.152a89.8,89.8,0,0,1,7.951,13.716l10.745-6.172a89.8,89.8,0,0,0-7.951-13.716Z" transform="translate(-526.608 -90.402)" fill="#72b5e8"/>
          <path id="Trazado_187751" data-name="Trazado 187751" d="M601.75,148.481l12.776,3.863,10.745-6.172L612.5,142.309Z" transform="translate(-524.645 -87.015)" fill="#d1ebff"/>
          <path id="Trazado_187752" data-name="Trazado 187752" d="M611.371,151.39a101.389,101.389,0,0,1,5.082,16.974l10.745-6.172a101.432,101.432,0,0,0-5.082-16.974Z" transform="translate(-521.49 -86.061)" fill="#72b5e8"/>
          <path id="Trazado_187753" data-name="Trazado 187753" d="M568.238,120.875l-.891-4.778-9.091-7.748-10.745,6.172,12.776,10.889A17.549,17.549,0,0,1,568.238,120.875Z" transform="translate(-542.429 -98.15)" fill="#72b5e8"/>
          <path id="Trazado_187754" data-name="Trazado 187754" d="M616.453,185.774a33.384,33.384,0,0,1-5.082,11.106l10.745-6.172A33.385,33.385,0,0,0,627.2,179.6Z" transform="translate(-521.49 -74.787)" fill="#72b5e8"/>
          <path id="Trazado_187755" data-name="Trazado 187755" d="M617.5,170.794a42.439,42.439,0,0,0,.474-6.176c0-.647-.042-1.305-.077-1.963l-11.141,1.41a54.73,54.73,0,0,1,.474,6.724,42.454,42.454,0,0,1-.474,6.176Z" transform="translate(-523.004 -80.344)" fill="#72b5e8"/>
          <path id="Trazado_187756" data-name="Trazado 187756" d="M606.755,174.956l11.212,14.365,10.745-6.172L617.5,168.784Z" transform="translate(-523.004 -78.334)" fill="#d1ebff"/>
          <path id="Trazado_187757" data-name="Trazado 187757" d="M603.714,184.414a17.547,17.547,0,0,1-7.951,4.533l3.061,16.427,10.745-6.172-2.171-11.65Z" transform="translate(-526.608 -73.209)" fill="#72b5e8"/>
          <path id="Trazado_187758" data-name="Trazado 187758" d="M554.492,138.184l-10.808,6.343,11.211-1.418C554.69,141.451,554.562,139.809,554.492,138.184Z" transform="translate(-543.684 -88.368)" fill="#d1ebff"/>
          <path id="Trazado_187759" data-name="Trazado 187759" d="M576.906,181.7l-6.877,8.9,10.825-6.16C579.521,183.585,578.2,182.68,576.906,181.7Z" transform="translate(-535.046 -74.098)" fill="#72b5e8"/>
          <g id="Grupo_127957" data-name="Grupo 127957" transform="translate(0.54 6.122)" style="mix-blend-mode: color-dodge;isolation: isolate">
            <path id="Trazado_187760" data-name="Trazado 187760" d="M562.51,118.382l-.03-.166c-.511.2-1,.432-1.489.672C561.492,118.707,561.988,118.519,562.51,118.382Z" transform="translate(-538.55 -101.037)" fill="#fff"/>
            <path id="Trazado_187761" data-name="Trazado 187761" d="M553.4,142.036l-9.308,1.178c.036.181.086.363.123.543l9.241-1.17C553.431,142.4,553.421,142.221,553.4,142.036Z" transform="translate(-544.091 -93.226)" fill="#fff"/>
            <path id="Trazado_187762" data-name="Trazado 187762" d="M600.457,130.817,597.4,143.709a89.812,89.812,0,0,1,7.951,13.716l12.776,3.863a101.732,101.732,0,0,1,4.958,16.431l1.266-.208a101.438,101.438,0,0,0-5.082-16.974l-12.776-3.863a89.787,89.787,0,0,0-7.951-13.716l3.061-12.892a102.381,102.381,0,0,0-12.235-12.9l-.421,1.417A103.024,103.024,0,0,1,600.457,130.817Z" transform="translate(-529.385 -101.38)" fill="#fff"/>
            <path id="Trazado_187763" data-name="Trazado 187763" d="M586.887,192.389c-15.32-8.845-27.738-30.264-27.738-47.842,0-7.766,2.437-13.456,6.467-16.646-4.657,3-7.52,8.979-7.52,17.4,0,17.579,12.418,39,27.737,47.844,7.735,4.464,14.724,4.86,19.754,1.906-.37.113-.762.187-1.147.272C599.658,197.055,593.551,196.237,586.887,192.389Z" transform="translate(-539.499 -97.861)" fill="#fff"/>
            <path id="Trazado_187764" data-name="Trazado 187764" d="M597.316,188.206a17.421,17.421,0,0,0,5.054-2.831l-.473-.4A17.541,17.541,0,0,1,597.316,188.206Z" transform="translate(-526.639 -79.148)" fill="#fff"/>
            <path id="Trazado_187765" data-name="Trazado 187765" d="M559.85,124.188c-.467.02,0-.364.471-.744l-12.3-10.485c-.349.482-.664,1.009-.085,1.073Z" transform="translate(-542.936 -102.76)" fill="#fff"/>
            <path id="Trazado_187766" data-name="Trazado 187766" d="M595.559,188.54l2.929,15.722c-.339-.017.329-.025.976-.086l-3.03-16.261C595.822,188.15,595.2,188.37,595.559,188.54Z" transform="translate(-527.25 -78.183)" fill="#fff" style="mix-blend-mode: color-dodge;isolation: isolate"/>
            <path id="Trazado_187767" data-name="Trazado 187767" d="M607.9,170.267a52.783,52.783,0,0,0-.42-6.173l-1.115.085a54.69,54.69,0,0,1,.474,6.723,42.439,42.439,0,0,1-.474,6.176l11.213,14.365a34.3,34.3,0,0,1-4.094,9.581l.072.891a33.384,33.384,0,0,0,5.082-11.106l-11.211-14.365A42.439,42.439,0,0,0,607.9,170.267Z" transform="translate(-523.673 -85.994)" fill="#fff"/>
            <path id="Trazado_187768" data-name="Trazado 187768" d="M572.448,107.136l6.877,16.836a43.063,43.063,0,0,1,5.621,2.7,55.584,55.584,0,0,1,5.621,3.788l.215-1.068a52.73,52.73,0,0,0-4.827-3.219,43.222,43.222,0,0,0-5.621-2.7l-6.877-16.838a34.082,34.082,0,0,0-12.235-1.234l.131.706A40.075,40.075,0,0,1,572.448,107.136Z" transform="translate(-538.474 -105.279)" fill="#fff"/>
            <path id="Trazado_187769" data-name="Trazado 187769" d="M575.644,182.262l-5.751,7.438c.243.218.478.451.721.665l5.823-7.532C576.174,182.639,575.906,182.46,575.644,182.262Z" transform="translate(-535.631 -80.037)" fill="#fff"/>
          </g>
        </g>
        <path id="Trazado_187770" data-name="Trazado 187770" d="M589.9,101.269c.085-1.777,1.305-2.552,2.725-1.732a5.574,5.574,0,0,1,2.419,4.7c-.084,1.777-1.3,2.552-2.725,1.732A5.579,5.579,0,0,1,589.9,101.269Z" transform="translate(-522.49 -77.022)" fill="#00defc"/>
        <path id="Trazado_187771" data-name="Trazado 187771" d="M583.913,261.134c.056-1.182.867-1.7,1.813-1.151a3.71,3.71,0,0,1,1.609,3.127c-.056,1.182-.869,1.7-1.813,1.151A3.711,3.711,0,0,1,583.913,261.134Z" transform="translate(-524.452 -24.378)" fill="#00defc"/>
        <g id="Grupo_127959" data-name="Grupo 127959" transform="translate(110.731 144.046)">
          <path id="Trazado_187772" data-name="Trazado 187772" d="M623.186,197.765a.664.664,0,0,1-.572-1l3.183-5.458a.664.664,0,1,1,1.147.668l-2.326,3.989,4.7-1.446a.664.664,0,0,1,.392,1.269l-6.323,1.947A.671.671,0,0,1,623.186,197.765Z" transform="translate(-622.522 -190.978)" fill="#00defc"/>
        </g>
        <g id="Grupo_127962" data-name="Grupo 127962" transform="translate(70.263 25.478)">
          <path id="Trazado_187777" data-name="Trazado 187777" d="M635.2,226.138l-.892-.983c7.147-6.488,10.925-17.065,10.925-30.588,0-33.649-23.858-74.8-53.183-91.729l.664-1.15c29.69,17.142,53.847,58.808,53.847,92.879C646.558,208.474,642.63,219.392,635.2,226.138Z" transform="translate(-592.047 -101.688)" fill="#00defc"/>
        </g>
        <g id="Grupo_127966" data-name="Grupo 127966" transform="translate(85.45 124.608)">
          <g id="Grupo_127963" data-name="Grupo 127963" transform="translate(48.369)">
            <path id="Trazado_187778" data-name="Trazado 187778" d="M640.574,179h-.011a.664.664,0,0,1-.653-.673q.01-.655.009-1.321a.664.664,0,1,1,1.328,0q0,.675-.009,1.341A.664.664,0,0,1,640.574,179Z" transform="translate(-639.91 -176.34)" fill="#a8cff0"/>
          </g>
          <g id="Grupo_127964" data-name="Grupo 127964" transform="translate(5.252 5.284)">
            <path id="Trazado_187779" data-name="Trazado 187779" d="M614.675,223.7a.664.664,0,0,1-.005-1.328c.865-.007,1.734-.041,2.589-.106a.664.664,0,0,1,.1,1.325c-.883.066-1.785.1-2.677.109Zm-3.949-.153-.057,0q-1.313-.112-2.657-.3a.664.664,0,0,1-.566-.749.677.677,0,0,1,.75-.566q1.307.185,2.584.292a.664.664,0,0,1-.054,1.325Zm10.5-.454a.664.664,0,0,1-.118-1.317c.851-.155,1.7-.344,2.524-.56a.664.664,0,0,1,.337,1.284c-.856.226-1.738.421-2.622.583A.727.727,0,0,1,621.224,223.1Zm6.329-1.8a.664.664,0,0,1-.246-1.281c.8-.316,1.592-.668,2.357-1.044a.663.663,0,1,1,.586,1.19c-.8.393-1.623.76-2.453,1.089A.659.659,0,0,1,627.553,221.3Zm5.831-3.03a.664.664,0,0,1-.366-1.218c.718-.475,1.423-.984,2.094-1.51a.664.664,0,0,1,.819,1.045c-.7.548-1.433,1.077-2.182,1.572A.653.653,0,0,1,633.383,218.269Zm5.094-4.164a.665.665,0,0,1-.469-1.134c.605-.607,1.194-1.244,1.751-1.9a.664.664,0,0,1,1.009.864c-.579.677-1.191,1.34-1.822,1.971A.663.663,0,0,1,638.477,214.1Zm4.19-5.071a.663.663,0,0,1-.548-1.038c.486-.709.952-1.445,1.39-2.186a.664.664,0,1,1,1.143.675c-.451.766-.935,1.527-1.437,2.261A.667.667,0,0,1,642.667,209.033Zm3.259-5.717a.645.645,0,0,1-.283-.064.664.664,0,0,1-.317-.884q.546-1.157,1.038-2.38a.664.664,0,1,1,1.232.5q-.508,1.257-1.07,2.45A.663.663,0,0,1,645.925,203.317Zm2.386-6.135a.7.7,0,0,1-.2-.031.665.665,0,0,1-.433-.834q.385-1.225.722-2.5a.664.664,0,0,1,1.284.339q-.345,1.309-.741,2.563A.663.663,0,0,1,648.311,197.182Zm1.612-6.387a.6.6,0,0,1-.129-.013.664.664,0,0,1-.526-.778c.165-.843.315-1.7.447-2.571a.664.664,0,0,1,1.313.2q-.205,1.335-.456,2.623A.665.665,0,0,1,649.923,190.795Zm.939-6.52a.52.52,0,0,1-.065,0,.662.662,0,0,1-.6-.724q.124-1.285.207-2.605a.644.644,0,0,1,.7-.621.665.665,0,0,1,.621.7c-.056.9-.127,1.779-.21,2.65A.665.665,0,0,1,650.862,184.275Z" transform="translate(-607.439 -180.319)" fill="#a8cff0"/>
          </g>
          <g id="Grupo_127965" data-name="Grupo 127965" transform="translate(0 45.869)">
            <path id="Trazado_187780" data-name="Trazado 187780" d="M605.441,212.514a.75.75,0,0,1-.142-.015c-.437-.1-.872-.2-1.311-.308a.664.664,0,0,1,.319-1.289q.643.161,1.276.3a.664.664,0,0,1-.142,1.312Z" transform="translate(-603.484 -210.883)" fill="#a8cff0"/>
          </g>
        </g>
        <g id="Grupo_127970" data-name="Grupo 127970">
          <g id="Grupo_127967" data-name="Grupo 127967" transform="translate(1.486 64.37)">
            <path id="Trazado_187781" data-name="Trazado 187781" d="M541.144,133.614a.665.665,0,0,1-.652-.546c-.08-.44-.158-.879-.23-1.317a.664.664,0,1,1,1.309-.219c.073.433.147.866.227,1.3a.665.665,0,0,1-.535.772A.74.74,0,0,1,541.144,133.614Z" transform="translate(-540.253 -130.976)" fill="#a8cff0"/>
          </g>
          <g id="Grupo_127968" data-name="Grupo 127968">
            <path id="Trazado_187782" data-name="Trazado 187782" d="M663.926,163a.668.668,0,0,1-.616-.416q-.5-1.241-1.028-2.475a.664.664,0,0,1,1.222-.521q.53,1.247,1.038,2.5a.665.665,0,0,1-.616.914Zm-2.664-6.181a.665.665,0,0,1-.6-.389q-.556-1.217-1.134-2.429a.664.664,0,1,1,1.2-.574q.584,1.223,1.145,2.451a.665.665,0,0,1-.328.88A.676.676,0,0,1,661.263,156.818Zm-2.925-6.06a.666.666,0,0,1-.592-.364q-.605-1.193-1.234-2.38a.664.664,0,1,1,1.173-.621q.633,1.2,1.247,2.4a.665.665,0,0,1-.292.894A.679.679,0,0,1,658.337,150.757Zm-3.17-5.933a.664.664,0,0,1-.579-.339q-.657-1.169-1.331-2.328a.663.663,0,1,1,1.146-.668q.681,1.167,1.341,2.345a.663.663,0,0,1-.578.989Zm-114.485-.612a.664.664,0,0,1-.657-.578q-.177-1.346-.323-2.685a.665.665,0,0,1,1.321-.143q.143,1.325.319,2.654a.664.664,0,0,1-.572.745A.651.651,0,0,1,540.682,144.212Zm111.075-5.184a.665.665,0,0,1-.566-.315q-.7-1.141-1.422-2.269a.663.663,0,1,1,1.118-.714q.727,1.135,1.435,2.287a.663.663,0,0,1-.566,1.012Zm-111.746-1.506a.663.663,0,0,1-.661-.619q-.092-1.356-.146-2.7a.666.666,0,0,1,.639-.689h.025a.663.663,0,0,1,.664.637q.052,1.327.143,2.666a.664.664,0,0,1-.617.706Zm108.1-4.142a.663.663,0,0,1-.55-.292q-.751-1.109-1.516-2.207a.664.664,0,0,1,1.09-.76q.769,1.1,1.526,2.223a.664.664,0,0,1-.55,1.036ZM539.8,130.806h0a.663.663,0,0,1-.661-.667c0-.916.02-1.819.053-2.71a.663.663,0,0,1,.664-.639h.024a.665.665,0,0,1,.64.688c-.033.878-.049,1.766-.053,2.666A.664.664,0,0,1,539.8,130.806Zm104.445-2.915a.661.661,0,0,1-.534-.27q-.8-1.078-1.607-2.139a.664.664,0,1,1,1.056-.806q.817,1.07,1.619,2.157a.664.664,0,0,1-.534,1.058Zm-104.152-3.8-.058,0a.665.665,0,0,1-.6-.718q.117-1.37.28-2.7a.67.67,0,0,1,.74-.576.663.663,0,0,1,.579.74c-.108.868-.2,1.751-.276,2.649A.664.664,0,0,1,540.091,124.093Zm100.049-1.519a.664.664,0,0,1-.516-.247q-.839-1.042-1.7-2.065a.665.665,0,0,1,1.02-.853q.862,1.034,1.71,2.085a.663.663,0,0,1-.518,1.08Zm-4.328-5.131a.663.663,0,0,1-.5-.224q-.884-1-1.783-1.985a.663.663,0,1,1,.977-.9q.91.99,1.8,2a.663.663,0,0,1-.5,1.1Zm-94.838-.009a.609.609,0,0,1-.12-.012.664.664,0,0,1-.535-.771q.249-1.356.547-2.662a.664.664,0,1,1,1.295.3q-.291,1.279-.534,2.605A.665.665,0,0,1,540.975,117.434Zm90.278-4.918a.668.668,0,0,1-.477-.2q-.936-.964-1.884-1.9a.664.664,0,0,1,.935-.944q.956.948,1.9,1.92a.662.662,0,0,1-.013.939A.654.654,0,0,1,631.252,112.515ZM542.545,110.9a.69.69,0,0,1-.193-.028.663.663,0,0,1-.442-.829q.4-1.321.858-2.584a.663.663,0,1,1,1.247.451q-.444,1.231-.834,2.519A.664.664,0,0,1,542.545,110.9Zm83.905-3.094a.66.66,0,0,1-.453-.178q-.98-.914-1.977-1.8a.664.664,0,1,1,.886-.991q1,.9,2,1.822a.663.663,0,0,1-.451,1.149Zm-81.536-3.188a.663.663,0,0,1-.6-.94q.576-1.259,1.214-2.445a.664.664,0,1,1,1.17.628q-.617,1.151-1.178,2.37A.662.662,0,0,1,544.914,104.621Zm76.494-1.259a.664.664,0,0,1-.426-.154q-1.028-.858-2.071-1.689a.664.664,0,1,1,.827-1.038q1.054.839,2.1,1.709a.663.663,0,0,1-.425,1.173Zm-5.285-4.156a.662.662,0,0,1-.394-.13q-1.08-.8-2.168-1.56a.664.664,0,1,1,.762-1.088q1.1.773,2.195,1.58a.663.663,0,0,1-.394,1.2Zm-67.939-.445a.656.656,0,0,1-.371-.113.664.664,0,0,1-.181-.922c.514-.762,1.054-1.507,1.608-2.214a.664.664,0,1,1,1.045.819c-.534.681-1.056,1.4-1.551,2.135A.662.662,0,0,1,548.185,98.761Zm62.409-3.374a.658.658,0,0,1-.358-.1q-1.129-.725-2.267-1.414a.663.663,0,1,1,.687-1.135q1.153.7,2.3,1.431a.664.664,0,0,1-.36,1.223Zm-58.172-1.825a.665.665,0,0,1-.473-1.131c.643-.648,1.315-1.277,2-1.87a.664.664,0,1,1,.866,1.007c-.659.568-1.305,1.173-1.923,1.8A.663.663,0,0,1,552.422,93.562Zm52.393-1.608a.661.661,0,0,1-.319-.081q-1.185-.647-2.362-1.24a.664.664,0,0,1,.6-1.186q1.193.6,2.4,1.26a.664.664,0,0,1-.317,1.247ZM557.6,89.3a.664.664,0,0,1-.367-1.218c.761-.5,1.551-.98,2.348-1.416a.664.664,0,0,1,.636,1.166c-.763.417-1.522.872-2.251,1.357A.661.661,0,0,1,557.6,89.3Zm41.194-.319a.669.669,0,0,1-.27-.057q-1.235-.546-2.455-1.032a.664.664,0,1,1,.493-1.234q1.241.494,2.5,1.05a.665.665,0,0,1-.268,1.272Zm-6.269-2.422a.656.656,0,0,1-.207-.033q-1.283-.422-2.544-.777a.664.664,0,1,1,.36-1.279q1.289.363,2.6.794a.664.664,0,0,1-.207,1.295Zm-28.975-.349a.664.664,0,0,1-.243-1.283c.839-.329,1.709-.631,2.589-.9a.664.664,0,0,1,.381,1.272c-.845.254-1.68.543-2.486.859A.673.673,0,0,1,563.547,86.207Zm22.489-1.39a.693.693,0,0,1-.135-.015q-1.319-.269-2.612-.463a.665.665,0,0,1,.2-1.315q1.329.2,2.684.478a.664.664,0,0,1-.133,1.315ZM570,84.4a.664.664,0,0,1-.114-1.317c.887-.157,1.8-.283,2.709-.376a.664.664,0,0,1,.134,1.321c-.878.089-1.757.211-2.612.361A.589.589,0,0,1,570,84.4Zm9.374-.486h-.041q-1.339-.086-2.645-.085a.664.664,0,0,1,0-1.328q1.348,0,2.729.086a.664.664,0,0,1-.042,1.327Z" transform="translate(-539.134 -82.501)" fill="#a8cff0"/>
          </g>
          <g id="Grupo_127969" data-name="Grupo 127969" transform="translate(125.628 83.008)">
            <path id="Trazado_187783" data-name="Trazado 187783" d="M634.866,147.587a.664.664,0,0,1-.624-.436l-.459-1.242a.665.665,0,1,1,1.246-.463l.462,1.25a.665.665,0,0,1-.4.851A.7.7,0,0,1,634.866,147.587Z" transform="translate(-633.741 -145.012)" fill="#a8cff0"/>
          </g>
        </g>
        <g id="Grupo_127974" data-name="Grupo 127974" transform="translate(63.732 182.085)">
          <g id="Grupo_127971" data-name="Grupo 127971" transform="translate(37.767)">
            <path id="Trazado_187784" data-name="Trazado 187784" d="M616.74,222.18a.665.665,0,0,1-.616-.416q-.247-.609-.5-1.22a.664.664,0,0,1,1.224-.513c.173.41.343.823.51,1.235a.667.667,0,0,1-.366.866A.687.687,0,0,1,616.74,222.18Z" transform="translate(-615.57 -219.625)" fill="#00defc"/>
          </g>
          <g id="Grupo_127972" data-name="Grupo 127972" transform="translate(4.725 4.916)">
            <path id="Trazado_187785" data-name="Trazado 187785" d="M606.575,282.782h0c-.886,0-1.789-.049-2.685-.134a.664.664,0,0,1-.6-.724.69.69,0,0,1,.724-.6c.857.081,1.721.125,2.565.129a.664.664,0,0,1,0,1.328Zm3.929-.278a.664.664,0,0,1-.1-1.321,22.672,22.672,0,0,0,2.5-.517.665.665,0,0,1,.343,1.284,24.448,24.448,0,0,1-2.647.546A.623.623,0,0,1,610.5,282.5Zm-10.45-.463a.633.633,0,0,1-.14-.016c-.849-.182-1.721-.4-2.593-.656a.664.664,0,0,1,.368-1.276c.844.244,1.686.458,2.506.636a.664.664,0,0,1-.141,1.312Zm16.725-1.42a.664.664,0,0,1-.283-1.264,20.688,20.688,0,0,0,2.23-1.226.663.663,0,1,1,.71,1.119,21.06,21.06,0,0,1-2.374,1.307A.678.678,0,0,1,616.779,280.621Zm-23.006-.5a.652.652,0,0,1-.243-.047c-.81-.319-1.628-.664-2.455-1.042a.664.664,0,0,1,.552-1.208q1.2.552,2.387,1.015a.664.664,0,0,1-.242,1.283ZM622.2,276.95a.664.664,0,0,1-.451-1.15,22.293,22.293,0,0,0,1.765-1.842.663.663,0,0,1,1.009.86,23.076,23.076,0,0,1-1.871,1.953A.657.657,0,0,1,622.2,276.95Zm4.128-5.09a.654.654,0,0,1-.345-.1.664.664,0,0,1-.22-.914c.437-.714.851-1.471,1.231-2.249a.664.664,0,0,1,1.194.583c-.4.815-.834,1.608-1.292,2.36A.665.665,0,0,1,626.324,271.86Zm2.765-5.948a.65.65,0,0,1-.215-.037.663.663,0,0,1-.412-.843c.274-.8.525-1.627.746-2.47a.664.664,0,0,1,1.284.34c-.231.872-.491,1.733-.775,2.561A.663.663,0,0,1,629.088,265.912Zm1.58-6.372a.62.62,0,0,1-.11-.009.662.662,0,0,1-.546-.764q.207-1.253.346-2.568a.664.664,0,0,1,1.321.141q-.145,1.352-.359,2.645A.664.664,0,0,1,630.669,259.54Zm.62-6.541h-.023a.665.665,0,0,1-.641-.686c.019-.595.028-1.2.028-1.813l-.005-.787a.665.665,0,0,1,.655-.673.7.7,0,0,1,.673.656l.005.8c0,.628-.009,1.246-.028,1.858A.666.666,0,0,1,631.289,253Zm-.154-6.573a.666.666,0,0,1-.661-.614q-.1-1.293-.243-2.6a.664.664,0,0,1,1.32-.149q.147,1.327.248,2.644a.665.665,0,0,1-.612.713Zm-.794-6.529a.664.664,0,0,1-.653-.554q-.215-1.281-.474-2.567a.664.664,0,1,1,1.3-.262c.174.872.336,1.741.481,2.608a.665.665,0,0,1-.544.765A.657.657,0,0,1,630.341,239.9Zm-1.348-6.436a.664.664,0,0,1-.644-.5q-.315-1.265-.673-2.526a.664.664,0,1,1,1.279-.361q.361,1.283.683,2.563a.664.664,0,0,1-.482.806A.685.685,0,0,1,628.993,233.46Zm-1.833-6.318a.662.662,0,0,1-.629-.457q-.409-1.237-.851-2.471a.664.664,0,1,1,1.25-.449q.448,1.251.862,2.506a.664.664,0,0,1-.631.871Z" transform="translate(-590.687 -223.327)" fill="#00defc"/>
          </g>
          <g id="Grupo_127973" data-name="Grupo 127973" transform="translate(0 56.904)">
            <path id="Trazado_187786" data-name="Trazado 187786" d="M588.952,264.459a.655.655,0,0,1-.319-.082q-.584-.321-1.171-.659a.664.664,0,1,1,.661-1.151c.384.22.766.437,1.147.645a.664.664,0,0,1-.319,1.247Z" transform="translate(-587.129 -262.478)" fill="#00defc"/>
          </g>
        </g>
        <g id="Grupo_127975" data-name="Grupo 127975" transform="translate(100.433 180.424)">
          <path id="Trazado_187787" data-name="Trazado 187787" d="M615.432,223.242h-.042a.663.663,0,0,1-.62-.7l.22-3.541a.663.663,0,0,1,1.057-.491l2.988,2.214a.663.663,0,1,1-.79,1.065l-2.006-1.486-.143,2.322A.665.665,0,0,1,615.432,223.242Z" transform="translate(-614.768 -218.374)" fill="#00defc"/>
        </g>
      </g>
      <g id="Grupo_127985" data-name="Grupo 127985" transform="translate(-11744.339 -12339.176)">
        <g id="Grupo_127983" data-name="Grupo 127983" transform="translate(0 0)">
          <path id="Trazado_187829" data-name="Trazado 187829" d="M604.408,166.243c0,5.079-1.753,8.676-4.6,10.417-.085.053-4.867,3.02-4.954,3.067-2.965,1.658-1.069-2.1-5.57-4.7-9.062-5.232-16.406-17.9-16.406-28.3,0-5.142-4.754-5.183-1.842-6.9.081-.048,5.434-3.1,5.516-3.148,2.957-1.6,7-1.307,11.453,1.267C597.062,143.176,604.408,155.846,604.408,166.243Z" transform="translate(-559.433 -133.263)" fill="#cc8f20"/>
          <path id="Trazado_187830" data-name="Trazado 187830" d="M582.9,140.056c-4.344-2.507-8.289-2.846-11.225-1.378,2.737-.765,6.131-.193,9.808,1.929,9.061,5.232,16.406,17.9,16.406,28.3,0,5.412-1.993,9.139-5.181,10.732,4-1.121,6.6-5.106,6.6-11.283C599.307,157.958,591.962,145.288,582.9,140.056Z" transform="translate(-558.913 -132.569)" fill="#fff"/>
          <ellipse id="Elipse_4767" data-name="Elipse 4767" cx="13.353" cy="23.13" rx="13.353" ry="23.13" transform="matrix(0.863, -0.505, 0.505, 0.863, 0, 13.479)" fill="#fdb32b"/>
        </g>
      </g>
    </g>
    <path id="Trazado_187789" data-name="Trazado 187789" d="M621.154,464.462,383.771,327.33c-9.19-5.306-16.64-19.541-16.64-31.8V79.589c0-12.254,7.449-17.885,16.64-12.579L621.154,204.143c9.19,5.306,16.64,19.541,16.64,31.795V451.883C637.793,464.137,630.344,469.768,621.154,464.462Z" transform="translate(-12370.319 -12349.613)" fill="#d1ebff"/>
    <path id="Trazado_187793" data-name="Trazado 187793" d="M374.169,90.449V287.193c0,9.611,4.575,19,11.971,23.7L620.988,446.55l.391.223a3.184,3.184,0,0,0,4.762-2.763v-208Z" transform="translate(-12368.012 -12341.272)" fill="#03336e"/>
    <g id="Grupo_127998" data-name="Grupo 127998" transform="translate(-11983.48 -12249.903)">
      <g id="Grupo_127996" data-name="Grupo 127996" transform="translate(0 18.806)">
        <path id="Trazado_187872" data-name="Trazado 187872" d="M399.672,118.045V144.48l3.987-2.2v-26.64Z" transform="translate(-376.169 -101.915)" fill="#1cb1c9"/>
        <path id="Trazado_187873" data-name="Trazado 187873" d="M405.505,120.86v26.435l-23.533-13.6v-26.64Z" transform="translate(-381.973 -104.73)" fill="#26defc"/>
        <path id="Trazado_187874" data-name="Trazado 187874" d="M381.973,107.634l23.533,13.8,3.958-2.4-23.584-13.728Z" transform="translate(-381.973 -105.305)" fill="#a6f4fe"/>
        <path id="Trazado_187875" data-name="Trazado 187875" d="M381.973,107.059l23.533,13.8,3.958-2.4-4.157,1.128Z" transform="translate(-381.973 -104.73)" fill="#fff"/>
      </g>
      <g id="Grupo_127997" data-name="Grupo 127997" transform="translate(6.137)">
        <path id="Trazado_187876" data-name="Trazado 187876" d="M415.255,111.772v42.807l6.457-3.556V107.884Z" transform="translate(-377.197 -85.653)" fill="#cc8f20"/>
        <path id="Trazado_187877" data-name="Trazado 187877" d="M386.594,94.913,424.7,117.261l6.409-3.888L392.92,91.142Z" transform="translate(-386.594 -91.142)" fill="#fee4a9"/>
        <path id="Trazado_187878" data-name="Trazado 187878" d="M386.594,93.982,424.7,116.33l6.409-3.888-6.236,2.969Z" transform="translate(-386.594 -90.211)" fill="#fff" opacity="0.7"/>
      </g>
      <path id="Trazado_187879" data-name="Trazado 187879" d="M386.594,93.982v17.754l20.167,11.827v25.209L424.7,159.136V116.33Z" transform="translate(-380.457 -90.211)" fill="#fdb32b"/>
    </g>
    <g id="Grupo_128578" data-name="Grupo 128578" transform="translate(0 146)">
      <g id="Grupo_127995" data-name="Grupo 127995" transform="translate(-12023.667 -12250.702)">
        <g id="Grupo_127994" data-name="Grupo 127994">
          <path id="Trazado_187867" data-name="Trazado 187867" d="M457.329,265.288V303.2l6.358-3.494V261.583Z" transform="translate(-317.078 -180.457)" fill="#cc8f20"/>
          <path id="Trazado_187868" data-name="Trazado 187868" d="M491.991,284.424v37.908l-140.282-80.99V203.223Z" transform="translate(-351.709 -199.593)" fill="#fdb32b"/>
          <path id="Trazado_187869" data-name="Trazado 187869" d="M351.709,204.119l140.282,81.2,6.328-3.7L357.984,200.489Z" transform="translate(-351.709 -200.489)" fill="#fee4a9"/>
          <path id="Trazado_187870" data-name="Trazado 187870" d="M351.709,203.223l140.282,81.2,6.328-3.7-6.2,2.709Z" transform="translate(-351.709 -199.593)" fill="#fff" opacity="0.7"/>
        </g>
        <path id="Trazado_187871" data-name="Trazado 187871" d="M483.149,307.982l-126.228-73.67V211.976l126.228,73.67Z" transform="translate(-350 -196.723)" fill="#fff"/>
      </g>
      <g id="Grupo_128006" data-name="Grupo 128006" transform="translate(-12042.391 -12201.369)">
        <g id="Grupo_128005" data-name="Grupo 128005" transform="translate(0 0)">
          <path id="Trazado_187901" data-name="Trazado 187901" d="M376.818,254.62v37.908l5.985-3.4V251Z" transform="translate(-275.043 -192.109)" fill="#2672ab"/>
          <path id="Trazado_187902" data-name="Trazado 187902" d="M401.979,268.288V306.2l-101.8-58.759V209.318Z" transform="translate(-300.174 -205.777)" fill="#3f92d1"/>
          <path id="Trazado_187903" data-name="Trazado 187903" d="M300.174,210.193l101.8,58.97,5.955-3.616-101.858-58.9Z" transform="translate(-300.174 -206.652)" fill="#72b5e8"/>
          <path id="Trazado_187904" data-name="Trazado 187904" d="M300.174,209.318l101.8,58.97,5.955-3.616-6.2,2.487Z" transform="translate(-300.174 -205.777)" fill="#fff" opacity="0.7"/>
        </g>
        <path id="Trazado_187905" data-name="Trazado 187905" d="M337.554,234.222l-18.61-10.745c-1.143-.66-2.069-.131-2.069,1.179v12.606a4.553,4.553,0,0,0,2.069,3.567l11.631,6.716,5.816,10.031V250.9l1.163.672c1.142.66,2.067.132,2.067-1.179V237.789A4.555,4.555,0,0,0,337.554,234.222Zm-13.12,2.36c-.605.345-1.588-.222-2.194-1.267s-.605-2.171,0-2.516,1.588.222,2.194,1.265S325.04,236.236,324.434,236.582Zm5.041,2.909c-.605.345-1.588-.222-2.194-1.265s-.605-2.172,0-2.518,1.588.222,2.194,1.267S330.081,239.146,329.475,239.491Zm5.041,2.911c-.607.345-1.588-.222-2.194-1.267s-.605-2.171,0-2.516,1.587.222,2.194,1.267S335.121,242.056,334.516,242.4Zm-19.192-6.035V226.132l-7.108-4.1c-1.142-.66-2.068-.131-2.068,1.179v12.606a4.555,4.555,0,0,0,2.068,3.567l1.163.672v6.674l5.816-3.316,11.632,6.715c1.142.66,2.068.131,2.068-1.179v-.594l-9.951-5.744A7.988,7.988,0,0,1,315.324,236.366Z" transform="translate(-298.215 -201.703)" fill="#fff"/>
        <path id="Trazado_187906" data-name="Trazado 187906" d="M334.548,235.916v3.147l48.635,28.081V264Z" transform="translate(-288.903 -197.056)" fill="#fff"/>
        <path id="Trazado_187907" data-name="Trazado 187907" d="M367.8,264.983l-33.254-19.217v3.147L367.8,268.131Z" transform="translate(-288.903 -193.826)" fill="#fff"/>
        <path id="Trazado_187908" data-name="Trazado 187908" d="M334.548,243.989l48.635,28.081v-3.147l-48.635-28.081Z" transform="translate(-288.903 -195.441)" fill="#fff"/>
      </g>
      <g id="Grupo_128038" data-name="Grupo 128038" transform="translate(-12114.408 -12215.076)">
        <g id="Grupo_127979" data-name="Grupo 127979" transform="translate(194.103 110.013)">
          <path id="Trazado_187799" data-name="Trazado 187799" d="M279.63,162.033v47.461l5.191-3.039v-47.6Z" transform="translate(-224.871 -127.585)" fill="#94b0c9"/>
          <path id="Trazado_187800" data-name="Trazado 187800" d="M248.88,146.217v47.461L194.1,162.492v-47.6Z" transform="translate(-194.103 -111.769)" fill="#b9ddfc"/>
          <path id="Trazado_187801" data-name="Trazado 187801" d="M194.1,113.139l54.777,31.323,5.172-3.174-54.809-31.275Z" transform="translate(-194.103 -110.013)" fill="#e7f3fe"/>
          <path id="Trazado_187802" data-name="Trazado 187802" d="M194.1,114.894l54.777,31.323,5.172-3.174-5.186,2.451Z" transform="translate(-194.103 -111.769)" fill="#fff" opacity="0.7" style="isolation: isolate"/>
        </g>
        <g id="Grupo_127980" data-name="Grupo 127980" transform="translate(201.036 124.751)">
          <path id="Trazado_187803" data-name="Trazado 187803" d="M237.612,199.489v-2.016L204.931,178.9v2.015Z" transform="translate(-204.931 -149.531)" fill="#fff"/>
          <g id="Grupo_128028" data-name="Grupo 128028" transform="translate(0.039)">
            <path id="Trazado_187925" data-name="Trazado 187925" d="M204.992,133.032v2.015l40.743,23.308V156.34Z" transform="translate(-204.992 -133.032)" fill="#fff"/>
          </g>
          <path id="Trazado_187806" data-name="Trazado 187806" d="M233.481,188.838v2.017l7.99,4.323V193.16Z" transform="translate(-215.202 -153.108)" fill="#fff"/>
          <path id="Trazado_187926" data-name="Trazado 187926" d="M204.992,152.758v2.013l30,17.042V169.8Z" transform="translate(-204.953 -140.128)" fill="#fff"/>
          <path id="Trazado_187811" data-name="Trazado 187811" d="M216.135,165.743v2.012l15.392,8.887v-2.015Z" transform="translate(-208.962 -144.8)" fill="#fff"/>
          <path id="Trazado_187813" data-name="Trazado 187813" d="M234.643,165.363,256.4,177.635V175.62l-21.758-12.272Z" transform="translate(-215.62 -143.938)" fill="#fff"/>
          <path id="Trazado_187814" data-name="Trazado 187814" d="M254.952,183.174l8.755,5.055v-2.015l-8.755-5.058Z" transform="translate(-222.926 -150.344)" fill="#fff"/>
          <path id="Trazado_187816" data-name="Trazado 187816" d="M243.274,183.423l16.232,9.081v-2.015l-16.232-9.081Z" transform="translate(-218.725 -150.435)" fill="#fff"/>
          <path id="Trazado_187818" data-name="Trazado 187818" d="M259.073,211.716l6.116,3.531v-2.016l-6.116-3.531Z" transform="translate(-224.408 -160.613)" fill="#fff"/>
          <path id="Trazado_187819" data-name="Trazado 187819" d="M249.059,199.395l12.528,7.235v-2.015l-12.528-7.235Z" transform="translate(-220.806 -156.181)" fill="#fff"/>
          <g id="Grupo_128029" data-name="Grupo 128029" transform="translate(0.039 16.824)">
            <path id="Trazado_187927" data-name="Trazado 187927" d="M204.992,159.31v2.016l5.151,2.974v-2.016Z" transform="translate(-204.992 -159.31)" fill="#fff"/>
          </g>
          <g id="Grupo_128030" data-name="Grupo 128030" transform="translate(0.039 8.45)">
            <path id="Trazado_187928" data-name="Trazado 187928" d="M204.992,146.23v2.015l17,9.815v-2.016Z" transform="translate(-204.992 -146.23)" fill="#fff"/>
          </g>
          <path id="Trazado_187929" data-name="Trazado 187929" d="M204.992,172.39v2.015l16.256,9.386v-2.015Z" transform="translate(-204.953 -147.191)" fill="#fff"/>
          <g id="Grupo_128031" data-name="Grupo 128031" transform="translate(0.039 20.936)">
            <path id="Trazado_187930" data-name="Trazado 187930" d="M204.992,165.732v2.015l40.743,23.308V189.04Z" transform="translate(-204.992 -165.732)" fill="#fff"/>
          </g>
          <g id="Grupo_128032" data-name="Grupo 128032" transform="translate(0.039 4.187)">
            <path id="Trazado_187931" data-name="Trazado 187931" d="M204.992,139.572v2.016L245.734,164.9V162.88Z" transform="translate(-204.992 -139.572)" fill="#fff"/>
          </g>
        </g>
        <g id="Grupo_127980-2" data-name="Grupo 127980" transform="translate(201.036 124.751)">
          <path id="Trazado_187803-2" data-name="Trazado 187803" d="M237.612,199.489v-2.016L204.931,178.9v2.015Z" transform="translate(-204.931 -149.531)" fill="#084a93"/>
          <g id="Grupo_128033" data-name="Grupo 128033" transform="translate(0.039)">
            <path id="Trazado_187932" data-name="Trazado 187932" d="M204.992,133.032v2.015l40.743,23.308V156.34Z" transform="translate(-204.992 -133.032)" fill="#084a93"/>
          </g>
          <path id="Trazado_187806-2" data-name="Trazado 187806" d="M233.481,188.838v2.017l7.99,4.323V193.16Z" transform="translate(-215.202 -153.108)" fill="#084a93"/>
          <path id="Trazado_187933" data-name="Trazado 187933" d="M204.992,152.758v2.013l30,17.042V169.8Z" transform="translate(-204.953 -140.128)" fill="#084a93"/>
          <path id="Trazado_187811-2" data-name="Trazado 187811" d="M216.135,165.743v2.012l15.392,8.887v-2.015Z" transform="translate(-208.962 -144.8)" fill="#084a93"/>
          <path id="Trazado_187813-2" data-name="Trazado 187813" d="M234.643,165.363,256.4,177.635V175.62l-21.758-12.272Z" transform="translate(-215.62 -143.938)" fill="#084a93"/>
          <path id="Trazado_187814-2" data-name="Trazado 187814" d="M254.952,183.174l8.755,5.055v-2.015l-8.755-5.058Z" transform="translate(-222.926 -150.344)" fill="#084a93"/>
          <path id="Trazado_187816-2" data-name="Trazado 187816" d="M243.274,183.423l16.232,9.081v-2.015l-16.232-9.081Z" transform="translate(-218.725 -150.435)" fill="#084a93"/>
          <path id="Trazado_187818-2" data-name="Trazado 187818" d="M259.073,211.716l6.116,3.531v-2.016l-6.116-3.531Z" transform="translate(-224.408 -160.613)" fill="#084a93"/>
          <path id="Trazado_187819-2" data-name="Trazado 187819" d="M249.059,199.395l12.528,7.235v-2.015l-12.528-7.235Z" transform="translate(-220.806 -156.181)" fill="#084a93"/>
          <g id="Grupo_128034" data-name="Grupo 128034" transform="translate(0.039 16.824)">
            <path id="Trazado_187934" data-name="Trazado 187934" d="M204.992,159.31v2.016l5.151,2.974v-2.016Z" transform="translate(-204.992 -159.31)" fill="#084a93"/>
          </g>
          <g id="Grupo_128035" data-name="Grupo 128035" transform="translate(0.039 8.45)">
            <path id="Trazado_187935" data-name="Trazado 187935" d="M204.992,146.23v2.015l17,9.815v-2.016Z" transform="translate(-204.992 -146.23)" fill="#084a93"/>
          </g>
          <path id="Trazado_187936" data-name="Trazado 187936" d="M204.992,172.39v2.015l16.256,9.386v-2.015Z" transform="translate(-204.953 -147.191)" fill="#084a93"/>
          <g id="Grupo_128036" data-name="Grupo 128036" transform="translate(0.039 20.936)">
            <path id="Trazado_187937" data-name="Trazado 187937" d="M204.992,165.732v2.015l40.743,23.308V189.04Z" transform="translate(-204.992 -165.732)" fill="#084a93"/>
          </g>
          <g id="Grupo_128037" data-name="Grupo 128037" transform="translate(0.039 4.187)">
            <path id="Trazado_187938" data-name="Trazado 187938" d="M204.992,139.572v2.016L245.734,164.9V162.88Z" transform="translate(-204.992 -139.572)" fill="#084a93"/>
          </g>
        </g>
      </g>
    </g>
  </g>
</svg>
