<svg xmlns="http://www.w3.org/2000/svg" width="324" height="303.436" viewBox="0 0 324 303.436">
  <g id="Grupo_128098" data-name="Grupo 128098" transform="translate(2088.819 5468.484)">
    <path id="Trazado_116701" data-name="Trazado 116701" d="M-1793.545-5403.017l-2.6-2.6-95.354,95.355v-134.853h-3.68v134.852l-95.355-95.354-2.6,2.6,95.355,95.356h-134.852v3.678h134.852l-95.355,95.356,2.6,2.6,95.355-95.354v134.853h3.68V-5301.38l95.354,95.354,2.6-2.6-95.355-95.356h134.852v-3.678H-1888.9Z" transform="translate(-33.429 -13.904)" fill="#fcce57"/>
    <g id="Grupo_110901" data-name="Grupo 110901" transform="translate(-2088.819 -5468.484)">
      <g id="Grupo_110886" data-name="Grupo 110886" transform="translate(41.011 34.893)">
        <path id="Trazado_116702" data-name="Trazado 116702" d="M-1942.251-5323.72c0,2.389-10.142,4.324-22.653,4.324s-22.653-1.936-22.653-4.324,10.142-4.323,22.653-4.323S-1942.251-5326.108-1942.251-5323.72Z" transform="translate(1987.557 5350.028)" fill="#d9d9d9" style="mix-blend-mode: multiply;isolation: isolate"/>
        <g id="Grupo_110885" data-name="Grupo 110885" transform="translate(2.38)">
          <rect id="Rectángulo_40353" data-name="Rectángulo 40353" width="32.4" height="21.627" rx="2.231" transform="translate(4.073)" fill="#0d1116"/>
          <path id="Trazado_116703" data-name="Trazado 116703" d="M-1939-5361.382a.86.86,0,0,1-.877.844h-29.709a.86.86,0,0,1-.877-.844v-18.557a.863.863,0,0,1,.877-.849h29.709a.862.862,0,0,1,.877.849Z" transform="translate(1975.01 5381.41)" fill="#23272e"/>
          <rect id="Rectángulo_40354" data-name="Rectángulo 40354" width="29.523" height="18.842" transform="translate(5.512 1.392)" fill="#b8dcfb"/>
          <path id="Trazado_116704" data-name="Trazado 116704" d="M-1977.141-5328.929l-4.541,5.4h41.033l-5.027-5.4Z" transform="translate(1981.681 5350.557)" fill="#23272e"/>
          <path id="Trazado_116705" data-name="Trazado 116705" d="M-1971.262-5327.673l-2.2,2.806h34.452l-2.425-2.806Z" transform="translate(1976.788 5349.81)" fill="#373e48"/>
          <path id="Trazado_116706" data-name="Trazado 116706" d="M-1941.9-5319.251l-.6.762h9.372l-.66-.762Z" transform="translate(1958.365 5344.797)" fill="#373e48"/>
          <rect id="Rectángulo_40355" data-name="Rectángulo 40355" width="41.033" height="1.279" transform="translate(0 27.028)" fill="#05090d"/>
        </g>
      </g>
      <g id="Grupo_110888" data-name="Grupo 110888" transform="translate(139.347 0)">
        <path id="Trazado_116707" data-name="Trazado 116707" d="M-1699.447-5409.876c0,2.39-10.143,4.324-22.654,4.324s-22.653-1.935-22.653-4.324,10.143-4.324,22.653-4.324S-1699.447-5412.265-1699.447-5409.876Z" transform="translate(1744.753 5436.185)" fill="#d9d9d9" style="mix-blend-mode: multiply;isolation: isolate"/>
        <g id="Grupo_110887" data-name="Grupo 110887" transform="translate(2.38)">
          <rect id="Rectángulo_40356" data-name="Rectángulo 40356" width="32.4" height="21.627" rx="2.231" transform="translate(4.073)" fill="#0d1116"/>
          <path id="Trazado_116708" data-name="Trazado 116708" d="M-1696.2-5447.539a.86.86,0,0,1-.877.845h-29.709a.861.861,0,0,1-.878-.845V-5466.1a.863.863,0,0,1,.878-.848h29.709a.862.862,0,0,1,.877.848Z" transform="translate(1732.206 5467.568)" fill="#23272e"/>
          <rect id="Rectángulo_40357" data-name="Rectángulo 40357" width="29.523" height="18.842" transform="translate(5.512 1.392)" fill="#b8dcfb"/>
          <path id="Trazado_116709" data-name="Trazado 116709" d="M-1734.336-5415.085l-4.541,5.4h41.033l-5.028-5.4Z" transform="translate(1738.877 5436.713)" fill="#23272e"/>
          <path id="Trazado_116710" data-name="Trazado 116710" d="M-1728.457-5413.829l-2.2,2.807h34.452l-2.425-2.807Z" transform="translate(1733.984 5435.966)" fill="#373e48"/>
          <path id="Trazado_116711" data-name="Trazado 116711" d="M-1699.093-5405.406l-.6.763h9.372l-.66-.763Z" transform="translate(1715.561 5430.952)" fill="#373e48"/>
          <rect id="Rectángulo_40358" data-name="Rectángulo 40358" width="41.033" height="1.279" transform="translate(0 27.029)" fill="#05090d"/>
        </g>
      </g>
      <g id="Grupo_110890" data-name="Grupo 110890" transform="translate(237.909 34.893)">
        <path id="Trazado_116712" data-name="Trazado 116712" d="M-1456.082-5323.72c0,2.389-10.143,4.324-22.654,4.324s-22.653-1.936-22.653-4.324,10.142-4.323,22.653-4.323S-1456.082-5326.108-1456.082-5323.72Z" transform="translate(1501.389 5350.028)" fill="#d9d9d9" style="mix-blend-mode: multiply;isolation: isolate"/>
        <g id="Grupo_110889" data-name="Grupo 110889" transform="translate(2.38)">
          <rect id="Rectángulo_40359" data-name="Rectángulo 40359" width="32.4" height="21.627" rx="2.231" transform="translate(4.073)" fill="#0d1116"/>
          <path id="Trazado_116713" data-name="Trazado 116713" d="M-1452.836-5361.382a.86.86,0,0,1-.877.844h-29.709a.86.86,0,0,1-.878-.844v-18.557a.863.863,0,0,1,.878-.849h29.709a.863.863,0,0,1,.877.849Z" transform="translate(1488.842 5381.41)" fill="#23272e"/>
          <rect id="Rectángulo_40360" data-name="Rectángulo 40360" width="29.523" height="18.842" transform="translate(5.512 1.392)" fill="#b8dcfb"/>
          <path id="Trazado_116714" data-name="Trazado 116714" d="M-1490.972-5328.929l-4.541,5.4h41.033l-5.028-5.4Z" transform="translate(1495.513 5350.557)" fill="#23272e"/>
          <path id="Trazado_116715" data-name="Trazado 116715" d="M-1485.093-5327.673l-2.2,2.806h34.452l-2.424-2.806Z" transform="translate(1490.62 5349.81)" fill="#373e48"/>
          <path id="Trazado_116716" data-name="Trazado 116716" d="M-1455.729-5319.251l-.6.762h9.371l-.66-.762Z" transform="translate(1472.197 5344.797)" fill="#373e48"/>
          <rect id="Rectángulo_40361" data-name="Rectángulo 40361" width="41.033" height="1.279" transform="translate(0 27.028)" fill="#05090d"/>
        </g>
      </g>
      <g id="Grupo_110892" data-name="Grupo 110892" transform="translate(278.693 133.003)">
        <path id="Trazado_116717" data-name="Trazado 116717" d="M-1355.38-5081.475c0,2.389-10.143,4.325-22.654,4.325s-22.653-1.936-22.653-4.325,10.142-4.322,22.653-4.322S-1355.38-5083.861-1355.38-5081.475Z" transform="translate(1400.687 5107.782)" fill="#d9d9d9" style="mix-blend-mode: multiply;isolation: isolate"/>
        <g id="Grupo_110891" data-name="Grupo 110891" transform="translate(2.38)">
          <rect id="Rectángulo_40362" data-name="Rectángulo 40362" width="32.4" height="21.627" rx="2.231" transform="translate(4.073)" fill="#0d1116"/>
          <path id="Trazado_116718" data-name="Trazado 116718" d="M-1352.134-5119.138a.862.862,0,0,1-.878.847h-29.709a.862.862,0,0,1-.878-.847v-18.557a.862.862,0,0,1,.878-.847h29.709a.862.862,0,0,1,.878.847Z" transform="translate(1388.14 5139.166)" fill="#23272e"/>
          <rect id="Rectángulo_40363" data-name="Rectángulo 40363" width="29.523" height="18.842" transform="translate(5.512 1.392)" fill="#b8dcfb"/>
          <path id="Trazado_116719" data-name="Trazado 116719" d="M-1390.271-5086.684l-4.541,5.4h41.033l-5.027-5.4Z" transform="translate(1394.811 5108.312)" fill="#23272e"/>
          <path id="Trazado_116720" data-name="Trazado 116720" d="M-1384.391-5085.427l-2.2,2.808h34.452l-2.425-2.808Z" transform="translate(1389.918 5107.563)" fill="#373e48"/>
          <path id="Trazado_116721" data-name="Trazado 116721" d="M-1355.026-5077.006l-.6.763h9.371l-.66-.763Z" transform="translate(1371.494 5102.551)" fill="#373e48"/>
          <rect id="Rectángulo_40364" data-name="Rectángulo 40364" width="41.033" height="1.279" transform="translate(0 27.029)" fill="#05090d"/>
        </g>
      </g>
      <g id="Grupo_110894" data-name="Grupo 110894" transform="translate(237.909 232.018)">
        <path id="Trazado_116722" data-name="Trazado 116722" d="M-1456.082-4836.991c0,2.387-10.143,4.323-22.654,4.323s-22.653-1.937-22.653-4.323,10.142-4.324,22.653-4.324S-1456.082-4839.38-1456.082-4836.991Z" transform="translate(1501.389 4863.3)" fill="#d9d9d9" style="mix-blend-mode: multiply;isolation: isolate"/>
        <g id="Grupo_110893" data-name="Grupo 110893" transform="translate(2.38)">
          <rect id="Rectángulo_40365" data-name="Rectángulo 40365" width="32.4" height="21.627" rx="2.231" transform="translate(4.073)" fill="#0d1116"/>
          <path id="Trazado_116723" data-name="Trazado 116723" d="M-1452.836-4874.654a.863.863,0,0,1-.877.847h-29.709a.863.863,0,0,1-.878-.847v-18.558a.862.862,0,0,1,.878-.846h29.709a.862.862,0,0,1,.877.846Z" transform="translate(1488.842 4894.683)" fill="#23272e"/>
          <rect id="Rectángulo_40366" data-name="Rectángulo 40366" width="29.523" height="18.842" transform="translate(5.512 1.392)" fill="#b8dcfb"/>
          <path id="Trazado_116724" data-name="Trazado 116724" d="M-1490.972-4842.2l-4.541,5.4h41.033l-5.028-5.4Z" transform="translate(1495.513 4863.828)" fill="#23272e"/>
          <path id="Trazado_116725" data-name="Trazado 116725" d="M-1485.093-4840.944l-2.2,2.806h34.452l-2.424-2.806Z" transform="translate(1490.62 4863.081)" fill="#373e48"/>
          <path id="Trazado_116726" data-name="Trazado 116726" d="M-1455.729-4832.523l-.6.762h9.371l-.66-.762Z" transform="translate(1472.197 4858.068)" fill="#373e48"/>
          <rect id="Rectángulo_40367" data-name="Rectángulo 40367" width="41.033" height="1.279" transform="translate(0 27.029)" fill="#05090d"/>
        </g>
      </g>
      <g id="Grupo_110896" data-name="Grupo 110896" transform="translate(139.347 272.802)">
        <path id="Trazado_116727" data-name="Trazado 116727" d="M-1699.447-4736.29c0,2.389-10.143,4.325-22.654,4.325s-22.653-1.936-22.653-4.325,10.143-4.323,22.653-4.323S-1699.447-4738.676-1699.447-4736.29Z" transform="translate(1744.753 4762.598)" fill="#d9d9d9" style="mix-blend-mode: multiply;isolation: isolate"/>
        <g id="Grupo_110895" data-name="Grupo 110895" transform="translate(2.38)">
          <rect id="Rectángulo_40368" data-name="Rectángulo 40368" width="32.4" height="21.627" rx="2.231" transform="translate(4.073)" fill="#0d1116"/>
          <path id="Trazado_116728" data-name="Trazado 116728" d="M-1696.2-4773.953a.862.862,0,0,1-.877.847h-29.709a.863.863,0,0,1-.878-.847v-18.557a.863.863,0,0,1,.878-.848h29.709a.862.862,0,0,1,.877.848Z" transform="translate(1732.206 4793.982)" fill="#23272e"/>
          <rect id="Rectángulo_40369" data-name="Rectángulo 40369" width="29.523" height="18.842" transform="translate(5.512 1.392)" fill="#b8dcfb"/>
          <path id="Trazado_116729" data-name="Trazado 116729" d="M-1734.336-4741.5l-4.541,5.4h41.033l-5.028-5.4Z" transform="translate(1738.877 4763.127)" fill="#23272e"/>
          <path id="Trazado_116730" data-name="Trazado 116730" d="M-1728.457-4740.243l-2.2,2.807h34.452l-2.425-2.807Z" transform="translate(1733.984 4762.379)" fill="#373e48"/>
          <path id="Trazado_116731" data-name="Trazado 116731" d="M-1699.093-4731.822l-.6.765h9.372l-.66-.765Z" transform="translate(1715.561 4757.368)" fill="#373e48"/>
          <rect id="Rectángulo_40370" data-name="Rectángulo 40370" width="41.033" height="1.279" transform="translate(0 27.029)" fill="#05090d"/>
        </g>
      </g>
      <g id="Grupo_110898" data-name="Grupo 110898" transform="translate(41.238 231.338)">
        <path id="Trazado_116732" data-name="Trazado 116732" d="M-1941.691-4838.668c0,2.387-10.143,4.322-22.655,4.322s-22.653-1.935-22.653-4.322,10.143-4.326,22.653-4.326S-1941.691-4841.058-1941.691-4838.668Z" transform="translate(1986.998 4864.979)" fill="#d9d9d9" style="mix-blend-mode: multiply;isolation: isolate"/>
        <g id="Grupo_110897" data-name="Grupo 110897" transform="translate(2.38)">
          <rect id="Rectángulo_40371" data-name="Rectángulo 40371" width="32.4" height="21.627" rx="2.231" transform="translate(4.073)" fill="#0d1116"/>
          <path id="Trazado_116733" data-name="Trazado 116733" d="M-1938.445-4876.333a.861.861,0,0,1-.878.846h-29.708a.861.861,0,0,1-.878-.846v-18.557a.862.862,0,0,1,.878-.848h29.708a.862.862,0,0,1,.878.848Z" transform="translate(1974.451 4896.362)" fill="#23272e"/>
          <rect id="Rectángulo_40372" data-name="Rectángulo 40372" width="29.523" height="18.842" transform="translate(5.512 1.392)" fill="#b8dcfb"/>
          <path id="Trazado_116734" data-name="Trazado 116734" d="M-1976.581-4843.879l-4.541,5.4h41.033l-5.027-5.4Z" transform="translate(1981.122 4865.507)" fill="#23272e"/>
          <path id="Trazado_116735" data-name="Trazado 116735" d="M-1970.7-4842.623l-2.2,2.807h34.453l-2.425-2.807Z" transform="translate(1976.229 4864.759)" fill="#373e48"/>
          <path id="Trazado_116736" data-name="Trazado 116736" d="M-1941.337-4834.2l-.6.765h9.372l-.659-.765Z" transform="translate(1957.806 4859.748)" fill="#373e48"/>
          <rect id="Rectángulo_40373" data-name="Rectángulo 40373" width="41.033" height="1.279" transform="translate(0 27.029)" fill="#05090d"/>
        </g>
      </g>
      <g id="Grupo_110900" data-name="Grupo 110900" transform="translate(0 133.456)">
        <path id="Trazado_116737" data-name="Trazado 116737" d="M-2043.513-5080.356c0,2.39-10.142,4.325-22.654,4.325s-22.652-1.936-22.652-4.325,10.143-4.324,22.652-4.324S-2043.513-5082.746-2043.513-5080.356Z" transform="translate(2088.819 5106.666)" fill="#d9d9d9" style="mix-blend-mode: multiply;isolation: isolate"/>
        <g id="Grupo_110899" data-name="Grupo 110899" transform="translate(2.38)">
          <rect id="Rectángulo_40374" data-name="Rectángulo 40374" width="32.4" height="21.627" rx="2.231" transform="translate(4.073)" fill="#0d1116"/>
          <path id="Trazado_116738" data-name="Trazado 116738" d="M-2040.266-5118.017a.863.863,0,0,1-.878.846h-29.709a.864.864,0,0,1-.878-.846v-18.559a.863.863,0,0,1,.878-.845h29.709a.862.862,0,0,1,.878.845Z" transform="translate(2076.273 5138.046)" fill="#23272e"/>
          <rect id="Rectángulo_40375" data-name="Rectángulo 40375" width="29.523" height="18.842" transform="translate(5.512 1.392)" fill="#b8dcfb"/>
          <path id="Trazado_116739" data-name="Trazado 116739" d="M-2078.4-5085.564l-4.541,5.4h41.033l-5.028-5.4Z" transform="translate(2082.944 5107.192)" fill="#23272e"/>
          <path id="Trazado_116740" data-name="Trazado 116740" d="M-2072.523-5084.307l-2.2,2.806h34.452l-2.425-2.806Z" transform="translate(2078.05 5106.444)" fill="#373e48"/>
          <path id="Trazado_116741" data-name="Trazado 116741" d="M-2043.158-5075.888l-.6.764h9.372l-.66-.764Z" transform="translate(2059.627 5101.433)" fill="#373e48"/>
          <rect id="Rectángulo_40376" data-name="Rectángulo 40376" width="41.033" height="1.279" transform="translate(0 27.029)" fill="#05090d"/>
        </g>
      </g>
    </g>
  </g>
</svg>
