<svg xmlns="http://www.w3.org/2000/svg" width="820" height="565.393" viewBox="0 0 820 565.393">
  <g id="Grupo_128604" data-name="Grupo 128604" transform="translate(-316 -6212)">
    <g id="Grupo_128603" data-name="Grupo 128603" transform="translate(-74 -16)">
      <g id="Grupo_128447" data-name="Grupo 128447" transform="translate(55.666 86)">
        <g id="Grupo_128440" data-name="Grupo 128440" transform="translate(547.234 6146.852)">
          <path id="Trazado_116940" data-name="Trazado 116940" d="M1417.378,216.528H1125.271a27.411,27.411,0,1,0,0,54.822h264.7Z" transform="translate(-1096.121 -212.145)" fill="#ebf1f8"/>
        </g>
        <g id="Grupo_128441" data-name="Grupo 128441" transform="translate(513.202 6229.743)">
          <path id="Trazado_116941" data-name="Trazado 116941" d="M1398.04,248.195H1111.605a27.411,27.411,0,1,0,0,54.822h259.023Z" transform="translate(-1084.194 -243.812)" fill="#ebf1f8"/>
        </g>
        <g id="Grupo_128442" data-name="Grupo 128442" transform="translate(477.428 6312.631)">
          <path id="Trazado_116942" data-name="Trazado 116942" d="M1378.7,279.862H1097.938a27.41,27.41,0,1,0,0,54.82h253.353Z" transform="translate(-1070.527 -275.477)" fill="#ebf1f8"/>
        </g>
        <g id="Grupo_128443" data-name="Grupo 128443" transform="translate(441.653 6395.521)">
          <path id="Trazado_116944" data-name="Trazado 116944" d="M1359.363,311.528H1084.271a27.411,27.411,0,1,0,0,54.822h247.681Z" transform="translate(-1056.86 -307.145)" fill="#ebf1f8"/>
        </g>
        <g id="Grupo_128444" data-name="Grupo 128444" transform="translate(405.882 6478.411)">
          <path id="Trazado_116943" data-name="Trazado 116943" d="M1340.025,343.195h-269.42a27.411,27.411,0,1,0,0,54.822h242.009Z" transform="translate(-1043.194 -338.812)" fill="#ebf1f8"/>
        </g>
        <g id="Grupo_128445" data-name="Grupo 128445" transform="translate(370.108 6561.299)">
          <path id="Trazado_116945" data-name="Trazado 116945" d="M1320.689,374.862h-263.75a27.41,27.41,0,1,0,0,54.82h236.339Z" transform="translate(-1029.527 -370.477)" fill="#ebf1f8"/>
        </g>
        <g id="Grupo_128446" data-name="Grupo 128446" transform="translate(334.334 6644.188)">
          <path id="Trazado_116946" data-name="Trazado 116946" d="M1301.349,406.528H1043.271a27.411,27.411,0,1,0,0,54.822h230.667Z" transform="translate(-1015.86 -402.145)" fill="#ebf1f8"/>
        </g>
        <g id="Grupo_128430" data-name="Grupo 128430" transform="translate(588.941 6142)">
          <g id="Grupo_110994" data-name="Grupo 110994" transform="translate(0 0)">
            <g id="Grupo_110993" data-name="Grupo 110993">
              <path id="Trazado_116926" data-name="Trazado 116926" d="M1227.319,244.958l-34.964,69.928h75.816V244.958Z" transform="translate(-985.474 -163.254)" fill="#b8dcfb"/>
              <path id="Trazado_116927" data-name="Trazado 116927" d="M1211.46,276.673,1176.5,346.6H1293.82V276.673Z" transform="translate(-1011.124 -111.954)" fill="#fff4d8"/>
              <path id="Trazado_116928" data-name="Trazado 116928" d="M1179.746,340.1l-34.963,69.925H1345.12V340.1Z" transform="translate(-1062.424 -9.354)" fill="#084a92"/>
              <path id="Trazado_116929" data-name="Trazado 116929" d="M1195.6,308.387l-34.964,69.928h158.83V308.387Z" transform="translate(-1036.774 -60.655)" fill="#084a92" opacity="0.35" style="isolation: isolate"/>
              <path id="Trazado_116930" data-name="Trazado 116930" d="M1163.89,371.816l-34.964,69.928h241.845V371.816Z" transform="translate(-1088.074 41.945)" fill="#fcce57" opacity="0.35" style="isolation: isolate"/>
              <path id="Trazado_116931" data-name="Trazado 116931" d="M1147.627,403.531l-34.308,68.616h282.7V403.531Z" transform="translate(-1113.319 93.245)" fill="#fcce57"/>
              <path id="Trazado_116932" data-name="Trazado 116932" d="M1208.212,282.361h34.308V213.745Z" transform="translate(-959.824 -213.745)" fill="#b8dcfb" opacity="0.35" style="isolation: isolate"/>
            </g>
          </g>
          <path id="Trazado_116933" data-name="Trazado 116933" d="M1262.171,244.958h-40.852v69.928h75.816Z" transform="translate(-938.623 -163.254)" fill="#96a6b4"/>
          <path id="Trazado_116934" data-name="Trazado 116934" d="M1303.679,276.673h-82.36V346.6h117.322Z" transform="translate(-938.623 -111.954)" fill="#b8b5ae"/>
          <path id="Trazado_116935" data-name="Trazado 116935" d="M1386.693,340.1H1221.319v69.925h200.337Z" transform="translate(-938.623 -9.354)" fill="#0c2a4b"/>
          <path id="Trazado_116936" data-name="Trazado 116936" d="M1345.185,308.387H1221.319v69.928h158.83Z" transform="translate(-938.623 -60.655)" fill="#0c2a4b" opacity="0.35" style="isolation: isolate"/>
          <path id="Trazado_116937" data-name="Trazado 116937" d="M1428.2,371.816h-206.88v69.928h241.844Z" transform="translate(-938.623 41.945)" fill="#b59951" opacity="0.35" style="isolation: isolate"/>
          <path id="Trazado_116938" data-name="Trazado 116938" d="M1469.707,403.531H1221.319v68.616h282.7Z" transform="translate(-938.623 93.245)" fill="#b59951"/>
          <path id="Trazado_116939" data-name="Trazado 116939" d="M1221.319,213.745v68.616h34.308Z" transform="translate(-938.623 -213.745)" fill="#96a6b4" opacity="0.35" style="isolation: isolate"/>
        </g>
        <path id="Trazado_189227" data-name="Trazado 189227" d="M7.438-2.344H3.328L2.547,0H.055L4.289-11.375H6.461L10.719,0H8.227Zm-3.477-1.9H6.8L5.375-8.5Zm15.281.094a5.07,5.07,0,0,1-.887,3.129A2.843,2.843,0,0,1,15.961.156a2.633,2.633,0,0,1-2.07-.891V3.25H11.633v-11.7h2.094l.078.828a2.654,2.654,0,0,1,2.141-.984,2.862,2.862,0,0,1,2.43,1.156,5.207,5.207,0,0,1,.867,3.188Zm-2.258-.164a3.327,3.327,0,0,0-.418-1.82,1.361,1.361,0,0,0-1.215-.641,1.478,1.478,0,0,0-1.461.813V-2.5a1.5,1.5,0,0,0,1.477.836Q16.984-1.664,16.984-4.312ZM23.023,0H20.758V-12h2.266Zm4.242,0H25V-8.453h2.266Zm-2.4-10.641a1.112,1.112,0,0,1,.34-.836,1.277,1.277,0,0,1,.926-.328,1.28,1.28,0,0,1,.922.328,1.105,1.105,0,0,1,.344.836,1.108,1.108,0,0,1-.348.844,1.283,1.283,0,0,1-.918.328,1.283,1.283,0,0,1-.918-.328A1.108,1.108,0,0,1,24.867-10.641Zm7.773,8.977a1.481,1.481,0,0,0,1.016-.344,1.2,1.2,0,0,0,.406-.914H36.18a2.9,2.9,0,0,1-.469,1.574A3.093,3.093,0,0,1,34.449-.238a3.949,3.949,0,0,1-1.77.395A3.67,3.67,0,0,1,29.82-1,4.56,4.56,0,0,1,28.773-4.18v-.148a4.508,4.508,0,0,1,1.039-3.117,3.627,3.627,0,0,1,2.852-1.164,3.555,3.555,0,0,1,2.543.9,3.2,3.2,0,0,1,.973,2.4H34.063a1.539,1.539,0,0,0-.406-1.066,1.358,1.358,0,0,0-1.031-.41,1.361,1.361,0,0,0-1.191.574,3.324,3.324,0,0,0-.4,1.863v.234a3.366,3.366,0,0,0,.4,1.875A1.378,1.378,0,0,0,32.641-1.664ZM42.367,0a2.507,2.507,0,0,1-.227-.758,2.732,2.732,0,0,1-2.133.914,3,3,0,0,1-2.059-.719,2.312,2.312,0,0,1-.816-1.812,2.389,2.389,0,0,1,1-2.062,4.915,4.915,0,0,1,2.879-.727h1.039v-.484a1.393,1.393,0,0,0-.3-.937,1.183,1.183,0,0,0-.949-.352,1.345,1.345,0,0,0-.895.273.929.929,0,0,0-.324.75H37.32a2.268,2.268,0,0,1,.453-1.359,3,3,0,0,1,1.281-.98,4.669,4.669,0,0,1,1.859-.355,3.689,3.689,0,0,1,2.48.785,2.747,2.747,0,0,1,.918,2.207v3.664a4.041,4.041,0,0,0,.336,1.82V0ZM40.5-1.57a1.945,1.945,0,0,0,.922-.223,1.462,1.462,0,0,0,.625-.6V-3.844H41.2q-1.7,0-1.8,1.172l-.008.133a.9.9,0,0,0,.3.7A1.153,1.153,0,0,0,40.5-1.57Zm9.063-.094a1.481,1.481,0,0,0,1.016-.344,1.2,1.2,0,0,0,.406-.914H53.1a2.9,2.9,0,0,1-.469,1.574A3.093,3.093,0,0,1,51.371-.238,3.949,3.949,0,0,1,49.6.156,3.67,3.67,0,0,1,46.742-1,4.56,4.56,0,0,1,45.7-4.18v-.148a4.508,4.508,0,0,1,1.039-3.117,3.627,3.627,0,0,1,2.852-1.164,3.555,3.555,0,0,1,2.543.9A3.2,3.2,0,0,1,53.1-5.3H50.984a1.539,1.539,0,0,0-.406-1.066,1.358,1.358,0,0,0-1.031-.41,1.361,1.361,0,0,0-1.191.574,3.324,3.324,0,0,0-.4,1.863v.234a3.366,3.366,0,0,0,.4,1.875A1.378,1.378,0,0,0,49.563-1.664ZM56.773,0H54.508V-8.453h2.266Zm-2.4-10.641a1.112,1.112,0,0,1,.34-.836,1.277,1.277,0,0,1,.926-.328,1.28,1.28,0,0,1,.922.328,1.105,1.105,0,0,1,.344.836,1.108,1.108,0,0,1-.348.844,1.283,1.283,0,0,1-.918.328,1.283,1.283,0,0,1-.918-.328A1.108,1.108,0,0,1,54.375-10.641ZM58.281-4.3a5.013,5.013,0,0,1,.484-2.242A3.546,3.546,0,0,1,60.16-8.07a4.069,4.069,0,0,1,2.113-.539,3.849,3.849,0,0,1,2.793,1.047,4.2,4.2,0,0,1,1.207,2.844l.016.578A4.418,4.418,0,0,1,65.2-1.02,3.775,3.775,0,0,1,62.289.156a3.793,3.793,0,0,1-2.918-1.172A4.5,4.5,0,0,1,58.281-4.2Zm2.258.164a3.151,3.151,0,0,0,.453,1.84,1.5,1.5,0,0,0,1.3.637,1.5,1.5,0,0,0,1.281-.629A3.448,3.448,0,0,0,64.031-4.3a3.12,3.12,0,0,0-.461-1.828,1.5,1.5,0,0,0-1.3-.648,1.475,1.475,0,0,0-1.281.645A3.506,3.506,0,0,0,60.539-4.141ZM62.719-12H65.18L63.016-9.578H61.18Zm7.039,3.547.07.977a2.951,2.951,0,0,1,2.43-1.133,2.453,2.453,0,0,1,2,.789,3.682,3.682,0,0,1,.672,2.359V0H72.672V-5.406a1.465,1.465,0,0,0-.312-1.043,1.4,1.4,0,0,0-1.039-.324,1.553,1.553,0,0,0-1.43.813V0H67.633V-8.453Z" transform="translate(665.076 6181.64)" fill="#12263f"/>
        <path id="Trazado_189228" data-name="Trazado 189228" d="M3.359-4.008V0H1.016V-11.375H5.453a5.134,5.134,0,0,1,2.254.469A3.454,3.454,0,0,1,9.2-9.574a3.714,3.714,0,0,1,.523,1.965A3.266,3.266,0,0,1,8.582-4.973a4.767,4.767,0,0,1-3.168.965Zm0-1.9H5.453a2.059,2.059,0,0,0,1.418-.437,1.591,1.591,0,0,0,.488-1.25,1.876,1.876,0,0,0-.492-1.352,1.839,1.839,0,0,0-1.359-.531H3.359Zm12.578-.43a6.134,6.134,0,0,0-.812-.062,1.654,1.654,0,0,0-1.68.867V0H11.188V-8.453H13.32l.063,1.008a2.092,2.092,0,0,1,1.883-1.164,2.366,2.366,0,0,1,.7.1ZM20.914.156A4.15,4.15,0,0,1,17.887-.984a4.054,4.054,0,0,1-1.168-3.039v-.219a5.106,5.106,0,0,1,.492-2.277,3.612,3.612,0,0,1,1.395-1.547,3.914,3.914,0,0,1,2.059-.543,3.508,3.508,0,0,1,2.73,1.094,4.444,4.444,0,0,1,1,3.1v.922H19.008a2.1,2.1,0,0,0,.66,1.328,2,2,0,0,0,1.395.5A2.437,2.437,0,0,0,23.1-2.609l1.109,1.242A3.389,3.389,0,0,1,22.836-.246,4.511,4.511,0,0,1,20.914.156Zm-.258-6.937a1.414,1.414,0,0,0-1.09.453,2.341,2.341,0,0,0-.535,1.3h3.141v-.18a1.669,1.669,0,0,0-.406-1.16A1.459,1.459,0,0,0,20.656-6.781ZM30.25-2.336a.727.727,0,0,0-.41-.652,4.659,4.659,0,0,0-1.316-.426q-3.016-.633-3.016-2.562a2.323,2.323,0,0,1,.934-1.879,3.766,3.766,0,0,1,2.441-.754,4.053,4.053,0,0,1,2.574.758,2.388,2.388,0,0,1,.965,1.969H30.164a1.092,1.092,0,0,0-.312-.8A1.322,1.322,0,0,0,28.875-7a1.351,1.351,0,0,0-.883.258.814.814,0,0,0-.312.656.7.7,0,0,0,.355.605,3.657,3.657,0,0,0,1.2.4,9.8,9.8,0,0,1,1.422.379A2.336,2.336,0,0,1,32.445-2.43a2.2,2.2,0,0,1-.992,1.871,4.28,4.28,0,0,1-2.562.715A4.47,4.47,0,0,1,27-.223a3.166,3.166,0,0,1-1.293-1.039,2.414,2.414,0,0,1-.469-1.426h2.141a1.179,1.179,0,0,0,.445.922,1.766,1.766,0,0,0,1.109.32,1.635,1.635,0,0,0,.98-.246A.766.766,0,0,0,30.25-2.336ZM37.789.156A4.15,4.15,0,0,1,34.762-.984a4.054,4.054,0,0,1-1.168-3.039v-.219a5.106,5.106,0,0,1,.492-2.277A3.612,3.612,0,0,1,35.48-8.066a3.914,3.914,0,0,1,2.059-.543,3.508,3.508,0,0,1,2.73,1.094,4.444,4.444,0,0,1,1,3.1v.922H35.883a2.1,2.1,0,0,0,.66,1.328,2,2,0,0,0,1.395.5,2.437,2.437,0,0,0,2.039-.945l1.109,1.242A3.389,3.389,0,0,1,39.711-.246,4.511,4.511,0,0,1,37.789.156Zm-.258-6.937a1.414,1.414,0,0,0-1.09.453,2.341,2.341,0,0,0-.535,1.3h3.141v-.18a1.669,1.669,0,0,0-.406-1.16A1.459,1.459,0,0,0,37.531-6.781Zm7.094-1.672.07.977a2.951,2.951,0,0,1,2.43-1.133,2.453,2.453,0,0,1,2,.789A3.682,3.682,0,0,1,49.8-5.461V0H47.539V-5.406a1.465,1.465,0,0,0-.312-1.043,1.4,1.4,0,0,0-1.039-.324,1.553,1.553,0,0,0-1.43.813V0H42.5V-8.453Zm9.586-2.078v2.078h1.445V-6.8H54.211v4.219a1.007,1.007,0,0,0,.18.672.9.9,0,0,0,.688.2,3.6,3.6,0,0,0,.664-.055V-.047a4.648,4.648,0,0,1-1.367.2,2.156,2.156,0,0,1-2.422-2.4V-6.8H50.719V-8.453h1.234v-2.078ZM61.813,0a2.507,2.507,0,0,1-.227-.758,2.732,2.732,0,0,1-2.133.914,3,3,0,0,1-2.059-.719,2.312,2.312,0,0,1-.816-1.812,2.389,2.389,0,0,1,1-2.062,4.915,4.915,0,0,1,2.879-.727h1.039v-.484a1.393,1.393,0,0,0-.3-.937,1.183,1.183,0,0,0-.949-.352,1.345,1.345,0,0,0-.895.273.929.929,0,0,0-.324.75H56.766a2.268,2.268,0,0,1,.453-1.359,3,3,0,0,1,1.281-.98,4.669,4.669,0,0,1,1.859-.355,3.689,3.689,0,0,1,2.48.785,2.747,2.747,0,0,1,.918,2.207v3.664a4.041,4.041,0,0,0,.336,1.82V0ZM59.945-1.57a1.945,1.945,0,0,0,.922-.223,1.462,1.462,0,0,0,.625-.6V-3.844h-.844q-1.7,0-1.8,1.172l-.008.133a.9.9,0,0,0,.3.7A1.153,1.153,0,0,0,59.945-1.57Zm9.063-.094a1.481,1.481,0,0,0,1.016-.344,1.2,1.2,0,0,0,.406-.914h2.117a2.9,2.9,0,0,1-.469,1.574A3.093,3.093,0,0,1,70.816-.238a3.949,3.949,0,0,1-1.77.395A3.67,3.67,0,0,1,66.188-1,4.56,4.56,0,0,1,65.141-4.18v-.148A4.508,4.508,0,0,1,66.18-7.445a3.627,3.627,0,0,1,2.852-1.164,3.555,3.555,0,0,1,2.543.9,3.2,3.2,0,0,1,.973,2.4H70.43a1.539,1.539,0,0,0-.406-1.066,1.358,1.358,0,0,0-1.031-.41,1.361,1.361,0,0,0-1.191.574,3.324,3.324,0,0,0-.4,1.863v.234a3.366,3.366,0,0,0,.4,1.875A1.378,1.378,0,0,0,69.008-1.664ZM76.219,0H73.953V-8.453h2.266Zm-2.4-10.641a1.112,1.112,0,0,1,.34-.836,1.277,1.277,0,0,1,.926-.328,1.28,1.28,0,0,1,.922.328,1.105,1.105,0,0,1,.344.836A1.108,1.108,0,0,1,76-9.8a1.283,1.283,0,0,1-.918.328,1.283,1.283,0,0,1-.918-.328A1.108,1.108,0,0,1,73.82-10.641ZM77.727-4.3a5.013,5.013,0,0,1,.484-2.242A3.546,3.546,0,0,1,79.605-8.07a4.069,4.069,0,0,1,2.113-.539,3.849,3.849,0,0,1,2.793,1.047,4.2,4.2,0,0,1,1.207,2.844l.016.578A4.418,4.418,0,0,1,84.648-1.02,3.775,3.775,0,0,1,81.734.156a3.793,3.793,0,0,1-2.918-1.172A4.5,4.5,0,0,1,77.727-4.2Zm2.258.164a3.151,3.151,0,0,0,.453,1.84,1.5,1.5,0,0,0,1.3.637,1.5,1.5,0,0,0,1.281-.629A3.448,3.448,0,0,0,83.477-4.3a3.12,3.12,0,0,0-.461-1.828,1.5,1.5,0,0,0-1.3-.648,1.475,1.475,0,0,0-1.281.645A3.506,3.506,0,0,0,79.984-4.141ZM82.164-12h2.461L82.461-9.578H80.625ZM89.2-8.453l.07.977A2.951,2.951,0,0,1,91.7-8.609a2.453,2.453,0,0,1,2,.789,3.682,3.682,0,0,1,.672,2.359V0H92.117V-5.406A1.465,1.465,0,0,0,91.8-6.449a1.4,1.4,0,0,0-1.039-.324,1.553,1.553,0,0,0-1.43.813V0H87.078V-8.453Z" transform="translate(617.256 6263.616)" fill="#12263f"/>
        <path id="Trazado_189229" data-name="Trazado 189229" d="M6.914-2.984A1.2,1.2,0,0,0,6.445-4a6.148,6.148,0,0,0-1.687-.75,11.963,11.963,0,0,1-1.93-.777A3.153,3.153,0,0,1,.891-8.352,2.747,2.747,0,0,1,1.41-10,3.389,3.389,0,0,1,2.9-11.125a5.616,5.616,0,0,1,2.184-.406,5.112,5.112,0,0,1,2.172.441,3.458,3.458,0,0,1,1.48,1.246,3.261,3.261,0,0,1,.527,1.828H6.922A1.534,1.534,0,0,0,6.43-9.23a2.023,2.023,0,0,0-1.383-.434A2.162,2.162,0,0,0,3.711-9.3a1.146,1.146,0,0,0-.477.957,1.1,1.1,0,0,0,.559.93,6.311,6.311,0,0,0,1.645.7A7.106,7.106,0,0,1,8.352-5.219,2.972,2.972,0,0,1,9.266-3,2.737,2.737,0,0,1,8.148-.684a4.891,4.891,0,0,1-3.008.84A5.808,5.808,0,0,1,2.75-.324,3.783,3.783,0,0,1,1.105-1.641,3.371,3.371,0,0,1,.539-3.578H2.891q0,1.883,2.25,1.883a2.189,2.189,0,0,0,1.3-.34A1.106,1.106,0,0,0,6.914-2.984ZM14.594.156A4.15,4.15,0,0,1,11.566-.984,4.054,4.054,0,0,1,10.4-4.023v-.219a5.106,5.106,0,0,1,.492-2.277,3.612,3.612,0,0,1,1.395-1.547,3.914,3.914,0,0,1,2.059-.543,3.508,3.508,0,0,1,2.73,1.094,4.444,4.444,0,0,1,1,3.1v.922H12.688a2.1,2.1,0,0,0,.66,1.328,2,2,0,0,0,1.395.5,2.437,2.437,0,0,0,2.039-.945l1.109,1.242A3.389,3.389,0,0,1,16.516-.246,4.511,4.511,0,0,1,14.594.156Zm-.258-6.937a1.414,1.414,0,0,0-1.09.453,2.341,2.341,0,0,0-.535,1.3h3.141v-.18a1.669,1.669,0,0,0-.406-1.16A1.459,1.459,0,0,0,14.336-6.781ZM23.93-2.336a.727.727,0,0,0-.41-.652A4.659,4.659,0,0,0,22.2-3.414q-3.016-.633-3.016-2.562a2.323,2.323,0,0,1,.934-1.879,3.766,3.766,0,0,1,2.441-.754,4.053,4.053,0,0,1,2.574.758A2.388,2.388,0,0,1,26.1-5.883H23.844a1.092,1.092,0,0,0-.312-.8A1.322,1.322,0,0,0,22.555-7a1.351,1.351,0,0,0-.883.258.814.814,0,0,0-.312.656.7.7,0,0,0,.355.605,3.657,3.657,0,0,0,1.2.4,9.8,9.8,0,0,1,1.422.379A2.336,2.336,0,0,1,26.125-2.43a2.2,2.2,0,0,1-.992,1.871A4.28,4.28,0,0,1,22.57.156a4.47,4.47,0,0,1-1.887-.379,3.166,3.166,0,0,1-1.293-1.039,2.414,2.414,0,0,1-.469-1.426h2.141a1.179,1.179,0,0,0,.445.922,1.766,1.766,0,0,0,1.109.32,1.635,1.635,0,0,0,.98-.246A.766.766,0,0,0,23.93-2.336ZM29.961,0H27.7V-8.453h2.266Zm-2.4-10.641a1.112,1.112,0,0,1,.34-.836,1.277,1.277,0,0,1,.926-.328,1.28,1.28,0,0,1,.922.328,1.105,1.105,0,0,1,.344.836,1.108,1.108,0,0,1-.348.844,1.283,1.283,0,0,1-.918.328A1.283,1.283,0,0,1,27.91-9.8,1.108,1.108,0,0,1,27.563-10.641ZM31.469-4.3a5.013,5.013,0,0,1,.484-2.242A3.546,3.546,0,0,1,33.348-8.07a4.069,4.069,0,0,1,2.113-.539,3.849,3.849,0,0,1,2.793,1.047,4.2,4.2,0,0,1,1.207,2.844l.016.578A4.418,4.418,0,0,1,38.391-1.02,3.775,3.775,0,0,1,35.477.156a3.793,3.793,0,0,1-2.918-1.172A4.5,4.5,0,0,1,31.469-4.2Zm2.258.164A3.151,3.151,0,0,0,34.18-2.3a1.5,1.5,0,0,0,1.3.637,1.5,1.5,0,0,0,1.281-.629A3.448,3.448,0,0,0,37.219-4.3a3.12,3.12,0,0,0-.461-1.828,1.5,1.5,0,0,0-1.3-.648,1.475,1.475,0,0,0-1.281.645A3.506,3.506,0,0,0,33.727-4.141ZM35.906-12h2.461L36.2-9.578H34.367Zm7.039,3.547.07.977a2.951,2.951,0,0,1,2.43-1.133,2.453,2.453,0,0,1,2,.789,3.682,3.682,0,0,1,.672,2.359V0H45.859V-5.406a1.465,1.465,0,0,0-.312-1.043,1.4,1.4,0,0,0-1.039-.324,1.553,1.553,0,0,0-1.43.813V0H40.82V-8.453Z" transform="translate(584.238 6351.286)" fill="#12263f"/>
        <path id="Trazado_189230" data-name="Trazado 189230" d="M9.578-9.477H6.094V0H3.75V-9.477H.313v-1.9H9.578Zm5.43,3.141A6.134,6.134,0,0,0,14.2-6.4a1.654,1.654,0,0,0-1.68.867V0H10.258V-8.453h2.133l.063,1.008a2.092,2.092,0,0,1,1.883-1.164,2.366,2.366,0,0,1,.7.1ZM20.758,0a2.507,2.507,0,0,1-.227-.758A2.732,2.732,0,0,1,18.4.156,3,3,0,0,1,16.34-.562a2.312,2.312,0,0,1-.816-1.812,2.389,2.389,0,0,1,1-2.062A4.915,4.915,0,0,1,19.4-5.164h1.039v-.484a1.393,1.393,0,0,0-.3-.937,1.183,1.183,0,0,0-.949-.352,1.345,1.345,0,0,0-.895.273.929.929,0,0,0-.324.75H15.711a2.268,2.268,0,0,1,.453-1.359,3,3,0,0,1,1.281-.98A4.669,4.669,0,0,1,19.3-8.609a3.689,3.689,0,0,1,2.48.785A2.747,2.747,0,0,1,22.7-5.617v3.664a4.041,4.041,0,0,0,.336,1.82V0ZM18.891-1.57a1.945,1.945,0,0,0,.922-.223,1.462,1.462,0,0,0,.625-.6V-3.844h-.844q-1.7,0-1.8,1.172l-.008.133a.9.9,0,0,0,.3.7A1.153,1.153,0,0,0,18.891-1.57Zm10.125-.766a.727.727,0,0,0-.41-.652,4.659,4.659,0,0,0-1.316-.426q-3.016-.633-3.016-2.562a2.323,2.323,0,0,1,.934-1.879,3.766,3.766,0,0,1,2.441-.754,4.053,4.053,0,0,1,2.574.758,2.388,2.388,0,0,1,.965,1.969H28.93a1.092,1.092,0,0,0-.312-.8A1.322,1.322,0,0,0,27.641-7a1.351,1.351,0,0,0-.883.258.814.814,0,0,0-.312.656.7.7,0,0,0,.355.605,3.657,3.657,0,0,0,1.2.4,9.8,9.8,0,0,1,1.422.379A2.336,2.336,0,0,1,31.211-2.43a2.2,2.2,0,0,1-.992,1.871,4.28,4.28,0,0,1-2.562.715A4.47,4.47,0,0,1,25.77-.223a3.166,3.166,0,0,1-1.293-1.039,2.414,2.414,0,0,1-.469-1.426h2.141a1.179,1.179,0,0,0,.445.922,1.766,1.766,0,0,0,1.109.32,1.635,1.635,0,0,0,.98-.246A.766.766,0,0,0,29.016-2.336ZM40.273-4.148a5.07,5.07,0,0,1-.887,3.129A2.843,2.843,0,0,1,36.992.156a2.633,2.633,0,0,1-2.07-.891V3.25H32.664v-11.7h2.094l.078.828a2.654,2.654,0,0,1,2.141-.984,2.862,2.862,0,0,1,2.43,1.156,5.207,5.207,0,0,1,.867,3.188Zm-2.258-.164a3.327,3.327,0,0,0-.418-1.82,1.361,1.361,0,0,0-1.215-.641,1.478,1.478,0,0,0-1.461.813V-2.5a1.5,1.5,0,0,0,1.477.836Q38.016-1.664,38.016-4.312Zm3.3.008A5.013,5.013,0,0,1,41.8-6.547,3.546,3.546,0,0,1,43.2-8.07a4.069,4.069,0,0,1,2.113-.539,3.849,3.849,0,0,1,2.793,1.047,4.2,4.2,0,0,1,1.207,2.844l.016.578A4.418,4.418,0,0,1,48.242-1.02,3.775,3.775,0,0,1,45.328.156,3.793,3.793,0,0,1,42.41-1.016,4.5,4.5,0,0,1,41.32-4.2Zm2.258.164a3.151,3.151,0,0,0,.453,1.84,1.5,1.5,0,0,0,1.3.637,1.5,1.5,0,0,0,1.281-.629A3.448,3.448,0,0,0,47.07-4.3a3.12,3.12,0,0,0-.461-1.828,1.5,1.5,0,0,0-1.3-.648,1.475,1.475,0,0,0-1.281.645A3.506,3.506,0,0,0,43.578-4.141Zm11.891-2.2a6.134,6.134,0,0,0-.812-.062,1.654,1.654,0,0,0-1.68.867V0H50.719V-8.453h2.133l.063,1.008A2.092,2.092,0,0,1,54.8-8.609a2.366,2.366,0,0,1,.7.1Zm4.18-4.2v2.078h1.445V-6.8H59.648v4.219a1.007,1.007,0,0,0,.18.672.9.9,0,0,0,.688.2,3.6,3.6,0,0,0,.664-.055V-.047a4.648,4.648,0,0,1-1.367.2,2.156,2.156,0,0,1-2.422-2.4V-6.8H56.156V-8.453h1.234v-2.078ZM66.242.156A4.15,4.15,0,0,1,63.215-.984a4.054,4.054,0,0,1-1.168-3.039v-.219a5.106,5.106,0,0,1,.492-2.277,3.612,3.612,0,0,1,1.395-1.547,3.914,3.914,0,0,1,2.059-.543,3.508,3.508,0,0,1,2.73,1.094,4.444,4.444,0,0,1,1,3.1v.922H64.336A2.1,2.1,0,0,0,65-2.164a2,2,0,0,0,1.395.5,2.437,2.437,0,0,0,2.039-.945l1.109,1.242A3.389,3.389,0,0,1,68.164-.246,4.511,4.511,0,0,1,66.242.156Zm-.258-6.937a1.414,1.414,0,0,0-1.09.453,2.341,2.341,0,0,0-.535,1.3H67.5v-.18a1.669,1.669,0,0,0-.406-1.16A1.459,1.459,0,0,0,65.984-6.781Z" transform="translate(538.695 6432.124)" fill="#12263f"/>
        <path id="Trazado_189231" data-name="Trazado 189231" d="M5.227-4.164H3.359V0H1.016V-11.375H5.242a4.778,4.778,0,0,1,3.109.9A3.1,3.1,0,0,1,9.445-7.937,3.5,3.5,0,0,1,8.941-6,3.437,3.437,0,0,1,7.414-4.758L9.875-.109V0H7.359Zm-1.867-1.9H5.25a1.936,1.936,0,0,0,1.367-.449A1.606,1.606,0,0,0,7.1-7.75a1.719,1.719,0,0,0-.457-1.266,1.9,1.9,0,0,0-1.4-.461H3.359ZM14.969.156A4.15,4.15,0,0,1,11.941-.984a4.054,4.054,0,0,1-1.168-3.039v-.219a5.106,5.106,0,0,1,.492-2.277A3.612,3.612,0,0,1,12.66-8.066a3.914,3.914,0,0,1,2.059-.543,3.508,3.508,0,0,1,2.73,1.094,4.444,4.444,0,0,1,1,3.1v.922H13.063a2.1,2.1,0,0,0,.66,1.328,2,2,0,0,0,1.395.5,2.437,2.437,0,0,0,2.039-.945l1.109,1.242A3.389,3.389,0,0,1,16.891-.246,4.511,4.511,0,0,1,14.969.156Zm-.258-6.937a1.414,1.414,0,0,0-1.09.453,2.341,2.341,0,0,0-.535,1.3h3.141v-.18a1.669,1.669,0,0,0-.406-1.16A1.459,1.459,0,0,0,14.711-6.781Zm4.664,2.492a5.094,5.094,0,0,1,.887-3.148,2.877,2.877,0,0,1,2.426-1.172,2.589,2.589,0,0,1,2.039.922V-12h2.266V0H24.953l-.109-.9A2.657,2.657,0,0,1,22.672.156,2.869,2.869,0,0,1,20.277-1.02,5.258,5.258,0,0,1,19.375-4.289Zm2.258.164a3.328,3.328,0,0,0,.414,1.82,1.349,1.349,0,0,0,1.2.633,1.511,1.511,0,0,0,1.477-.883V-5.891a1.489,1.489,0,0,0-1.461-.883Q21.633-6.773,21.633-4.125Z" transform="translate(502.261 6515.961)" fill="#12263f"/>
        <path id="Trazado_189232" data-name="Trazado 189232" d="M7.859-4.93h-4.5v3.047H8.641V0H1.016V-11.375H8.625v1.9H3.359v2.711h4.5Zm4.086-3.523.07.977a2.951,2.951,0,0,1,2.43-1.133,2.453,2.453,0,0,1,2,.789,3.682,3.682,0,0,1,.672,2.359V0H14.859V-5.406a1.465,1.465,0,0,0-.312-1.043,1.4,1.4,0,0,0-1.039-.324,1.553,1.553,0,0,0-1.43.813V0H9.82V-8.453ZM21.211,0H18.945V-12h2.266Zm6.758,0a2.507,2.507,0,0,1-.227-.758,2.732,2.732,0,0,1-2.133.914,3,3,0,0,1-2.059-.719,2.312,2.312,0,0,1-.816-1.812,2.389,2.389,0,0,1,1-2.062,4.915,4.915,0,0,1,2.879-.727h1.039v-.484a1.393,1.393,0,0,0-.3-.937,1.183,1.183,0,0,0-.949-.352,1.345,1.345,0,0,0-.895.273.929.929,0,0,0-.324.75H22.922a2.268,2.268,0,0,1,.453-1.359,3,3,0,0,1,1.281-.98,4.669,4.669,0,0,1,1.859-.355A3.689,3.689,0,0,1,29-7.824a2.747,2.747,0,0,1,.918,2.207v3.664a4.041,4.041,0,0,0,.336,1.82V0ZM26.1-1.57a1.945,1.945,0,0,0,.922-.223,1.462,1.462,0,0,0,.625-.6V-3.844H26.8q-1.7,0-1.8,1.172l-.008.133a.9.9,0,0,0,.3.7A1.153,1.153,0,0,0,26.1-1.57Zm9.063-.094a1.481,1.481,0,0,0,1.016-.344,1.2,1.2,0,0,0,.406-.914H38.7a2.9,2.9,0,0,1-.469,1.574A3.093,3.093,0,0,1,36.973-.238,3.949,3.949,0,0,1,35.2.156,3.67,3.67,0,0,1,32.344-1,4.56,4.56,0,0,1,31.3-4.18v-.148a4.508,4.508,0,0,1,1.039-3.117,3.627,3.627,0,0,1,2.852-1.164,3.555,3.555,0,0,1,2.543.9A3.2,3.2,0,0,1,38.7-5.3H36.586a1.539,1.539,0,0,0-.406-1.066,1.358,1.358,0,0,0-1.031-.41,1.361,1.361,0,0,0-1.191.574,3.324,3.324,0,0,0-.4,1.863v.234a3.366,3.366,0,0,0,.4,1.875A1.378,1.378,0,0,0,35.164-1.664ZM43.883.156A4.15,4.15,0,0,1,40.855-.984a4.054,4.054,0,0,1-1.168-3.039v-.219A5.106,5.106,0,0,1,40.18-6.52a3.612,3.612,0,0,1,1.395-1.547,3.914,3.914,0,0,1,2.059-.543,3.508,3.508,0,0,1,2.73,1.094,4.444,4.444,0,0,1,1,3.1v.922H41.977a2.1,2.1,0,0,0,.66,1.328,2,2,0,0,0,1.395.5,2.437,2.437,0,0,0,2.039-.945L47.18-1.367A3.389,3.389,0,0,1,45.8-.246,4.511,4.511,0,0,1,43.883.156Zm-.258-6.937a1.414,1.414,0,0,0-1.09.453A2.341,2.341,0,0,0,42-5.031h3.141v-.18a1.669,1.669,0,0,0-.406-1.16A1.459,1.459,0,0,0,43.625-6.781Z" transform="translate(466.966 6597.8)" fill="#12263f"/>
        <path id="Trazado_189233" data-name="Trazado 189233" d="M7.859-4.648h-4.5V0H1.016V-11.375H8.422v1.9H3.359v2.938h4.5ZM12.07,0H9.813V-8.453H12.07Zm-.664-11.883h2.461L11.7-9.461H9.867Zm7.188,9.547a.727.727,0,0,0-.41-.652,4.659,4.659,0,0,0-1.316-.426q-3.016-.633-3.016-2.562a2.323,2.323,0,0,1,.934-1.879,3.766,3.766,0,0,1,2.441-.754,4.053,4.053,0,0,1,2.574.758,2.388,2.388,0,0,1,.965,1.969H18.508a1.092,1.092,0,0,0-.312-.8A1.322,1.322,0,0,0,17.219-7a1.351,1.351,0,0,0-.883.258.814.814,0,0,0-.312.656.7.7,0,0,0,.355.605,3.657,3.657,0,0,0,1.2.4A9.8,9.8,0,0,1,19-4.7,2.336,2.336,0,0,1,20.789-2.43,2.2,2.2,0,0,1,19.8-.559a4.28,4.28,0,0,1-2.562.715,4.47,4.47,0,0,1-1.887-.379,3.166,3.166,0,0,1-1.293-1.039,2.414,2.414,0,0,1-.469-1.426h2.141a1.179,1.179,0,0,0,.445.922,1.766,1.766,0,0,0,1.109.32,1.635,1.635,0,0,0,.98-.246A.766.766,0,0,0,18.594-2.336ZM24.625,0H22.359V-8.453h2.266Zm-2.4-10.641a1.112,1.112,0,0,1,.34-.836,1.277,1.277,0,0,1,.926-.328,1.28,1.28,0,0,1,.922.328,1.105,1.105,0,0,1,.344.836,1.108,1.108,0,0,1-.348.844,1.283,1.283,0,0,1-.918.328,1.283,1.283,0,0,1-.918-.328A1.108,1.108,0,0,1,22.227-10.641ZM30-1.664a1.481,1.481,0,0,0,1.016-.344,1.2,1.2,0,0,0,.406-.914h2.117a2.9,2.9,0,0,1-.469,1.574A3.093,3.093,0,0,1,31.809-.238a3.949,3.949,0,0,1-1.77.395A3.67,3.67,0,0,1,27.18-1,4.56,4.56,0,0,1,26.133-4.18v-.148a4.508,4.508,0,0,1,1.039-3.117,3.627,3.627,0,0,1,2.852-1.164,3.555,3.555,0,0,1,2.543.9,3.2,3.2,0,0,1,.973,2.4H31.422a1.539,1.539,0,0,0-.406-1.066,1.358,1.358,0,0,0-1.031-.41,1.361,1.361,0,0,0-1.191.574,3.324,3.324,0,0,0-.4,1.863v.234a3.366,3.366,0,0,0,.4,1.875A1.378,1.378,0,0,0,30-1.664ZM39.727,0A2.507,2.507,0,0,1,39.5-.758a2.732,2.732,0,0,1-2.133.914,3,3,0,0,1-2.059-.719,2.312,2.312,0,0,1-.816-1.812,2.389,2.389,0,0,1,1-2.062,4.915,4.915,0,0,1,2.879-.727h1.039v-.484a1.393,1.393,0,0,0-.3-.937,1.183,1.183,0,0,0-.949-.352,1.345,1.345,0,0,0-.895.273.929.929,0,0,0-.324.75H34.68a2.268,2.268,0,0,1,.453-1.359,3,3,0,0,1,1.281-.98,4.669,4.669,0,0,1,1.859-.355,3.689,3.689,0,0,1,2.48.785,2.747,2.747,0,0,1,.918,2.207v3.664a4.041,4.041,0,0,0,.336,1.82V0ZM37.859-1.57a1.945,1.945,0,0,0,.922-.223,1.462,1.462,0,0,0,.625-.6V-3.844h-.844q-1.7,0-1.8,1.172l-.008.133a.9.9,0,0,0,.3.7A1.153,1.153,0,0,0,37.859-1.57Z" transform="translate(418.008 6679.191)" fill="#12263f"/>
      </g>
    </g>
  </g>
</svg>
