<svg xmlns="http://www.w3.org/2000/svg" width="324" height="277.462" viewBox="0 0 324 277.462">
  <g id="Grupo_128101" data-name="Grupo 128101" transform="translate(-1085.021 5436.42)">
    <g id="Grupo_110981" data-name="Grupo 110981" transform="translate(1085.021 -5436.42)">
      <g id="Grupo_110937" data-name="Grupo 110937" transform="translate(255.254 175.425)">
        <path id="Trazado_116816" data-name="Trazado 116816" d="M1715.28-5000.45l7.489,4.669,4.664-7.491,1.2,5.159-4.665,7.489-7.488-4.666Z" transform="translate(-1715.28 5003.271)" fill="#fcce57"/>
      </g>
      <g id="Grupo_110938" data-name="Grupo 110938" transform="translate(65.549 243.775)">
        <path id="Trazado_116817" data-name="Trazado 116817" d="M1259.919-4831.535l-8.667,1.663,1.669,8.665-4.385-2.972-1.666-8.663,8.664-1.666Z" transform="translate(-1246.87 4834.507)" fill="#fcce57"/>
      </g>
      <g id="Grupo_110939" data-name="Grupo 110939" transform="translate(91.793 139.063)">
        <path id="Trazado_116818" data-name="Trazado 116818" d="M1314.279-5079.748l4.8-7.406-7.409-4.8,5.18-1.108,7.4,4.8-4.8,7.4Z" transform="translate(-1311.67 5093.057)" fill="#fcce57"/>
      </g>
      <g id="Grupo_110940" data-name="Grupo 110940" transform="translate(16.372 0)">
        <path id="Trazado_116819" data-name="Trazado 116819" d="M1625.52-5085.691l-.624,3.627a53.672,53.672,0,0,1,42.575,38.781l3.552-.96A57.365,57.365,0,0,0,1625.52-5085.691Z" transform="translate(-1422.619 5227.738)" fill="#fcce57"/>
        <path id="Trazado_116820" data-name="Trazado 116820" d="M1254.948-4829.434l-2.046,3.059a166.481,166.481,0,0,0,92.892,28.111h.561a166.346,166.346,0,0,0,93.482-28.908l-2.072-3.04C1383.257-4793.073,1309.788-4792.759,1254.948-4829.434Z" transform="translate(-1201.282 5075.726)" fill="#fcce57"/>
        <path id="Trazado_116821" data-name="Trazado 116821" d="M1226.649-5037.393l3.63.6A53.483,53.483,0,0,1,1270-5079.9l-.9-3.568A57.161,57.161,0,0,0,1226.649-5037.393Z" transform="translate(-1185.662 5226.416)" fill="#fcce57"/>
        <path id="Trazado_116822" data-name="Trazado 116822" d="M1192.3-5368.724h5.005V-5365h21.194v-3.729h6.3v13.435h27.21v-3.68h-23.531V-5372.4h-9.981v-8.644h9.981v-13.437h23.531v-3.68H1224.8v13.435h-6.3v-1.459h-8.108v-46.554h168.864v46.554h-9.406v1.459h-5v-13.435h-27.21v3.68h23.53v13.437h8.684v8.644h-8.684v13.435h-23.53v3.68h27.21v-13.435h5V-5365h21.194v-3.729h6.3v13.435h27.21v-3.68h-23.53V-5372.4h-9.982v-8.644h9.982v-13.437h23.53v-3.68h-27.21v13.435h-6.3v-1.459h-8.108v-50.232H1206.707v50.232H1197.3v1.459H1192.3v-13.435h-27.21v3.68h23.531v13.437h8.685v8.644h-8.685v13.435h-23.531v3.68h27.21Zm195.063.049h-13.834v-13.834h13.834Zm-186.378-13.834h13.834v13.834h-13.834Z" transform="translate(-1149.031 5436.42)" fill="#fcce57"/>
        <path id="Trazado_116823" data-name="Trazado 116823" d="M1451.1-5111.425v-13.436h23.531v-3.68h-27.211v13.436h-6.3v-1.46h-21.193v1.46h-5v-13.436h-27.21v3.68h23.53v13.436h8.685v8.644h-8.685v13.436h-23.53v3.681h27.21V-5099.1h5v3.729h21.193v-3.729h6.3v13.435h27.211v-3.681H1451.1v-13.436h-9.982v-8.644Zm-13.661,12.374h-13.834v-13.834h13.834Z" transform="translate(-1281.496 5253.232)" fill="#fcce57"/>
        <path id="Trazado_116824" data-name="Trazado 116824" d="M1696.555-4941.251v-13.437h23.53v-3.679h-27.21v13.435h-6.3v-1.46H1665.38v1.46h-5v-13.435h-27.21v3.679h23.531v13.437h8.685v8.644h-8.685v13.436h-23.531v3.681h27.21v-13.437h5v3.73h21.193v-3.73h6.3v13.437h27.21v-3.681h-23.53v-13.436h-9.982v-8.644Zm-13.662,12.373h-13.834v-13.834h13.834Z" transform="translate(-1427.538 5151.978)" fill="#fcce57"/>
        <path id="Trazado_116825" data-name="Trazado 116825" d="M1178.854-4929.2v-3.73h6.3v13.437h27.21v-3.681h-23.53v-13.436h-9.982v-8.644h9.982v-13.437h23.53v-3.679h-27.21v13.436h-6.3v-1.459H1157.66v1.459h-5v-13.436h-27.21v3.679h23.531v13.438h8.684v8.644h-8.684v13.436h-23.531v3.681h27.21v-13.437h5v3.73Zm-17.514-17.513h13.834v13.832H1161.34Z" transform="translate(-1125.445 5154.361)" fill="#fcce57"/>
      </g>
      <g id="Grupo_110942" data-name="Grupo 110942" transform="translate(188.923 28.31)">
        <path id="Trazado_116826" data-name="Trazado 116826" d="M1583.924-5324.574c0,1.708-7.259,3.095-16.213,3.095s-16.213-1.386-16.213-3.095,7.259-3.094,16.213-3.094S1583.924-5326.283,1583.924-5324.574Z" transform="translate(-1551.499 5343.403)" fill="#d9d9d9" style="mix-blend-mode: multiply;isolation: isolate"/>
        <g id="Grupo_110941" data-name="Grupo 110941" transform="translate(1.703)">
          <rect id="Rectángulo_40416" data-name="Rectángulo 40416" width="23.189" height="15.478" rx="1.597" transform="translate(2.915)" fill="#0d1116"/>
          <path id="Trazado_116827" data-name="Trazado 116827" d="M1586.248-5351.529a.617.617,0,0,1-.629.6h-21.263a.616.616,0,0,1-.628-.6v-13.283a.617.617,0,0,1,.628-.6h21.263a.617.617,0,0,1,.629.6Z" transform="translate(-1560.478 5365.863)" fill="#23272e"/>
          <rect id="Rectángulo_40417" data-name="Rectángulo 40417" width="21.13" height="13.485" transform="translate(3.945 0.996)" fill="#b8dcfb"/>
          <path id="Trazado_116828" data-name="Trazado 116828" d="M1558.953-5328.3l-3.25,3.867h29.368l-3.6-3.867Z" transform="translate(-1555.703 5343.779)" fill="#23272e"/>
          <path id="Trazado_116829" data-name="Trazado 116829" d="M1563.161-5327.4l-1.572,2.008h24.658l-1.735-2.008Z" transform="translate(-1559.205 5343.244)" fill="#373e48"/>
          <path id="Trazado_116830" data-name="Trazado 116830" d="M1584.178-5321.375l-.428.545h6.707l-.472-.545Z" transform="translate(-1572.391 5339.658)" fill="#373e48"/>
          <rect id="Rectángulo_40418" data-name="Rectángulo 40418" width="29.368" height="0.915" transform="translate(0 19.345)" fill="#05090d"/>
        </g>
      </g>
      <g id="Grupo_110944" data-name="Grupo 110944" transform="translate(274.87 28.31)">
        <path id="Trazado_116831" data-name="Trazado 116831" d="M1796.14-5324.574c0,1.708-7.259,3.095-16.213,3.095s-16.213-1.386-16.213-3.095,7.259-3.094,16.213-3.094S1796.14-5326.283,1796.14-5324.574Z" transform="translate(-1763.714 5343.403)" fill="#d9d9d9" style="mix-blend-mode: multiply;isolation: isolate"/>
        <g id="Grupo_110943" data-name="Grupo 110943" transform="translate(1.703)">
          <rect id="Rectángulo_40419" data-name="Rectángulo 40419" width="23.189" height="15.478" rx="1.597" transform="translate(2.915)" fill="#0d1116"/>
          <path id="Trazado_116832" data-name="Trazado 116832" d="M1798.464-5351.529a.616.616,0,0,1-.628.6h-21.263a.616.616,0,0,1-.628-.6v-13.283a.617.617,0,0,1,.628-.6h21.263a.617.617,0,0,1,.628.6Z" transform="translate(-1772.694 5365.863)" fill="#23272e"/>
          <rect id="Rectángulo_40420" data-name="Rectángulo 40420" width="21.13" height="13.485" transform="translate(3.945 0.996)" fill="#b8dcfb"/>
          <path id="Trazado_116833" data-name="Trazado 116833" d="M1771.17-5328.3l-3.25,3.867h29.368l-3.6-3.867Z" transform="translate(-1767.92 5343.779)" fill="#23272e"/>
          <path id="Trazado_116834" data-name="Trazado 116834" d="M1775.378-5327.4l-1.572,2.008h24.658l-1.736-2.008Z" transform="translate(-1771.422 5343.244)" fill="#373e48"/>
          <path id="Trazado_116835" data-name="Trazado 116835" d="M1796.394-5321.375l-.428.545h6.708l-.473-.545Z" transform="translate(-1784.608 5339.658)" fill="#373e48"/>
          <rect id="Rectángulo_40421" data-name="Rectángulo 40421" width="29.368" height="0.915" transform="translate(0 19.345)" fill="#05090d"/>
        </g>
      </g>
      <g id="Grupo_110946" data-name="Grupo 110946" transform="translate(274.87 68.365)">
        <path id="Trazado_116836" data-name="Trazado 116836" d="M1796.14-5225.673c0,1.711-7.259,3.1-16.213,3.1s-16.213-1.385-16.213-3.1,7.259-3.094,16.213-3.094S1796.14-5227.38,1796.14-5225.673Z" transform="translate(-1763.714 5244.502)" fill="#d9d9d9" style="mix-blend-mode: multiply;isolation: isolate"/>
        <g id="Grupo_110945" data-name="Grupo 110945" transform="translate(1.703)">
          <rect id="Rectángulo_40422" data-name="Rectángulo 40422" width="23.189" height="15.478" rx="1.597" transform="translate(2.915)" fill="#0d1116"/>
          <path id="Trazado_116837" data-name="Trazado 116837" d="M1798.464-5252.628a.617.617,0,0,1-.628.605h-21.263a.617.617,0,0,1-.628-.605v-13.282a.617.617,0,0,1,.628-.605h21.263a.617.617,0,0,1,.628.605Z" transform="translate(-1772.694 5266.962)" fill="#23272e"/>
          <rect id="Rectángulo_40423" data-name="Rectángulo 40423" width="21.13" height="13.485" transform="translate(3.945 0.996)" fill="#b8dcfb"/>
          <path id="Trazado_116838" data-name="Trazado 116838" d="M1771.17-5229.4l-3.25,3.866h29.368l-3.6-3.866Z" transform="translate(-1767.92 5244.878)" fill="#23272e"/>
          <path id="Trazado_116839" data-name="Trazado 116839" d="M1775.378-5228.5l-1.572,2.009h24.658l-1.736-2.009Z" transform="translate(-1771.422 5244.344)" fill="#373e48"/>
          <path id="Trazado_116840" data-name="Trazado 116840" d="M1796.394-5222.474l-.428.546h6.708l-.473-.546Z" transform="translate(-1784.608 5240.757)" fill="#373e48"/>
          <rect id="Rectángulo_40424" data-name="Rectángulo 40424" width="29.368" height="0.915" transform="translate(0 19.344)" fill="#05090d"/>
        </g>
      </g>
      <g id="Grupo_110948" data-name="Grupo 110948" transform="translate(189.085 68.365)">
        <path id="Trazado_116841" data-name="Trazado 116841" d="M1584.325-5225.673c0,1.711-7.259,3.1-16.213,3.1s-16.213-1.385-16.213-3.1,7.26-3.094,16.213-3.094S1584.325-5227.38,1584.325-5225.673Z" transform="translate(-1551.898 5244.502)" fill="#d9d9d9" style="mix-blend-mode: multiply;isolation: isolate"/>
        <g id="Grupo_110947" data-name="Grupo 110947" transform="translate(1.703)">
          <rect id="Rectángulo_40425" data-name="Rectángulo 40425" width="23.189" height="15.478" rx="1.597" transform="translate(2.915)" fill="#0d1116"/>
          <path id="Trazado_116842" data-name="Trazado 116842" d="M1586.648-5252.628a.617.617,0,0,1-.629.605h-21.263a.617.617,0,0,1-.628-.605v-13.282a.617.617,0,0,1,.628-.605h21.263a.617.617,0,0,1,.629.605Z" transform="translate(-1560.879 5266.962)" fill="#23272e"/>
          <rect id="Rectángulo_40426" data-name="Rectángulo 40426" width="21.13" height="13.485" transform="translate(3.945 0.996)" fill="#b8dcfb"/>
          <path id="Trazado_116843" data-name="Trazado 116843" d="M1559.354-5229.4l-3.25,3.866h29.368l-3.6-3.866Z" transform="translate(-1556.104 5244.878)" fill="#23272e"/>
          <path id="Trazado_116844" data-name="Trazado 116844" d="M1563.561-5228.5l-1.573,2.009h24.658l-1.735-2.009Z" transform="translate(-1559.605 5244.344)" fill="#373e48"/>
          <path id="Trazado_116845" data-name="Trazado 116845" d="M1584.578-5222.474l-.428.546h6.707l-.472-.546Z" transform="translate(-1572.792 5240.757)" fill="#373e48"/>
          <rect id="Rectángulo_40427" data-name="Rectángulo 40427" width="29.368" height="0.915" transform="translate(0 19.344)" fill="#05090d"/>
        </g>
      </g>
      <g id="Grupo_110950" data-name="Grupo 110950" transform="translate(16.703 28.31)">
        <path id="Trazado_116846" data-name="Trazado 116846" d="M1158.689-5324.574c0,1.708-7.259,3.095-16.213,3.095s-16.213-1.386-16.213-3.095,7.259-3.094,16.213-3.094S1158.689-5326.283,1158.689-5324.574Z" transform="translate(-1126.263 5343.403)" fill="#d9d9d9" style="mix-blend-mode: multiply;isolation: isolate"/>
        <g id="Grupo_110949" data-name="Grupo 110949" transform="translate(1.703)">
          <rect id="Rectángulo_40428" data-name="Rectángulo 40428" width="23.189" height="15.478" rx="1.597" transform="translate(2.915)" fill="#0d1116"/>
          <path id="Trazado_116847" data-name="Trazado 116847" d="M1161.013-5351.529a.616.616,0,0,1-.628.6h-21.263a.617.617,0,0,1-.629-.6v-13.283a.617.617,0,0,1,.629-.6h21.263a.617.617,0,0,1,.628.6Z" transform="translate(-1135.243 5365.863)" fill="#23272e"/>
          <rect id="Rectángulo_40429" data-name="Rectángulo 40429" width="21.13" height="13.485" transform="translate(3.945 0.996)" fill="#b8dcfb"/>
          <path id="Trazado_116848" data-name="Trazado 116848" d="M1133.719-5328.3l-3.25,3.867h29.368l-3.6-3.867Z" transform="translate(-1130.469 5343.779)" fill="#23272e"/>
          <path id="Trazado_116849" data-name="Trazado 116849" d="M1137.927-5327.4l-1.573,2.008h24.658l-1.736-2.008Z" transform="translate(-1133.971 5343.244)" fill="#373e48"/>
          <path id="Trazado_116850" data-name="Trazado 116850" d="M1158.943-5321.375l-.428.545h6.707l-.472-.545Z" transform="translate(-1147.157 5339.658)" fill="#373e48"/>
          <rect id="Rectángulo_40430" data-name="Rectángulo 40430" width="29.368" height="0.915" transform="translate(0 19.345)" fill="#05090d"/>
        </g>
      </g>
      <g id="Grupo_110952" data-name="Grupo 110952" transform="translate(102.651 28.31)">
        <path id="Trazado_116851" data-name="Trazado 116851" d="M1370.907-5324.574c0,1.708-7.259,3.095-16.214,3.095s-16.213-1.386-16.213-3.095,7.26-3.094,16.213-3.094S1370.907-5326.283,1370.907-5324.574Z" transform="translate(-1338.48 5343.403)" fill="#d9d9d9" style="mix-blend-mode: multiply;isolation: isolate"/>
        <g id="Grupo_110951" data-name="Grupo 110951" transform="translate(1.703)">
          <rect id="Rectángulo_40431" data-name="Rectángulo 40431" width="23.189" height="15.478" rx="1.597" transform="translate(2.915)" fill="#0d1116"/>
          <path id="Trazado_116852" data-name="Trazado 116852" d="M1373.23-5351.529a.616.616,0,0,1-.628.6h-21.264a.616.616,0,0,1-.628-.6v-13.283a.617.617,0,0,1,.628-.6H1372.6a.617.617,0,0,1,.628.6Z" transform="translate(-1347.46 5365.863)" fill="#23272e"/>
          <rect id="Rectángulo_40432" data-name="Rectángulo 40432" width="21.13" height="13.485" transform="translate(3.945 0.996)" fill="#b8dcfb"/>
          <path id="Trazado_116853" data-name="Trazado 116853" d="M1345.936-5328.3l-3.25,3.867h29.368l-3.6-3.867Z" transform="translate(-1342.686 5343.779)" fill="#23272e"/>
          <path id="Trazado_116854" data-name="Trazado 116854" d="M1350.144-5327.4l-1.573,2.008h24.658l-1.735-2.008Z" transform="translate(-1346.187 5343.244)" fill="#373e48"/>
          <path id="Trazado_116855" data-name="Trazado 116855" d="M1371.16-5321.375l-.428.545h6.708l-.472-.545Z" transform="translate(-1359.373 5339.658)" fill="#373e48"/>
          <rect id="Rectángulo_40433" data-name="Rectángulo 40433" width="29.368" height="0.915" transform="translate(0 19.345)" fill="#05090d"/>
        </g>
      </g>
      <g id="Grupo_110954" data-name="Grupo 110954" transform="translate(102.651 68.365)">
        <path id="Trazado_116856" data-name="Trazado 116856" d="M1370.907-5225.673c0,1.711-7.259,3.1-16.214,3.1s-16.213-1.385-16.213-3.1,7.26-3.094,16.213-3.094S1370.907-5227.38,1370.907-5225.673Z" transform="translate(-1338.48 5244.502)" fill="#d9d9d9" style="mix-blend-mode: multiply;isolation: isolate"/>
        <g id="Grupo_110953" data-name="Grupo 110953" transform="translate(1.703)">
          <rect id="Rectángulo_40434" data-name="Rectángulo 40434" width="23.189" height="15.478" rx="1.597" transform="translate(2.915)" fill="#0d1116"/>
          <path id="Trazado_116857" data-name="Trazado 116857" d="M1373.23-5252.628a.617.617,0,0,1-.628.605h-21.264a.617.617,0,0,1-.628-.605v-13.282a.617.617,0,0,1,.628-.605H1372.6a.617.617,0,0,1,.628.605Z" transform="translate(-1347.46 5266.962)" fill="#23272e"/>
          <rect id="Rectángulo_40435" data-name="Rectángulo 40435" width="21.13" height="13.485" transform="translate(3.945 0.996)" fill="#b8dcfb"/>
          <path id="Trazado_116858" data-name="Trazado 116858" d="M1345.936-5229.4l-3.25,3.866h29.368l-3.6-3.866Z" transform="translate(-1342.686 5244.878)" fill="#23272e"/>
          <path id="Trazado_116859" data-name="Trazado 116859" d="M1350.144-5228.5l-1.573,2.009h24.658l-1.735-2.009Z" transform="translate(-1346.187 5244.344)" fill="#373e48"/>
          <path id="Trazado_116860" data-name="Trazado 116860" d="M1371.16-5222.474l-.428.546h6.708l-.472-.546Z" transform="translate(-1359.373 5240.757)" fill="#373e48"/>
          <rect id="Rectángulo_40436" data-name="Rectángulo 40436" width="29.368" height="0.915" transform="translate(0 19.344)" fill="#05090d"/>
        </g>
      </g>
      <g id="Grupo_110956" data-name="Grupo 110956" transform="translate(16.865 68.365)">
        <path id="Trazado_116861" data-name="Trazado 116861" d="M1159.09-5225.673c0,1.711-7.259,3.1-16.213,3.1s-16.213-1.385-16.213-3.1,7.259-3.094,16.213-3.094S1159.09-5227.38,1159.09-5225.673Z" transform="translate(-1126.664 5244.502)" fill="#d9d9d9" style="mix-blend-mode: multiply;isolation: isolate"/>
        <g id="Grupo_110955" data-name="Grupo 110955" transform="translate(1.703)">
          <rect id="Rectángulo_40437" data-name="Rectángulo 40437" width="23.189" height="15.478" rx="1.597" transform="translate(2.915)" fill="#0d1116"/>
          <path id="Trazado_116862" data-name="Trazado 116862" d="M1161.414-5252.628a.617.617,0,0,1-.628.605h-21.264a.617.617,0,0,1-.628-.605v-13.282a.617.617,0,0,1,.628-.605h21.264a.617.617,0,0,1,.628.605Z" transform="translate(-1135.644 5266.962)" fill="#23272e"/>
          <rect id="Rectángulo_40438" data-name="Rectángulo 40438" width="21.13" height="13.485" transform="translate(3.945 0.996)" fill="#b8dcfb"/>
          <path id="Trazado_116863" data-name="Trazado 116863" d="M1134.119-5229.4l-3.25,3.866h29.368l-3.6-3.866Z" transform="translate(-1130.869 5244.878)" fill="#23272e"/>
          <path id="Trazado_116864" data-name="Trazado 116864" d="M1138.327-5228.5l-1.573,2.009h24.658l-1.735-2.009Z" transform="translate(-1134.371 5244.344)" fill="#373e48"/>
          <path id="Trazado_116865" data-name="Trazado 116865" d="M1159.344-5222.474l-.428.546h6.707l-.472-.546Z" transform="translate(-1147.557 5240.757)" fill="#373e48"/>
          <rect id="Rectángulo_40439" data-name="Rectángulo 40439" width="29.368" height="0.915" transform="translate(0 19.344)" fill="#05090d"/>
        </g>
      </g>
      <g id="Grupo_110958" data-name="Grupo 110958" transform="translate(106.218 116.204)">
        <path id="Trazado_116866" data-name="Trazado 116866" d="M1379.716-5107.552c0,1.709-7.259,3.094-16.213,3.094s-16.213-1.385-16.213-3.094,7.259-3.094,16.213-3.094S1379.716-5109.261,1379.716-5107.552Z" transform="translate(-1347.289 5126.381)" fill="#d9d9d9" style="mix-blend-mode: multiply;isolation: isolate"/>
        <g id="Grupo_110957" data-name="Grupo 110957" transform="translate(1.703)">
          <rect id="Rectángulo_40440" data-name="Rectángulo 40440" width="23.189" height="15.478" rx="1.597" transform="translate(2.915)" fill="#0d1116"/>
          <path id="Trazado_116867" data-name="Trazado 116867" d="M1382.039-5134.506a.617.617,0,0,1-.628.6h-21.263a.617.617,0,0,1-.629-.6v-13.282a.619.619,0,0,1,.629-.607h21.263a.619.619,0,0,1,.628.607Z" transform="translate(-1356.269 5148.842)" fill="#23272e"/>
          <rect id="Rectángulo_40441" data-name="Rectángulo 40441" width="21.13" height="13.485" transform="translate(3.945 0.996)" fill="#b8dcfb"/>
          <path id="Trazado_116868" data-name="Trazado 116868" d="M1354.745-5111.28l-3.25,3.867h29.368l-3.6-3.867Z" transform="translate(-1351.495 5126.758)" fill="#23272e"/>
          <path id="Trazado_116869" data-name="Trazado 116869" d="M1358.952-5110.381l-1.572,2.009h24.658l-1.736-2.009Z" transform="translate(-1354.996 5126.224)" fill="#373e48"/>
          <path id="Trazado_116870" data-name="Trazado 116870" d="M1379.969-5104.353l-.428.545h6.707l-.472-.545Z" transform="translate(-1368.183 5122.636)" fill="#373e48"/>
          <rect id="Rectángulo_40442" data-name="Rectángulo 40442" width="29.368" height="0.915" transform="translate(0 19.344)" fill="#05090d"/>
        </g>
      </g>
      <g id="Grupo_110960" data-name="Grupo 110960" transform="translate(192.166 116.204)">
        <path id="Trazado_116871" data-name="Trazado 116871" d="M1591.932-5107.552c0,1.709-7.259,3.094-16.213,3.094s-16.213-1.385-16.213-3.094,7.259-3.094,16.213-3.094S1591.932-5109.261,1591.932-5107.552Z" transform="translate(-1559.506 5126.381)" fill="#d9d9d9" style="mix-blend-mode: multiply;isolation: isolate"/>
        <g id="Grupo_110959" data-name="Grupo 110959" transform="translate(1.703)">
          <rect id="Rectángulo_40443" data-name="Rectángulo 40443" width="23.189" height="15.478" rx="1.597" transform="translate(2.915)" fill="#0d1116"/>
          <path id="Trazado_116872" data-name="Trazado 116872" d="M1594.256-5134.506a.617.617,0,0,1-.628.6h-21.263a.617.617,0,0,1-.628-.6v-13.282a.618.618,0,0,1,.628-.607h21.263a.618.618,0,0,1,.628.607Z" transform="translate(-1568.486 5148.842)" fill="#23272e"/>
          <rect id="Rectángulo_40444" data-name="Rectángulo 40444" width="21.13" height="13.485" transform="translate(3.945 0.996)" fill="#b8dcfb"/>
          <path id="Trazado_116873" data-name="Trazado 116873" d="M1566.961-5111.28l-3.25,3.867h29.368l-3.6-3.867Z" transform="translate(-1563.711 5126.758)" fill="#23272e"/>
          <path id="Trazado_116874" data-name="Trazado 116874" d="M1571.169-5110.381l-1.573,2.009h24.658l-1.736-2.009Z" transform="translate(-1567.213 5126.224)" fill="#373e48"/>
          <path id="Trazado_116875" data-name="Trazado 116875" d="M1592.186-5104.353l-.428.545h6.707l-.472-.545Z" transform="translate(-1580.4 5122.636)" fill="#373e48"/>
          <rect id="Rectángulo_40445" data-name="Rectángulo 40445" width="29.368" height="0.915" transform="translate(0 19.344)" fill="#05090d"/>
        </g>
      </g>
      <g id="Grupo_110962" data-name="Grupo 110962" transform="translate(192.166 156.258)">
        <path id="Trazado_116876" data-name="Trazado 116876" d="M1591.932-5008.649c0,1.708-7.259,3.1-16.213,3.1s-16.213-1.388-16.213-3.1,7.259-3.1,16.213-3.1S1591.932-5010.36,1591.932-5008.649Z" transform="translate(-1559.506 5027.48)" fill="#d9d9d9" style="mix-blend-mode: multiply;isolation: isolate"/>
        <g id="Grupo_110961" data-name="Grupo 110961" transform="translate(1.703)">
          <rect id="Rectángulo_40446" data-name="Rectángulo 40446" width="23.189" height="15.478" rx="1.597" transform="translate(2.915)" fill="#0d1116"/>
          <path id="Trazado_116877" data-name="Trazado 116877" d="M1594.256-5035.607a.618.618,0,0,1-.628.606h-21.263a.618.618,0,0,1-.628-.606v-13.28a.617.617,0,0,1,.628-.606h21.263a.617.617,0,0,1,.628.606Z" transform="translate(-1568.486 5049.94)" fill="#23272e"/>
          <rect id="Rectángulo_40447" data-name="Rectángulo 40447" width="21.13" height="13.485" transform="translate(3.945 0.996)" fill="#b8dcfb"/>
          <path id="Trazado_116878" data-name="Trazado 116878" d="M1566.961-5012.378l-3.25,3.865h29.368l-3.6-3.865Z" transform="translate(-1563.711 5027.856)" fill="#23272e"/>
          <path id="Trazado_116879" data-name="Trazado 116879" d="M1571.169-5011.479l-1.573,2.009h24.658l-1.736-2.009Z" transform="translate(-1567.213 5027.322)" fill="#373e48"/>
          <path id="Trazado_116880" data-name="Trazado 116880" d="M1592.186-5005.452l-.428.546h6.707l-.472-.546Z" transform="translate(-1580.4 5023.735)" fill="#373e48"/>
          <rect id="Rectángulo_40448" data-name="Rectángulo 40448" width="29.368" height="0.915" transform="translate(0 19.344)" fill="#05090d"/>
        </g>
      </g>
      <g id="Grupo_110964" data-name="Grupo 110964" transform="translate(106.381 156.258)">
        <path id="Trazado_116881" data-name="Trazado 116881" d="M1380.116-5008.649c0,1.708-7.259,3.1-16.213,3.1s-16.213-1.388-16.213-3.1,7.259-3.1,16.213-3.1S1380.116-5010.36,1380.116-5008.649Z" transform="translate(-1347.69 5027.48)" fill="#d9d9d9" style="mix-blend-mode: multiply;isolation: isolate"/>
        <g id="Grupo_110963" data-name="Grupo 110963" transform="translate(1.703)">
          <rect id="Rectángulo_40449" data-name="Rectángulo 40449" width="23.189" height="15.478" rx="1.597" transform="translate(2.915)" fill="#0d1116"/>
          <path id="Trazado_116882" data-name="Trazado 116882" d="M1382.44-5035.607a.617.617,0,0,1-.628.606h-21.263a.617.617,0,0,1-.628-.606v-13.28a.617.617,0,0,1,.628-.606h21.263a.617.617,0,0,1,.628.606Z" transform="translate(-1356.67 5049.94)" fill="#23272e"/>
          <rect id="Rectángulo_40450" data-name="Rectángulo 40450" width="21.13" height="13.485" transform="translate(3.945 0.996)" fill="#b8dcfb"/>
          <path id="Trazado_116883" data-name="Trazado 116883" d="M1355.145-5012.378l-3.25,3.865h29.368l-3.6-3.865Z" transform="translate(-1351.895 5027.856)" fill="#23272e"/>
          <path id="Trazado_116884" data-name="Trazado 116884" d="M1359.353-5011.479l-1.573,2.009h24.658l-1.735-2.009Z" transform="translate(-1355.397 5027.322)" fill="#373e48"/>
          <path id="Trazado_116885" data-name="Trazado 116885" d="M1380.369-5005.452l-.428.546h6.707l-.472-.546Z" transform="translate(-1368.583 5023.735)" fill="#373e48"/>
          <rect id="Rectángulo_40451" data-name="Rectángulo 40451" width="29.368" height="0.915" transform="translate(0 19.344)" fill="#05090d"/>
        </g>
      </g>
      <g id="Grupo_110966" data-name="Grupo 110966" transform="translate(205.626 183.502)">
        <path id="Trazado_116886" data-name="Trazado 116886" d="M1625.167-4941.381c0,1.709-7.259,3.094-16.213,3.094s-16.213-1.385-16.213-3.094,7.259-3.1,16.213-3.1S1625.167-4943.092,1625.167-4941.381Z" transform="translate(-1592.74 4960.212)" fill="#d9d9d9" style="mix-blend-mode: multiply;isolation: isolate"/>
        <g id="Grupo_110965" data-name="Grupo 110965" transform="translate(1.703)">
          <rect id="Rectángulo_40452" data-name="Rectángulo 40452" width="23.189" height="15.478" rx="1.597" transform="translate(2.915)" fill="#0d1116"/>
          <path id="Trazado_116887" data-name="Trazado 116887" d="M1627.49-4968.339a.617.617,0,0,1-.628.606H1605.6a.617.617,0,0,1-.628-.606v-13.282a.617.617,0,0,1,.628-.606h21.263a.617.617,0,0,1,.628.606Z" transform="translate(-1601.72 4982.673)" fill="#23272e"/>
          <rect id="Rectángulo_40453" data-name="Rectángulo 40453" width="21.13" height="13.485" transform="translate(3.945 0.996)" fill="#b8dcfb"/>
          <path id="Trazado_116888" data-name="Trazado 116888" d="M1600.2-4945.109l-3.25,3.866h29.367l-3.6-3.866Z" transform="translate(-1596.946 4960.588)" fill="#23272e"/>
          <path id="Trazado_116889" data-name="Trazado 116889" d="M1604.4-4944.211l-1.573,2.01h24.658l-1.736-2.01Z" transform="translate(-1600.447 4960.054)" fill="#373e48"/>
          <path id="Trazado_116890" data-name="Trazado 116890" d="M1625.42-4938.183l-.428.546h6.707l-.472-.546Z" transform="translate(-1613.633 4956.466)" fill="#373e48"/>
          <rect id="Rectángulo_40454" data-name="Rectángulo 40454" width="29.368" height="0.915" transform="translate(0 19.345)" fill="#05090d"/>
        </g>
      </g>
      <g id="Grupo_110968" data-name="Grupo 110968" transform="translate(291.574 183.502)">
        <path id="Trazado_116891" data-name="Trazado 116891" d="M1837.383-4941.381c0,1.709-7.259,3.094-16.213,3.094s-16.213-1.385-16.213-3.094,7.26-3.1,16.213-3.1S1837.383-4943.092,1837.383-4941.381Z" transform="translate(-1804.957 4960.212)" fill="#d9d9d9" style="mix-blend-mode: multiply;isolation: isolate"/>
        <g id="Grupo_110967" data-name="Grupo 110967" transform="translate(1.703)">
          <rect id="Rectángulo_40455" data-name="Rectángulo 40455" width="23.189" height="15.478" rx="1.597" transform="translate(2.915)" fill="#0d1116"/>
          <path id="Trazado_116892" data-name="Trazado 116892" d="M1839.707-4968.339a.617.617,0,0,1-.629.606h-21.263a.617.617,0,0,1-.628-.606v-13.282a.618.618,0,0,1,.628-.606h21.263a.618.618,0,0,1,.629.606Z" transform="translate(-1813.937 4982.673)" fill="#23272e"/>
          <rect id="Rectángulo_40456" data-name="Rectángulo 40456" width="21.13" height="13.485" transform="translate(3.945 0.996)" fill="#b8dcfb"/>
          <path id="Trazado_116893" data-name="Trazado 116893" d="M1812.412-4945.109l-3.25,3.866h29.368l-3.6-3.866Z" transform="translate(-1809.162 4960.588)" fill="#23272e"/>
          <path id="Trazado_116894" data-name="Trazado 116894" d="M1816.62-4944.211l-1.573,2.01h24.658l-1.736-2.01Z" transform="translate(-1812.664 4960.054)" fill="#373e48"/>
          <path id="Trazado_116895" data-name="Trazado 116895" d="M1837.637-4938.183l-.428.546h6.707l-.472-.546Z" transform="translate(-1825.85 4956.466)" fill="#373e48"/>
          <rect id="Rectángulo_40457" data-name="Rectángulo 40457" width="29.368" height="0.915" transform="translate(0 19.345)" fill="#05090d"/>
        </g>
      </g>
      <g id="Grupo_110970" data-name="Grupo 110970" transform="translate(291.574 223.557)">
        <path id="Trazado_116896" data-name="Trazado 116896" d="M1837.383-4842.481c0,1.71-7.259,3.1-16.213,3.1s-16.213-1.385-16.213-3.1,7.26-3.094,16.213-3.094S1837.383-4844.19,1837.383-4842.481Z" transform="translate(-1804.957 4861.311)" fill="#d9d9d9" style="mix-blend-mode: multiply;isolation: isolate"/>
        <g id="Grupo_110969" data-name="Grupo 110969" transform="translate(1.703)">
          <rect id="Rectángulo_40458" data-name="Rectángulo 40458" width="23.189" height="15.478" rx="1.597" transform="translate(2.915)" fill="#0d1116"/>
          <path id="Trazado_116897" data-name="Trazado 116897" d="M1839.707-4869.438a.617.617,0,0,1-.629.607h-21.263a.617.617,0,0,1-.628-.607v-13.281a.618.618,0,0,1,.628-.606h21.263a.618.618,0,0,1,.629.606Z" transform="translate(-1813.937 4883.771)" fill="#23272e"/>
          <rect id="Rectángulo_40459" data-name="Rectángulo 40459" width="21.13" height="13.485" transform="translate(3.945 0.996)" fill="#b8dcfb"/>
          <path id="Trazado_116898" data-name="Trazado 116898" d="M1812.412-4846.208l-3.25,3.864h29.368l-3.6-3.864Z" transform="translate(-1809.162 4861.687)" fill="#23272e"/>
          <path id="Trazado_116899" data-name="Trazado 116899" d="M1816.62-4845.31l-1.573,2.01h24.658l-1.736-2.01Z" transform="translate(-1812.664 4861.153)" fill="#373e48"/>
          <path id="Trazado_116900" data-name="Trazado 116900" d="M1837.637-4839.282l-.428.546h6.707l-.472-.546Z" transform="translate(-1825.85 4857.565)" fill="#373e48"/>
          <rect id="Rectángulo_40460" data-name="Rectángulo 40460" width="29.368" height="0.915" transform="translate(0 19.345)" fill="#05090d"/>
        </g>
      </g>
      <g id="Grupo_110972" data-name="Grupo 110972" transform="translate(205.788 223.557)">
        <path id="Trazado_116901" data-name="Trazado 116901" d="M1625.566-4842.481c0,1.71-7.259,3.1-16.213,3.1s-16.212-1.385-16.212-3.1,7.259-3.094,16.212-3.094S1625.566-4844.19,1625.566-4842.481Z" transform="translate(-1593.14 4861.311)" fill="#d9d9d9" style="mix-blend-mode: multiply;isolation: isolate"/>
        <g id="Grupo_110971" data-name="Grupo 110971" transform="translate(1.703)">
          <rect id="Rectángulo_40461" data-name="Rectángulo 40461" width="23.189" height="15.478" rx="1.597" transform="translate(2.915)" fill="#0d1116"/>
          <path id="Trazado_116902" data-name="Trazado 116902" d="M1627.89-4869.438a.617.617,0,0,1-.628.607H1606a.618.618,0,0,1-.629-.607v-13.281a.618.618,0,0,1,.629-.606h21.263a.617.617,0,0,1,.628.606Z" transform="translate(-1602.12 4883.771)" fill="#23272e"/>
          <rect id="Rectángulo_40462" data-name="Rectángulo 40462" width="21.13" height="13.485" transform="translate(3.945 0.996)" fill="#b8dcfb"/>
          <path id="Trazado_116903" data-name="Trazado 116903" d="M1600.6-4846.208l-3.25,3.864h29.368l-3.6-3.864Z" transform="translate(-1597.346 4861.687)" fill="#23272e"/>
          <path id="Trazado_116904" data-name="Trazado 116904" d="M1604.8-4845.31l-1.572,2.01h24.658l-1.735-2.01Z" transform="translate(-1600.848 4861.153)" fill="#373e48"/>
          <path id="Trazado_116905" data-name="Trazado 116905" d="M1625.82-4839.282l-.428.546h6.707l-.472-.546Z" transform="translate(-1614.034 4857.565)" fill="#373e48"/>
          <rect id="Rectángulo_40463" data-name="Rectángulo 40463" width="29.368" height="0.915" transform="translate(0 19.345)" fill="#05090d"/>
        </g>
      </g>
      <g id="Grupo_110974" data-name="Grupo 110974" transform="translate(0 183.502)">
        <path id="Trazado_116906" data-name="Trazado 116906" d="M1117.448-4941.381c0,1.709-7.259,3.094-16.214,3.094s-16.213-1.385-16.213-3.094,7.259-3.1,16.213-3.1S1117.448-4943.092,1117.448-4941.381Z" transform="translate(-1085.021 4960.212)" fill="#d9d9d9" style="mix-blend-mode: multiply;isolation: isolate"/>
        <g id="Grupo_110973" data-name="Grupo 110973" transform="translate(1.703)">
          <rect id="Rectángulo_40464" data-name="Rectángulo 40464" width="23.189" height="15.478" rx="1.597" transform="translate(2.915)" fill="#0d1116"/>
          <path id="Trazado_116907" data-name="Trazado 116907" d="M1119.771-4968.339a.617.617,0,0,1-.628.606H1097.88a.617.617,0,0,1-.629-.606v-13.282a.618.618,0,0,1,.629-.606h21.263a.617.617,0,0,1,.628.606Z" transform="translate(-1094.001 4982.673)" fill="#23272e"/>
          <rect id="Rectángulo_40465" data-name="Rectángulo 40465" width="21.13" height="13.485" transform="translate(3.945 0.996)" fill="#b8dcfb"/>
          <path id="Trazado_116908" data-name="Trazado 116908" d="M1092.477-4945.109l-3.25,3.866h29.368l-3.6-3.866Z" transform="translate(-1089.227 4960.588)" fill="#23272e"/>
          <path id="Trazado_116909" data-name="Trazado 116909" d="M1096.684-4944.211l-1.573,2.01h24.658l-1.735-2.01Z" transform="translate(-1092.728 4960.054)" fill="#373e48"/>
          <path id="Trazado_116910" data-name="Trazado 116910" d="M1117.7-4938.183l-.428.546h6.707l-.472-.546Z" transform="translate(-1105.915 4956.466)" fill="#373e48"/>
          <rect id="Rectángulo_40466" data-name="Rectángulo 40466" width="29.368" height="0.915" transform="translate(0 19.345)" fill="#05090d"/>
        </g>
      </g>
      <g id="Grupo_110976" data-name="Grupo 110976" transform="translate(85.948 183.502)">
        <path id="Trazado_116911" data-name="Trazado 116911" d="M1329.665-4941.381c0,1.709-7.259,3.094-16.214,3.094s-16.213-1.385-16.213-3.094,7.259-3.1,16.213-3.1S1329.665-4943.092,1329.665-4941.381Z" transform="translate(-1297.238 4960.212)" fill="#d9d9d9" style="mix-blend-mode: multiply;isolation: isolate"/>
        <g id="Grupo_110975" data-name="Grupo 110975" transform="translate(1.703)">
          <rect id="Rectángulo_40467" data-name="Rectángulo 40467" width="23.189" height="15.478" rx="1.597" transform="translate(2.915)" fill="#0d1116"/>
          <path id="Trazado_116912" data-name="Trazado 116912" d="M1331.988-4968.339a.617.617,0,0,1-.628.606H1310.1a.617.617,0,0,1-.629-.606v-13.282a.618.618,0,0,1,.629-.606h21.263a.617.617,0,0,1,.628.606Z" transform="translate(-1306.218 4982.673)" fill="#23272e"/>
          <rect id="Rectángulo_40468" data-name="Rectángulo 40468" width="21.13" height="13.485" transform="translate(3.945 0.996)" fill="#b8dcfb"/>
          <path id="Trazado_116913" data-name="Trazado 116913" d="M1304.694-4945.109l-3.25,3.866h29.368l-3.6-3.866Z" transform="translate(-1301.443 4960.588)" fill="#23272e"/>
          <path id="Trazado_116914" data-name="Trazado 116914" d="M1308.9-4944.211l-1.573,2.01h24.658l-1.735-2.01Z" transform="translate(-1304.945 4960.054)" fill="#373e48"/>
          <path id="Trazado_116915" data-name="Trazado 116915" d="M1329.918-4938.183l-.428.546h6.707l-.472-.546Z" transform="translate(-1318.131 4956.466)" fill="#373e48"/>
          <rect id="Rectángulo_40469" data-name="Rectángulo 40469" width="29.368" height="0.915" transform="translate(0 19.345)" fill="#05090d"/>
        </g>
      </g>
      <g id="Grupo_110978" data-name="Grupo 110978" transform="translate(85.948 223.557)">
        <path id="Trazado_116916" data-name="Trazado 116916" d="M1329.665-4842.481c0,1.71-7.259,3.1-16.214,3.1s-16.213-1.385-16.213-3.1,7.259-3.094,16.213-3.094S1329.665-4844.19,1329.665-4842.481Z" transform="translate(-1297.238 4861.311)" fill="#d9d9d9" style="mix-blend-mode: multiply;isolation: isolate"/>
        <g id="Grupo_110977" data-name="Grupo 110977" transform="translate(1.703)">
          <rect id="Rectángulo_40470" data-name="Rectángulo 40470" width="23.189" height="15.478" rx="1.597" transform="translate(2.915)" fill="#0d1116"/>
          <path id="Trazado_116917" data-name="Trazado 116917" d="M1331.988-4869.438a.617.617,0,0,1-.628.607H1310.1a.617.617,0,0,1-.629-.607v-13.281a.618.618,0,0,1,.629-.606h21.263a.617.617,0,0,1,.628.606Z" transform="translate(-1306.218 4883.771)" fill="#23272e"/>
          <rect id="Rectángulo_40471" data-name="Rectángulo 40471" width="21.13" height="13.485" transform="translate(3.945 0.996)" fill="#b8dcfb"/>
          <path id="Trazado_116918" data-name="Trazado 116918" d="M1304.694-4846.208l-3.25,3.864h29.368l-3.6-3.864Z" transform="translate(-1301.443 4861.687)" fill="#23272e"/>
          <path id="Trazado_116919" data-name="Trazado 116919" d="M1308.9-4845.31l-1.573,2.01h24.658l-1.735-2.01Z" transform="translate(-1304.945 4861.153)" fill="#373e48"/>
          <path id="Trazado_116920" data-name="Trazado 116920" d="M1329.918-4839.282l-.428.546h6.707l-.472-.546Z" transform="translate(-1318.131 4857.565)" fill="#373e48"/>
          <rect id="Rectángulo_40472" data-name="Rectángulo 40472" width="29.368" height="0.915" transform="translate(0 19.345)" fill="#05090d"/>
        </g>
      </g>
      <g id="Grupo_110980" data-name="Grupo 110980" transform="translate(0.162 223.557)">
        <path id="Trazado_116921" data-name="Trazado 116921" d="M1117.848-4842.481c0,1.71-7.259,3.1-16.213,3.1s-16.213-1.385-16.213-3.1,7.259-3.094,16.213-3.094S1117.848-4844.19,1117.848-4842.481Z" transform="translate(-1085.422 4861.311)" fill="#d9d9d9" style="mix-blend-mode: multiply;isolation: isolate"/>
        <g id="Grupo_110979" data-name="Grupo 110979" transform="translate(1.703)">
          <rect id="Rectángulo_40473" data-name="Rectángulo 40473" width="23.189" height="15.478" rx="1.597" transform="translate(2.915)" fill="#0d1116"/>
          <path id="Trazado_116922" data-name="Trazado 116922" d="M1120.172-4869.438a.617.617,0,0,1-.628.607H1098.28a.617.617,0,0,1-.628-.607v-13.281a.617.617,0,0,1,.628-.606h21.263a.617.617,0,0,1,.628.606Z" transform="translate(-1094.402 4883.771)" fill="#23272e"/>
          <rect id="Rectángulo_40474" data-name="Rectángulo 40474" width="21.13" height="13.485" transform="translate(3.945 0.996)" fill="#b8dcfb"/>
          <path id="Trazado_116923" data-name="Trazado 116923" d="M1092.877-4846.208l-3.25,3.864h29.368l-3.6-3.864Z" transform="translate(-1089.627 4861.687)" fill="#23272e"/>
          <path id="Trazado_116924" data-name="Trazado 116924" d="M1097.085-4845.31l-1.573,2.01h24.658l-1.735-2.01Z" transform="translate(-1093.129 4861.153)" fill="#373e48"/>
          <path id="Trazado_116925" data-name="Trazado 116925" d="M1118.1-4839.282l-.428.546h6.707l-.472-.546Z" transform="translate(-1106.315 4857.565)" fill="#373e48"/>
          <rect id="Rectángulo_40475" data-name="Rectángulo 40475" width="29.368" height="0.915" transform="translate(0 19.345)" fill="#05090d"/>
        </g>
      </g>
    </g>
  </g>
</svg>
