<svg xmlns="http://www.w3.org/2000/svg" width="72.625" height="70.576" viewBox="0 0 72.625 70.576">
  <g id="Grupo_128070" data-name="Grupo 128070" transform="translate(0.25 0.252)">
    <path id="Trazado_116161" data-name="Trazado 116161" d="M-321.677,2397.755c-.112.754-.171,1.332.689,1.731a2.409,2.409,0,0,1,1.153,2.8,2.587,2.587,0,0,1-2.545,1.969,2.6,2.6,0,0,1-2.532-1.989,2.417,2.417,0,0,1,1.179-2.8c.871-.4.753-1,.684-1.72h-5.263c-.25,1.023-.194,1.164.659,1.7a2.6,2.6,0,0,1,1.132,2.837,2.589,2.589,0,0,1-2.483,1.962,2.6,2.6,0,0,1-2.575-1.931,2.6,2.6,0,0,1,1.1-2.851c.909-.592.909-.592.7-1.754h-5.238v-3.985c-.3-.016-.54-.039-.775-.039-2.139,0-4.278-.023-6.416.019a2.443,2.443,0,0,0-1.1.452,6.644,6.644,0,0,0-.672.646,1.443,1.443,0,0,0-.569,1.859,2.475,2.475,0,0,1-1.718,2.875,2.616,2.616,0,0,1-3.169-1.3,2.6,2.6,0,0,1,.826-3.319,2.369,2.369,0,0,1,2.406-.3.624.624,0,0,0,.865-.2c.027-.035.069-.059.094-.1a4.554,4.554,0,0,1,4.65-1.945,45.618,45.618,0,0,0,4.742.033h.765v-6.7c-.206-.017-.4-.047-.591-.047-2.206,0-4.411-.017-6.617.015a2,2,0,0,0-.932.373,5.825,5.825,0,0,0-.622.6,1.632,1.632,0,0,0-.689,2.071c.406,1.095-.586,2.426-1.81,2.813a2.61,2.61,0,0,1-3.1-1.338,2.6,2.6,0,0,1,.85-3.313,2.385,2.385,0,0,1,2.408-.285.578.578,0,0,0,.811-.174.454.454,0,0,1,.048-.046c.67-.651,1.237-1.559,2.04-1.883a8.112,8.112,0,0,1,2.839-.108c1.537-.006,3.074,0,4.612,0h.755v-2.737h-2.152c-1.337,0-2.675-.035-4.01.016a1.462,1.462,0,0,1-1.335-.664c-.986-1.264-2.027-2.485-3.027-3.739a.862.862,0,0,0-1.019-.371,2.573,2.573,0,0,1-2.826-1.414,2.606,2.606,0,0,1,.654-3.149,2.586,2.586,0,0,1,3.215-.126,2.46,2.46,0,0,1,.874,3.072,1.111,1.111,0,0,0,.24,1.455c.913,1.065,1.779,2.17,2.681,3.245a.962.962,0,0,0,.573.381c2.023.028,4.046.017,6.143.017v-3.972h5.377c0-.971-.051-1.876.016-2.773a1.756,1.756,0,0,0-.8-1.675c-1.817-1.4-3.587-2.86-5.391-4.276a1.186,1.186,0,0,1-.519-1.065c.032-1.291,0-2.584.017-3.876a.721.721,0,0,0-.462-.77,2.575,2.575,0,0,1-1.483-2.848,2.672,2.672,0,0,1,2.574-2.133,2.692,2.692,0,0,1,2.575,2.135,2.548,2.548,0,0,1-1.423,2.816.8.8,0,0,0-.523.868c.027,1.113-.022,2.229.029,3.341a1.344,1.344,0,0,0,.431.879q2.758,2.273,5.578,4.471a1.5,1.5,0,0,1,.67,1.4c-.051,1.127-.014,2.259-.014,3.43h5.411v-2.547c0-1.069-.017-2.139.008-3.208a1.11,1.11,0,0,0-.483-1.013c-1.907-1.466-3.784-2.971-5.689-4.439a1.059,1.059,0,0,1-.525-1.054c.03-.219-.02-.448.009-.667a1.432,1.432,0,0,0-.864-1.685,2.4,2.4,0,0,1-1-2.859,2.666,2.666,0,0,1,2.574-1.866,2.687,2.687,0,0,1,2.483,2.079,2.629,2.629,0,0,1-1.171,2.766c-.308.194-.818.2-.754.782.078.713-.191,1.443.615,2.026,1.875,1.357,3.656,2.844,5.5,4.248a1.354,1.354,0,0,1,.588,1.233c-.032,2.046-.013,4.092-.013,6.191h5.374c.012-.229.034-.465.035-.7,0-1.849.025-3.7-.013-5.547a1.294,1.294,0,0,1,.588-1.165c1.889-1.453,3.761-2.928,5.637-4.4a2.686,2.686,0,0,0,.414-2.268,1.242,1.242,0,0,0-.445-.275,2.576,2.576,0,0,1-1.4-2.949A2.665,2.665,0,0,1-308.89,2357a2.735,2.735,0,0,1,2.5,2.307,2.6,2.6,0,0,1-1.387,2.6c-.44.215-.693.454-.591.953.288,1.41-.358,2.278-1.5,3.063-1.647,1.135-3.177,2.442-4.74,3.7a1.087,1.087,0,0,0-.427.68c-.032,1.938-.015,3.876-.009,5.814a.887.887,0,0,0,.071.22h5.328c0-1.208.03-2.383-.013-3.555a1.343,1.343,0,0,1,.611-1.223q2.842-2.222,5.629-4.513a1.344,1.344,0,0,0,.437-.877c.051-1.134,0-2.272.03-3.407a.763.763,0,0,0-.515-.8,2.579,2.579,0,0,1-1.438-2.813,2.677,2.677,0,0,1,2.5-2.144,2.672,2.672,0,0,1,2.614,1.992,2.5,2.5,0,0,1-1.312,2.917.932.932,0,0,0-.593,1.029c.029,1.2-.021,2.407.023,3.608a1.347,1.347,0,0,1-.611,1.224c-1.876,1.469-3.72,2.979-5.6,4.448a1.178,1.178,0,0,0-.5,1.074c.029,1,.009,1.995.009,3.065h5.321v3.972c.258.024.449.056.639.057,1.76,0,3.52.02,5.28-.015a1.261,1.261,0,0,0,.84-.379c1-1.164,1.951-2.374,2.937-3.554a.676.676,0,0,0,.1-.889,2.388,2.388,0,0,1,.275-2.863,2.429,2.429,0,0,1,2.5-.92,2.6,2.6,0,0,1,2.1,2.092,2.624,2.624,0,0,1-3.043,3.051.874.874,0,0,0-1.023.354c-1.039,1.308-2.115,2.586-3.152,3.9a1.207,1.207,0,0,1-1.07.513c-1.849-.026-3.7-.011-5.547-.011h-.761v6.715c.26.011.5.031.734.031,2.116,0,4.233-.012,6.349.011a1.369,1.369,0,0,0,1.177-.472,6.372,6.372,0,0,1,.763-.747,1.1,1.1,0,0,0,.4-1.214,2.6,2.6,0,0,1,2.129-2.87,2.636,2.636,0,0,1,2.981,1.894,2.625,2.625,0,0,1-1.593,3.145,2.343,2.343,0,0,1-2.178-.186c-.388-.24-.669-.2-.91.142a3.976,3.976,0,0,1-3.931,1.6c-1.947-.131-3.91-.031-5.917-.031v2.7c.238.012.473.034.709.034,2.317,0,4.634-.015,6.951.02a1.68,1.68,0,0,1,.978.405c.59.506,1.1,1.111,1.68,1.624a.9.9,0,0,0,.735.154,2.627,2.627,0,0,1,3.482,1.77,2.609,2.609,0,0,1-2,3.243,2.583,2.583,0,0,1-3.03-3.181,1.3,1.3,0,0,0-.373-1.433,3.457,3.457,0,0,0-3.233-1.358c-1.706.126-3.429.03-5.144.03H-303v3.991h-5.229c-.3,1.042-.221,1.238.616,1.762a2.594,2.594,0,0,1,1.151,2.829,2.587,2.587,0,0,1-2.538,1.979,2.6,2.6,0,0,1-2.539-1.979,2.413,2.413,0,0,1,1.167-2.8c.867-.4.774-.988.692-1.723h-5.257c-.267.994-.2,1.164.645,1.7a2.594,2.594,0,0,1,1.144,2.832,2.587,2.587,0,0,1-2.542,1.972,2.6,2.6,0,0,1-2.535-1.985,2.416,2.416,0,0,1,1.174-2.8c.867-.4.763-.991.687-1.721Zm17.335-1.354v-18.7H-333.7v18.7Zm-31.393-35.4a1.334,1.334,0,0,0,1.36-1.333,1.334,1.334,0,0,0-1.366-1.393,1.331,1.331,0,0,0-1.359,1.333A1.335,1.335,0,0,0-335.735,2361Zm6.711,0a1.334,1.334,0,0,0,1.333-1.36,1.335,1.335,0,0,0-1.393-1.366,1.332,1.332,0,0,0-1.332,1.36A1.334,1.334,0,0,0-329.024,2361Zm21.385-1.345a1.333,1.333,0,0,0-1.312-1.381,1.335,1.335,0,0,0-1.414,1.345,1.334,1.334,0,0,0,1.311,1.381A1.338,1.338,0,0,0-307.639,2359.656Zm5.324,1.345a1.334,1.334,0,0,0,1.36-1.333,1.334,1.334,0,0,0-1.366-1.393,1.332,1.332,0,0,0-1.36,1.332A1.335,1.335,0,0,0-302.315,2361Zm11.337,26.068a1.336,1.336,0,0,0,1.386-1.307,1.336,1.336,0,0,0-1.34-1.418,1.333,1.333,0,0,0-1.385,1.306A1.337,1.337,0,0,0-290.978,2387.07Zm-54.76,1.948a1.332,1.332,0,0,0-1.361-1.332,1.334,1.334,0,0,0-1.365,1.393,1.332,1.332,0,0,0,1.36,1.332A1.336,1.336,0,0,0-345.738,2389.018Zm54.766-16.037a1.331,1.331,0,0,0-1.345,1.347,1.334,1.334,0,0,0,1.38,1.379,1.334,1.334,0,0,0,1.346-1.347A1.334,1.334,0,0,0-290.972,2372.981Zm-56.152,25.452a1.336,1.336,0,0,0,1.386-1.307,1.336,1.336,0,0,0-1.34-1.419,1.333,1.333,0,0,0-1.385,1.306A1.336,1.336,0,0,0-347.124,2398.433Zm57.533-1.338a1.334,1.334,0,0,0-1.3-1.388,1.336,1.336,0,0,0-1.421,1.337,1.334,1.334,0,0,0,1.3,1.388A1.338,1.338,0,0,0-289.592,2397.095Zm-58.872-22.806a1.336,1.336,0,0,0,1.341,1.418,1.336,1.336,0,0,0,1.385-1.309,1.336,1.336,0,0,0-1.275-1.416A1.338,1.338,0,0,0-348.463,2374.289Zm20.772,27.339a1.365,1.365,0,0,0-1.371-1.354,1.368,1.368,0,0,0-1.354,1.437,1.343,1.343,0,0,0,1.4,1.308A1.343,1.343,0,0,0-327.691,2401.628Zm6.685.039a1.367,1.367,0,0,0-1.332-1.393,1.369,1.369,0,0,0-1.394,1.4,1.342,1.342,0,0,0,1.365,1.347A1.342,1.342,0,0,0-321.006,2401.667Zm6.684.011a1.368,1.368,0,0,0-1.32-1.4,1.369,1.369,0,0,0-1.406,1.386,1.34,1.34,0,0,0,1.354,1.359A1.344,1.344,0,0,0-314.322,2401.678Zm6.684-.054a1.365,1.365,0,0,0-1.374-1.35,1.367,1.367,0,0,0-1.35,1.44,1.343,1.343,0,0,0,1.407,1.3A1.343,1.343,0,0,0-307.639,2401.625Z" transform="translate(355.09 -2357)" fill="#084a93" stroke="#084a93" stroke-width="0.5"/>
    <path id="Trazado_116162" data-name="Trazado 116162" d="M-356.876,2390.458v1.273h-.787q-6.75,0-13.5,0c-1.284,0-1.732.445-1.732,1.722q0,20.852,0,41.7v.7h69.542c.012-.239.035-.474.035-.71q0-20.852,0-41.7c0-1.268-.454-1.714-1.74-1.714q-6.717,0-13.434,0h-.826v-1.273h.713q6.784,0,13.568,0a2.738,2.738,0,0,1,2.992,2.986q0,23.057,0,46.115a2.733,2.733,0,0,1-3.009,2.969q-11.863,0-23.726,0h-.951c.183.695.33,1.293.5,1.885.4,1.413.844,2.815,1.206,4.237.135.533.393.65.888.636,1.113-.031,2.227-.011,3.341-.009a2.753,2.753,0,0,1,3.038,3.073c0,.262,0,.524,0,.83h-34.585a2.883,2.883,0,0,1,2.933-3.9c1.136,0,2.273-.016,3.408.007a.666.666,0,0,0,.795-.576c.544-2.015,1.139-4.017,1.743-6.124-.36-.022-.633-.054-.907-.054q-11.83,0-23.659,0c-2.074,0-3.137-1.053-3.137-3.111q0-22.924,0-45.848c0-2.059,1.062-3.113,3.134-3.114h14.159Zm-16.014,46.765c0,.978-.025,1.868.008,2.757a1.3,1.3,0,0,0,1.3,1.271c.177.013.356.006.534.006h65.9a4.4,4.4,0,0,0,.667-.019,1.194,1.194,0,0,0,1.124-1.068c.075-.966.02-1.942.02-2.946Zm25.84,12.009h17.825a1.984,1.984,0,0,0-.025-.375c-.555-1.969-1.123-3.935-1.669-5.907-.111-.4-.374-.424-.708-.424q-6.48.008-12.96,0a.641.641,0,0,0-.744.558c-.361,1.354-.768,2.694-1.15,4.042C-346.673,2447.8-346.849,2448.487-347.05,2449.232Zm-7.07,2.673h32.027c-.047-.966-.517-1.352-1.618-1.352q-14.4,0-28.8,0a3.469,3.469,0,0,0-.534.02A1.247,1.247,0,0,0-354.12,2451.9Z" transform="translate(374.169 -2383.108)" fill="#084a93" stroke="#084a93" stroke-width="0.5"/>
    <path id="Trazado_116163" data-name="Trazado 116163" d="M-361.89,2442.755v-39.923h14.557c.058.39.114.775.18,1.218h-13.434v37.438h64.118v-37.4H-309.9l.179-1.275h14.53v39.939Z" transform="translate(364.587 -2392.752)" fill="#084a93" stroke="#084a93" stroke-width="0.5"/>
    <path id="Trazado_116164" data-name="Trazado 116164" d="M-240.521,2390.624h13.405c-.753.551-1.187,1.26-2.164,1.249-2.915-.033-5.831-.065-8.744.015C-239.113,2391.918-239.692,2391.286-240.521,2390.624Z" transform="translate(269.879 -2383.238)" fill="#084a93" stroke="#084a93" stroke-width="0.5"/>
    <path id="Trazado_116165" data-name="Trazado 116165" d="M-224.489,2402.7h6.313l.1.149c-.563.369-1.12,1.039-1.689,1.05C-221.393,2403.927-223.242,2404.537-224.489,2402.7Z" transform="translate(257.369 -2392.659)" fill="#084a93" stroke="#084a93" stroke-width="0.5"/>
    <path id="Trazado_116166" data-name="Trazado 116166" d="M-265.491,2403.875a16.488,16.488,0,0,1-2.968-.047,3.99,3.99,0,0,1-1.6-1.131C-268.459,2402.727-266.713,2402.05-265.491,2403.875Z" transform="translate(292.926 -2392.582)" fill="#084a93" stroke="#084a93" stroke-width="0.5"/>
    <path id="Trazado_116167" data-name="Trazado 116167" d="M-170.939,2403.7c.787-.735,1.466-1.39,2.591-1.232a14.682,14.682,0,0,0,2,.017C-167.16,2403.69-168.228,2403.978-170.939,2403.7Z" transform="translate(215.582 -2392.464)" fill="#084a93" stroke="#084a93" stroke-width="0.5"/>
    <path id="Trazado_116168" data-name="Trazado 116168" d="M-274.077,2390.689l.06,1.177h-2.6v-1.177Z" transform="translate(298.044 -2383.289)" fill="#084a93" stroke="#084a93" stroke-width="0.5"/>
    <path id="Trazado_116169" data-name="Trazado 116169" d="M-152.488,2391.9h-2.554v-1.181h2.554Z" transform="translate(203.177 -2383.313)" fill="#084a93" stroke="#084a93" stroke-width="0.5"/>
    <path id="Trazado_116170" data-name="Trazado 116170" d="M-263.149,2465.013c.021-.4.042-.8.065-1.254h5.208v13.185h-1.208v-3.893h-4.067v3.913H-264.4v-11.888l1.264-.075v6.679h3.973v-6.665Z" transform="translate(288.512 -2440.308)" fill="#084a93" stroke="#084a93" stroke-width="0.5"/>
    <path id="Trazado_116171" data-name="Trazado 116171" d="M-216.565,2464.984l1.255.066v7.911h-5.251v3.969h-1.266v-13.191h5.2c.025.428.05.844.075,1.259h-4.006v6.646h3.992Z" transform="translate(255.292 -2440.292)" fill="#084a93" stroke="#084a93" stroke-width="0.5"/>
    <path id="Trazado_116172" data-name="Trazado 116172" d="M-177.943,2464.949l-1.228-.055v-1.2h3.832v1.193l-1.232.073v10.684l1.228.066v1.2h-3.832v-1.193l1.232-.073Z" transform="translate(222.009 -2440.254)" fill="#084a93" stroke="#084a93" stroke-width="0.5"/>
  </g>
</svg>
