<svg xmlns="http://www.w3.org/2000/svg" width="324" height="306.345" viewBox="0 0 324 306.345">
  <g id="Grupo_128099" data-name="Grupo 128099" transform="translate(1030.872 5472.076)">
    <path id="Trazado_116742" data-name="Trazado 116742" d="M-563.276-4935.247l.734,3.605a140.35,140.35,0,0,0,110.669-117.184l-3.642-.526A136.659,136.659,0,0,1-563.276-4935.247Z" transform="translate(-278.22 -251.521)" fill="#fcce57"/>
    <path id="Trazado_116743" data-name="Trazado 116743" d="M-463.329-5330.689l3.593-.8a139.6,139.6,0,0,0-40.046-70.933,139.464,139.464,0,0,0-72.941-36.8l-.623,3.627A135.863,135.863,0,0,1-463.329-5330.689Z" transform="translate(-272.227 -19.551)" fill="#fcce57"/>
    <path id="Trazado_116744" data-name="Trazado 116744" d="M-861.483-5433.668l-.734-3.607a139.458,139.458,0,0,0-72.752,39.99,139.35,139.35,0,0,0-37.468,74.3l3.63.6A137.119,137.119,0,0,1-861.483-5433.668Z" transform="translate(-34.769 -20.706)" fill="#fcce57"/>
    <path id="Trazado_116745" data-name="Trazado 116745" d="M-966.492-5030.085l-3.605.736a139.476,139.476,0,0,0,39.73,72.4,139.382,139.382,0,0,0,73.732,37.56l.623-3.627C-910.929-4932.458-955.327-4975.486-966.492-5030.085Z" transform="translate(-36.161 -262.984)" fill="#fcce57"/>
    <g id="Grupo_110915" data-name="Grupo 110915" transform="translate(-1030.872 -5472.076)">
      <g id="Grupo_110904" data-name="Grupo 110904" transform="translate(138.387 0)">
        <path id="Trazado_116746" data-name="Trazado 116746" d="M-641.953-5410.99c0,2.49-10.571,4.507-23.611,4.507s-23.611-2.017-23.611-4.507,10.571-4.507,23.611-4.507S-641.953-5413.479-641.953-5410.99Z" transform="translate(689.175 5438.411)" fill="#d9d9d9" style="mix-blend-mode: multiply;isolation: isolate"/>
        <g id="Grupo_110903" data-name="Grupo 110903" transform="translate(2.48)">
          <rect id="Rectángulo_40377" data-name="Rectángulo 40377" width="33.77" height="22.541" rx="2.326" transform="translate(4.246)" fill="#0d1116"/>
          <path id="Trazado_116747" data-name="Trazado 116747" d="M-638.569-5450.245a.9.9,0,0,1-.915.882h-30.965a.9.9,0,0,1-.915-.882v-19.343a.9.9,0,0,1,.915-.882h30.965a.9.9,0,0,1,.915.882Z" transform="translate(676.097 5471.121)" fill="#23272e"/>
          <rect id="Rectángulo_40378" data-name="Rectángulo 40378" width="30.771" height="19.639" transform="translate(5.745 1.451)" fill="#b8dcfb"/>
          <path id="Trazado_116748" data-name="Trazado 116748" d="M-678.318-5416.419l-4.733,5.63h42.768l-5.24-5.63Z" transform="translate(683.051 5438.959)" fill="#23272e"/>
          <path id="Trazado_116749" data-name="Trazado 116749" d="M-672.19-5415.109l-2.29,2.925h35.909l-2.527-2.925Z" transform="translate(677.951 5438.181)" fill="#373e48"/>
          <path id="Trazado_116750" data-name="Trazado 116750" d="M-641.584-5406.332l-.623.794h9.768l-.688-.794Z" transform="translate(658.749 5432.958)" fill="#373e48"/>
          <rect id="Rectángulo_40379" data-name="Rectángulo 40379" width="42.768" height="1.333" transform="translate(0 28.171)" fill="#05090d"/>
        </g>
      </g>
      <g id="Grupo_110906" data-name="Grupo 110906" transform="translate(276.778 135.319)">
        <path id="Trazado_116751" data-name="Trazado 116751" d="M-300.247-5076.869c0,2.49-10.571,4.506-23.611,4.506s-23.611-2.017-23.611-4.506,10.571-4.507,23.611-4.507S-300.247-5079.357-300.247-5076.869Z" transform="translate(347.469 5104.291)" fill="#d9d9d9" style="mix-blend-mode: multiply;isolation: isolate"/>
        <g id="Grupo_110905" data-name="Grupo 110905" transform="translate(2.48)">
          <rect id="Rectángulo_40380" data-name="Rectángulo 40380" width="33.77" height="22.541" rx="2.326" transform="translate(4.246)" fill="#0d1116"/>
          <path id="Trazado_116752" data-name="Trazado 116752" d="M-296.864-5116.125a.9.9,0,0,1-.915.882h-30.965a.9.9,0,0,1-.915-.882v-19.341a.9.9,0,0,1,.915-.883h30.965a.9.9,0,0,1,.915.883Z" transform="translate(334.392 5137)" fill="#23272e"/>
          <rect id="Rectángulo_40381" data-name="Rectángulo 40381" width="30.771" height="19.639" transform="translate(5.745 1.451)" fill="#b8dcfb"/>
          <path id="Trazado_116753" data-name="Trazado 116753" d="M-336.612-5082.3l-4.733,5.631h42.768l-5.24-5.631Z" transform="translate(341.345 5104.838)" fill="#23272e"/>
          <path id="Trazado_116754" data-name="Trazado 116754" d="M-330.485-5080.989l-2.29,2.926h35.909l-2.527-2.926Z" transform="translate(336.246 5104.061)" fill="#373e48"/>
          <path id="Trazado_116755" data-name="Trazado 116755" d="M-299.878-5072.212l-.623.8h9.768l-.688-.8Z" transform="translate(317.043 5098.837)" fill="#373e48"/>
          <rect id="Rectángulo_40382" data-name="Rectángulo 40382" width="42.768" height="1.333" transform="translate(0 28.171)" fill="#05090d"/>
        </g>
      </g>
      <g id="Grupo_110908" data-name="Grupo 110908" transform="translate(138.387 274.417)">
        <path id="Trazado_116756" data-name="Trazado 116756" d="M-641.953-4733.419c0,2.491-10.571,4.509-23.611,4.509s-23.611-2.018-23.611-4.509,10.571-4.5,23.611-4.5S-641.953-4735.908-641.953-4733.419Z" transform="translate(689.175 4760.839)" fill="#d9d9d9" style="mix-blend-mode: multiply;isolation: isolate"/>
        <g id="Grupo_110907" data-name="Grupo 110907" transform="translate(2.48)">
          <rect id="Rectángulo_40383" data-name="Rectángulo 40383" width="33.77" height="22.541" rx="2.326" transform="translate(4.246)" fill="#0d1116"/>
          <path id="Trazado_116757" data-name="Trazado 116757" d="M-638.569-4772.674a.9.9,0,0,1-.915.882h-30.965a.9.9,0,0,1-.915-.882v-19.341a.9.9,0,0,1,.915-.882h30.965a.9.9,0,0,1,.915.882Z" transform="translate(676.097 4793.547)" fill="#23272e"/>
          <rect id="Rectángulo_40384" data-name="Rectángulo 40384" width="30.771" height="19.639" transform="translate(5.745 1.451)" fill="#b8dcfb"/>
          <path id="Trazado_116758" data-name="Trazado 116758" d="M-678.318-4738.847l-4.733,5.63h42.768l-5.24-5.63Z" transform="translate(683.051 4761.387)" fill="#23272e"/>
          <path id="Trazado_116759" data-name="Trazado 116759" d="M-672.19-4737.538l-2.29,2.924h35.909l-2.527-2.924Z" transform="translate(677.951 4760.609)" fill="#373e48"/>
          <path id="Trazado_116760" data-name="Trazado 116760" d="M-641.584-4728.761l-.623.8h9.768l-.688-.8Z" transform="translate(658.749 4755.386)" fill="#373e48"/>
          <rect id="Rectángulo_40385" data-name="Rectángulo 40385" width="42.768" height="1.333" transform="translate(0 28.171)" fill="#05090d"/>
        </g>
      </g>
      <g id="Grupo_110910" data-name="Grupo 110910" transform="translate(0 135.791)">
        <path id="Trazado_116761" data-name="Trazado 116761" d="M-983.65-5075.7c0,2.489-10.571,4.507-23.611,4.507s-23.611-2.018-23.611-4.507,10.571-4.507,23.611-4.507S-983.65-5078.191-983.65-5075.7Z" transform="translate(1030.872 5103.124)" fill="#d9d9d9" style="mix-blend-mode: multiply;isolation: isolate"/>
        <g id="Grupo_110909" data-name="Grupo 110909" transform="translate(2.48)">
          <rect id="Rectángulo_40386" data-name="Rectángulo 40386" width="33.77" height="22.541" rx="2.326" transform="translate(4.246)" fill="#0d1116"/>
          <path id="Trazado_116762" data-name="Trazado 116762" d="M-980.267-5114.957a.9.9,0,0,1-.915.881h-30.965a.9.9,0,0,1-.915-.881V-5134.3a.9.9,0,0,1,.915-.882h30.965a.9.9,0,0,1,.915.882Z" transform="translate(1017.795 5135.833)" fill="#23272e"/>
          <rect id="Rectángulo_40387" data-name="Rectángulo 40387" width="30.771" height="19.639" transform="translate(5.745 1.451)" fill="#b8dcfb"/>
          <path id="Trazado_116763" data-name="Trazado 116763" d="M-1020.015-5081.132l-4.733,5.63h42.768l-5.24-5.63Z" transform="translate(1024.748 5103.672)" fill="#23272e"/>
          <path id="Trazado_116764" data-name="Trazado 116764" d="M-1013.888-5079.822l-2.29,2.924h35.909l-2.527-2.924Z" transform="translate(1019.649 5102.894)" fill="#373e48"/>
          <path id="Trazado_116765" data-name="Trazado 116765" d="M-983.281-5071.045l-.624.795h9.768l-.687-.795Z" transform="translate(1000.447 5097.67)" fill="#373e48"/>
          <rect id="Rectángulo_40388" data-name="Rectángulo 40388" width="42.768" height="1.333" transform="translate(0 28.171)" fill="#05090d"/>
        </g>
      </g>
      <g id="Grupo_110911" data-name="Grupo 110911" transform="translate(185.609 279.578)">
        <path id="Trazado_116766" data-name="Trazado 116766" d="M-562.432-4781.759l-4.948,7.308,7.31,4.942-5.2,1-7.306-4.945,4.944-7.308Z" transform="translate(572.577 4781.759)" fill="#fcce57"/>
      </g>
      <g id="Grupo_110912" data-name="Grupo 110912" transform="translate(289.483 112.986)">
        <path id="Trazado_116767" data-name="Trazado 116767" d="M-316.1-5190.535l7.388,4.827,4.823-7.39,1.088,5.184-4.823,7.388-7.387-4.824Z" transform="translate(316.098 5193.098)" fill="#fcce57"/>
      </g>
      <g id="Grupo_110913" data-name="Grupo 110913" transform="translate(125.881 10.174)">
        <path id="Trazado_116768" data-name="Trazado 116768" d="M-717.7-5433.7l4.95-7.3-7.308-4.947,5.2-1,7.3,4.946-4.947,7.306Z" transform="translate(720.056 5446.953)" fill="#fcce57"/>
      </g>
      <g id="Grupo_110914" data-name="Grupo 110914" transform="translate(20.696 175.242)">
        <path id="Trazado_116769" data-name="Trazado 116769" d="M-966.516-5029.238l-7.31-4.945-4.94,7.312-1.005-5.2,4.941-7.308,7.309,4.94Z" transform="translate(979.771 5039.38)" fill="#fcce57"/>
      </g>
    </g>
  </g>
</svg>
