<svg xmlns="http://www.w3.org/2000/svg" width="324" height="133.415" viewBox="0 0 324 133.415">
  <g id="Grupo_128079" data-name="Grupo 128079" transform="translate(3146.766 5258.581)">
    <path id="Trazado_116675" data-name="Trazado 116675" d="M-2868.12-5141.06h-3.68v14.39h-104.9v-14.39h-3.68v14.39H-3100.89v-14.39h-3.68v14.39h-42.2v3.68h100.1v14.541h3.679v-14.541h121.277v14.541h3.68v-14.541h95.26v-3.68h-45.354Z" transform="translate(0 -69.926)" fill="#fcce57"/>
    <g id="Grupo_110883" data-name="Grupo 110883" transform="translate(-3141.417 -5258.581)">
      <g id="Grupo_110874" data-name="Grupo 110874" transform="translate(0 0)">
        <path id="Trazado_116676" data-name="Trazado 116676" d="M-3057.379-5160.037c0,4.015-17.052,7.271-38.089,7.271s-38.088-3.256-38.088-7.271,17.053-7.271,38.088-7.271S-3057.379-5164.052-3057.379-5160.037Z" transform="translate(3133.557 5204.274)" fill="#d9d9d9" style="mix-blend-mode: multiply;isolation: isolate"/>
        <g id="Grupo_110873" data-name="Grupo 110873" transform="translate(4.001)">
          <rect id="Rectángulo_40338" data-name="Rectángulo 40338" width="54.477" height="36.363" rx="3.752" transform="translate(6.849)" fill="#0d1116"/>
          <path id="Trazado_116677" data-name="Trazado 116677" d="M-3051.92-5223.363a1.45,1.45,0,0,1-1.477,1.421h-49.952a1.449,1.449,0,0,1-1.476-1.421v-31.2a1.451,1.451,0,0,1,1.476-1.424h49.952a1.451,1.451,0,0,1,1.477,1.424Z" transform="translate(3112.459 5257.04)" fill="#23272e"/>
          <rect id="Rectángulo_40339" data-name="Rectángulo 40339" width="49.639" height="31.681" transform="translate(9.268 2.341)" fill="#b8dcfb"/>
          <path id="Trazado_116678" data-name="Trazado 116678" d="M-3116.042-5168.8l-7.635,9.082h68.992l-8.453-9.082Z" transform="translate(3123.677 5205.159)" fill="#23272e"/>
          <path id="Trazado_116679" data-name="Trazado 116679" d="M-3106.157-5166.684l-3.694,4.718h57.927l-4.077-4.718Z" transform="translate(3115.451 5203.902)" fill="#373e48"/>
          <path id="Trazado_116680" data-name="Trazado 116680" d="M-3056.784-5152.525l-1.005,1.283h15.757l-1.109-1.283Z" transform="translate(3084.474 5195.478)" fill="#373e48"/>
          <rect id="Rectángulo_40340" data-name="Rectángulo 40340" width="68.992" height="2.15" transform="translate(0 45.445)" fill="#05090d"/>
        </g>
      </g>
      <g id="Grupo_110876" data-name="Grupo 110876" transform="translate(124.576 0)">
        <path id="Trazado_116681" data-name="Trazado 116681" d="M-2749.784-5160.037c0,4.015-17.053,7.271-38.088,7.271s-38.088-3.256-38.088-7.271,17.053-7.271,38.088-7.271S-2749.784-5164.052-2749.784-5160.037Z" transform="translate(2825.961 5204.274)" fill="#d9d9d9" style="mix-blend-mode: multiply;isolation: isolate"/>
        <g id="Grupo_110875" data-name="Grupo 110875" transform="translate(4.001)">
          <rect id="Rectángulo_40341" data-name="Rectángulo 40341" width="54.477" height="36.363" rx="3.752" transform="translate(6.849)" fill="#0d1116"/>
          <path id="Trazado_116682" data-name="Trazado 116682" d="M-2744.326-5223.363a1.449,1.449,0,0,1-1.475,1.421h-49.953a1.449,1.449,0,0,1-1.476-1.421v-31.2a1.451,1.451,0,0,1,1.476-1.424h49.953a1.45,1.45,0,0,1,1.475,1.424Z" transform="translate(2804.865 5257.04)" fill="#23272e"/>
          <rect id="Rectángulo_40342" data-name="Rectángulo 40342" width="49.639" height="31.681" transform="translate(9.268 2.341)" fill="#b8dcfb"/>
          <path id="Trazado_116683" data-name="Trazado 116683" d="M-2808.446-5168.8l-7.635,9.082h68.993l-8.453-9.082Z" transform="translate(2816.082 5205.159)" fill="#23272e"/>
          <path id="Trazado_116684" data-name="Trazado 116684" d="M-2798.562-5166.684l-3.694,4.718h57.928l-4.077-4.718Z" transform="translate(2807.856 5203.902)" fill="#373e48"/>
          <path id="Trazado_116685" data-name="Trazado 116685" d="M-2749.188-5152.525l-1.005,1.283h15.757l-1.109-1.283Z" transform="translate(2776.878 5195.478)" fill="#373e48"/>
          <rect id="Rectángulo_40343" data-name="Rectángulo 40343" width="68.992" height="2.15" transform="translate(0 45.445)" fill="#05090d"/>
        </g>
      </g>
      <g id="Grupo_110878" data-name="Grupo 110878" transform="translate(232.771 0)">
        <path id="Trazado_116686" data-name="Trazado 116686" d="M-2482.637-5160.037c0,4.015-17.052,7.271-38.088,7.271s-38.088-3.256-38.088-7.271,17.053-7.271,38.088-7.271S-2482.637-5164.052-2482.637-5160.037Z" transform="translate(2558.814 5204.274)" fill="#d9d9d9" style="mix-blend-mode: multiply;isolation: isolate"/>
        <g id="Grupo_110877" data-name="Grupo 110877" transform="translate(4.001)">
          <rect id="Rectángulo_40344" data-name="Rectángulo 40344" width="54.477" height="36.363" rx="3.752" transform="translate(6.849)" fill="#0d1116"/>
          <path id="Trazado_116687" data-name="Trazado 116687" d="M-2477.179-5223.363a1.448,1.448,0,0,1-1.474,1.421h-49.953a1.45,1.45,0,0,1-1.476-1.421v-31.2a1.451,1.451,0,0,1,1.476-1.424h49.953a1.45,1.45,0,0,1,1.474,1.424Z" transform="translate(2537.718 5257.04)" fill="#23272e"/>
          <rect id="Rectángulo_40345" data-name="Rectángulo 40345" width="49.639" height="31.681" transform="translate(9.268 2.341)" fill="#b8dcfb"/>
          <path id="Trazado_116688" data-name="Trazado 116688" d="M-2541.3-5168.8l-7.635,9.082h68.993l-8.454-9.082Z" transform="translate(2548.935 5205.159)" fill="#23272e"/>
          <path id="Trazado_116689" data-name="Trazado 116689" d="M-2531.415-5166.684l-3.695,4.718h57.927l-4.076-4.718Z" transform="translate(2540.709 5203.902)" fill="#373e48"/>
          <path id="Trazado_116690" data-name="Trazado 116690" d="M-2482.042-5152.525l-1.005,1.283h15.757l-1.109-1.283Z" transform="translate(2509.731 5195.478)" fill="#373e48"/>
          <rect id="Rectángulo_40346" data-name="Rectángulo 40346" width="68.992" height="2.15" transform="translate(0 45.445)" fill="#05090d"/>
        </g>
      </g>
      <g id="Grupo_110880" data-name="Grupo 110880" transform="translate(57.907 81.908)">
        <path id="Trazado_116691" data-name="Trazado 116691" d="M-2914.4-4957.8c0,4.016-17.054,7.271-38.089,7.271s-38.088-3.255-38.088-7.271,17.053-7.271,38.088-7.271S-2914.4-4961.811-2914.4-4957.8Z" transform="translate(2990.576 5002.032)" fill="#d9d9d9" style="mix-blend-mode: multiply;isolation: isolate"/>
        <g id="Grupo_110879" data-name="Grupo 110879" transform="translate(4.001)">
          <rect id="Rectángulo_40347" data-name="Rectángulo 40347" width="54.477" height="36.363" rx="3.752" transform="translate(6.849)" fill="#0d1116"/>
          <path id="Trazado_116692" data-name="Trazado 116692" d="M-2908.94-5021.123a1.449,1.449,0,0,1-1.476,1.423h-49.952a1.449,1.449,0,0,1-1.476-1.423v-31.2a1.449,1.449,0,0,1,1.476-1.422h49.952a1.449,1.449,0,0,1,1.476,1.422Z" transform="translate(2969.479 5054.796)" fill="#23272e"/>
          <rect id="Rectángulo_40348" data-name="Rectángulo 40348" width="49.639" height="31.681" transform="translate(9.268 2.341)" fill="#b8dcfb"/>
          <path id="Trazado_116693" data-name="Trazado 116693" d="M-2973.062-4966.554l-7.636,9.082h68.993l-8.453-9.082Z" transform="translate(2980.697 5002.917)" fill="#23272e"/>
          <path id="Trazado_116694" data-name="Trazado 116694" d="M-2963.177-4964.441l-3.694,4.719h57.927l-4.077-4.719Z" transform="translate(2972.471 5001.66)" fill="#373e48"/>
          <path id="Trazado_116695" data-name="Trazado 116695" d="M-2913.8-4950.282l-1.006,1.282h15.758l-1.11-1.282Z" transform="translate(2941.494 4993.235)" fill="#373e48"/>
          <rect id="Rectángulo_40349" data-name="Rectángulo 40349" width="68.992" height="2.15" transform="translate(0 45.445)" fill="#05090d"/>
        </g>
      </g>
      <g id="Grupo_110882" data-name="Grupo 110882" transform="translate(183.626 81.908)">
        <path id="Trazado_116696" data-name="Trazado 116696" d="M-2603.982-4957.8c0,4.016-17.052,7.271-38.089,7.271s-38.087-3.255-38.087-7.271,17.052-7.271,38.087-7.271S-2603.982-4961.811-2603.982-4957.8Z" transform="translate(2680.158 5002.032)" fill="#d9d9d9" style="mix-blend-mode: multiply;isolation: isolate"/>
        <g id="Grupo_110881" data-name="Grupo 110881" transform="translate(4.001)">
          <rect id="Rectángulo_40350" data-name="Rectángulo 40350" width="54.477" height="36.363" rx="3.752" transform="translate(6.849)" fill="#0d1116"/>
          <path id="Trazado_116697" data-name="Trazado 116697" d="M-2598.523-5021.123A1.449,1.449,0,0,1-2600-5019.7h-49.953a1.449,1.449,0,0,1-1.476-1.423v-31.2a1.449,1.449,0,0,1,1.476-1.422H-2600a1.449,1.449,0,0,1,1.476,1.422Z" transform="translate(2659.063 5054.796)" fill="#23272e"/>
          <rect id="Rectángulo_40351" data-name="Rectángulo 40351" width="49.639" height="31.681" transform="translate(9.268 2.341)" fill="#b8dcfb"/>
          <path id="Trazado_116698" data-name="Trazado 116698" d="M-2662.645-4966.554l-7.635,9.082h68.992l-8.453-9.082Z" transform="translate(2670.28 5002.917)" fill="#23272e"/>
          <path id="Trazado_116699" data-name="Trazado 116699" d="M-2652.76-4964.441l-3.694,4.719h57.927l-4.077-4.719Z" transform="translate(2662.053 5001.66)" fill="#373e48"/>
          <path id="Trazado_116700" data-name="Trazado 116700" d="M-2603.387-4950.282l-1.005,1.282h15.757l-1.109-1.282Z" transform="translate(2631.076 4993.235)" fill="#373e48"/>
          <rect id="Rectángulo_40352" data-name="Rectángulo 40352" width="68.992" height="2.15" transform="translate(0 45.445)" fill="#05090d"/>
        </g>
      </g>
    </g>
  </g>
</svg>
