<svg xmlns="http://www.w3.org/2000/svg" width="187" height="187" viewBox="0 0 187 187">
  <g id="Grupo_128592" data-name="Grupo 128592" transform="translate(-397 -3898)">
    <g id="Grupo_128142" data-name="Grupo 128142" transform="translate(406.92 3907.73)">
      <g id="Trazado_187974" data-name="Trazado 187974" transform="translate(0.08 0.269)" fill="#f3f9ff">
        <path d="M 83.5 172 C 77.49864959716797 172 71.49960327148438 171.3950958251953 65.66944885253906 170.2020721435547 C 59.98495101928711 169.0388488769531 54.39345169067383 167.3031463623047 49.05027389526367 165.0431823730469 C 43.80519866943359 162.82470703125 38.74672317504883 160.0791015625 34.01532363891602 156.8826293945312 C 29.33017539978027 153.7174072265625 24.92462539672852 150.08251953125 20.92104911804199 146.0789489746094 C 16.9174747467041 142.0753784179688 13.28260040283203 137.6698303222656 10.11737537384033 132.9846801757812 C 6.920899868011475 128.2532806396484 4.175300121307373 123.1948013305664 1.956825017929077 117.9497222900391 C -0.3031499981880188 112.6065521240234 -2.038850069046021 107.0150527954102 -3.202075004577637 101.3305511474609 C -4.395100116729736 95.50039672851562 -5 89.50135040283203 -5 83.5 C -5 77.49864959716797 -4.395100116729736 71.49960327148438 -3.202075004577637 65.66944885253906 C -2.038850069046021 59.98495101928711 -0.3031499981880188 54.39345169067383 1.956825017929077 49.05027389526367 C 4.175300121307373 43.80519866943359 6.920899868011475 38.74672317504883 10.11737537384033 34.01532363891602 C 13.28260040283203 29.33017539978027 16.9174747467041 24.92462539672852 20.92104911804199 20.92104911804199 C 24.92462539672852 16.9174747467041 29.33017539978027 13.28260040283203 34.01532363891602 10.11737537384033 C 38.74672317504883 6.920899868011475 43.80519866943359 4.175300121307373 49.05027389526367 1.956825017929077 C 54.39345169067383 -0.3031499981880188 59.98495101928711 -2.038850069046021 65.66944885253906 -3.202075004577637 C 71.49960327148438 -4.395100116729736 77.49864959716797 -5 83.5 -5 C 89.50135040283203 -5 95.50039672851562 -4.395100116729736 101.3305511474609 -3.202075004577637 C 107.0150527954102 -2.038850069046021 112.6065521240234 -0.3031499981880188 117.9497222900391 1.956825017929077 C 123.1948013305664 4.175300121307373 128.2532806396484 6.920899868011475 132.9846801757812 10.11737537384033 C 137.6698303222656 13.28260040283203 142.0753784179688 16.9174747467041 146.0789489746094 20.92104911804199 C 150.08251953125 24.92462539672852 153.7174072265625 29.33017539978027 156.8826293945312 34.01532363891602 C 160.0791015625 38.74672317504883 162.82470703125 43.80519866943359 165.0431823730469 49.05027389526367 C 167.3031463623047 54.39345169067383 169.0388488769531 59.98495101928711 170.2020721435547 65.66944885253906 C 171.3950958251953 71.49960327148438 172 77.49864959716797 172 83.5 C 172 89.50135040283203 171.3950958251953 95.50039672851562 170.2020721435547 101.3305511474609 C 169.0388488769531 107.0150527954102 167.3031463623047 112.6065521240234 165.0431823730469 117.9497222900391 C 162.82470703125 123.1948013305664 160.0791015625 128.2532806396484 156.8826293945312 132.9846801757812 C 153.7174072265625 137.6698303222656 150.08251953125 142.0753784179688 146.0789489746094 146.0789489746094 C 142.0753784179688 150.08251953125 137.6698303222656 153.7174072265625 132.9846801757812 156.8826293945312 C 128.2532806396484 160.0791015625 123.1948013305664 162.82470703125 117.9497222900391 165.0431823730469 C 112.6065521240234 167.3031463623047 107.0150527954102 169.0388488769531 101.3305511474609 170.2020721435547 C 95.50039672851562 171.3950958251953 89.50135040283203 172 83.5 172 Z" stroke="none"/>
        <path d="M 83.5 0 C 37.38421630859375 0 0 37.38421630859375 0 83.5 C 0 129.6157836914062 37.38421630859375 167 83.5 167 C 129.6157836914062 167 167 129.6157836914062 167 83.5 C 167 37.38421630859375 129.6157836914062 0 83.5 0 M 83.5 -10 C 135.0560607910156 -10 177 31.94393920898438 177 83.5 C 177 135.0560607910156 135.0560607910156 177 83.5 177 C 31.94393920898438 177 -10 135.0560607910156 -10 83.5 C -10 31.94393920898438 31.94393920898438 -10 83.5 -10 Z" stroke="none" fill="#fdb32b"/>
      </g>
    </g>
    <g id="Grupo_112049" data-name="Grupo 112049" transform="translate(1151.359 5359.399)">
      <path id="Trazado_117905" data-name="Trazado 117905" d="M-656.433-1355.125q38.431,0,76.861,0c2.381,0,2.86-.463,2.86-2.785q0-22.972,0-45.944c0-2.56-.407-2.949-3.044-2.949H-618.1q-19.172,0-38.344,0c-2.623,0-3.038.4-3.039,2.962q0,22.885,0,45.771C-659.481-1355.521-659.068-1355.125-656.433-1355.125Zm.348-48.208h75.944v44.765h-75.944Z" transform="translate(-43.263 -13.09)" fill="#12263f"/>
      <path id="Trazado_117906" data-name="Trazado 117906" d="M-597.02-1318.691a10.324,10.324,0,0,0-1.4-2.794c-.224-.385-.443-.773-.662-1.161a11.275,11.275,0,0,0-.548-4.041c-1.635-5.2-10.945-30.186-12.934-35.275a8.5,8.5,0,0,1-.484-3.021q-.042-25.993-.027-51.988a13.666,13.666,0,0,0-.174-2.747c-.917-4.425-4.337-7.082-9.109-7.083q-38.775-.013-77.549-.005c-6.252,0-9.755,3.483-9.754,9.705q0,26.166-.022,52.333a8.585,8.585,0,0,1-.556,3.007c-1.78,4.615-12.339,29.214-14.086,33.841a13.23,13.23,0,0,0-.856,4.293,8.957,8.957,0,0,0,.486,3.441q-.22.421-.441.842c-.567,1.079-.81,2.217.548,2.866,1.231.588,2.016-.079,2.6-1.106.028-.05.056-.1.083-.15q.733-1.386,1.466-2.773.9-1.7,1.822-3.385c.191-.349.381-.7.575-1.046q.659-1.18,1.309-2.367c2.456-4.473,4.858-8.983,7.606-13.27A107.367,107.367,0,0,1-701.2-1350.6a5.632,5.632,0,0,1,2.257-1.74c2.76-.985,5.569-1.857,8.405-2.592a7.614,7.614,0,0,1,2.677.316l0,.991c-5.522-.28-7.845,4.363-11.366,7.133-.459.361-.249,1.573-.349,2.39a18.693,18.693,0,0,0,2.607.219c.335-.014.706-.445.968-.762a16.309,16.309,0,0,1,12.931-6.169.765.765,0,0,0,.2-.046c1.78-.545,2.615.4,3.161,1.7-1.313.355-2.679.383-3.6,1.036-3.654,2.577-7.174,5.343-10.732,8.055-1.069.815-2.4,1.715-1.152,3.207,1.186,1.419,2.379.393,3.455-.423,3.009-2.28,6.01-4.569,9.03-6.833.5-.372,1.121-.961,1.606-.891,3.333.479,6.644,1.106,9.963,1.686q-.011.459-.022.918a10.847,10.847,0,0,1-3.241.261c-4.112-.939-7.27.728-10.657,2.856a28.893,28.893,0,0,0-9.564,9.73,4.753,4.753,0,0,0-.874,2.168c-.009.856.706,1.391,2.325,2.016,1.108.428,2.212.869,3.315,1.309l.429.17c2.026.8,2.74.947,3.674,0a15.763,15.763,0,0,0,1.387-1.771,5,5,0,0,1,1.592-1.6,3.388,3.388,0,0,1,2.43-.227c-.064.1-.126.2-.19.3-.724,1.122-1.413,2.223-2.1,3.3-.766,1.2-1.53,2.373-2.338,3.5-.255.355-.513.707-.778,1.053-.53.691-2.011.939-3.04.9a41.273,41.273,0,0,1-5.814-.763c-5.376-.958-7.567-.78-9.654,2.116a26.558,26.558,0,0,0-2.177,3.881c-.213.44-.649.9-.607,1.312a18.355,18.355,0,0,0,.659,2.7c.855-.392,1.969-.572,2.505-1.226a16.217,16.217,0,0,0,1.832-3.519,3.3,3.3,0,0,1,3.872-2.1q4.66.7,9.349,1.205a6.668,6.668,0,0,0,6.1-2.257h21.3c6.435,0,13.956-.016,21.7-.026a6.891,6.891,0,0,0,6.358,2.278c3.118-.381,6.236-.776,9.347-1.214a3.129,3.129,0,0,1,3.563,1.927c.615,1.254,1.264,2.491,1.875,3.748.536,1.1,1.519,1.8,2.488,1.088a3,3,0,0,0,.672-2.635,21.842,21.842,0,0,0-1.978-4.148,8.332,8.332,0,0,0-.648-1.037,6.323,6.323,0,0,0-6.282-2.552c-2.839.367-5.661.906-8.508,1.157-1.181.1-2.938.09-3.521-.62-.342-.416-.67-.843-.993-1.275-.838-1.119-1.629-2.289-2.423-3.5-.723-1.1-1.452-2.237-2.226-3.393l-.134-.2a3.943,3.943,0,0,1,2.37.2,6.083,6.083,0,0,1,2.332,2.571,4.21,4.21,0,0,0,.7.829,2.542,2.542,0,0,0,2.861.333c.289-.113.58-.223.87-.333,1.472-.561,2.952-1.1,4.405-1.709,1.079-.448,1.625-.981,1.665-1.706a3.193,3.193,0,0,0-.6-1.765c-2.274-3.7-4.815-7.024-8.653-9.456-3.926-2.488-7.594-4.859-12.519-3.577a6.932,6.932,0,0,1-2.556-.373q.016-.4.032-.8c2.706-.515,5.429-.956,8.112-1.575a4.188,4.188,0,0,1,3.834,1c2.959,2.341,5.992,4.588,9,6.871,1.019.774,2.119,1.34,3.108.073,1.031-1.321.055-2.2-.922-2.954-2.492-1.917-4.989-3.831-7.526-5.687-2.169-1.588-3.946-4-7.32-3.276.89-1.829,1.9-2.518,3.674-2a17.791,17.791,0,0,0,4.131.651,8.265,8.265,0,0,1,5.835,2.873,21.484,21.484,0,0,0,3.774,3.3c.608.395,1.7.048,2.568.038-.073-.874.2-2.159-.273-2.554-3.34-2.791-5.757-7.042-10.846-7.214-.124,0-.238-.281-.726-.895a9.089,9.089,0,0,1,2.881-.321c2.832.749,5.622,1.667,8.409,2.576a3.327,3.327,0,0,1,1.582.949c3.975,5.211,8.233,10.248,11.74,15.762,1.716,2.7,3.248,5.511,4.727,8.359q.883,1.7,1.75,3.409.541,1.062,1.085,2.122c.559,1.091,1.122,2.179,1.7,3.26.031.06.062.119.094.178.262.491.48,1.172.9,1.372.671.317,1.69.633,2.2.333A2.353,2.353,0,0,0-597.02-1318.691Zm-103.392-104.8q39.04-.008,78.081,0c3.951,0,5.953,2,5.954,5.944q.008,25.394,0,50.787v2.069h-89.881c-.033-.67-.089-1.28-.089-1.89q-.006-25.479,0-50.959C-706.344-1421.518-704.378-1423.492-700.412-1423.492Zm58.5,103.1h-38.611q1.092-1.742,2.16-3.5h34.324C-643.333-1322.726-642.628-1321.556-641.914-1320.394Zm-28.522-7.034c.745-3.206,1.076-3.479,4.072-3.476q5,0,10,0c3.009,0,3.318.256,4.079,3.473Zm57.262-19.093c-6.893-8.377-6.711-8.48-17.1-11.825a6.808,6.808,0,0,0-5.923.577c-4.3,2.387-8.94,4.243-11.738,8.65-.983,1.548-2.554,1.949-4.231,2.376-1.241.315-3.1,1.02-3.312,1.887a5.128,5.128,0,0,0,1.146,4.122,8.96,8.96,0,0,0,4.479,2.2c1.593.337,3.338-.109,5.01-.043a6.007,6.007,0,0,1,2.741.681,48.845,48.845,0,0,1,6.629,4.394,34.1,34.1,0,0,1,3.989,4.78c-1.868,1.316-3.067,1.816-4.526-.117a6.712,6.712,0,0,0-9.048-1.427c-1.2.8-1.693,1.707-1.037,3l-.356,0a2.534,2.534,0,0,1-2.721-1.753c-.76-1.728-1.355-3.984-2.746-4.851s-3.664-.323-5.552-.335c-3.856-.025-7.713.039-11.568-.034-1.413-.027-2.448.453-2.788,1.777-.751,2.918-2.232,4.33-4.362,4.924.449-1.144-.036-2.026-1.2-2.756a6.682,6.682,0,0,0-8.907,1.341c-1.494,1.906-2.727,1.664-4.548.233,1.156-1.53,2.017-3.366,3.45-4.433,4.266-3.176,8.48-6.818,14.506-5.3a.811.811,0,0,0,.209,0,5.866,5.866,0,0,0,5.8-4.28c.672-2.064-.032-3.719-2.193-3.836-3.268-.177-5.148-2.091-7.022-4.326a16.653,16.653,0,0,0-3.675-3.678,59.17,59.17,0,0,0-7.856-3.87,5.244,5.244,0,0,0-3.174-.228c-3.1.825-6.182,1.773-9.186,2.9a9.874,9.874,0,0,0-3.588,2.364c-7.312,7.732-12.5,16.823-17.389,26.1h-.012c.2-.673.3-1.151.477-1.6,1.44-3.635,11.565-27.289,12.959-30.941a1.963,1.963,0,0,1,2.144-1.486q44.028.048,88.056.057c.625,0,1.623.341,1.815.791,1.174,2.757,5.236,14.085,8.428,22.907A65.3,65.3,0,0,0-613.174-1346.52Z" transform="translate(0 0)" fill="#12263f"/>
      <path id="Trazado_117907" data-name="Trazado 117907" d="M-577.162-1369.346c1.885-.173,1.847.022,1.817-1.963-.006-.412.009-.743.5-.945a.861.861,0,0,1,1.15.274c.19.234.43.426.636.648a.8.8,0,0,0,1.233.1,37.635,37.635,0,0,0,3.045-2.853c1.179-1.324,1.135-1.4-.149-2.642a.951.951,0,0,1-.228-1.219c.274-.7.825-.324,1.191-.439,1.308.024,1.427-.027,1.51-1.263a24.519,24.519,0,0,0,.019-3.615c-.175-2.142-.287-1.774-2-1.794-.425-.005-.729-.052-.924-.53a.811.811,0,0,1,.271-1.084c.216-.176.385-.407.6-.587a.863.863,0,0,0,.118-1.392,38.816,38.816,0,0,0-2.875-3.026c-1.263-1.113-1.319-1.049-2.531.155a1.664,1.664,0,0,0-.2.2c-.277.387-.61.292-.99.169-.419-.136-.421-.429-.411-.768s-.007-.7,0-1.048a.793.793,0,0,0-.8-.938,37.054,37.054,0,0,0-4.1-.142c-2.231.132-1.865.381-1.873,1.941,0,.421.039.791-.5,1a.86.86,0,0,1-1.143-.3c-.16-.2-.369-.357-.536-.55a.866.866,0,0,0-1.392-.127,36.941,36.941,0,0,0-2.91,2.8c-1.167,1.348-1.12,1.411.144,2.641a.924.924,0,0,1,.278,1.156c-.192.5-.518.523-.932.506-.279-.012-.561.021-.839-.007a.821.821,0,0,0-1.026.852,35.942,35.942,0,0,0-.081,4.169c.137,1.849.1,1.747,1.98,1.729.421,0,.736.028.923.522a.842.842,0,0,1-.272,1.094c-.232.192-.42.438-.647.637a.8.8,0,0,0-.1,1.278,37.345,37.345,0,0,0,2.8,3c1.363,1.211,1.432,1.167,2.692-.138a.925.925,0,0,1,1.161-.246c.47.179.479.5.471.888-.005.256.006.513,0,.769-.014.574.207.961.826.986A31.342,31.342,0,0,0-577.162-1369.346Zm-5.1-4.021c-.22-.034-.418-.267-.632-.275a4.914,4.914,0,0,0-1.007.143c-.037.006-.066.063-.1.1-1.2,1.158-1.212,1.167-2.4,0-.449-.438-.846-.929-1.273-1.39-.27-.292-.312-.572.039-.818a1.866,1.866,0,0,0,.6-2.777c-.57-1.082-.441-1.149-1.721-1.153-1.072,0-1.091,0-1.13-1.082-.029-.791.006-1.584,0-2.376,0-.5.211-.76.719-.683,1.224.187,2.036-.2,2.22-1.523a1.16,1.16,0,0,1,.207-.44.917.917,0,0,0-.2-1.3c-1.134-1.142-1.121-1.155,0-2.36.127-.136.261-.266.394-.4,1.25-1.236,1.256-1.241,2.536-.063a.83.83,0,0,0,1.071.185.986.986,0,0,1,.252-.119c1.383-.308,2.192-1.016,1.878-2.578-.024-.122.277-.44.437-.448,1.043-.046,2.089-.032,3.134-.038.43,0,.53.234.523.628-.037,2.094-.033,1.608,1.581,2.331a1.327,1.327,0,0,0,1.878-.4c.2-.286.415-.566.625-.852a10.059,10.059,0,0,1,2.854,2.728.6.6,0,0,1-.118.574c-1.132.8-1.232,1.7-.6,2.92.519.991.4,1.051,1.512,1.056,1.263.005,1.279.005,1.326,1.264.027.721-.006,1.444-.013,2.167,0,.448-.193.737-.678.648-1.266-.231-1.752.406-2.188,1.531-.375.969-.3,1.571.49,2.148.574.419.62.855.084,1.355-.664.618-1.308,1.257-1.96,1.887-.274.265-.549.271-.763-.047-.786-1.164-1.707-1.213-2.907-.568-.979.527-1.035.423-1.04,1.592,0,1.087,0,1.13-1.071,1.2-.832.058-1.673-.007-2.51-.017-.437-.006-.657-.217-.578-.658A1.575,1.575,0,0,0-582.261-1373.367Z" transform="translate(-87.998 -21.423)" fill="#12263f"/>
      <path id="Trazado_117908" data-name="Trazado 117908" d="M-514.2-1335.364c-.021-.009-.046-.01-.067-.019-.42-.173-.448-.44-.149-.743a2.449,2.449,0,0,1,.51-.366.809.809,0,0,0,.33-1.238,22.025,22.025,0,0,0-1.321-2.209c-.876-1.18-.908-1.149-2.214-.5a.6.6,0,0,1-.5.031c-.112-.075-.14-.306-.159-.474a.9.9,0,0,1,.068-.41.849.849,0,0,0-.685-1.26c-1.034-.247-2.086-.431-3.136-.6-.7-.109-1.077.227-1.193.941a2.669,2.669,0,0,1-.441.787,2.812,2.812,0,0,1-.7-.574.925.925,0,0,0-1.412-.391c-.891.539-1.758,1.121-2.622,1.7a.912.912,0,0,0-.21,1.487,2.824,2.824,0,0,1,.274.8,2.656,2.656,0,0,1-.886.084c-.672-.171-1.132.02-1.286.683-.242,1.037-.445,2.086-.6,3.139a.947.947,0,0,0,.932,1.2,2.545,2.545,0,0,1,.785.43,2.71,2.71,0,0,1-.551.706.94.94,0,0,0-.392,1.417,19.072,19.072,0,0,0,1.289,2.146c.9,1.186.933,1.155,2.237.468.143-.075.4-.131.495-.056a.952.952,0,0,1,.211.524.669.669,0,0,1-.068.338.887.887,0,0,0,.692,1.323,23.59,23.59,0,0,0,2.927.589c.993.11,1.107-.06,1.392-1.036a2.777,2.777,0,0,1,.458-.688c.206.157.425.3.616.475.258.237.495.5.711.718a3.394,3.394,0,0,0,.661-.208c.889-.544,1.808-1.051,2.637-1.676.794-.6.753-.76.224-1.624a2.714,2.714,0,0,1-.2-.739,2.662,2.662,0,0,1,.752-.086c.872.154,1.1.081,1.377-.74a14.331,14.331,0,0,0,.516-2.1C-512.626-1334.629-512.757-1334.825-514.2-1335.364Zm-.017,2.283a3.764,3.764,0,0,0-.114.618c-.059.659-.314.981-1.037.725a.817.817,0,0,0-1.085.5,2.4,2.4,0,0,1-.34.527.976.976,0,0,0-.036,1.436c.34.385.316.688-.145.949-.2.114-.373.279-.57.4-.857.536-.828.506-1.49-.235a1.7,1.7,0,0,0-.952-.37,2.872,2.872,0,0,0-.749.132,1.051,1.051,0,0,0-1.058,1,2.36,2.36,0,0,1-.386.744c-.443-.083-.694-.134-.946-.177-1.148-.195-1.12-.193-1.051-1.309a1.293,1.293,0,0,0-.362-.819,6.84,6.84,0,0,0-.8-.543.817.817,0,0,0-1.188-.021c-.571.514-.976.347-1.3-.276-.053-.1-.13-.193-.193-.291-.582-.916-.556-.887.22-1.6a1.638,1.638,0,0,0,.324-.948,3.722,3.722,0,0,0-.138-.75.964.964,0,0,0-.956-1c-.642-.052-.819-.4-.642-.994a4.815,4.815,0,0,0,.09-.622c.149-.935.189-.984,1.109-.786a.839.839,0,0,0,1.049-.438,3.955,3.955,0,0,1,.415-.645.949.949,0,0,0,.012-1.38c-.377-.424-.282-.733.183-1,.182-.1.34-.246.514-.36.858-.562.829-.534,1.5.205a1.661,1.661,0,0,0,.946.377,4.3,4.3,0,0,0,.819-.14.938.938,0,0,0,.984-.961c.047-.585.317-.846.923-.648a3.33,3.33,0,0,0,.484.065c1.113.183,1.113.184.971,1.292a1.155,1.155,0,0,0-.017.277c.088.748,1.793,1.588,2.38,1.123.551-.437.888-.35,1.2.226a4.607,4.607,0,0,0,.385.582c.394.519.43.938-.255,1.255a.837.837,0,0,0-.449,1.059,5.506,5.506,0,0,1,.169.82.882.882,0,0,0,.869.913C-514.223-1334.107-514.048-1333.717-514.214-1333.081Z" transform="translate(-127.612 -54.743)" fill="#12263f"/>
      <path id="Trazado_117909" data-name="Trazado 117909" d="M-552.087-1305.665c.911-.5.8-1.078.469-1.735-.742-1.493-1.288-1.859-2.592-1.664-.058-1.212-.054-1.229-1.44-1.606a3.244,3.244,0,0,0-1.5-.193c-.416.1-.746.563-1.128.878-.624-.6-.876-.624-1.855-.075-1.43.8-1.672,1.236-1.385,2.471-1.183.008-1.237.049-1.6,1.262a4.679,4.679,0,0,0-.2.74,2.964,2.964,0,0,0-.052,1.285c.1.285.576.436.885.647-.668.949-.67,1.131.026,2.231.149.235.319.458.489.679.45.586.951,1,1.756.359.021,1.361.079,1.414,1.852,1.857,1.229.307,1.471.2,2.072-.891.9.728,1.224.709,2.474-.141,1.134-.773,1.239-1.024.892-2.124,1.454-.2,1.5-.193,1.79-1.492C-550.917-1304.136-550.351-1305.276-552.087-1305.665Zm-.3,2.047a.739.739,0,0,1-.52.458,1.4,1.4,0,0,0-1.448,1.967.675.675,0,0,1-.281.574.781.781,0,0,1-.7.043,1.41,1.41,0,0,0-2.321.512.647.647,0,0,1-.594.2c-.2-.067-.468-.333-.463-.506a1.415,1.415,0,0,0-1.883-1.4.678.678,0,0,1-.612-.156c-.14-.18-.246-.638-.163-.7.538-.39.492-.829.385-1.415a1.182,1.182,0,0,0-1.047-1.052c.029-.694.11-1.147.956-1.054.67.074,1.369-1.208,1.036-1.826-.2-.372-.08-.547.207-.738s.515-.312.829.043a1.422,1.422,0,0,0,2.173-.458.7.7,0,0,1,.6-.3c.22.055.532.314.55.509a1.417,1.417,0,0,0,1.976,1.323.676.676,0,0,1,.576.272.783.783,0,0,1,.059.695,1.419,1.419,0,0,0,.494,2.325A.76.76,0,0,1-552.382-1303.619Z" transform="translate(-106.134 -75.861)" fill="#12263f"/>
      <path id="Trazado_117910" data-name="Trazado 117910" d="M-561.889-1372.2a7.237,7.237,0,0,0-7.274-7.282,7.245,7.245,0,0,0-7.285,7.273,7.255,7.255,0,0,0,7.276,7.286A7.245,7.245,0,0,0-561.889-1372.2Zm-13.267-.016a6,6,0,0,1,5.968-5.972,5.984,5.984,0,0,1,6.006,6,6.017,6.017,0,0,1-5.96,5.984A6.036,6.036,0,0,1-575.157-1372.216Z" transform="translate(-97.612 -30.974)" fill="#12263f"/>
      <path id="Trazado_117911" data-name="Trazado 117911" d="M-513.686-1330.9a4.663,4.663,0,0,0-4.681,4.655,4.7,4.7,0,0,0,4.682,4.741,4.686,4.686,0,0,0,4.711-4.706A4.649,4.649,0,0,0-513.686-1330.9Zm-.007,8.089a3.432,3.432,0,0,1-3.383-3.387,3.424,3.424,0,0,1,3.43-3.407,3.427,3.427,0,0,1,3.385,3.385A3.433,3.433,0,0,1-513.693-1322.812Z" transform="translate(-135.626 -62.771)" fill="#12263f"/>
      <path id="Trazado_117912" data-name="Trazado 117912" d="M-552.021-1302.85a3.517,3.517,0,0,0-3.459,3.426,3.5,3.5,0,0,0,3.469,3.482,3.5,3.5,0,0,0,3.461-3.418A3.528,3.528,0,0,0-552.021-1302.85Zm.014,5.582a2.088,2.088,0,0,1-2.132-2.114,2.124,2.124,0,0,1,2.113-2.146,2.137,2.137,0,0,1,2.134,2.13A2.089,2.089,0,0,1-552.006-1297.268Z" transform="translate(-111.336 -81.13)" fill="#12263f"/>
    </g>
  </g>
</svg>
