<svg xmlns="http://www.w3.org/2000/svg" width="187" height="187" viewBox="0 0 187 187">
  <g id="Grupo_128593" data-name="Grupo 128593" transform="translate(-1021 -3898)">
    <g id="Grupo_128141" data-name="Grupo 128141" transform="translate(1030.92 3907.73)">
      <g id="Elipse_157" data-name="Elipse 157" transform="translate(0.08 0.269)" fill="#f3f9ff" stroke="#26defc" stroke-linejoin="round" stroke-width="10">
        <circle cx="83.5" cy="83.5" r="83.5" stroke="none"/>
        <circle cx="83.5" cy="83.5" r="88.5" fill="none"/>
      </g>
    </g>
    <g id="Grupo_112048" data-name="Grupo 112048" transform="translate(1304.386 5363.328)">
      <g id="Grupo_112046" data-name="Grupo 112046" transform="translate(-249.418 -1426.806)">
        <path id="Trazado_117897" data-name="Trazado 117897" d="M-187.744-1320.672c-15.649,0-39.652,0-55.3,0-4.55,0-6.471-1.838-6.37-6.328a12.8,12.8,0,0,1,.828-4.153c1.69-4.476,11.9-28.27,13.625-32.734a8.309,8.309,0,0,0,.537-2.908q.047-25.31.021-50.622c0-6.018,3.387-9.388,9.435-9.388q37.506,0,75.013.005c4.616,0,7.924,2.571,8.811,6.852a13.251,13.251,0,0,1,.168,2.657q.013,25.143.026,50.287a8.219,8.219,0,0,0,.468,2.922c1.923,4.922,10.929,29.1,12.511,34.121,1.378,4.378.437,9.395-5.978,9.336C-149.65-1320.769-172.04-1320.672-187.744-1320.672Zm56.206-9.884c-1.79-4.49-10.078-28.012-11.816-32.095-.186-.436-1.151-.765-1.756-.765q-42.588-.055-85.176-.055a1.9,1.9,0,0,0-2.074,1.437c-1.348,3.532-11.142,26.413-12.535,29.929-.172.434-.27.9-.462,1.548h2.211c9.575,0,27.515-.245,37.077.113,4.278.16,7.122-.7,8.256-5.1.329-1.281,1.33-1.744,2.7-1.719,3.729.07,7.46.009,11.189.033,1.826.012,4.031-.51,5.37.324s1.921,3.02,2.656,4.692a2.451,2.451,0,0,0,2.632,1.7c11.022-.062,28.729-.035,39.752-.035Zm-12.631-36.168v-2q0-24.563,0-49.126c0-3.811-1.938-5.749-5.759-5.75q-37.764-.007-75.527,0c-3.836,0-5.738,1.909-5.739,5.755q-.009,24.647,0,49.293c0,.589.054,1.179.086,1.828Zm-101.848,39.465c-.519,2.717-.005,3.383,2.548,3.383,31.627,0,78.292,0,109.919,0,2.532,0,3.07-.716,2.508-3.385Zm67.114-3.418c-.736-3.112-1.035-3.359-3.946-3.36q-4.838,0-9.676,0c-2.9,0-3.218.261-3.938,3.362Z" transform="translate(249.418 1426.806)" fill="#12263f"/>
        <path id="Trazado_117898" data-name="Trazado 117898" d="M-144.456-1406.806h37.09c2.552,0,2.945.376,2.945,2.852q0,22.221,0,44.441c0,2.246-.464,2.695-2.767,2.695q-37.174,0-74.347,0c-2.55,0-2.949-.384-2.95-2.852q-.005-22.137,0-44.274c0-2.473.4-2.864,2.939-2.864Q-163-1406.81-144.456-1406.806Zm-36.741,46.66h73.46v-43.3H-181.2Z" transform="translate(206.186 1413.491)" fill="#12263f"/>
      </g>
      <g id="Grupo_112047" data-name="Grupo 112047" transform="translate(-208.432 -1414.652)">
        <path id="Trazado_117899" data-name="Trazado 117899" d="M-111.6-1348.406c.112.354-.253.887.425,1.152a.92.92,0,0,0,1.179-.221c1.2-1.241,1.274-1.285,2.555-.144a36.3,36.3,0,0,1,2.759,2.945.771.771,0,0,1-.1,1.192c-.215.2-.4.431-.627.615a.832.832,0,0,0-.265,1.113c.2.471.515.486.914.479,1.921-.03,1.732-.066,1.9,1.758a30.377,30.377,0,0,1-.1,3.967c-.024.6-.4.813-.954.8-.248-.006-.5,0-.744,0-.372-.008-.686,0-.859.456a.894.894,0,0,0,.238,1.123c1.262,1.219,1.3,1.285.133,2.6a36.219,36.219,0,0,1-2.9,2.713.777.777,0,0,1-1.237-.1c-.192-.22-.43-.4-.616-.627a.814.814,0,0,0-1.059-.263c-.478.181-.509.485-.5.893.018,1.823.117,1.783-1.672,1.915a34.732,34.732,0,0,1-4.033-.079.794.794,0,0,1-.824-.993c.026-.268,0-.541.006-.811.016-.4-.007-.715-.489-.9a.894.894,0,0,0-1.119.269c-1.189,1.223-1.251,1.268-2.555.139a35.741,35.741,0,0,1-2.706-2.815.837.837,0,0,1,.124-1.346c.186-.162.34-.365.532-.519a.833.833,0,0,0,.29-1.106c-.207-.524-.565-.484-.972-.486-1.509-.008-1.75.346-1.877-1.812a35.782,35.782,0,0,1,.137-3.969.767.767,0,0,1,.908-.775c.338.01.676-.006,1.014,0s.612.007.743-.4c.119-.368.211-.69-.163-.958a1.688,1.688,0,0,1-.192-.19c-1.164-1.172-1.226-1.227-.149-2.449a37.785,37.785,0,0,1,2.927-2.781.835.835,0,0,1,1.346.114c.174.206.4.37.568.578a.784.784,0,0,0,1.049.262c.462-.189.508-.482.512-.894.019-1.656-.337-1.764,1.735-1.933a23.728,23.728,0,0,1,3.5.018C-111.627-1349.787-111.577-1349.671-111.6-1348.406Zm-12.249,4.508c.277.2.548.408.824.6a1.283,1.283,0,0,1,.384,1.817c-.7,1.561-.23,1.565-2.254,1.53-.381-.006-.611.09-.608.506.005,1.01-.008,2.022.037,3.031.007.155.314.446.433.422,1.511-.3,2.2.479,2.494,1.817a.96.96,0,0,0,.115.244.8.8,0,0,1-.179,1.036c-1.14,1.238-1.134,1.244.062,2.453.127.128.252.259.384.381,1.166,1.086,1.178,1.1,2.283,0a.887.887,0,0,1,1.254-.194,1.121,1.121,0,0,0,.426.2c1.284.178,1.654.964,1.473,2.147-.075.491.18.7.66.695.766-.006,1.533.028,2.3,0,1.044-.038,1.043-.056,1.046-1.093,0-1.238.069-1.113,1.115-1.665a1.806,1.806,0,0,1,2.687.581c.239.34.509.3.791.038.446-.413.92-.8,1.344-1.232,1.126-1.152,1.118-1.16,0-2.324-.031-.032-.086-.06-.092-.1a4.735,4.735,0,0,1-.138-.974c.008-.207.233-.4.266-.611a1.523,1.523,0,0,1,2.035-1.425c.426.076.631-.137.636-.559.009-.809.073-1.622.016-2.428-.072-1.034-.113-1.031-1.165-1.036-1.131,0-1.03-.059-1.54-1.006-.624-1.16-.576-2.051.55-2.811.307-.208.3-.474.045-.738-.61-.63-1.228-1.254-1.826-1.9-.483-.519-.906-.474-1.311.081-.558.765-1.14.837-2.078.474-1.088-.422-1.7-.892-1.48-2.117.086-.469-.194-.652-.627-.656-.7-.007-1.4-.039-2.1-.013-1.217.045-1.217.06-1.222,1.283,0,1.071-.062.96-1.021,1.462a1.9,1.9,0,0,1-2.825-.576.58.58,0,0,0-.555-.114A9.732,9.732,0,0,0-123.849-1343.9Z" transform="translate(126.776 1363.474)" fill="#12263f"/>
        <path id="Trazado_117900" data-name="Trazado 117900" d="M-59.2-1384.557c-.213.209-.465.438-.694.688-.169.184-.307.4-.46.6a2.686,2.686,0,0,0,.665.442c.943.277,1.108.387,1,1.347a22.719,22.719,0,0,1-.569,2.832.858.858,0,0,1-1.28.67.648.648,0,0,0-.328-.065.92.92,0,0,0-.507.2c-.073.089-.019.34.054.478.664,1.262.694,1.293-.453,2.164a18.426,18.426,0,0,1-2.076,1.247.91.91,0,0,1-1.37-.38,2.62,2.62,0,0,0-.683-.532,2.44,2.44,0,0,0-.415.759.916.916,0,0,1-1.163.9c-1.018-.154-2.033-.35-3.036-.585-.641-.149-.826-.594-.66-1.244a2.574,2.574,0,0,0-.082-.858,2.734,2.734,0,0,0-.771.266.883.883,0,0,1-1.438-.2c-.563-.836-1.126-1.674-1.647-2.536a.894.894,0,0,1,.378-1.366,2.738,2.738,0,0,0,.555-.673,2.59,2.59,0,0,0-.761-.426c-.691-.113-1.016-.481-.911-1.154.16-1.016.338-2.034.577-3.034a.821.821,0,0,1,1.219-.662.876.876,0,0,0,.4.066c.163-.018.386-.046.459-.154a.578.578,0,0,0-.03-.48c-.632-1.263-.662-1.294.48-2.141a21.276,21.276,0,0,1,2.137-1.278.783.783,0,0,1,1.2.319,2.343,2.343,0,0,0,.354.493c.293.289.551.263.718-.144.008-.021.01-.044.018-.065.521-1.393.71-1.519,2.188-1.263a13.9,13.9,0,0,1,2.029.5c.794.265.865.488.716,1.332a2.556,2.556,0,0,0,.083.728,2.634,2.634,0,0,0,.714-.194c.836-.511.993-.551,1.571.217.6.8,1.095,1.691,1.621,2.551A3.27,3.27,0,0,1-59.2-1384.557Zm-.7,3.21a2.276,2.276,0,0,0-.72-.373,1.017,1.017,0,0,1-.964-1.024,2.785,2.785,0,0,1-.128-.724,1.648,1.648,0,0,1,.358-.921c.716-.641.746-.613.227-1.441-.119-.19-.279-.357-.389-.552-.253-.446-.545-.469-.918-.14a.944.944,0,0,1-1.389-.035,2.319,2.319,0,0,0-.51-.329.791.791,0,0,1-.483-1.05c.248-.7-.064-.946-.7-1a3.647,3.647,0,0,1-.6-.11c-.615-.161-.992.008-1.051.7a.853.853,0,0,1-.884.84,5.439,5.439,0,0,0-.793.163.808.808,0,0,1-1.024-.434c-.307-.663-.712-.628-1.214-.247a4.463,4.463,0,0,1-.563.373c-.557.3-.642.628-.219,1.161.45.567-.362,2.217-1.086,2.3a1.106,1.106,0,0,1-.268-.017c-1.072-.137-1.073-.138-1.25.939a3.2,3.2,0,0,1-.063.468c-.191.587.061.848.627.893a.907.907,0,0,1,.929.952,4.109,4.109,0,0,1,.135.792,1.6,1.6,0,0,1-.365.915c-.715.644-.742.616-.2,1.446.111.169.249.322.349.5.256.451.554.542.964.178a.918.918,0,0,1,1.335.011,3.809,3.809,0,0,0,.624.4.812.812,0,0,1,.424,1.015c-.191.89-.143.929.761,1.073a4.685,4.685,0,0,1,.6.087c.574.171.911,0,.961-.621a.932.932,0,0,1,.965-.924,3.573,3.573,0,0,1,.725-.133,1.588,1.588,0,0,1,.918.313c.69.751.662.776,1.548.214.1-.061.182-.135.282-.186.6-.311.764-.7.267-1.255a.79.79,0,0,1,.021-1.149,6.574,6.574,0,0,1,.525-.778,1.248,1.248,0,0,1,.793-.35c1.08.066,1.077.094,1.266-1.017C-60.029-1380.676-59.98-1380.918-59.9-1381.347Z" transform="translate(92.881 1390.435)" fill="#12263f"/>
        <path id="Trazado_117901" data-name="Trazado 117901" d="M-33.431-1333.318c.622.779.22,1.263-.348,1.7-.214.165-.429.329-.657.473-1.064.673-1.24.671-2.158.025-.2.3-.35.755-.626.856a2.868,2.868,0,0,1-1.243-.049,4.65,4.65,0,0,1-.716-.2c-1.172-.347-1.213-.4-1.22-1.543-1.194.278-1.613.043-2.39-1.339-.532-.948-.512-1.191.072-1.794-.305-.371-.752-.689-.85-1.092a3.141,3.141,0,0,1,.186-1.453c.365-1.341.382-1.337,1.554-1.394-.188-1.26.165-1.789,1.61-2.507.636-.316,1.2-.427,1.679.454.376-1.679,1.48-1.131,2.407-.923,1.256.282,1.247.324,1.443,1.731,1.064-.336,1.307-.234,2.055.863.824,1.209.842,1.518.137,2.394,1.057.581,1.158.815.862,2C-32.063-1333.394-32.115-1333.338-33.431-1333.318Zm-4.552,1.755a1.143,1.143,0,0,1,1.018-1.012c.566-.1.991-.147,1.369.373.058.08.5-.023.675-.158a.655.655,0,0,0,.151-.592,1.369,1.369,0,0,1,1.354-1.821c.167,0,.424-.258.49-.448a.625.625,0,0,0-.192-.574,1.365,1.365,0,0,1-.5-2.245.755.755,0,0,0-.041-.674.652.652,0,0,0-.556-.272,1.351,1.351,0,0,1-1.9-1.4.714.714,0,0,0-.444-.5.735.735,0,0,0-.661.179,1.373,1.373,0,0,1-2.249.478.756.756,0,0,0-.672.057.652.652,0,0,0-.263.557,1.371,1.371,0,0,1-1.279,1.911c-.188.017-.44.319-.493.531a.681.681,0,0,0,.292.583,1.375,1.375,0,0,1,.443,2.1c-.344.3-.23.519-.042.8s.354.394.714.2c.6-.322,1.838.354,1.767,1C-39.093-1331.669-38.654-1331.592-37.983-1331.563Z" transform="translate(71.398 1358.422)" fill="#12263f"/>
        <path id="Trazado_117902" data-name="Trazado 117902" d="M-112.184-1328.091a7,7,0,0,1,7.043-7.036,7.008,7.008,0,0,1,7.039,7.045,7.018,7.018,0,0,1-7.048,7.039A7.009,7.009,0,0,1-112.184-1328.091Zm7.053-5.784a5.788,5.788,0,0,0-5.8,5.809,5.807,5.807,0,0,0,5.776,5.772,5.839,5.839,0,0,0,5.813-5.817A5.82,5.82,0,0,0-105.131-1333.875Z" transform="translate(117.061 1353.611)" fill="#12263f"/>
        <path id="Trazado_117903" data-name="Trazado 117903" d="M-63.6-1373.7a4.5,4.5,0,0,1,4.536-4.558,4.533,4.533,0,0,1,4.552,4.557,4.545,4.545,0,0,1-4.585,4.529A4.511,4.511,0,0,1-63.6-1373.7Zm7.824.006a3.321,3.321,0,0,0-3.3-3.321,3.315,3.315,0,0,0-3.275,3.275,3.312,3.312,0,0,0,3.3,3.318A3.319,3.319,0,0,0-55.779-1373.69Z" transform="translate(84.715 1382.325)" fill="#12263f"/>
        <path id="Trazado_117904" data-name="Trazado 117904" d="M-28.87-1330.666a3.388,3.388,0,0,1-3.368,3.355,3.4,3.4,0,0,1-3.314-3.345,3.413,3.413,0,0,1,3.376-3.358A3.386,3.386,0,0,1-28.87-1330.666Zm-3.344-2.05a2.067,2.067,0,0,0-2.06,2.064,2.054,2.054,0,0,0,2.076,2.044,2.019,2.019,0,0,0,2.045-2.062A2.021,2.021,0,0,0-32.214-1332.717Z" transform="translate(66.039 1352.87)" fill="#12263f"/>
      </g>
    </g>
  </g>
</svg>
