<svg xmlns="http://www.w3.org/2000/svg" xmlns:xlink="http://www.w3.org/1999/xlink" width="400.001" height="236.717" viewBox="0 0 400.001 236.717">
  <defs>
    <linearGradient id="linear-gradient" x1="0.5" y1="1.719" x2="0.5" y2="0.109" gradientUnits="objectBoundingBox">
      <stop offset="0" stop-color="#fff"/>
      <stop offset="0.118" stop-color="#fff" stop-opacity="0.824"/>
      <stop offset="0.3" stop-color="#fff" stop-opacity="0.576"/>
      <stop offset="0.475" stop-color="#fff" stop-opacity="0.373"/>
      <stop offset="0.636" stop-color="#fff" stop-opacity="0.212"/>
      <stop offset="0.783" stop-color="#fff" stop-opacity="0.094"/>
      <stop offset="0.909" stop-color="#fff" stop-opacity="0.024"/>
      <stop offset="1" stop-color="#fff" stop-opacity="0"/>
    </linearGradient>
  </defs>
  <g id="Grupo_128597" data-name="Grupo 128597" transform="translate(-180 -6542.408)">
    <g id="Grupo_128538" data-name="Grupo 128538" transform="translate(-4288.34 -1870.99)">
      <g id="Grupo_128531" data-name="Grupo 128531" transform="translate(4468.339 8432.306)">
        <g id="Grupo_128530" data-name="Grupo 128530" transform="translate(0 0)">
          <path id="Trazado_189150" data-name="Trazado 189150" d="M4856.393,8664.889a11.791,11.791,0,0,0,11.791-11.6c.492-32.082,3.078-79.408-57.346-92.5-48.9-10.59-19.907-97.49-151.594-91.875-94.53,4.029-69.417,83.711-142.917,90.346-48.908,4.412-49.331,66.271-47.453,94.613a11.794,11.794,0,0,0,11.767,11.018Z" transform="translate(-4468.338 -8447.079)" fill="#edf7ff"/>
          <g id="Grupo_128510" data-name="Grupo 128510" transform="translate(140.832 21.573)" opacity="0.32">
            <path id="Trazado_189151" data-name="Trazado 189151" d="M4822.073,8560.787c-48.9-10.59-19.907-97.49-151.594-91.875-22.482.959-38.191,6.2-50.073,13.721,4-.527,8.252-.895,12.78-1.09,131.688-5.613,102.7,81.287,151.594,91.879,59.78,12.945,57.888,59.4,57.364,91.467h25.485a11.79,11.79,0,0,0,11.79-11.6C4879.913,8621.2,4882.5,8573.877,4822.073,8560.787Z" transform="translate(-4620.406 -8468.651)" fill="#b8dcfb" opacity="0.55"/>
          </g>
          <g id="Grupo_128513" data-name="Grupo 128513" transform="translate(114.473 -18.907)">
            <g id="Grupo_128512" data-name="Grupo 128512">
              <path id="Trazado_189152" data-name="Trazado 189152" d="M4760.74,8463.486l-154.611-18.046a12.044,12.044,0,0,0-13.36,10.568l-11.541,98.864a12.044,12.044,0,0,0,10.567,13.36l154.611,18.047a12.044,12.044,0,0,0,13.361-10.567l11.539-98.865A12.043,12.043,0,0,0,4760.74,8463.486Z" transform="translate(-4581.146 -8445.358)" fill="#d7f0f9"/>
              <path id="Trazado_189153" data-name="Trazado 189153" d="M4771,8486.632l1.141-9.784a12.043,12.043,0,0,0-10.567-13.361l-154.611-18.046a12.044,12.044,0,0,0-13.36,10.568l-1.143,9.784Z" transform="translate(-4581.983 -8445.358)" fill="#0582c1"/>
              <g id="Grupo_128511" data-name="Grupo 128511" transform="translate(22.254 10.132)">
                <path id="Trazado_189154" data-name="Trazado 189154" d="M4611.629,8459.913a3.238,3.238,0,1,1-2.84-3.593A3.233,3.233,0,0,1,4611.629,8459.913Z" transform="translate(-4605.176 -8456.298)" fill="#fff"/>
                <path id="Trazado_189155" data-name="Trazado 189155" d="M4628.375,8461.866a3.237,3.237,0,1,1-2.841-3.591A3.236,3.236,0,0,1,4628.375,8461.866Z" transform="translate(-4606.415 -8456.443)" fill="#79c9e8"/>
                <path id="Trazado_189156" data-name="Trazado 189156" d="M4645.733,8463.894a3.237,3.237,0,1,1-2.84-3.593A3.237,3.237,0,0,1,4645.733,8463.894Z" transform="translate(-4607.697 -8456.591)" fill="#ffbf4d"/>
              </g>
            </g>
          </g>
          <g id="Grupo_128520" data-name="Grupo 128520" transform="translate(36.15 134.636)">
            <g id="Grupo_128519" data-name="Grupo 128519">
              <g id="Grupo_128514" data-name="Grupo 128514" transform="translate(12.096)">
                <path id="Trazado_189157" data-name="Trazado 189157" d="M4534.7,8652.551s-2.1-1.959-.69-9.395,4.979-14.564,3.227-22.625-15.488-28.391-15.535-29.744-4.238,23.652,2.866,33.5,7.959,13.262,7.645,18.441.073,9.35.852,10.555Z" transform="translate(-4520.434 -8590.734)" fill="#79c9e8"/>
                <path id="Trazado_189158" data-name="Trazado 189158" d="M4533.5,8637.607c-.826,3.313-1.325,11.628,0,13.617.123.186.3.08.521-.264-.4-1.375-.666-3.784.095-7.8,1.408-7.43,4.979-14.565,3.226-22.626s-15.488-28.391-15.534-29.742c0,0,2.07,16.937,9.041,28.593A22.25,22.25,0,0,1,4533.5,8637.607Z" transform="translate(-4520.536 -8590.74)" fill="#49b4d6"/>
              </g>
              <g id="Grupo_128515" data-name="Grupo 128515" transform="translate(27.687 18.134)">
                <path id="Trazado_189159" data-name="Trazado 189159" d="M4538.452,8653.48s-4.036-10.074,2.8-18.8,17.778-19.924,18-24.359c0,0,2.811,21.066-6.092,27.031s-15.145,6.916-13.6,16.094Z" transform="translate(-4537.269 -8610.318)" fill="#79c9e8"/>
                <path id="Trazado_189160" data-name="Trazado 189160" d="M4548.139,8633.115c-9.927,7.225-10.738,15.547-9.2,19.408a.982.982,0,0,0,.646.58c-1.332-8.855,4.862-9.865,13.651-15.754,8.9-5.965,6.091-27.031,6.091-27.031S4558.066,8625.889,4548.139,8633.115Z" transform="translate(-4537.348 -8610.318)" fill="#49b4d6"/>
              </g>
              <g id="Grupo_128517" data-name="Grupo 128517" transform="translate(0 14.122)">
                <path id="Trazado_189161" data-name="Trazado 189161" d="M4529.605,8653.387a35.251,35.251,0,0,0,.606-11.1c-.689-5.76-6.707-9-12.328-15.083-2.894-3.13-3.748-19.683-1.956-21.222,0,0-9.925,12.027-8.394,20.837s17.723,14.528,19.222,18.786a23.655,23.655,0,0,1,1.375,7.828Z" transform="translate(-4507.373 -8605.985)" fill="#79c9e8"/>
                <g id="Grupo_128516" data-name="Grupo 128516" transform="translate(3.998)">
                  <path id="Trazado_189162" data-name="Trazado 189162" d="M4512.891,8610.738c-3.28,8.885.084,19.643,10.981,26.326,8.023,4.921,5.469,15.149,5.469,15.149l1.311-4.034a32.029,32.029,0,0,0-.123-5.871c-.688-5.761-6.705-9-12.328-15.083-2.789-3.02-3.685-18.522-2.134-21A52.732,52.732,0,0,0,4512.891,8610.738Z" transform="translate(-4511.689 -8606.002)" fill="#49b4d6"/>
                  <path id="Trazado_189163" data-name="Trazado 189163" d="M4516.417,8606.208c.111-.142.179-.223.179-.223A.929.929,0,0,0,4516.417,8606.208Z" transform="translate(-4512.04 -8605.985)" fill="#49b4d6"/>
                </g>
              </g>
              <g id="Grupo_128518" data-name="Grupo 128518" transform="translate(30.946 39.731)">
                <path id="Trazado_189164" data-name="Trazado 189164" d="M4540.789,8654.763s2.326-8.633,8.08-9.794,12.361-9.665,12.718-11.331C4561.587,8633.638,4560.617,8649.673,4540.789,8654.763Z" transform="translate(-4540.789 -8633.638)" fill="#79c9e8"/>
                <path id="Trazado_189165" data-name="Trazado 189165" d="M4548.719,8647.823c-3.527,1.763-4.991,4.135-5.512,6.286,17.653-5.677,18.56-20.472,18.56-20.472a6.336,6.336,0,0,1-.9,1.687C4559.137,8638.356,4554.947,8644.709,4548.719,8647.823Z" transform="translate(-4540.968 -8633.638)" fill="#49b4d6"/>
              </g>
            </g>
            <path id="Trazado_189166" data-name="Trazado 189166" d="M4551.832,8653.016h-30.094l3.575,22.477a3.511,3.511,0,0,0,3.467,2.961h16.011a3.513,3.513,0,0,0,3.468-2.961Z" transform="translate(-4508.434 -8595.337)" fill="#ffbf4d"/>
            <path id="Trazado_189167" data-name="Trazado 189167" d="M4551.241,8656.734l.591-3.719h-30.093l.59,3.719Z" transform="translate(-4508.435 -8595.337)" fill="#ff9f50"/>
            <path id="Trazado_189168" data-name="Trazado 189168" d="M4545.8,8653.016l-3.574,22.477a3.51,3.51,0,0,1-3.467,2.961h7.291a3.511,3.511,0,0,0,3.466-2.961l3.575-22.477Z" transform="translate(-4509.691 -8595.337)" fill="#ff9f50"/>
          </g>
          <g id="Grupo_128525" data-name="Grupo 128525" transform="translate(151.104 132.097)">
            <rect id="Rectángulo_41090" data-name="Rectángulo 41090" width="136.012" height="27.654" transform="translate(0 20.133)" fill="#ffbf4d"/>
            <rect id="Rectángulo_41091" data-name="Rectángulo 41091" width="136.012" height="6.712" transform="translate(0 20.133)" fill="#f98d2b" opacity="0.29" style="mix-blend-mode: multiply;isolation: isolate"/>
            <path id="Trazado_189169" data-name="Trazado 189169" d="M4644,8609.733h12.414l-3.327,6.717h-12.42Z" transform="translate(-4632.176 -8589.601)" fill="#f77e2d"/>
            <path id="Trazado_189170" data-name="Trazado 189170" d="M4674.2,8609.733h12.414l-3.327,6.717h-12.414Z" transform="translate(-4634.407 -8589.601)" fill="#f77e2d"/>
            <path id="Trazado_189171" data-name="Trazado 189171" d="M4704.4,8609.733h12.413l-3.327,6.717h-12.415Z" transform="translate(-4636.639 -8589.601)" fill="#f77e2d"/>
            <path id="Trazado_189172" data-name="Trazado 189172" d="M4734.6,8609.733h12.408l-3.327,6.717h-12.407Z" transform="translate(-4638.87 -8589.601)" fill="#f77e2d"/>
            <path id="Trazado_189173" data-name="Trazado 189173" d="M4777.114,8609.733v.187l-3.241,6.53h-12.4l3.326-6.717Z" transform="translate(-4641.103 -8589.601)" fill="#f77e2d"/>
            <rect id="Rectángulo_41092" data-name="Rectángulo 41092" width="9.588" height="37.812" transform="translate(16.93 47.79)" fill="#79c9e8"/>
            <rect id="Rectángulo_41093" data-name="Rectángulo 41093" width="2.178" height="37.812" transform="translate(24.341 47.79)" fill="#49b4d6"/>
            <rect id="Rectángulo_41094" data-name="Rectángulo 41094" width="9.588" height="37.812" transform="translate(110.237 47.79)" fill="#79c9e8"/>
            <rect id="Rectángulo_41095" data-name="Rectángulo 41095" width="2.835" height="37.812" transform="translate(116.991 47.79)" fill="#49b4d6"/>
            <rect id="Rectángulo_41096" data-name="Rectángulo 41096" width="9.588" height="4.762" transform="translate(16.93 47.76)" fill="#49b4d6"/>
            <rect id="Rectángulo_41097" data-name="Rectángulo 41097" width="9.588" height="4.762" transform="translate(110.237 47.76)" fill="#49b4d6"/>
            <rect id="Rectángulo_41098" data-name="Rectángulo 41098" width="9.588" height="4.294" transform="translate(16.93 15.813)" fill="#79c9e8"/>
            <rect id="Rectángulo_41099" data-name="Rectángulo 41099" width="2.178" height="4.294" transform="translate(24.341 15.813)" fill="#49b4d6"/>
            <rect id="Rectángulo_41100" data-name="Rectángulo 41100" width="9.588" height="4.294" transform="translate(110.237 15.813)" fill="#79c9e8"/>
            <rect id="Rectángulo_41101" data-name="Rectángulo 41101" width="2.835" height="4.294" transform="translate(116.991 15.813)" fill="#49b4d6"/>
            <rect id="Rectángulo_41102" data-name="Rectángulo 41102" width="9.588" height="0.541" transform="translate(16.93 19.569)" fill="#49b4d6"/>
            <rect id="Rectángulo_41103" data-name="Rectángulo 41103" width="9.588" height="0.541" transform="translate(110.237 19.569)" fill="#49b4d6"/>
            <g id="Grupo_128522" data-name="Grupo 128522" transform="translate(0 20.133)">
              <g id="Grupo_128521" data-name="Grupo 128521">
                <path id="Trazado_189174" data-name="Trazado 189174" d="M4655.738,8609.733l-13.717,27.654H4631.5v-3.813l11.826-23.841Z" transform="translate(-4631.499 -8609.733)" fill="#0582c1"/>
                <path id="Trazado_189175" data-name="Trazado 189175" d="M4673.372,8609.733l-13.716,27.654h12.413l13.716-27.654Z" transform="translate(-4633.579 -8609.733)" fill="#0582c1"/>
                <path id="Trazado_189176" data-name="Trazado 189176" d="M4715.985,8609.733l-13.717,27.654h-12.413l13.716-27.654Z" transform="translate(-4635.81 -8609.733)" fill="#0582c1"/>
                <path id="Trazado_189177" data-name="Trazado 189177" d="M4746.179,8609.733l-13.711,27.654h-12.414l13.717-27.654Z" transform="translate(-4638.042 -8609.733)" fill="#0582c1"/>
                <path id="Trazado_189178" data-name="Trazado 189178" d="M4763.971,8609.733l-13.718,27.654h12.408l13.624-27.468Z" transform="translate(-4640.272 -8609.733)" fill="#0582c1"/>
              </g>
            </g>
            <g id="Grupo_128524" data-name="Grupo 128524" transform="translate(8.492 20.133)">
              <g id="Grupo_128523" data-name="Grupo 128523">
                <path id="Trazado_189179" data-name="Trazado 189179" d="M4656.416,8609.733l-3.327,6.717h-12.42l3.333-6.717Z" transform="translate(-4640.668 -8609.733)" fill="#00668e"/>
                <path id="Trazado_189180" data-name="Trazado 189180" d="M4686.615,8609.733l-3.327,6.717h-12.414l3.327-6.717Z" transform="translate(-4642.899 -8609.733)" fill="#00668e"/>
                <path id="Trazado_189181" data-name="Trazado 189181" d="M4716.814,8609.733l-3.327,6.717h-12.415l3.329-6.717Z" transform="translate(-4645.13 -8609.733)" fill="#00668e"/>
                <path id="Trazado_189182" data-name="Trazado 189182" d="M4747.008,8609.733l-3.327,6.717h-12.407l3.327-6.717Z" transform="translate(-4647.363 -8609.733)" fill="#00668e"/>
                <path id="Trazado_189183" data-name="Trazado 189183" d="M4777.114,8609.92l-3.241,6.53h-12.4l3.326-6.717Z" transform="translate(-4649.594 -8609.733)" fill="#00668e"/>
              </g>
            </g>
            <rect id="Rectángulo_41104" data-name="Rectángulo 41104" width="129.877" height="13.832" transform="translate(3.79 32.097)" opacity="0.55" fill="url(#linear-gradient)" style="mix-blend-mode: overlay;isolation: isolate"/>
            <circle id="Elipse_4823" data-name="Elipse 4823" cx="8.549" cy="8.549" r="8.549" transform="matrix(0.987, -0.161, 0.161, 0.987, 11.664, 2.747)" fill="#ffbf4d"/>
            <path id="Trazado_189184" data-name="Trazado 189184" d="M4658.251,8598.278a3.874,3.874,0,1,0-3.875,3.876A3.874,3.874,0,0,0,4658.251,8598.278Z" transform="translate(-4632.903 -8588.469)" fill="#0582c1"/>
            <circle id="Elipse_4824" data-name="Elipse 4824" cx="8.549" cy="8.549" r="8.549" transform="matrix(0.987, -0.161, 0.161, 0.987, 105.165, 2.747)" fill="#ffbf4d"/>
            <path id="Trazado_189185" data-name="Trazado 189185" d="M4759.212,8598.278a3.875,3.875,0,1,0-3.876,3.876A3.874,3.874,0,0,0,4759.212,8598.278Z" transform="translate(-4640.363 -8588.469)" fill="#0582c1"/>
          </g>
          <g id="Grupo_128528" data-name="Grupo 128528" transform="translate(291.865 166.284)">
            <path id="Trazado_189186" data-name="Trazado 189186" d="M4830.546,8673.393h-43.318l6.625-16.062v-.008l2.666-6.48.733-1.775,1.2-2.893.243-.588,2.666-6.48.49-1.18,4.723-11.467a2.5,2.5,0,0,1,4.632,0l4.722,11.467.49,1.18,2.664,6.48.244.588,1.2,2.893.735,1.775,2.664,6.48v.008Z" transform="translate(-4783.767 -8624.908)" fill="#ffbf4d"/>
            <path id="Trazado_189187" data-name="Trazado 189187" d="M4790.068,8669.823l-2.839,6.887h43.32l-2.838-6.887Z" transform="translate(-4783.766 -8628.226)" fill="#f98d2b" opacity="0.29" style="mix-blend-mode: multiply;isolation: isolate"/>
            <rect id="Rectángulo_41105" data-name="Rectángulo 41105" width="49.612" height="7.014" transform="translate(0 44.366)" fill="#79c9e8"/>
            <rect id="Rectángulo_41106" data-name="Rectángulo 41106" width="10.719" height="7.014" transform="translate(38.893 44.366)" fill="#49b4d6"/>
            <g id="Grupo_128527" data-name="Grupo 128527" transform="translate(10.087 0.005)">
              <path id="Trazado_189188" data-name="Trazado 189188" d="M4830.324,8669.273H4824.2l-4.922-11.939v-.009l-2.664-6.479-.734-1.778-1.2-2.89-.245-.592-2.665-6.479-.488-1.178-3.972-9.653.744-1.812a2.506,2.506,0,0,1,4.632,0l4.723,11.466.489,1.178,2.664,6.479.245.592,1.2,2.89.734,1.778,2.664,6.479v.009Z" transform="translate(-4795.337 -8624.914)" fill="#f98d2b" opacity="0.29" style="mix-blend-mode: multiply;isolation: isolate"/>
              <g id="Grupo_128526" data-name="Grupo 128526" transform="translate(0 14.19)">
                <path id="Trazado_189189" data-name="Trazado 189189" d="M4819.994,8646.716h-20.385l2.664-6.479h15.056Z" transform="translate(-4794.769 -8640.236)" fill="#0582c1"/>
                <path id="Trazado_189190" data-name="Trazado 189190" d="M4824.447,8659.391v.01h-30.064v-.01l2.665-6.479h24.735Z" transform="translate(-4794.383 -8641.173)" fill="#0582c1"/>
                <path id="Trazado_189191" data-name="Trazado 189191" d="M4820.919,8646.716h-6.128l-2.664-6.479h6.128Z" transform="translate(-4795.693 -8640.236)" fill="#00668e"/>
                <path id="Trazado_189192" data-name="Trazado 189192" d="M4826.145,8659.391v.01h-6.127v-.01l-2.664-6.479h6.127Z" transform="translate(-4796.08 -8641.173)" fill="#00668e"/>
              </g>
            </g>
          </g>
          <g id="Grupo_128529" data-name="Grupo 128529" transform="translate(7.557 -15.514)">
            <path id="Trazado_189193" data-name="Trazado 189193" d="M4531.468,8504.581a6.512,6.512,0,0,0,6.487-5.558,13.083,13.083,0,0,0,.118-1.759,12.927,12.927,0,0,0-12.928-12.928c-.292,0-.582.013-.87.033a13.731,13.731,0,0,0-27.414,1.161c0,.336.016.668.041,1a13.732,13.732,0,0,0-20.384,11c0,.056-.007.111-.01.164a6.546,6.546,0,0,0,6.558,6.889Z" transform="translate(-4476.499 -8471.799)" fill="#d7f0f9"/>
            <path id="Trazado_189194" data-name="Trazado 189194" d="M4864.439,8515.786c10.222,0,10.789-15.388.578-15.883-.28-.013-.56-.019-.843-.019a17,17,0,0,0-5.223.816,17.541,17.541,0,0,0-34.694.553,16.249,16.249,0,0,0-11.024-1.071c-8.938,2.3-7.062,15.6,2.167,15.6Z" transform="translate(-4500.95 -8472.85)" fill="#d7f0f9"/>
          </g>
        </g>
      </g>
      <g id="Grupo_128532" data-name="Grupo 128532" transform="translate(4600.742 8464.15)">
        <path id="Trazado_189197" data-name="Trazado 189197" d="M4600.685,8521.647c.832-8.86,8.877-15.5,16.648-14.869,11.392.921,18.206,8.86,17.066,18.859a17.217,17.217,0,0,1-18.845,14.942C4606.413,8539.578,4599.283,8530.763,4600.685,8521.647Zm23.553,8.779c-.47-.623-.681-.919-.907-1.2-1.128-1.417-2.221-2.864-3.4-4.232-.735-.846-.714-1.367.249-2.041,1.543-1.086,2.96-2.351,4.466-3.492.676-.51.9-.9.3-1.7s-1.008-.691-1.671-.139c-1.451,1.211-3.012,2.291-4.417,3.551-.969.869-1.5.669-2.193-.3-1-1.41-2.16-2.708-3.207-4.086-.5-.66-.893-.954-1.7-.326-.859.669-.476,1.139,0,1.727,1.141,1.408,2.216,2.869,3.4,4.232.694.791.6,1.241-.223,1.849-1.588,1.163-3.083,2.446-4.651,3.637-.659.5-.959.855-.28,1.646.619.719,1.029.726,1.717.148,1.449-1.214,3.015-2.291,4.415-3.552.972-.874,1.512-.686,2.211.287,1.057,1.466,2.229,2.852,3.36,4.267.275.344.479.849,1.1.458C4623.209,8530.9,4623.654,8530.724,4624.238,8530.427Z" transform="translate(-4600.508 -8506.737)" fill="#fcce57"/>
        <path id="Trazado_189198" data-name="Trazado 189198" d="M4654.214,8529.8a84.8,84.8,0,0,0-1.126,9.845c-.1.386.057.564.448.549,5.78.7,11.553,1.483,17.345,2.063,1.7.171,2.021.723,1.784,2.311-.21,1.4-.458,1.979-2.116,1.759-6.868-.9-13.753-1.683-20.645-2.389-1.594-.161-1.888-.705-1.7-2.209q1.76-14.411,3.322-28.851c.166-1.532.62-1.915,2.162-1.717q9.955,1.28,19.942,2.3c1.516.157,1.97.59,1.748,2.157-.2,1.421-.491,2-2.115,1.778-5.146-.706-10.328-1.156-15.474-1.865-1.676-.231-2.2.23-2.287,1.855a57.45,57.45,0,0,1-.724,6.331c-.222,1.349.224,1.755,1.536,1.885,4.855.49,9.692,1.2,14.553,1.593,1.839.15,1.666,1,1.548,2.285s-.311,1.92-1.925,1.706c-5.224-.7-10.474-1.194-15.716-1.771C4654.441,8529.334,4654.191,8529.371,4654.214,8529.8Z" transform="translate(-4604.029 -8507.061)" fill="#084a92"/>
        <path id="Trazado_189199" data-name="Trazado 189199" d="M4730.459,8530.342a14.4,14.4,0,0,1,2.891,18.1,9.95,9.95,0,0,1-7.092,4.959c-7.548,1.492-13.3-3.367-13.443-11.168a18.151,18.151,0,0,1,1.047-6.479c2.018-5.655,7.1-8.01,13.81-6.546C4728.6,8529.584,4729.532,8529.961,4730.459,8530.342Zm-8.372,19.439c3.812.87,5.958-.437,7.339-2.848a12.627,12.627,0,0,0,1.281-9.786,6.581,6.581,0,0,0-12.461-1.128,13.224,13.224,0,0,0-.986,8.949C4718.005,8548.111,4719.644,8549.494,4722.088,8549.781Z" transform="translate(-4608.806 -8508.367)" fill="#084a92"/>
        <path id="Trazado_189200" data-name="Trazado 189200" d="M4697.94,8538.187c.4-3.436.774-6.873,1.2-10.307.083-.681-.148-1.895,1.128-1.485.91.286,2.5-.778,2.687,1.287.163,1.812,1.008.666,1.631.234a5.285,5.285,0,0,1,6.542-.1c1.3.815.648,1.55.14,2.3-.434.645-.225,2-1.773,1.5-4.2-1.356-6.315-.106-7.025,4.36-.665,4.188-1.131,8.414-1.528,12.64-.177,1.9-.937,2.343-2.744,2.093-1.4-.2-1.65-.752-1.492-1.985C4697.159,8545.221,4697.533,8541.7,4697.94,8538.187Z" transform="translate(-4607.613 -8508.187)" fill="#084a92"/>
        <path id="Trazado_189201" data-name="Trazado 189201" d="M4682.87,8524.783c3.172-.651,3.533-.374,3.575,3.065,1.208-1.214,2.128-2.469,3.745-2.868,1.7-.422,3.027.279,4.457.935,1.6.734.646,1.673.208,2.437-.4.7-.369,2.059-2.056,1.289-3.128-1.429-5.4-.214-6.418,3.135a52.421,52.421,0,0,0-1.422,9.048c-.209,1.712-.372,3.431-.607,5.139-.078.561.007,1.706-.707,1.434-1.137-.431-2.659,1.368-3.4-.635Q4681.556,8536.272,4682.87,8524.783Z" transform="translate(-4606.399 -8508.05)" fill="#084a92"/>
        <path id="Trazado_189202" data-name="Trazado 189202" d="M4746.412,8534.936c3.575-3.564,5.392-3.9,8.444-2.131,1.3.75.851,1.5.332,2.225s-.326,2.326-2.19,1.523c-3.172-1.368-5.236-.309-6.3,3-1.462,4.541-1.456,9.31-2,13.984-.216,1.837-1.062,2.128-2.523,2.014-1.693-.129-1.672-1.218-1.514-2.527.786-6.483,1.519-12.975,2.259-19.465.142-1.242-.036-2.4,2.052-2.16,2.07.235,1.667,1.293,1.484,2.527C4746.421,8534.143,4746.433,8534.368,4746.412,8534.936Z" transform="translate(-4610.858 -8508.557)" fill="#084a92"/>
        <path id="Trazado_189203" data-name="Trazado 189203" d="M4624.965,8531.178c-.583.291-1.027.473-1.428.727-.615.39-.822-.117-1.1-.459-1.13-1.416-2.3-2.8-3.359-4.269-.7-.97-1.24-1.16-2.21-.285-1.4,1.261-2.967,2.336-4.417,3.553-.688.576-1.1.568-1.718-.152-.678-.787-.378-1.143.281-1.645,1.57-1.188,3.064-2.476,4.652-3.637.826-.605.917-1.056.223-1.85-1.189-1.361-2.265-2.821-3.406-4.23-.474-.586-.859-1.057,0-1.725.8-.627,1.2-.335,1.7.322,1.048,1.381,2.206,2.679,3.207,4.088.693.973,1.225,1.175,2.195.3,1.4-1.258,2.965-2.343,4.417-3.552.662-.555,1.069-.669,1.671.138s.374,1.188-.3,1.7c-1.505,1.142-2.922,2.406-4.466,3.489-.961.677-.983,1.193-.25,2.043,1.184,1.368,2.276,2.816,3.4,4.231C4624.284,8530.256,4624.5,8530.553,4624.965,8531.178Z" transform="translate(-4601.235 -8507.487)" fill="#fcf3f3"/>
      </g>
      <g id="Grupo_128537" data-name="Grupo 128537" transform="translate(4548.854 8491.399)">
        <path id="Trazado_189204" data-name="Trazado 189204" d="M4578.9,8585.613a83.194,83.194,0,0,0-1.74,18.728c.311,8.476-.7,64.187-.7,64.187h6.805s9.687-43.634,10.05-47.081,5.234-37.9,5.234-37.9Z" transform="translate(-4556.841 -8514.663)" fill="#00668e"/>
        <path id="Trazado_189205" data-name="Trazado 189205" d="M4583.975,8583.035s1.566,11.9,4.23,20.363,15.75,65.092,15.75,65.092h6.806s-1.254-43.633-1.723-47.078-3.917-37.906-3.917-37.906Z" transform="translate(-4557.396 -8514.625)" fill="#0582c1"/>
        <path id="Trazado_189206" data-name="Trazado 189206" d="M4606.149,8675.3v4.748H4619.1a.743.743,0,0,0,.411-1.362,20.521,20.521,0,0,0-7.75-3.386Z" transform="translate(-4559.035 -8521.441)" fill="#0582c1"/>
        <path id="Trazado_189207" data-name="Trazado 189207" d="M4576.833,8675.3v4.748h12.955a.743.743,0,0,0,.411-1.362,20.53,20.53,0,0,0-7.75-3.386Z" transform="translate(-4556.869 -8521.441)" fill="#0582c1"/>
        <g id="Grupo_128533" data-name="Grupo 128533" transform="translate(26.676 5.482)">
          <path id="Trazado_189208" data-name="Trazado 189208" d="M4600.741,8522.638s4.456-6.764-.661-7.426c-3.927-.5-5.543.664-5.543.664s-4.522-.5-7,1.646c-1.7,1.471-7.921,12.872,2.145,17s7.921-6.436,7.921-6.436Z" transform="translate(-4584.081 -8515.085)" fill="#00668e"/>
          <path id="Trazado_189209" data-name="Trazado 189209" d="M4600.08,8515.212c-3.927-.5-5.543.664-5.543.664s-4.522-.5-7,1.646c-1.7,1.471-7.921,12.872,2.145,17,4.732,1.94,6.764.632,7.59-1.3-9.55,2.687-10.584-8.823-9.01-12.1,1.6-3.329,5.441-1.795,5.441-1.795,1.5-3.781,6.4-3.37,8.414-3.076A2.768,2.768,0,0,0,4600.08,8515.212Z" transform="translate(-4584.081 -8515.085)" fill="#05556d"/>
          <path id="Trazado_189210" data-name="Trazado 189210" d="M4594.916,8526.542s-1.318-1.321-2.308,0-.33,4.292,1.32,4.456c0,0-.5,4.289-3.8,4.124v3.466h7.755v-2.642s4.787-1.979,4.621-5.938a21.915,21.915,0,0,0-1.319-6.766A10.794,10.794,0,0,1,4594.916,8526.542Z" transform="translate(-4584.527 -8515.689)" fill="#f98d3d"/>
          <path id="Trazado_189211" data-name="Trazado 189211" d="M4596.354,8537.994c.768.318.632.8.667,1.529h1.115v-2.639s-1.879.6-4.631-.973A12.262,12.262,0,0,0,4596.354,8537.994Z" transform="translate(-4584.776 -8516.624)" fill="#ed701b"/>
        </g>
        <path id="Trazado_189212" data-name="Trazado 189212" d="M4597.932,8519.918s-4.021-1.6-4.491-.4c-.308.787.477,1.466,1.549,2.149l-.945.155a.249.249,0,0,0-.122.437,5.257,5.257,0,0,0,2.514.409Z" transform="translate(-4558.091 -8509.899)" fill="#f98d3d"/>
        <g id="Grupo_128534" data-name="Grupo 128534" transform="translate(5.43 9.866)">
          <path id="Trazado_189213" data-name="Trazado 189213" d="M4572.474,8566.43l5.386,17.355-.095-.873.095.873,1.818-25.273Z" transform="translate(-4561.977 -8522.68)" fill="none"/>
          <path id="Trazado_189214" data-name="Trazado 189214" d="M4624.257,8530.044c-7.666-5.684-28.6-10.224-28.6-10.224l-1.726,3.144s19.008,7.365,17.752,8.462c-.736.65-10.024,4.905-13.169,6.337a4.966,4.966,0,0,1-2.161.443l-9.624-.054a15.179,15.179,0,0,0-12.4,5.448c-4.883,5.62-13.182,18.631-13.182,18.631l13.979,20.562,1.549,2.273.014-.03-.014.19s.5.056,1.379.139c4.494.414,18.9,1.554,26.521-.064l.212-.046-.361-33.73a130.927,130.927,0,0,0,20.063-19.414A1.41,1.41,0,0,0,4624.257,8530.044Zm-46.914,46-1.363-2.982-4.344-9.491,7.207-8.075-1.3,17.717Z" transform="translate(-4561.14 -8519.82)" fill="#ffbf4d"/>
        </g>
        <path id="Trazado_189215" data-name="Trazado 189215" d="M4577.095,8577.309l1.362,2.979-.661,9-.013.027-1.548-2.272Z" transform="translate(-4556.825 -8514.2)" fill="#efaa3a"/>
        <path id="Trazado_189216" data-name="Trazado 189216" d="M4604.191,8551.126c-1.295.941-.968,9.282-1.286,14.5-.536,8.734-1.058,16.293-.673,21.165a38.848,38.848,0,0,0,5.361-.673l.211-.048-.36-33.73a130.613,130.613,0,0,0,20.063-19.413,1.411,1.411,0,0,0-.225-2.067A171.888,171.888,0,0,1,4604.191,8551.126Z" transform="translate(-4558.735 -8510.769)" fill="#f98d2b" opacity="0.29" style="mix-blend-mode: multiply;isolation: isolate"/>
        <path id="Trazado_189217" data-name="Trazado 189217" d="M4610.387,8621.975c-.339-2.486-2.228-21.12-3.253-31.3l-4.89.538s7.132,58.653,7.6,77.845h2.264S4610.856,8625.421,4610.387,8621.975Z" transform="translate(-4558.748 -8515.188)" fill="#00668e"/>
        <g id="Grupo_128536" data-name="Grupo 128536" transform="translate(0 0)">
          <path id="Trazado_189218" data-name="Trazado 189218" d="M4575.56,8526.465l-1.475-2.646a9.976,9.976,0,1,0-1.727,2.354Z" transform="translate(-4555.276 -8509.167)" fill="#0582c1"/>
          <g id="Grupo_128535" data-name="Grupo 128535" transform="translate(4.792 9.028)">
            <path id="Trazado_189219" data-name="Trazado 189219" d="M4560.451,8518.975h.388v1.392c0,.427.126.608.427.608.233,0,.4-.116.614-.384v-1.616h.383v2.274h-.318l-.033-.354h-.014a.964.964,0,0,1-.75.413c-.482,0-.7-.311-.7-.889Z" transform="translate(-4560.451 -8518.919)" fill="#fff"/>
            <path id="Trazado_189220" data-name="Trazado 189220" d="M4564.127,8521.438v.769h-.384v-3.235h.318l.033.261h.014a1.175,1.175,0,0,1,.728-.318c.585,0,.9.453.9,1.163,0,.771-.463,1.227-.982,1.227a1.06,1.06,0,0,1-.634-.262Zm.559-.459c.374,0,.65-.341.65-.9,0-.5-.17-.838-.6-.838a.963.963,0,0,0-.608.3v1.2A.907.907,0,0,0,4564.686,8520.979Z" transform="translate(-4560.694 -8518.914)" fill="#fff"/>
            <path id="Trazado_189221" data-name="Trazado 189221" d="M4566.976,8520.731a1.017,1.017,0,0,0,.669.272c.3,0,.45-.159.45-.356,0-.233-.271-.335-.52-.431-.324-.117-.68-.271-.68-.655,0-.366.29-.647.782-.647a1.139,1.139,0,0,1,.708.258l-.184.244a.846.846,0,0,0-.519-.2c-.287,0-.417.154-.417.327,0,.213.247.295.507.395.327.123.692.258.692.689,0,.37-.3.68-.835.68a1.392,1.392,0,0,1-.847-.312Z" transform="translate(-4560.919 -8518.914)" fill="#fff"/>
            <path id="Trazado_189222" data-name="Trazado 189222" d="M4569.876,8520.859a.3.3,0,1,1-.281.3A.284.284,0,0,1,4569.876,8520.859Z" transform="translate(-4561.126 -8519.059)" fill="#fff"/>
            <path id="Trazado_189223" data-name="Trazado 189223" d="M4571.641,8520.859a.3.3,0,1,1-.281.3A.282.282,0,0,1,4571.641,8520.859Z" transform="translate(-4561.256 -8519.059)" fill="#fff"/>
          </g>
        </g>
      </g>
    </g>
  </g>
</svg>
